<svg width="68" height="64" viewBox="0 0 68 64" fill="none" xmlns="http://www.w3.org/2000/svg">
<g clip-path="url(#clip0_2413_166991)">
<path d="M44.0456 44.4771C43.7979 19.2093 29.8022 3.35873 28.4394 4.05734C27.0765 4.75596 28.6871 10.6649 29.3066 13.3912C28.9349 8.8086 23.6089 1.12936 24.1045 5.21711C24.6001 9.30486 24.2009 45.5578 24.2009 45.5578C24.2009 45.5578 24.83 44.2906 25.5809 44.1695C26.3318 44.0483 27.3704 43.8797 28.9336 44.1729C30.4967 44.4661 32.1238 44.9589 32.1238 44.9589C32.1238 44.9589 33.1714 45.2067 33.3448 45.215C33.5183 45.2232 35.3732 45.1324 36.0876 45.034C36.8021 44.9355 38.8676 44.5412 39.2035 44.4482C39.5394 44.3553 41.1259 43.8288 41.3489 43.7964C41.5719 43.7641 42.987 43.4523 44.0456 44.4758" fill="#FFE0AB"/>
<path d="M44.0456 44.4771C43.7979 19.2093 29.8022 3.35873 28.4394 4.05734C27.0765 4.75596 28.6871 10.6649 29.3066 13.3912C28.9349 8.8086 23.6089 1.12936 24.1045 5.21711C24.6001 9.30486 24.2009 45.5578 24.2009 45.5578C24.2009 45.5578 24.83 44.2906 25.5809 44.1695C26.3318 44.0483 27.3704 43.8797 28.9336 44.1729C30.4967 44.4661 32.1238 44.9589 32.1238 44.9589C32.1238 44.9589 33.1714 45.2067 33.3448 45.215C33.5183 45.2232 35.3732 45.1324 36.0876 45.034C36.8021 44.9355 38.8676 44.5412 39.2035 44.4482C39.5394 44.3553 41.1259 43.8288 41.3489 43.7964C41.5719 43.7641 42.987 43.4523 44.0456 44.4758" stroke="#00212E" stroke-width="0.0688289" stroke-miterlimit="10"/>
<path d="M30.0502 58.7257C30.0502 58.7257 28.0686 59.593 26.8297 59.3452C25.5908 59.0974 23.2382 58.1063 23.113 56.1254C22.9877 54.1445 22.6174 44.6061 25.8379 44.1106C29.0584 43.615 32.1543 45.2256 33.5165 45.2256C34.8786 45.2256 38.223 44.9124 40.5762 44.0163C42.9295 43.1201 45.7783 44.2345 45.0357 49.1888C44.293 54.1431 44.2097 60.9971 37.1892 60.6667C35.2902 60.6667 34.6294 60.3363 34.6294 60.3363L30.0502 58.7257Z" fill="#FFE0AB" stroke="#00212E" stroke-width="0.0688289" stroke-miterlimit="10"/>
<path d="M32.651 58.5995C32.651 58.5995 28.0684 57.98 30.7927 59.9616C33.5169 61.9432 36.118 60.6134 34.5493 59.2348C34.55 59.2348 33.3896 58.669 32.651 58.5995Z" fill="#FFE0AB" stroke="#00212E" stroke-width="0.0688289" stroke-miterlimit="10"/>
</g>
<defs>
<clipPath id="clip0_2413_166991">
<rect width="22.1911" height="57" fill="white" transform="translate(23 4)"/>
</clipPath>
</defs>
</svg>
