<svg width="917" height="229" viewBox="0 0 917 229" fill="none" xmlns="http://www.w3.org/2000/svg">
<path d="M122.142 84.1288C58.125 84.1288 1 116.582 1 116.582V192.405H915V42.857C915 42.857 885.295 20.0453 838.321 12.6581C753.654 -0.656885 741.837 96.549 667.458 96.549C612.826 96.5491 609.052 35.8106 536.207 30.2742C463.362 24.7377 430.503 164.218 313.072 162.646C225.103 161.468 171.613 84.1288 122.142 84.1288Z" fill="url(#paint0_linear_3644_71411)"/>
<path d="M2.52315 116.166C2.52315 116.166 58.1248 84.0077 122.142 84.0077C175.421 84.0077 225.103 161.218 313.072 162.394C430.503 163.964 463.362 24.7155 536.207 30.2427C609.052 35.7699 612.826 96.4073 667.458 96.4072C741.836 96.4072 753.654 -0.636793 838.321 12.656C885.295 20.031 915 42.8046 915 42.8046" stroke="#0083B7" stroke-width="4" stroke-linecap="round"/>
<g filter="url(#filter0_d_3644_71411)">
<ellipse cx="571.491" cy="33.4053" rx="13.1729" ry="13" fill="#00A4E5"/>
<path d="M581.664 33.4053C581.664 38.8909 577.147 43.4053 571.491 43.4053C565.835 43.4053 561.318 38.8909 561.318 33.4053C561.318 27.9197 565.835 23.4053 571.491 23.4053C577.147 23.4053 581.664 27.9197 581.664 33.4053Z" stroke="white" stroke-width="6"/>
</g>
<path d="M38.6215 210.237V218.365C38.6215 218.856 38.5415 219.299 38.3815 219.693C38.2215 220.088 37.9922 220.429 37.6935 220.717C37.4055 220.995 37.0482 221.213 36.6215 221.373C36.2055 221.523 35.7415 221.597 35.2295 221.597C34.2588 221.597 33.4908 221.341 32.9255 220.829C32.3708 220.307 32.0188 219.629 31.8695 218.797L33.5335 218.429C33.6295 218.909 33.8108 219.288 34.0775 219.565C34.3548 219.843 34.7388 219.981 35.2295 219.981C35.7095 219.981 36.0935 219.832 36.3815 219.533C36.6695 219.235 36.8135 218.781 36.8135 218.173V211.741H33.1655V210.237H38.6215ZM47.2815 221.405C46.8228 221.405 46.4708 221.277 46.2255 221.021C45.9802 220.755 45.8308 220.419 45.7775 220.013H45.6975C45.5375 220.536 45.2442 220.931 44.8175 221.197C44.3908 221.464 43.8735 221.597 43.2655 221.597C42.4015 221.597 41.7348 221.373 41.2655 220.925C40.8068 220.477 40.5775 219.875 40.5775 219.117C40.5775 218.285 40.8762 217.661 41.4735 217.245C42.0815 216.829 42.9668 216.621 44.1295 216.621H45.6335V215.917C45.6335 215.405 45.4948 215.011 45.2175 214.733C44.9402 214.456 44.5082 214.317 43.9215 214.317C43.4308 214.317 43.0308 214.424 42.7215 214.637C42.4122 214.851 42.1508 215.123 41.9375 215.453L40.8975 214.509C41.1748 214.04 41.5642 213.656 42.0655 213.357C42.5668 213.048 43.2228 212.893 44.0335 212.893C45.1108 212.893 45.9375 213.144 46.5135 213.645C47.0895 214.147 47.3775 214.867 47.3775 215.805V219.981H48.2575V221.405H47.2815ZM43.7615 220.269C44.3055 220.269 44.7535 220.152 45.1055 219.917C45.4575 219.672 45.6335 219.347 45.6335 218.941V217.741H44.1615C42.9562 217.741 42.3535 218.115 42.3535 218.861V219.149C42.3535 219.523 42.4762 219.805 42.7215 219.997C42.9775 220.179 43.3242 220.269 43.7615 220.269ZM49.9668 221.405V213.085H51.7108V214.461H51.7908C51.9721 214.013 52.2441 213.64 52.6068 213.341C52.9801 213.043 53.4868 212.893 54.1268 212.893C54.9801 212.893 55.6414 213.176 56.1108 213.741C56.5908 214.296 56.8308 215.091 56.8308 216.125V221.405H55.0868V216.349C55.0868 215.048 54.5641 214.397 53.5188 214.397C53.2948 214.397 53.0708 214.429 52.8468 214.493C52.6334 214.547 52.4414 214.632 52.2708 214.749C52.1001 214.867 51.9614 215.016 51.8548 215.197C51.7588 215.379 51.7108 215.592 51.7108 215.837V221.405H49.9668Z" fill="#8E8E8E"/>
<path d="M107.89 221.405V210.237H114.866V211.837H109.698V214.941H114.29V216.541H109.698V221.405H107.89ZM119.698 221.597C119.101 221.597 118.567 221.496 118.098 221.293C117.629 221.091 117.229 220.803 116.898 220.429C116.567 220.045 116.311 219.587 116.13 219.053C115.959 218.509 115.874 217.907 115.874 217.245C115.874 216.584 115.959 215.987 116.13 215.453C116.311 214.909 116.567 214.451 116.898 214.077C117.229 213.693 117.629 213.4 118.098 213.197C118.567 212.995 119.101 212.893 119.698 212.893C120.306 212.893 120.839 213 121.298 213.213C121.767 213.427 122.157 213.725 122.466 214.109C122.775 214.483 123.005 214.92 123.154 215.421C123.314 215.923 123.394 216.461 123.394 217.037V217.693H117.682V217.965C117.682 218.605 117.869 219.133 118.242 219.549C118.626 219.955 119.17 220.157 119.874 220.157C120.386 220.157 120.818 220.045 121.17 219.821C121.522 219.597 121.821 219.293 122.066 218.909L123.09 219.917C122.781 220.429 122.333 220.84 121.746 221.149C121.159 221.448 120.477 221.597 119.698 221.597ZM119.698 214.253C119.399 214.253 119.122 214.307 118.866 214.413C118.621 214.52 118.407 214.669 118.226 214.861C118.055 215.053 117.922 215.283 117.826 215.549C117.73 215.816 117.682 216.109 117.682 216.429V216.541H121.554V216.381C121.554 215.741 121.389 215.229 121.058 214.845C120.727 214.451 120.274 214.253 119.698 214.253ZM125.325 209.565H127.069V214.461H127.149C127.33 213.96 127.623 213.576 128.029 213.309C128.445 213.032 128.93 212.893 129.485 212.893C130.541 212.893 131.357 213.277 131.933 214.045C132.509 214.803 132.797 215.869 132.797 217.245C132.797 218.621 132.509 219.693 131.933 220.461C131.357 221.219 130.541 221.597 129.485 221.597C128.93 221.597 128.445 221.459 128.029 221.181C127.623 220.904 127.33 220.52 127.149 220.029H127.069V221.405H125.325V209.565ZM128.957 220.093C129.565 220.093 130.05 219.901 130.413 219.517C130.775 219.123 130.957 218.605 130.957 217.965V216.525C130.957 215.885 130.775 215.373 130.413 214.989C130.05 214.595 129.565 214.397 128.957 214.397C128.423 214.397 127.975 214.531 127.613 214.797C127.25 215.053 127.069 215.395 127.069 215.821V218.669C127.069 219.096 127.25 219.443 127.613 219.709C127.975 219.965 128.423 220.093 128.957 220.093Z" fill="#8E8E8E"/>
<path d="M191.073 212.861H190.993L190.113 214.669L187.665 219.133L185.217 214.669L184.337 212.861H184.257V221.405H182.529V210.237H184.673L187.665 215.917H187.761L190.753 210.237H192.801V221.405H191.073V212.861ZM201.529 221.405C201.07 221.405 200.718 221.277 200.473 221.021C200.227 220.755 200.078 220.419 200.025 220.013H199.945C199.785 220.536 199.491 220.931 199.065 221.197C198.638 221.464 198.121 221.597 197.513 221.597C196.649 221.597 195.982 221.373 195.513 220.925C195.054 220.477 194.825 219.875 194.825 219.117C194.825 218.285 195.123 217.661 195.721 217.245C196.329 216.829 197.214 216.621 198.377 216.621H199.881V215.917C199.881 215.405 199.742 215.011 199.465 214.733C199.187 214.456 198.755 214.317 198.169 214.317C197.678 214.317 197.278 214.424 196.969 214.637C196.659 214.851 196.398 215.123 196.185 215.453L195.145 214.509C195.422 214.04 195.811 213.656 196.313 213.357C196.814 213.048 197.47 212.893 198.281 212.893C199.358 212.893 200.185 213.144 200.761 213.645C201.337 214.147 201.625 214.867 201.625 215.805V219.981H202.505V221.405H201.529ZM198.009 220.269C198.553 220.269 199.001 220.152 199.353 219.917C199.705 219.672 199.881 219.347 199.881 218.941V217.741H198.409C197.203 217.741 196.601 218.115 196.601 218.861V219.149C196.601 219.523 196.723 219.805 196.969 219.997C197.225 220.179 197.571 220.269 198.009 220.269ZM204.214 221.405V213.085H205.958V214.685H206.038C206.155 214.259 206.401 213.885 206.774 213.565C207.147 213.245 207.665 213.085 208.326 213.085H208.79V214.765H208.102C207.409 214.765 206.875 214.877 206.502 215.101C206.139 215.325 205.958 215.656 205.958 216.093V221.405H204.214Z" fill="#8E8E8E"/>
<path d="M265.801 221.405L264.793 218.381H260.617L259.641 221.405H257.801L261.609 210.237H263.881L267.689 221.405H265.801ZM262.745 211.901H262.665L261.049 216.829H264.345L262.745 211.901ZM269.291 213.085H271.035V214.461H271.115C271.296 213.96 271.589 213.576 271.995 213.309C272.411 213.032 272.896 212.893 273.451 212.893C274.507 212.893 275.323 213.277 275.899 214.045C276.475 214.803 276.763 215.869 276.763 217.245C276.763 218.621 276.475 219.693 275.899 220.461C275.323 221.219 274.507 221.597 273.451 221.597C272.896 221.597 272.411 221.459 271.995 221.181C271.589 220.904 271.296 220.52 271.115 220.029H271.035V224.605H269.291V213.085ZM272.923 220.093C273.531 220.093 274.016 219.901 274.379 219.517C274.741 219.123 274.923 218.605 274.923 217.965V216.525C274.923 215.885 274.741 215.373 274.379 214.989C274.016 214.595 273.531 214.397 272.923 214.397C272.389 214.397 271.941 214.531 271.579 214.797C271.216 215.053 271.035 215.395 271.035 215.821V218.669C271.035 219.096 271.216 219.443 271.579 219.709C271.941 219.965 272.389 220.093 272.923 220.093ZM278.759 221.405V213.085H280.503V214.685H280.583C280.701 214.259 280.946 213.885 281.319 213.565C281.693 213.245 282.21 213.085 282.871 213.085H283.335V214.765H282.647C281.954 214.765 281.421 214.877 281.047 215.101C280.685 215.325 280.503 215.656 280.503 216.093V221.405H278.759Z" fill="#8E8E8E"/>
<path d="M341.18 212.861H341.1L340.22 214.669L337.772 219.133L335.324 214.669L334.444 212.861H334.364V221.405H332.636V210.237H334.78L337.772 215.917H337.868L340.86 210.237H342.908V221.405H341.18V212.861ZM351.635 221.405C351.177 221.405 350.825 221.277 350.579 221.021C350.334 220.755 350.185 220.419 350.131 220.013H350.051C349.891 220.536 349.598 220.931 349.171 221.197C348.745 221.464 348.227 221.597 347.619 221.597C346.755 221.597 346.089 221.373 345.619 220.925C345.161 220.477 344.931 219.875 344.931 219.117C344.931 218.285 345.23 217.661 345.827 217.245C346.435 216.829 347.321 216.621 348.483 216.621H349.987V215.917C349.987 215.405 349.849 215.011 349.571 214.733C349.294 214.456 348.862 214.317 348.275 214.317C347.785 214.317 347.385 214.424 347.075 214.637C346.766 214.851 346.505 215.123 346.291 215.453L345.251 214.509C345.529 214.04 345.918 213.656 346.419 213.357C346.921 213.048 347.577 212.893 348.387 212.893C349.465 212.893 350.291 213.144 350.867 213.645C351.443 214.147 351.731 214.867 351.731 215.805V219.981H352.611V221.405H351.635ZM348.115 220.269C348.659 220.269 349.107 220.152 349.459 219.917C349.811 219.672 349.987 219.347 349.987 218.941V217.741H348.515C347.31 217.741 346.707 218.115 346.707 218.861V219.149C346.707 219.523 346.83 219.805 347.075 219.997C347.331 220.179 347.678 220.269 348.115 220.269ZM359.315 213.085H360.995L357.491 223.053C357.395 223.331 357.283 223.565 357.155 223.757C357.038 223.96 356.894 224.12 356.723 224.237C356.563 224.365 356.366 224.456 356.131 224.509C355.896 224.573 355.619 224.605 355.299 224.605H354.291V223.181H355.699L356.179 221.773L353.155 213.085H354.899L356.563 217.981L357.043 219.789H357.123L357.651 217.981L359.315 213.085Z" fill="#8E8E8E"/>
<path d="M416.849 210.237V218.365C416.849 218.856 416.769 219.299 416.609 219.693C416.449 220.088 416.219 220.429 415.921 220.717C415.633 220.995 415.275 221.213 414.849 221.373C414.433 221.523 413.969 221.597 413.457 221.597C412.486 221.597 411.718 221.341 411.153 220.829C410.598 220.307 410.246 219.629 410.097 218.797L411.761 218.429C411.857 218.909 412.038 219.288 412.305 219.565C412.582 219.843 412.966 219.981 413.457 219.981C413.937 219.981 414.321 219.832 414.609 219.533C414.897 219.235 415.041 218.781 415.041 218.173V211.741H411.393V210.237H416.849ZM424.453 220.029H424.389C424.314 220.232 424.213 220.429 424.085 220.621C423.967 220.813 423.813 220.984 423.621 221.133C423.439 221.272 423.215 221.384 422.949 221.469C422.693 221.555 422.394 221.597 422.053 221.597C421.189 221.597 420.517 221.32 420.037 220.765C419.567 220.211 419.333 219.416 419.333 218.381V213.085H421.077V218.157C421.077 219.448 421.61 220.093 422.677 220.093C422.901 220.093 423.119 220.067 423.333 220.013C423.546 219.949 423.733 219.859 423.893 219.741C424.063 219.624 424.197 219.475 424.293 219.293C424.399 219.112 424.453 218.899 424.453 218.653V213.085H426.197V221.405H424.453V220.029ZM428.694 221.405V213.085H430.438V214.461H430.518C430.699 214.013 430.971 213.64 431.334 213.341C431.707 213.043 432.214 212.893 432.854 212.893C433.707 212.893 434.369 213.176 434.838 213.741C435.318 214.296 435.558 215.091 435.558 216.125V221.405H433.814V216.349C433.814 215.048 433.291 214.397 432.246 214.397C432.022 214.397 431.798 214.429 431.574 214.493C431.361 214.547 431.169 214.632 430.998 214.749C430.827 214.867 430.689 215.016 430.582 215.197C430.486 215.379 430.438 215.592 430.438 215.837V221.405H428.694Z" fill="#8E8E8E"/>
<path d="M492.113 210.237V218.365C492.113 218.856 492.033 219.299 491.873 219.693C491.713 220.088 491.484 220.429 491.185 220.717C490.897 220.995 490.54 221.213 490.113 221.373C489.697 221.523 489.233 221.597 488.721 221.597C487.75 221.597 486.982 221.341 486.417 220.829C485.862 220.307 485.51 219.629 485.361 218.797L487.025 218.429C487.121 218.909 487.302 219.288 487.569 219.565C487.846 219.843 488.23 219.981 488.721 219.981C489.201 219.981 489.585 219.832 489.873 219.533C490.161 219.235 490.305 218.781 490.305 218.173V211.741H486.657V210.237H492.113ZM499.717 220.029H499.653C499.578 220.232 499.477 220.429 499.349 220.621C499.232 220.813 499.077 220.984 498.885 221.133C498.704 221.272 498.48 221.384 498.213 221.469C497.957 221.555 497.658 221.597 497.317 221.597C496.453 221.597 495.781 221.32 495.301 220.765C494.832 220.211 494.597 219.416 494.597 218.381V213.085H496.341V218.157C496.341 219.448 496.874 220.093 497.941 220.093C498.165 220.093 498.384 220.067 498.597 220.013C498.81 219.949 498.997 219.859 499.157 219.741C499.328 219.624 499.461 219.475 499.557 219.293C499.664 219.112 499.717 218.899 499.717 218.653V213.085H501.461V221.405H499.717V220.029ZM505.734 221.405C505.137 221.405 504.689 221.256 504.39 220.957C504.102 220.648 503.958 220.221 503.958 219.677V209.565H505.702V219.981H506.854V221.405H505.734Z" fill="#8E8E8E"/>
<path d="M563.701 221.405L562.693 218.381H558.517L557.541 221.405H555.701L559.509 210.237H561.781L565.589 221.405H563.701ZM560.645 211.901H560.565L558.949 216.829H562.245L560.645 211.901ZM572.231 220.029H572.167C572.093 220.232 571.991 220.429 571.863 220.621C571.746 220.813 571.591 220.984 571.399 221.133C571.218 221.272 570.994 221.384 570.727 221.469C570.471 221.555 570.173 221.597 569.831 221.597C568.967 221.597 568.295 221.32 567.815 220.765C567.346 220.211 567.111 219.416 567.111 218.381V213.085H568.855V218.157C568.855 219.448 569.389 220.093 570.455 220.093C570.679 220.093 570.898 220.067 571.111 220.013C571.325 219.949 571.511 219.859 571.671 219.741C571.842 219.624 571.975 219.475 572.071 219.293C572.178 219.112 572.231 218.899 572.231 218.653V213.085H573.975V221.405H572.231V220.029ZM583.768 222.189C583.768 223.053 583.438 223.704 582.776 224.141C582.115 224.579 581.038 224.797 579.544 224.797C578.862 224.797 578.28 224.749 577.8 224.653C577.331 224.568 576.942 224.44 576.632 224.269C576.334 224.099 576.115 223.891 575.976 223.645C575.838 223.4 575.768 223.117 575.768 222.797C575.768 222.339 575.891 221.981 576.136 221.725C576.392 221.469 576.744 221.293 577.192 221.197V221.021C576.563 220.819 576.248 220.392 576.248 219.741C576.248 219.315 576.392 218.989 576.68 218.765C576.968 218.531 577.315 218.365 577.72 218.269V218.205C577.23 217.971 576.851 217.645 576.584 217.229C576.328 216.803 576.2 216.307 576.2 215.741C576.2 214.888 576.483 214.2 577.048 213.677C577.624 213.155 578.446 212.893 579.512 212.893C580.099 212.893 580.6 212.979 581.016 213.149V212.925C581.016 212.552 581.102 212.264 581.272 212.061C581.454 211.848 581.731 211.741 582.104 211.741H583.384V213.149H581.688V213.485C582.062 213.731 582.35 214.051 582.552 214.445C582.755 214.829 582.856 215.261 582.856 215.741C582.856 216.584 582.568 217.267 581.992 217.789C581.416 218.301 580.595 218.557 579.528 218.557C579.123 218.557 578.76 218.515 578.44 218.429C578.227 218.504 578.04 218.611 577.88 218.749C577.72 218.877 577.64 219.048 577.64 219.261C577.64 219.485 577.742 219.645 577.944 219.741C578.147 219.837 578.435 219.885 578.808 219.885H580.856C581.88 219.885 582.622 220.093 583.08 220.509C583.539 220.915 583.768 221.475 583.768 222.189ZM582.136 222.381C582.136 222.093 582.024 221.864 581.8 221.693C581.587 221.523 581.192 221.437 580.616 221.437H577.8C577.416 221.661 577.224 221.981 577.224 222.397C577.224 222.739 577.358 223.011 577.624 223.213C577.902 223.427 578.366 223.533 579.016 223.533H580.104C581.459 223.533 582.136 223.149 582.136 222.381ZM579.528 217.293C580.04 217.293 580.435 217.181 580.712 216.957C581 216.723 581.144 216.365 581.144 215.885V215.565C581.144 215.085 581 214.733 580.712 214.509C580.435 214.275 580.04 214.157 579.528 214.157C579.016 214.157 578.616 214.275 578.328 214.509C578.051 214.733 577.912 215.085 577.912 215.565V215.885C577.912 216.365 578.051 216.723 578.328 216.957C578.616 217.181 579.016 217.293 579.528 217.293Z" fill="#00A4E5"/>
<path d="M636.162 221.597C635.223 221.597 634.423 221.427 633.762 221.085C633.111 220.744 632.551 220.285 632.082 219.709L633.33 218.541C633.725 219.021 634.157 219.384 634.626 219.629C635.106 219.875 635.65 219.997 636.258 219.997C636.973 219.997 637.511 219.837 637.874 219.517C638.237 219.197 638.418 218.765 638.418 218.221C638.418 217.784 638.29 217.437 638.034 217.181C637.778 216.925 637.325 216.733 636.674 216.605L635.682 216.429C634.594 216.227 633.778 215.869 633.234 215.357C632.69 214.845 632.418 214.141 632.418 213.245C632.418 212.755 632.509 212.312 632.69 211.917C632.882 211.512 633.143 211.176 633.474 210.909C633.815 210.632 634.226 210.419 634.706 210.269C635.186 210.12 635.725 210.045 636.322 210.045C637.165 210.045 637.895 210.195 638.514 210.493C639.133 210.781 639.661 211.203 640.098 211.757L638.834 212.877C638.546 212.504 638.194 212.205 637.778 211.981C637.362 211.757 636.845 211.645 636.226 211.645C635.586 211.645 635.09 211.773 634.738 212.029C634.386 212.285 634.21 212.659 634.21 213.149C634.21 213.619 634.354 213.971 634.642 214.205C634.93 214.429 635.378 214.6 635.986 214.717L636.978 214.925C638.098 215.139 638.914 215.501 639.426 216.013C639.949 216.525 640.21 217.229 640.21 218.125C640.21 218.648 640.119 219.123 639.938 219.549C639.757 219.976 639.49 220.344 639.138 220.653C638.797 220.952 638.375 221.187 637.874 221.357C637.373 221.517 636.802 221.597 636.162 221.597ZM645.516 221.597C644.919 221.597 644.386 221.496 643.916 221.293C643.447 221.091 643.047 220.803 642.716 220.429C642.386 220.045 642.13 219.587 641.948 219.053C641.778 218.509 641.692 217.907 641.692 217.245C641.692 216.584 641.778 215.987 641.948 215.453C642.13 214.909 642.386 214.451 642.716 214.077C643.047 213.693 643.447 213.4 643.916 213.197C644.386 212.995 644.919 212.893 645.516 212.893C646.124 212.893 646.658 213 647.116 213.213C647.586 213.427 647.975 213.725 648.284 214.109C648.594 214.483 648.823 214.92 648.972 215.421C649.132 215.923 649.212 216.461 649.212 217.037V217.693H643.5V217.965C643.5 218.605 643.687 219.133 644.06 219.549C644.444 219.955 644.988 220.157 645.692 220.157C646.204 220.157 646.636 220.045 646.988 219.821C647.34 219.597 647.639 219.293 647.884 218.909L648.908 219.917C648.599 220.429 648.151 220.84 647.564 221.149C646.978 221.448 646.295 221.597 645.516 221.597ZM645.516 214.253C645.218 214.253 644.94 214.307 644.684 214.413C644.439 214.52 644.226 214.669 644.044 214.861C643.874 215.053 643.74 215.283 643.644 215.549C643.548 215.816 643.5 216.109 643.5 216.429V216.541H647.372V216.381C647.372 215.741 647.207 215.229 646.876 214.845C646.546 214.451 646.092 214.253 645.516 214.253ZM651.143 213.085H652.887V214.461H652.967C653.148 213.96 653.442 213.576 653.847 213.309C654.263 213.032 654.748 212.893 655.303 212.893C656.359 212.893 657.175 213.277 657.751 214.045C658.327 214.803 658.615 215.869 658.615 217.245C658.615 218.621 658.327 219.693 657.751 220.461C657.175 221.219 656.359 221.597 655.303 221.597C654.748 221.597 654.263 221.459 653.847 221.181C653.442 220.904 653.148 220.52 652.967 220.029H652.887V224.605H651.143V213.085ZM654.775 220.093C655.383 220.093 655.868 219.901 656.231 219.517C656.594 219.123 656.775 218.605 656.775 217.965V216.525C656.775 215.885 656.594 215.373 656.231 214.989C655.868 214.595 655.383 214.397 654.775 214.397C654.242 214.397 653.794 214.531 653.431 214.797C653.068 215.053 652.887 215.395 652.887 215.821V218.669C652.887 219.096 653.068 219.443 653.431 219.709C653.794 219.965 654.242 220.093 654.775 220.093Z" fill="#8E8E8E"/>
<path d="M713.215 221.597C712.489 221.597 711.828 221.475 711.231 221.229C710.644 220.973 710.137 220.605 709.711 220.125C709.295 219.635 708.969 219.032 708.735 218.317C708.511 217.592 708.399 216.76 708.399 215.821C708.399 214.883 708.511 214.056 708.735 213.341C708.969 212.616 709.295 212.013 709.711 211.533C710.137 211.043 710.644 210.675 711.231 210.429C711.828 210.173 712.489 210.045 713.215 210.045C713.94 210.045 714.596 210.173 715.183 210.429C715.78 210.675 716.287 211.043 716.703 211.533C717.129 212.013 717.455 212.616 717.679 213.341C717.913 214.056 718.031 214.883 718.031 215.821C718.031 216.76 717.913 217.592 717.679 218.317C717.455 219.032 717.129 219.635 716.703 220.125C716.287 220.605 715.78 220.973 715.183 221.229C714.596 221.475 713.94 221.597 713.215 221.597ZM713.215 219.981C713.641 219.981 714.031 219.907 714.383 219.757C714.745 219.608 715.049 219.395 715.295 219.117C715.551 218.829 715.748 218.483 715.887 218.077C716.025 217.672 716.095 217.213 716.095 216.701V214.941C716.095 214.429 716.025 213.971 715.887 213.565C715.748 213.16 715.551 212.819 715.295 212.541C715.049 212.253 714.745 212.035 714.383 211.885C714.031 211.736 713.641 211.661 713.215 211.661C712.777 211.661 712.383 211.736 712.031 211.885C711.679 212.035 711.375 212.253 711.119 212.541C710.873 212.819 710.681 213.16 710.543 213.565C710.404 213.971 710.335 214.429 710.335 214.941V216.701C710.335 217.213 710.404 217.672 710.543 218.077C710.681 218.483 710.873 218.829 711.119 219.117C711.375 219.395 711.679 219.608 712.031 219.757C712.383 219.907 712.777 219.981 713.215 219.981ZM723.373 221.597C722.776 221.597 722.243 221.496 721.773 221.293C721.304 221.091 720.909 220.803 720.589 220.429C720.269 220.045 720.024 219.587 719.853 219.053C719.683 218.509 719.597 217.907 719.597 217.245C719.597 216.584 719.683 215.987 719.853 215.453C720.024 214.909 720.269 214.451 720.589 214.077C720.909 213.693 721.304 213.4 721.773 213.197C722.243 212.995 722.776 212.893 723.373 212.893C724.205 212.893 724.888 213.08 725.421 213.453C725.955 213.827 726.344 214.323 726.589 214.941L725.149 215.613C725.032 215.229 724.824 214.925 724.525 214.701C724.237 214.467 723.853 214.349 723.373 214.349C722.733 214.349 722.248 214.552 721.917 214.957C721.597 215.352 721.437 215.869 721.437 216.509V217.997C721.437 218.637 721.597 219.16 721.917 219.565C722.248 219.96 722.733 220.157 723.373 220.157C723.885 220.157 724.291 220.035 724.589 219.789C724.899 219.533 725.144 219.197 725.325 218.781L726.653 219.485C726.376 220.168 725.96 220.691 725.405 221.053C724.851 221.416 724.173 221.597 723.373 221.597ZM730.617 221.405C730.009 221.405 729.551 221.251 729.241 220.941C728.932 220.621 728.777 220.173 728.777 219.597V214.509H727.481V213.085H728.185C728.473 213.085 728.671 213.021 728.777 212.893C728.895 212.765 728.953 212.557 728.953 212.269V210.813H730.521V213.085H732.265V214.509H730.521V219.981H732.137V221.405H730.617Z" fill="#8E8E8E"/>
<path d="M785.323 215.229L784.091 212.861H784.043V221.405H782.315V210.237H784.331L787.979 216.413L789.211 218.781H789.259V210.237H790.987V221.405H788.971L785.323 215.229ZM796.873 221.597C796.297 221.597 795.769 221.496 795.289 221.293C794.82 221.091 794.42 220.803 794.089 220.429C793.758 220.045 793.502 219.587 793.321 219.053C793.14 218.509 793.049 217.907 793.049 217.245C793.049 216.584 793.14 215.987 793.321 215.453C793.502 214.909 793.758 214.451 794.089 214.077C794.42 213.693 794.82 213.4 795.289 213.197C795.769 212.995 796.297 212.893 796.873 212.893C797.449 212.893 797.972 212.995 798.441 213.197C798.921 213.4 799.326 213.693 799.657 214.077C799.988 214.451 800.244 214.909 800.425 215.453C800.606 215.987 800.697 216.584 800.697 217.245C800.697 217.907 800.606 218.509 800.425 219.053C800.244 219.587 799.988 220.045 799.657 220.429C799.326 220.803 798.921 221.091 798.441 221.293C797.972 221.496 797.449 221.597 796.873 221.597ZM796.873 220.157C797.47 220.157 797.95 219.976 798.313 219.613C798.676 219.24 798.857 218.685 798.857 217.949V216.541C798.857 215.805 798.676 215.256 798.313 214.893C797.95 214.52 797.47 214.333 796.873 214.333C796.276 214.333 795.796 214.52 795.433 214.893C795.07 215.256 794.889 215.805 794.889 216.541V217.949C794.889 218.685 795.07 219.24 795.433 219.613C795.796 219.976 796.276 220.157 796.873 220.157ZM804.323 221.405L801.491 213.085H803.219L804.483 216.877L805.331 219.789H805.427L806.275 216.877L807.571 213.085H809.235L806.371 221.405H804.323Z" fill="#8E8E8E"/>
<path d="M858.407 210.237H862.359C863.074 210.237 863.719 210.355 864.295 210.589C864.882 210.824 865.378 211.176 865.783 211.645C866.199 212.104 866.519 212.685 866.743 213.389C866.967 214.083 867.079 214.893 867.079 215.821C867.079 216.749 866.967 217.565 866.743 218.269C866.519 218.963 866.199 219.544 865.783 220.013C865.378 220.472 864.882 220.819 864.295 221.053C863.719 221.288 863.074 221.405 862.359 221.405H858.407V210.237ZM862.359 219.805C863.191 219.805 863.863 219.544 864.375 219.021C864.887 218.499 865.143 217.731 865.143 216.717V214.925C865.143 213.912 864.887 213.144 864.375 212.621C863.863 212.099 863.191 211.837 862.359 211.837H860.215V219.805H862.359ZM872.465 221.597C871.868 221.597 871.335 221.496 870.865 221.293C870.396 221.091 869.996 220.803 869.665 220.429C869.335 220.045 869.079 219.587 868.897 219.053C868.727 218.509 868.641 217.907 868.641 217.245C868.641 216.584 868.727 215.987 868.897 215.453C869.079 214.909 869.335 214.451 869.665 214.077C869.996 213.693 870.396 213.4 870.865 213.197C871.335 212.995 871.868 212.893 872.465 212.893C873.073 212.893 873.607 213 874.065 213.213C874.535 213.427 874.924 213.725 875.233 214.109C875.543 214.483 875.772 214.92 875.921 215.421C876.081 215.923 876.161 216.461 876.161 217.037V217.693H870.449V217.965C870.449 218.605 870.636 219.133 871.009 219.549C871.393 219.955 871.937 220.157 872.641 220.157C873.153 220.157 873.585 220.045 873.937 219.821C874.289 219.597 874.588 219.293 874.833 218.909L875.857 219.917C875.548 220.429 875.1 220.84 874.513 221.149C873.927 221.448 873.244 221.597 872.465 221.597ZM872.465 214.253C872.167 214.253 871.889 214.307 871.633 214.413C871.388 214.52 871.175 214.669 870.993 214.861C870.823 215.053 870.689 215.283 870.593 215.549C870.497 215.816 870.449 216.109 870.449 216.429V216.541H874.321V216.381C874.321 215.741 874.156 215.229 873.825 214.845C873.495 214.451 873.041 214.253 872.465 214.253ZM881.308 221.597C880.711 221.597 880.177 221.496 879.708 221.293C879.239 221.091 878.844 220.803 878.524 220.429C878.204 220.045 877.959 219.587 877.788 219.053C877.617 218.509 877.532 217.907 877.532 217.245C877.532 216.584 877.617 215.987 877.788 215.453C877.959 214.909 878.204 214.451 878.524 214.077C878.844 213.693 879.239 213.4 879.708 213.197C880.177 212.995 880.711 212.893 881.308 212.893C882.14 212.893 882.823 213.08 883.356 213.453C883.889 213.827 884.279 214.323 884.524 214.941L883.084 215.613C882.967 215.229 882.759 214.925 882.46 214.701C882.172 214.467 881.788 214.349 881.308 214.349C880.668 214.349 880.183 214.552 879.852 214.957C879.532 215.352 879.372 215.869 879.372 216.509V217.997C879.372 218.637 879.532 219.16 879.852 219.565C880.183 219.96 880.668 220.157 881.308 220.157C881.82 220.157 882.225 220.035 882.524 219.789C882.833 219.533 883.079 219.197 883.26 218.781L884.588 219.485C884.311 220.168 883.895 220.691 883.34 221.053C882.785 221.416 882.108 221.597 881.308 221.597Z" fill="#8E8E8E"/>
<defs>
<filter id="filter0_d_3644_71411" x="533.318" y="0.405273" width="76.3459" height="76" filterUnits="userSpaceOnUse" color-interpolation-filters="sRGB">
<feFlood flood-opacity="0" result="BackgroundImageFix"/>
<feColorMatrix in="SourceAlpha" type="matrix" values="0 0 0 0 0 0 0 0 0 0 0 0 0 0 0 0 0 0 127 0" result="hardAlpha"/>
<feOffset dy="5"/>
<feGaussianBlur stdDeviation="12.5"/>
<feColorMatrix type="matrix" values="0 0 0 0 0 0 0 0 0 0 0 0 0 0 0 0 0 0 0.1 0"/>
<feBlend mode="normal" in2="BackgroundImageFix" result="effect1_dropShadow_3644_71411"/>
<feBlend mode="normal" in="SourceGraphic" in2="effect1_dropShadow_3644_71411" result="shape"/>
</filter>
<linearGradient id="paint0_linear_3644_71411" x1="459.63" y1="-12.4194" x2="458.581" y2="197.317" gradientUnits="userSpaceOnUse">
<stop stop-color="#2F9ECA"/>
<stop offset="1" stop-color="white" stop-opacity="0"/>
</linearGradient>
</defs>
</svg>
