<svg width="680" height="494" viewBox="0 0 680 494" fill="none" xmlns="http://www.w3.org/2000/svg">
<g opacity="0.4">
<path d="M402.885 260.049C367.933 239.869 311.44 239.869 276.714 260.049C276.548 260.146 276.391 260.238 276.235 260.335C253.878 273.521 246.262 291.954 253.344 308.745C257.106 317.685 265.036 326.164 277.115 333.139C312.072 353.324 368.578 353.324 403.309 333.139C438.035 312.959 437.846 280.234 402.885 260.049Z" fill="#C4E5F2"/>
<path d="M419.16 250.595C375.226 225.229 303.98 225.229 260.328 250.595C259.157 251.278 258.014 251.965 256.912 252.666L259.143 253.555C260.139 252.924 261.167 252.306 262.228 251.693C304.829 226.934 374.396 226.934 417.278 251.693C460.17 276.456 460.4 316.751 417.795 341.51C375.18 366.273 305.617 366.273 262.726 341.51C246.995 332.427 236.994 321.251 232.762 309.518L230.065 309.614C234.362 321.722 244.629 333.248 260.845 342.607C304.787 367.979 376.042 367.974 419.699 342.607C463.351 317.24 463.111 275.972 419.169 250.6L419.16 250.595Z" fill="#C4E5F2"/>
<path d="M435.019 241.375C382.289 210.932 296.746 210.932 244.362 241.375C242.213 242.625 240.148 243.911 238.17 245.225L244.113 247.581C245.814 246.465 247.585 245.373 249.424 244.303C299.038 215.469 380.049 215.469 429.989 244.303C479.939 273.142 480.202 320.067 430.589 348.901C380.962 377.74 299.951 377.74 250.001 348.901C231.028 337.947 219.23 324.383 214.61 310.187L207.437 310.45C212.208 325.613 224.717 340.127 244.97 351.824C297.714 382.276 383.253 382.276 435.651 351.824C488.04 321.381 487.759 271.832 435.019 241.38V241.375Z" fill="#C4E5F2"/>
<path d="M467.478 222.516C396.73 181.672 281.984 181.672 211.692 222.516C141.392 263.37 141.765 329.834 212.513 370.683C242.288 387.876 279.849 397.83 318.61 400.55L318.236 391.675C283.496 388.973 249.927 379.904 223.2 364.473C158.386 327.054 158.045 266.159 222.449 228.731C286.839 191.312 391.967 191.312 456.781 228.731C498.774 252.978 513.712 287.063 501.522 318.244L515.893 321.25C529.941 286.943 513.767 249.248 467.473 222.521L467.478 222.516Z" fill="#C4E5F2"/>
<path d="M200.885 377.45C123.674 332.871 123.259 260.339 199.968 215.755C276.677 171.176 401.907 171.176 479.119 215.755C556.331 260.334 556.737 332.866 480.023 377.45C403.314 422.029 278.093 422.029 200.881 377.45H200.885ZM481.637 214.294C443.559 192.306 393.023 180.199 339.348 180.199C285.672 180.199 235.275 192.311 197.441 214.294C159.608 236.281 138.87 265.512 139.049 296.6C139.225 327.693 160.29 356.924 198.368 378.911C236.446 400.899 286.986 413.001 340.662 413.001C394.328 413.001 444.73 400.894 482.563 378.911C520.397 356.924 541.13 327.693 540.96 296.605C540.785 265.512 519.715 236.281 481.637 214.298V214.294Z" fill="#C4E5F2"/>
<path d="M595.912 244.311L589.761 245.371C617.129 289.987 607.959 340.458 562.172 380.993L567.313 383.114C596.239 357.66 611.68 327.825 611.5 296.598C611.398 278.511 606.06 260.886 595.916 244.311H595.912ZM521.724 180.1C471.544 153.756 407.195 139.344 339.121 139.344C266.603 139.344 198.511 155.702 147.403 185.403C96.2823 215.113 68.2689 254.606 68.5133 296.608C68.7438 338.614 97.209 378.107 148.653 407.808C200.106 437.513 268.378 453.871 340.896 453.867C384.318 453.871 426.144 448.007 463.697 436.919L460.566 433.701C361.219 462.825 236.354 453.337 153.056 405.249C49.2968 345.345 48.7481 247.87 151.839 187.961C251.794 129.874 413.037 128.108 517.321 182.664L521.729 180.1H521.724Z" fill="#C4E5F2"/>
<path d="M559.604 168.98C529.775 151.755 495.007 138.417 456.306 129.339C418.929 120.57 379.459 116.125 338.988 116.125C298.517 116.125 259.097 120.57 221.817 129.339C183.218 138.421 148.602 151.759 118.966 168.984C89.3159 186.214 66.411 206.302 50.8552 228.69C35.8342 250.313 28.2869 273.163 28.4252 296.603C28.5589 320.047 36.3553 342.897 51.6206 364.515C52.6119 365.921 53.6307 367.314 54.6773 368.697L60.6986 367.544C11.5416 302.79 32.3626 224.439 123.397 171.534C242.052 102.579 435.767 102.575 555.201 171.534C674.641 240.493 675.272 352.698 556.617 421.653C482.78 464.563 379.883 480.778 283.902 470.28L282.376 473.885C301.597 476.006 321.191 477.08 341.016 477.071C381.483 477.071 420.907 472.626 458.192 463.857C496.796 454.775 531.393 441.437 561.043 424.207C590.679 406.982 613.602 386.894 629.154 364.506C644.17 342.878 651.713 320.033 651.579 296.589C651.455 273.149 643.649 250.299 628.384 228.676C612.588 206.292 589.443 186.2 559.604 168.97V168.98Z" fill="#C4E5F2"/>
<path d="M579.628 157.34C547.073 138.543 509.147 123.988 466.915 114.084C443.36 108.556 419.031 104.605 394.166 102.254L394.613 103.439C461.871 109.889 526.46 128.1 578.369 158.073C710.672 234.46 711.372 358.749 579.941 435.127C448.501 511.513 233.924 511.513 101.621 435.127C-30.6673 358.749 -31.3681 234.46 100.072 158.073C115.84 148.912 132.816 140.848 150.695 133.886L150.276 132.757C131.894 139.899 114.697 148.11 98.809 157.34C66.4572 176.142 41.4407 198.06 24.4833 222.495C8.09306 246.087 -0.1366 271.025 0.00171478 296.6C0.14464 322.174 8.66478 347.108 25.3179 370.704C42.5565 395.135 67.8082 417.058 100.363 435.85C132.927 454.652 170.853 469.203 213.089 479.115C253.883 488.682 296.949 493.532 341.109 493.537C385.263 493.537 428.279 488.682 468.967 479.115C511.084 469.207 548.853 454.652 581.205 435.85C613.547 417.054 638.554 395.131 655.516 370.704C671.902 347.108 680.141 322.17 679.998 296.6C679.851 271.021 671.34 246.087 654.682 222.495C637.443 198.06 612.192 176.142 579.623 157.34H579.628Z" fill="#C4E5F2"/>
</g>
<g opacity="0.1">
<path d="M186.096 422.258C183.63 420.833 179.641 420.833 177.193 422.258C174.74 423.683 174.754 425.992 177.221 427.417C179.688 428.842 183.676 428.842 186.124 427.417C188.572 425.992 188.563 423.683 186.096 422.258Z" fill="black"/>
</g>
<g opacity="0.1">
<path d="M165.326 420.68C162.86 419.255 158.871 419.255 156.423 420.68C153.97 422.104 153.984 424.414 156.451 425.839C158.918 427.264 162.906 427.264 165.354 425.839C167.802 424.414 167.793 422.104 165.326 420.68Z" fill="black"/>
</g>
<path opacity="0.1" d="M147.677 415.255C145.575 414.042 142.366 413.867 139.95 414.72C139.65 414.369 139.254 414.037 138.747 413.742C136.28 412.318 132.292 412.318 129.844 413.742C127.391 415.167 127.405 417.477 129.871 418.901C131.974 420.114 135.178 420.289 137.599 419.432C137.898 419.782 138.295 420.114 138.802 420.409C141.268 421.834 145.257 421.834 147.709 420.409C150.157 418.984 150.148 416.675 147.682 415.25L147.677 415.255Z" fill="black"/>
<g opacity="0.1">
<path d="M276.628 398.527C265.041 391.837 246.314 391.837 234.81 398.527C223.298 405.217 223.358 416.065 234.949 422.755C246.53 429.44 265.254 429.44 276.766 422.755C288.269 416.07 288.209 405.222 276.628 398.536V398.527Z" fill="black"/>
</g>
<g style="mix-blend-mode:multiply" opacity="0.1">
<path d="M191.901 412.543L239.292 385.406C246.747 381.104 246.747 374.124 239.292 369.823L229.716 364.295C222.261 359.993 210.177 359.993 202.726 364.295L155.335 391.432C144.154 397.887 148.88 403.29 155.335 407.015L164.911 412.543C172.366 416.845 184.45 416.845 191.901 412.543Z" fill="black"/>
</g>
<path d="M246.346 358.918C246.346 362.768 245.396 365.806 243.746 367.89L243.723 367.922L240.91 371.583C241.344 370.961 241.726 370.278 242.054 369.522C242.92 367.535 243.395 365.087 243.395 362.242C243.395 350.273 235 335.727 224.635 329.748C222.574 328.558 220.587 327.793 218.734 327.433C217.899 327.267 217.088 327.189 216.304 327.184L221.039 327.009H221.173C223.584 326.898 226.337 327.636 229.26 329.328C238.693 334.778 246.346 348.028 246.346 358.927V358.918Z" fill="#FDBD3A"/>
<path d="M243.395 362.239C243.395 365.084 242.92 367.532 242.054 369.519C241.731 370.275 241.344 370.958 240.91 371.58H240.906C240.173 372.622 239.297 373.47 238.291 374.12V374.134L238.162 374.213C238.006 374.309 237.84 374.402 237.674 374.494L191.039 401.414L186.875 394.319L179.692 382.069L164.206 355.665L211.085 328.601V328.615C212.348 327.826 213.782 327.347 215.368 327.222L216.253 327.186H216.304C217.083 327.19 217.895 327.273 218.734 327.435C220.587 327.794 222.574 328.559 224.635 329.749C230.859 333.345 236.369 340.026 239.79 347.384C241.842 351.801 243.128 356.467 243.358 360.847C243.381 361.317 243.395 361.783 243.395 362.244V362.239Z" fill="#F9A72C"/>
<path d="M234.787 367.248C234.787 370.092 234.313 372.54 233.446 374.528C233.123 375.284 232.736 375.966 232.302 376.588H232.298C231.565 377.63 230.689 378.479 229.684 379.129V379.143L229.555 379.221C229.398 379.318 229.232 379.41 229.066 379.502L199.494 396.57C200.13 396.04 200.688 395.413 201.191 394.689H201.195C201.615 394.067 201.988 393.384 202.302 392.628C203.136 390.637 203.57 388.193 203.528 385.348C203.515 384.883 203.496 384.422 203.468 383.951C203.164 379.571 201.795 374.906 199.679 370.489C196.138 363.13 190.518 356.445 184.233 352.854C182.154 351.664 180.158 350.899 178.295 350.539C177.451 350.373 176.64 350.295 175.861 350.29H175.81L174.925 350.327C174.187 350.382 173.486 350.516 172.818 350.728L202.477 333.605V333.619C203.74 332.83 205.174 332.351 206.76 332.226L207.646 332.189H207.696C208.475 332.194 209.287 332.277 210.126 332.438C211.979 332.798 213.966 333.563 216.027 334.753C222.252 338.349 227.761 345.03 231.182 352.388C233.234 356.805 234.52 361.471 234.751 365.851C234.774 366.321 234.787 366.787 234.787 367.248Z" fill="#F2F2F2"/>
<g style="mix-blend-mode:multiply" opacity="0.5">
<path d="M243.396 362.242C243.396 365.087 242.921 367.535 242.054 369.522C241.731 370.278 241.344 370.96 240.91 371.583H240.906C240.173 372.625 239.297 373.473 238.292 374.123V374.137L238.163 374.215C238.006 374.312 237.84 374.404 237.674 374.497L191.039 401.417L186.875 394.322L243.354 360.85C243.377 361.32 243.391 361.786 243.391 362.247L243.396 362.242Z" fill="#F2F2F2"/>
</g>
<g style="mix-blend-mode:soft-light" opacity="0.3">
<path d="M239.79 347.38L179.697 382.069L164.21 355.665L211.09 328.601V328.615C212.353 327.826 213.787 327.347 215.373 327.222L216.258 327.186H216.309C217.088 327.19 217.9 327.273 218.739 327.435C220.592 327.794 222.579 328.559 224.64 329.749C230.864 333.345 236.374 340.026 239.795 347.384L239.79 347.38Z" fill="#F2F2F2"/>
</g>
<path d="M191.357 392.978C191.357 397.358 190.269 401.042 188.208 403.619C188.111 403.734 188.019 403.849 187.913 403.965C187.221 404.772 186.437 405.449 185.575 405.984L185.524 406.016L184.92 406.362C183.394 407.174 181.656 407.589 179.752 407.589C176.921 407.589 173.892 406.671 170.762 404.859C160.075 398.695 151.384 383.642 151.384 371.309C151.384 364.766 153.86 359.921 157.986 357.841C158.839 357.403 159.766 357.09 160.762 356.901C161.472 356.762 162.214 356.693 162.988 356.693C165.819 356.693 168.839 357.615 171.979 359.423C182.657 365.592 191.347 380.64 191.347 392.973L191.357 392.978Z" fill="#DDDBD6"/>
<path d="M178.544 399.257C178.544 401.627 178.203 403.757 177.544 405.559C177.106 406.781 176.52 407.856 175.796 408.759L175.718 408.851C175.667 408.911 175.621 408.967 175.566 409.027C174.98 409.718 174.335 410.271 173.625 410.709L173.058 411.037C171.799 411.701 170.361 412.037 168.775 412.037C166.262 412.037 163.546 411.203 160.702 409.552C150.522 403.683 142.241 389.34 142.241 377.588C142.241 371.861 144.279 367.551 147.838 365.753C148.539 365.393 149.309 365.13 150.134 364.978C150.725 364.858 151.356 364.803 152.02 364.803C152.748 364.803 153.491 364.872 154.247 365.015C156.11 365.356 158.06 366.112 160.093 367.283C170.264 373.162 178.549 387.5 178.549 399.248L178.544 399.257Z" fill="#DDDBD6"/>
<path d="M176.714 399.258C176.714 400.009 176.677 400.729 176.603 401.411C176.47 402.697 176.207 403.878 175.824 404.933C175.451 405.957 174.971 406.851 174.39 407.589C174.39 407.589 174.238 407.764 174.206 407.801C173.717 408.373 173.224 408.806 172.661 409.157L172.173 409.438C171.191 409.95 170.043 410.212 168.775 410.212C166.585 410.212 164.178 409.456 161.615 407.972C160.485 407.317 159.374 406.556 158.309 405.694C154.667 402.794 151.421 398.811 148.959 394.412C145.925 389.032 144.072 383.02 144.072 377.593C144.072 372.582 145.745 368.866 148.659 367.39C149.222 367.104 149.826 366.901 150.457 366.786C150.946 366.68 151.453 366.639 152.016 366.639C152.643 366.639 153.274 366.699 153.897 366.814C154.989 367.017 156.128 367.381 157.309 367.92C157.926 368.197 158.549 368.511 159.176 368.879C163.874 371.59 168.148 376.21 171.297 381.517C173.879 385.851 175.704 390.65 176.401 395.251C176.608 396.611 176.719 397.949 176.719 399.253L176.714 399.258Z" fill="#E7E5E0"/>
<path d="M176.714 399.261C176.714 400.013 176.677 400.732 176.603 401.414C165.962 395.227 157.313 380.225 157.308 367.924C157.926 368.2 158.548 368.514 159.175 368.883C168.843 374.466 176.714 388.095 176.714 399.261Z" fill="#F1A12B"/>
<g style="mix-blend-mode:multiply" opacity="0.5">
<path d="M176.714 399.251C176.714 400.002 176.677 400.721 176.603 401.404C176.469 402.69 176.207 403.87 175.824 404.926C175.45 405.95 174.971 406.844 174.39 407.582C174.39 407.582 174.238 407.757 174.206 407.794C173.717 408.366 173.223 408.799 172.661 409.149L172.172 409.431C171.19 409.942 170.042 410.205 168.774 410.205C166.584 410.205 164.178 409.449 161.614 407.964C160.485 407.31 159.374 406.549 158.309 405.687L176.396 395.244C176.603 396.604 176.714 397.941 176.714 399.246V399.251Z" fill="#F2F2F2"/>
</g>
<g style="mix-blend-mode:soft-light" opacity="0.3">
<path d="M171.297 381.517L148.963 394.412C145.93 389.032 144.076 383.02 144.076 377.593C144.076 372.582 145.75 368.865 148.664 367.39C149.226 367.104 149.83 366.901 150.462 366.786C150.95 366.68 151.458 366.639 152.02 366.639C152.647 366.639 153.279 366.699 153.901 366.814C154.994 367.017 156.133 367.381 157.313 367.92C157.931 368.197 158.553 368.511 159.18 368.879C163.878 371.59 168.152 376.21 171.301 381.517H171.297Z" fill="#F2F2F2"/>
</g>
<path d="M197.272 389.57C197.272 393.95 196.184 397.634 194.123 400.207C193.104 401.484 191.882 402.457 190.499 403.13L185.58 405.993C186.442 405.458 187.226 404.78 187.917 403.973C188.023 403.858 188.111 403.743 188.212 403.628C190.273 401.046 191.361 397.367 191.361 392.987C191.361 380.654 182.671 365.605 171.993 359.436C168.858 357.629 165.833 356.707 163.002 356.707C162.228 356.707 161.481 356.776 160.775 356.914C159.78 357.103 158.853 357.417 158 357.855L162.85 355.065L162.869 355.052C164.57 353.908 166.608 353.295 168.918 353.295C171.748 353.295 174.778 354.212 177.908 356.024C188.586 362.189 197.277 377.242 197.277 389.575L197.272 389.57Z" fill="#EFEDEA"/>
<path d="M189.527 392.978C189.527 396.943 188.577 400.226 186.779 402.48L186.7 402.573C186.65 402.633 186.604 402.688 186.548 402.748C185.963 403.439 185.317 403.993 184.607 404.431L184.04 404.767L173.625 410.706C174.335 410.268 174.981 409.71 175.566 409.023C175.621 408.963 175.672 408.907 175.718 408.847L175.797 408.755C176.516 407.852 177.101 406.777 177.544 405.556C178.203 403.748 178.544 401.618 178.544 399.253C178.544 387.506 170.264 373.162 160.089 367.289C158.055 366.117 156.105 365.361 154.243 365.02C153.486 364.873 152.739 364.808 152.016 364.808C151.352 364.808 150.72 364.863 150.13 364.983C149.305 365.135 148.539 365.398 147.834 365.758L158.129 359.879L158.171 359.847L158.816 359.483C159.517 359.123 160.287 358.861 161.112 358.708C161.702 358.593 162.334 358.533 162.998 358.533C165.492 358.533 168.208 359.368 171.071 361.018C181.242 366.897 189.527 381.235 189.527 392.983V392.978Z" fill="#EFEDEA"/>
<mask id="mask0_2356_222326" style="mask-type:luminance" maskUnits="userSpaceOnUse" x="147" y="358" width="43" height="53">
<path d="M189.527 392.978C189.527 396.943 188.577 400.226 186.779 402.48L186.7 402.573C186.65 402.633 186.604 402.688 186.548 402.748C185.963 403.439 185.317 403.993 184.607 404.431L184.04 404.767L173.625 410.706C174.335 410.268 174.981 409.71 175.566 409.023C175.621 408.963 175.672 408.907 175.718 408.847L175.797 408.755C176.516 407.852 177.101 406.777 177.544 405.556C178.203 403.748 178.544 401.618 178.544 399.253C178.544 387.506 170.264 373.162 160.089 367.289C158.055 366.117 156.105 365.361 154.243 365.02C153.486 364.873 152.739 364.808 152.016 364.808C151.352 364.808 150.72 364.863 150.13 364.983C149.305 365.135 148.539 365.398 147.834 365.758L158.129 359.879L158.171 359.847L158.816 359.483C159.517 359.123 160.287 358.861 161.112 358.708C161.702 358.593 162.334 358.533 162.998 358.533C165.492 358.533 168.208 359.368 171.071 361.018C181.242 366.897 189.527 381.235 189.527 392.983V392.978Z" fill="white"/>
</mask>
<g mask="url(#mask0_2356_222326)">
<path d="M178.899 408.993L178.184 408.421C182.352 403.216 182.795 390.855 176.312 379.181C170.849 369.343 159.018 362.736 151.393 362.736V361.818C160.397 361.818 171.932 369.407 177.115 378.734C183.09 389.495 183.873 402.787 178.903 408.993H178.899Z" fill="#E5E1DC"/>
<path d="M153.186 361.951C155.791 362.053 158.355 362.717 160.803 363.639C163.242 364.593 165.556 365.852 167.728 367.327C172.048 370.296 175.768 374.201 178.364 378.798C180.868 383.418 182.467 388.554 182.818 393.8C182.979 396.419 182.859 399.066 182.325 401.634C181.748 404.179 180.812 406.719 179.111 408.711C180.642 406.599 181.462 404.082 181.887 401.551C182.32 399.01 182.361 396.415 182.117 393.856C181.624 388.734 180.07 383.722 177.562 379.241C175.1 374.741 171.472 370.928 167.317 367.903C165.238 366.386 162.997 365.082 160.628 364.054C158.272 363.002 155.768 362.26 153.182 361.951H153.186Z" fill="#F9F5F0"/>
<path d="M182.606 406.817L181.892 406.245C186.059 401.04 186.502 388.679 180.02 377.006C174.556 367.167 162.726 360.56 155.1 360.56V359.643C164.104 359.643 175.64 367.231 180.817 376.558C186.793 387.319 187.576 400.611 182.606 406.817Z" fill="#E5E1DC"/>
<path d="M156.894 359.775C159.499 359.877 162.062 360.541 164.51 361.463C166.949 362.417 169.264 363.676 171.435 365.151C175.755 368.12 179.476 372.025 182.072 376.622C184.575 381.242 186.175 386.378 186.525 391.625C186.687 394.243 186.567 396.89 186.032 399.458C185.456 402.003 184.52 404.543 182.819 406.535C184.349 404.423 185.17 401.906 185.594 399.375C186.027 396.835 186.069 394.239 185.825 391.68C185.331 386.558 183.778 381.546 181.269 377.065C178.807 372.565 175.179 368.752 171.025 365.728C168.946 364.211 166.705 362.906 164.335 361.878C161.979 360.827 159.476 360.084 156.889 359.775H156.894Z" fill="#F9F5F0"/>
</g>
<path d="M281.303 392.485C281.303 393.836 281.04 395.159 280.528 396.427C279.98 397.806 279.136 399.129 278.016 400.369C277.522 400.918 276.974 401.448 276.37 401.969C275.365 402.831 274.216 403.633 272.926 404.376C267.734 407.372 260.855 409.028 253.557 409.028C246.258 409.028 239.375 407.372 234.179 404.376C232.893 403.638 231.745 402.831 230.735 401.969C230.131 401.448 229.582 400.918 229.089 400.369C227.973 399.129 227.125 397.806 226.576 396.427C226.065 395.159 225.802 393.831 225.802 392.485C225.802 387.939 228.78 383.716 234.179 380.599C239.371 377.598 246.254 375.947 253.557 375.947C260.86 375.947 267.734 377.593 272.926 380.599C273.447 380.899 273.944 381.208 274.419 381.526C278.873 384.537 281.303 388.377 281.303 392.485Z" fill="#EFEDEA"/>
<path d="M270.33 392.479C270.33 393.295 270.173 394.097 269.86 394.862C269.528 395.697 269.02 396.499 268.338 397.246C267.536 398.131 266.508 398.952 265.263 399.666C262.123 401.478 257.965 402.479 253.552 402.479C249.14 402.479 244.977 401.478 241.837 399.666C240.592 398.952 239.559 398.131 238.762 397.246C238.089 396.499 237.572 395.697 237.24 394.862C236.931 394.097 236.77 393.295 236.77 392.479C236.77 389.731 238.573 387.177 241.837 385.291C244.977 383.474 249.14 382.479 253.552 382.479C257.965 382.479 262.123 383.474 265.263 385.291C268.532 387.177 270.33 389.731 270.33 392.479Z" fill="#F2F1EE"/>
<path d="M281.303 392.475V409.667C281.303 409.967 281.289 410.266 281.261 410.557C280.902 414.762 277.979 418.644 272.926 421.553C267.734 424.554 260.855 426.205 253.557 426.205C246.258 426.205 239.375 424.559 234.179 421.553C229.131 418.644 226.203 414.762 225.843 410.557C225.811 410.262 225.802 409.967 225.802 409.667V392.475C225.802 393.825 226.065 395.149 226.576 396.417C227.125 397.795 227.973 399.118 229.089 400.359C229.582 400.907 230.131 401.437 230.735 401.958C231.74 402.821 232.888 403.623 234.179 404.365C239.371 407.362 246.254 409.017 253.557 409.017C260.86 409.017 267.734 407.362 272.926 404.365C274.212 403.627 275.36 402.821 276.37 401.958C276.974 401.437 277.522 400.907 278.016 400.359C279.141 399.118 279.98 397.795 280.528 396.417C281.04 395.149 281.303 393.821 281.303 392.475Z" fill="#DFDCD8"/>
<path d="M281.303 392.479C281.022 395.421 279.689 398.215 277.836 400.525C275.969 402.848 273.502 404.646 270.846 405.96C268.158 407.237 265.286 408.063 262.372 408.538C261.639 408.63 260.911 408.74 260.178 408.819C259.445 408.874 258.711 408.957 257.974 408.994C257.236 409.012 256.503 409.045 255.765 409.049L253.562 409.012L255.761 408.888C256.494 408.837 257.222 408.759 257.951 408.694C258.679 408.625 259.403 408.519 260.131 408.432C260.855 408.325 261.575 408.192 262.294 408.072C265.157 407.505 267.979 406.698 270.584 405.407C273.207 404.167 275.586 402.415 277.481 400.22C278.426 399.123 279.256 397.915 279.897 396.606C280.561 395.31 281.063 393.922 281.312 392.475L281.303 392.479Z" fill="#F9FAFB"/>
<path d="M270.33 392.475C270.247 394.268 269.463 395.997 268.356 397.426C267.241 398.874 265.715 399.962 264.087 400.746C263.672 400.921 263.276 401.161 262.838 401.285L261.551 401.709C261.127 401.871 260.675 401.917 260.237 402.023C259.795 402.115 259.357 402.207 258.914 402.281C258.02 402.36 257.13 402.47 256.235 402.516C255.341 402.502 254.446 402.507 253.557 402.47C254.446 402.364 255.332 402.3 256.212 402.217C257.093 402.111 257.964 401.949 258.836 401.815C260.546 401.405 262.27 400.995 263.824 400.193C265.396 399.45 266.849 398.436 267.997 397.127C268.264 396.785 268.573 396.472 268.794 396.094L269.154 395.545L269.458 394.964C269.864 394.185 270.168 393.351 270.33 392.475Z" fill="#F9FAFB"/>
<g style="mix-blend-mode:soft-light" opacity="0.3">
<path d="M281.303 392.479V409.672C281.303 409.971 281.289 410.271 281.261 410.562C280.901 414.766 277.978 418.648 272.925 421.558C267.734 424.559 260.855 426.21 253.557 426.21V409.017C260.855 409.017 267.734 407.362 272.925 404.365C274.212 403.627 275.36 402.821 276.369 401.958C276.973 401.437 277.522 400.907 278.015 400.359C279.14 399.118 279.979 397.795 280.528 396.417C281.04 395.149 281.303 393.821 281.303 392.475V392.479Z" fill="#F2F2F2"/>
</g>
<mask id="mask1_2356_222326" style="mask-type:luminance" maskUnits="userSpaceOnUse" x="225" y="392" width="57" height="35">
<path d="M281.303 392.49V409.683C281.303 414.229 278.329 418.452 272.926 421.569C267.734 424.57 260.855 426.221 253.557 426.221C246.258 426.221 239.375 424.575 234.179 421.569C228.78 418.452 225.802 414.229 225.802 409.683V392.49C225.802 393.841 226.065 395.164 226.576 396.432C227.125 397.811 227.973 399.134 229.089 400.374C230.412 401.84 232.118 403.196 234.179 404.376C239.371 407.373 246.254 409.028 253.557 409.028C260.86 409.028 267.734 407.373 272.926 404.376C274.986 403.191 276.692 401.836 278.016 400.374C279.141 399.134 279.98 397.811 280.528 396.432C281.04 395.164 281.303 393.836 281.303 392.49Z" fill="white"/>
</mask>
<g mask="url(#mask1_2356_222326)">
<path d="M228.813 402.461C228.375 402.207 228.02 402.475 228.02 403.06V426.228L229.606 427.146V403.978C229.606 403.392 229.251 402.715 228.813 402.461Z" fill="#F2F0EE"/>
<path d="M233.027 406.105C232.575 405.902 232.211 406.197 232.211 406.769V429.314L233.848 430.047V407.502C233.848 406.935 233.483 406.308 233.032 406.105H233.027Z" fill="#F2F0EE"/>
<path d="M237.96 408.571C237.495 408.418 237.117 408.746 237.117 409.294V431.217L238.8 431.766V409.843C238.8 409.29 238.421 408.718 237.956 408.566L237.96 408.571Z" fill="#F2F0EE"/>
<path d="M243.257 410.101C242.778 410 242.391 410.355 242.391 410.89V432.195L244.124 432.559V411.254C244.124 410.719 243.737 410.198 243.257 410.097V410.101Z" fill="#F2F0EE"/>
<path d="M248.569 410.975C248.076 410.924 247.679 411.307 247.679 411.828V432.511L249.459 432.695V412.013C249.459 411.492 249.058 411.026 248.569 410.975Z" fill="#F2F0EE"/>
<path d="M253.553 411.451C253.046 411.451 252.636 411.862 252.636 412.369V432.429H254.466V412.369C254.466 411.862 254.056 411.451 253.549 411.451H253.553Z" fill="#F2F0EE"/>
<path d="M258.611 410.917C258.117 410.967 257.721 411.428 257.721 411.954V432.637L259.5 432.452V411.77C259.5 411.249 259.099 410.866 258.611 410.917Z" fill="#F2F0EE"/>
<path d="M264 409.948C263.521 410.05 263.133 410.566 263.133 411.105V432.411L264.867 432.046V410.741C264.867 410.206 264.48 409.851 264 409.953V409.948Z" fill="#F2F0EE"/>
<path d="M269.321 408.347C268.855 408.5 268.477 409.071 268.477 409.625V431.547L270.16 430.999V409.076C270.16 408.523 269.782 408.2 269.316 408.352L269.321 408.347Z" fill="#F2F0EE"/>
<path d="M274.185 405.917C273.733 406.12 273.369 406.742 273.369 407.314V429.859L275.006 429.126V406.581C275.006 406.014 274.642 405.714 274.19 405.917H274.185Z" fill="#F2F0EE"/>
<path d="M278.191 402.461C277.753 402.715 277.398 403.392 277.398 403.978V427.146L278.984 426.228V403.06C278.984 402.475 278.629 402.207 278.191 402.461Z" fill="#F2F0EE"/>
</g>
<path d="M166.192 422.846C166.192 423.708 165.625 424.561 164.496 425.216C163.366 425.87 161.877 426.198 160.397 426.198C158.917 426.198 157.423 425.87 156.298 425.216C155.169 424.561 154.602 423.708 154.602 422.846C154.602 421.984 155.169 421.131 156.298 420.476C157.428 419.821 158.917 419.494 160.397 419.494C161.877 419.494 163.371 419.821 164.496 420.476C165.625 421.131 166.192 421.984 166.192 422.846Z" fill="#FEDC4F"/>
<path d="M166.192 419.494H154.592V422.846H166.192V419.494Z" fill="#FEDC4F"/>
<path d="M166.192 419.494C166.192 420.357 165.625 421.21 164.495 421.864C164.228 422.021 163.933 422.159 163.628 422.279C163.426 422.358 163.218 422.427 163.006 422.487C162.19 422.731 161.291 422.846 160.392 422.846C158.907 422.846 157.418 422.524 156.293 421.864C154.029 420.559 154.029 418.439 156.293 417.129C156.519 416.996 156.763 416.88 157.022 416.774L157.077 416.825C157.183 416.899 157.289 416.885 157.432 416.862C157.607 416.82 157.727 416.668 157.639 416.553H157.644C159.839 415.871 162.642 416.064 164.495 417.134C165.625 417.793 166.192 418.646 166.192 419.504V419.494Z" fill="#FFF1A5"/>
<g style="mix-blend-mode:soft-light">
<path d="M166.192 419.494V422.846C166.192 423.708 165.625 424.561 164.496 425.216C163.366 425.87 161.877 426.198 160.397 426.198V422.846C161.882 422.846 163.371 422.523 164.496 421.864C165.625 421.209 166.192 420.356 166.192 419.494Z" fill="#CBCBCA"/>
</g>
<path d="M163.564 422.58C163.504 422.64 163.426 422.677 163.343 422.677C163.26 422.677 163.191 422.645 163.131 422.59L163.011 422.474L157.077 416.813C157.183 416.886 157.289 416.873 157.432 416.85C157.607 416.808 157.727 416.656 157.64 416.541C157.635 416.536 157.626 416.522 157.621 416.518L157.644 416.541L163.55 422.147C163.587 422.184 163.61 422.221 163.629 422.267C163.666 422.373 163.642 422.493 163.559 422.58H163.564Z" fill="#FEDC4F"/>
<path d="M186.594 424.147C186.594 425.009 186.027 425.862 184.897 426.516C183.767 427.171 182.278 427.499 180.798 427.499C179.318 427.499 177.825 427.171 176.7 426.516C175.57 425.862 175.003 425.009 175.003 424.147C175.003 423.285 175.57 422.432 176.7 421.777C177.829 421.122 179.318 420.795 180.798 420.795C182.278 420.795 183.772 421.122 184.897 421.777C186.027 422.432 186.594 423.285 186.594 424.147Z" fill="#FEDC4F"/>
<path d="M186.589 420.795H174.989V424.147H186.589V420.795Z" fill="#FEDC4F"/>
<path d="M186.593 420.8C186.593 421.662 186.026 422.515 184.897 423.17C184.629 423.326 184.334 423.465 184.03 423.585C183.827 423.663 183.62 423.732 183.408 423.792C182.592 424.036 181.693 424.152 180.798 424.152C179.313 424.152 177.824 423.829 176.699 423.17C174.436 421.865 174.436 419.744 176.699 418.435C176.925 418.301 177.17 418.186 177.428 418.08L177.483 418.13C177.589 418.204 177.695 418.19 177.838 418.167C178.013 418.126 178.133 417.974 178.046 417.854H178.05C180.249 417.171 183.048 417.365 184.901 418.435C186.031 419.094 186.598 419.947 186.598 420.804L186.593 420.8Z" fill="#FFF1A5"/>
<g style="mix-blend-mode:soft-light">
<path d="M186.594 420.795V424.147C186.594 425.009 186.027 425.862 184.897 426.516C183.767 427.171 182.278 427.499 180.798 427.499V424.147C182.283 424.147 183.772 423.824 184.897 423.165C186.027 422.51 186.594 421.657 186.594 420.795Z" fill="#CBCBCA"/>
</g>
<path d="M183.961 423.886C183.901 423.946 183.823 423.983 183.74 423.983C183.657 423.983 183.588 423.95 183.528 423.895L183.408 423.78L177.474 418.118C177.58 418.192 177.686 418.178 177.829 418.155C178.004 418.113 178.124 417.961 178.037 417.841C178.032 417.837 178.023 417.823 178.018 417.818L178.041 417.841L183.947 423.448C183.984 423.485 184.007 423.522 184.026 423.568C184.062 423.674 184.039 423.794 183.956 423.881L183.961 423.886Z" fill="#FEDC4F"/>
<path d="M139.604 415.557C139.604 416.419 139.037 417.272 137.907 417.927C136.778 418.581 135.288 418.909 133.808 418.909C132.329 418.909 130.835 418.581 129.71 417.927C128.58 417.272 128.013 416.419 128.013 415.557C128.013 414.695 128.58 413.842 129.71 413.187C130.839 412.532 132.329 412.205 133.808 412.205C135.288 412.205 136.782 412.532 137.907 413.187C139.037 413.842 139.604 414.695 139.604 415.557Z" fill="#FEDC4F"/>
<path d="M139.599 412.205H128V415.557H139.599V412.205Z" fill="#FEDC4F"/>
<path d="M139.604 412.205C139.604 413.068 139.037 413.92 137.908 414.575C137.64 414.732 137.345 414.87 137.041 414.99C136.838 415.068 136.631 415.138 136.419 415.198C135.602 415.442 134.703 415.557 133.804 415.557C132.32 415.557 130.831 415.234 129.706 414.575C127.442 413.27 127.442 411.15 129.706 409.84C129.932 409.706 130.176 409.591 130.434 409.485L130.489 409.536C130.595 409.61 130.701 409.596 130.844 409.573C131.02 409.531 131.139 409.379 131.052 409.264H131.056C133.256 408.582 136.054 408.775 137.908 409.845C139.037 410.504 139.604 411.357 139.604 412.215V412.205Z" fill="#FFF1A5"/>
<g style="mix-blend-mode:soft-light">
<path d="M139.604 412.205V415.557C139.604 416.419 139.037 417.272 137.907 417.927C136.778 418.581 135.289 418.909 133.809 418.909V415.557C135.293 415.557 136.782 415.234 137.907 414.575C139.037 413.92 139.604 413.067 139.604 412.205Z" fill="#CBCBCA"/>
</g>
<path d="M136.971 415.291C136.911 415.351 136.833 415.388 136.75 415.388C136.667 415.388 136.598 415.356 136.538 415.3L136.418 415.185L130.484 409.524C130.59 409.597 130.696 409.584 130.839 409.56C131.015 409.519 131.134 409.367 131.047 409.252C131.042 409.247 131.033 409.233 131.028 409.229L131.051 409.252L136.958 414.858C136.994 414.895 137.017 414.932 137.036 414.978C137.073 415.084 137.05 415.204 136.967 415.291H136.971Z" fill="#FEDC4F"/>
<path d="M145.708 419.291C145.118 419.913 144.117 420.144 142.85 419.844C141.582 419.54 140.272 418.756 139.198 417.737C138.124 416.718 137.266 415.455 136.898 414.201C136.529 412.951 136.704 411.941 137.294 411.314C137.884 410.692 138.885 410.462 140.152 410.761C141.42 411.066 142.73 411.849 143.804 412.868C144.878 413.887 145.736 415.15 146.105 416.404C146.473 417.654 146.298 418.664 145.708 419.291Z" fill="#FEDC4F"/>
<path d="M139.622 408.987L137.316 411.42L145.734 419.4L148.04 416.968L139.622 408.987Z" fill="#FEDC4F"/>
<path d="M148.014 416.867C147.423 417.489 146.423 417.72 145.155 417.42C144.851 417.351 144.546 417.245 144.242 417.125C144.039 417.042 143.846 416.95 143.647 416.848C142.887 416.461 142.154 415.931 141.504 415.313C140.429 414.294 139.567 413.035 139.203 411.777C138.456 409.273 139.913 407.733 142.463 408.342C142.721 408.402 142.974 408.485 143.233 408.586V408.66C143.265 408.784 143.352 408.849 143.472 408.932C143.629 409.024 143.818 408.992 143.836 408.849C145.902 409.868 147.802 411.938 148.41 413.99C148.774 415.244 148.599 416.253 148.014 416.876V416.867Z" fill="#FFF1A5"/>
<g style="mix-blend-mode:soft-light">
<path d="M148.013 416.864L145.708 419.294C145.118 419.916 144.118 420.147 142.85 419.847C141.582 419.543 140.272 418.759 139.198 417.74L141.503 415.311C142.578 416.329 143.882 417.123 145.155 417.418C146.423 417.722 147.423 417.491 148.013 416.864Z" fill="#CBCBCA"/>
</g>
<path d="M143.98 417.307C143.892 417.307 143.809 417.279 143.754 417.228C143.698 417.173 143.666 417.099 143.657 417.021L143.648 416.855L143.237 408.662C143.26 408.787 143.353 408.851 143.468 408.934C143.625 409.026 143.814 408.994 143.832 408.851C143.832 408.842 143.832 408.828 143.832 408.819V408.851L144.261 416.984C144.261 417.035 144.256 417.081 144.233 417.127C144.187 417.228 144.086 417.298 143.97 417.307H143.98Z" fill="#FEDC4F"/>
<mask id="mask2_2356_222326" style="mask-type:luminance" maskUnits="userSpaceOnUse" x="144" y="366" width="33" height="45">
<path d="M176.714 399.274C176.714 400.025 176.677 400.744 176.603 401.427C176.47 402.713 176.207 403.893 175.824 404.949C175.451 405.973 174.971 406.867 174.39 407.605C174.39 407.605 174.238 407.78 174.206 407.817C173.717 408.388 173.224 408.822 172.661 409.172L172.173 409.453C171.191 409.965 170.043 410.228 168.775 410.228C166.585 410.228 164.178 409.472 161.615 407.987C160.485 407.333 159.374 406.572 158.309 405.71C154.667 402.81 151.421 398.826 148.959 394.428C145.925 389.047 144.072 383.035 144.072 377.609C144.072 372.597 145.745 368.881 148.659 367.406C149.222 367.12 149.826 366.917 150.457 366.802C150.946 366.696 151.453 366.654 152.016 366.654C152.643 366.654 153.274 366.714 153.897 366.829C154.989 367.032 156.128 367.397 157.309 367.936C157.926 368.213 158.549 368.526 159.176 368.895C163.874 371.606 168.148 376.226 171.297 381.532C173.879 385.866 175.704 390.666 176.401 395.267C176.608 396.627 176.719 397.964 176.719 399.269L176.714 399.274Z" fill="white"/>
</mask>
<g mask="url(#mask2_2356_222326)">
<path d="M180.859 397.792C180.896 398.649 180.37 399.53 179.273 400.235C178.175 400.941 176.7 401.337 175.22 401.402C173.74 401.466 172.237 401.208 171.08 400.609C169.923 400.009 169.319 399.18 169.277 398.322C169.24 397.464 169.766 396.584 170.863 395.878C171.96 395.173 173.436 394.777 174.916 394.712C176.396 394.643 177.899 394.906 179.056 395.505C180.213 396.104 180.817 396.934 180.859 397.792Z" fill="#FEDC4F"/>
<path d="M180.752 394.364L169.164 394.893L169.317 398.241L180.905 397.713L180.752 394.364Z" fill="#FEDC4F"/>
<path d="M180.707 394.45C180.744 395.308 180.218 396.188 179.121 396.894C178.858 397.064 178.572 397.212 178.272 397.345C178.074 397.433 177.871 397.511 177.659 397.581C176.852 397.862 175.962 398.019 175.068 398.06C173.588 398.129 172.085 397.871 170.928 397.267C168.609 396.064 168.512 393.952 170.711 392.537C170.932 392.394 171.168 392.265 171.421 392.149L171.477 392.196C171.583 392.265 171.693 392.246 171.832 392.214C172.007 392.163 172.117 392.006 172.025 391.896H172.03C174.192 391.112 177 391.181 178.904 392.163C180.061 392.772 180.67 393.597 180.707 394.45Z" fill="#FFF1A5"/>
<g style="mix-blend-mode:soft-light">
<path d="M180.707 394.455L180.859 397.802C180.896 398.66 180.37 399.54 179.273 400.246C178.175 400.951 176.7 401.348 175.22 401.412L175.068 398.065C176.548 397.996 178.023 397.609 179.121 396.899C180.218 396.193 180.748 395.317 180.707 394.455Z" fill="#CBCBCA"/>
</g>
<path d="M178.222 397.659C178.162 397.724 178.088 397.765 178.005 397.765C177.927 397.765 177.853 397.742 177.788 397.691L177.659 397.581L171.477 392.196C171.583 392.265 171.693 392.246 171.832 392.214C172.007 392.164 172.117 392.007 172.025 391.896C172.021 391.891 172.011 391.878 172.007 391.873L172.034 391.896L178.189 397.23C178.226 397.267 178.254 397.3 178.272 397.35C178.314 397.452 178.295 397.576 178.222 397.664V397.659Z" fill="#FEDC4F"/>
<path d="M165.76 400.084C165.368 400.849 164.473 401.352 163.168 401.417C161.864 401.481 160.393 401.094 159.07 400.416C157.751 399.738 156.575 398.766 155.87 397.668C155.165 396.571 155.049 395.552 155.441 394.787C155.833 394.021 156.728 393.519 158.032 393.454C159.337 393.39 160.808 393.777 162.131 394.455C163.454 395.132 164.625 396.105 165.331 397.203C166.036 398.3 166.151 399.319 165.76 400.084Z" fill="#FEDC4F"/>
<path d="M156.989 391.852L155.458 394.834L165.777 400.133L167.308 397.151L156.989 391.852Z" fill="#FEDC4F"/>
<path d="M167.29 397.11C166.898 397.876 166.004 398.378 164.699 398.443C164.386 398.461 164.068 398.443 163.74 398.415C163.523 398.392 163.311 398.36 163.09 398.314C162.251 398.157 161.398 397.852 160.6 397.442C159.282 396.764 158.106 395.796 157.401 394.694C155.985 392.5 156.949 390.614 159.563 390.48C159.826 390.462 160.093 390.471 160.37 390.499L160.398 390.568C160.458 390.679 160.559 390.72 160.697 390.762C160.872 390.803 161.048 390.72 161.025 390.582H161.029C163.298 390.978 165.7 392.435 166.861 394.229C167.567 395.331 167.678 396.349 167.29 397.11Z" fill="#FFF1A5"/>
<g style="mix-blend-mode:soft-light">
<path d="M167.29 397.107L165.76 400.086C165.368 400.851 164.473 401.354 163.169 401.418C161.864 401.483 160.393 401.096 159.07 400.418L160.601 397.439C161.919 398.117 163.39 398.509 164.699 398.44C166.004 398.375 166.898 397.873 167.29 397.107Z" fill="#CBCBCA"/>
</g>
<path d="M163.537 398.655C163.454 398.682 163.366 398.678 163.297 398.641C163.228 398.604 163.177 398.544 163.145 398.466L163.09 398.309L160.402 390.563C160.462 390.674 160.563 390.715 160.701 390.757C160.877 390.798 161.052 390.715 161.029 390.577C161.029 390.568 161.029 390.554 161.024 390.545L161.033 390.577L163.726 398.263C163.74 398.314 163.749 398.355 163.74 398.406C163.726 398.516 163.648 398.613 163.537 398.65V398.655Z" fill="#FEDC4F"/>
<path d="M173.629 404.548C173.666 405.406 173.141 406.287 172.043 406.992C170.946 407.697 169.471 408.094 167.991 408.158C166.511 408.228 165.008 407.965 163.85 407.365C162.693 406.766 162.089 405.936 162.048 405.079C162.011 404.221 162.537 403.341 163.634 402.635C164.731 401.93 166.206 401.533 167.686 401.469C169.166 401.404 170.669 401.662 171.827 402.262C172.984 402.861 173.588 403.691 173.629 404.548Z" fill="#FEDC4F"/>
<path d="M173.525 401.122L161.937 401.65L162.089 404.999L173.677 404.471L173.525 401.122Z" fill="#FEDC4F"/>
<path d="M173.477 401.208C173.514 402.065 172.988 402.946 171.891 403.651C171.628 403.822 171.342 403.97 171.043 404.103C170.845 404.191 170.642 404.269 170.43 404.338C169.623 404.62 168.733 404.776 167.838 404.818C166.359 404.887 164.856 404.629 163.698 404.025C161.379 402.822 161.282 400.71 163.482 399.294C163.703 399.152 163.938 399.022 164.192 398.907L164.247 398.953C164.353 399.022 164.464 399.004 164.602 398.972C164.777 398.921 164.888 398.764 164.796 398.654H164.8C166.963 397.87 169.77 397.939 171.674 398.921C172.832 399.53 173.436 400.355 173.477 401.208Z" fill="#FFF1A5"/>
<g style="mix-blend-mode:soft-light">
<path d="M173.477 401.213L173.629 404.56C173.666 405.418 173.14 406.298 172.043 407.004C170.946 407.709 169.471 408.106 167.991 408.17L167.838 404.823C169.318 404.754 170.794 404.366 171.891 403.656C172.988 402.951 173.518 402.075 173.477 401.213Z" fill="#CBCBCA"/>
</g>
<path d="M170.987 404.417C170.927 404.482 170.854 404.523 170.771 404.523C170.692 404.523 170.619 404.5 170.554 404.449L170.425 404.339L164.242 398.954C164.348 399.023 164.459 399.004 164.597 398.972C164.772 398.921 164.883 398.765 164.791 398.654C164.786 398.649 164.777 398.635 164.772 398.631L164.8 398.654L170.955 403.988C170.992 404.025 171.02 404.057 171.038 404.108C171.08 404.21 171.061 404.334 170.987 404.422V404.417Z" fill="#FEDC4F"/>
<path style="mix-blend-mode:multiply" d="M176.714 399.274C176.714 400.025 176.677 400.744 176.603 401.427C176.47 402.713 176.207 403.893 175.824 404.949C175.451 405.973 174.971 406.867 174.39 407.605C174.39 407.605 174.238 407.78 174.206 407.817C173.717 408.388 173.224 408.822 172.661 409.172L172.173 409.453C171.191 409.965 170.043 410.228 168.775 410.228C166.585 410.228 164.178 409.472 161.615 407.987C160.485 407.333 159.374 406.572 158.309 405.71C154.667 402.81 151.421 398.826 148.959 394.428C145.925 389.047 144.072 383.035 144.072 377.609C144.072 372.597 145.745 368.881 148.659 367.406C149.222 367.12 149.826 366.917 150.457 366.802C150.946 366.696 151.453 366.654 152.016 366.654C152.643 366.654 153.274 366.714 153.897 366.829C154.989 367.032 156.128 367.397 157.309 367.936C157.926 368.213 158.549 368.526 159.176 368.895C163.874 371.606 168.148 376.226 171.297 381.532C173.879 385.866 175.704 390.666 176.401 395.267C176.608 396.627 176.719 397.964 176.719 399.269L176.714 399.274Z" fill="url(#paint0_linear_2356_222326)"/>
</g>
<g opacity="0.1">
<path d="M570.684 215.938L464.015 154.352L432.719 172.54L539.388 234.127L570.684 215.938Z" fill="black"/>
</g>
<path d="M563.786 160.88L463.171 102.793L433.65 119.949L534.265 178.036L563.786 160.88Z" fill="#F2F3F2"/>
<path d="M534.265 178.033L433.65 119.945L433.498 173.04L534.117 231.127L534.265 178.033Z" fill="#E6E6E7"/>
<path d="M563.786 160.887L534.265 178.042L534.118 231.137L563.625 213.847L563.786 160.887Z" fill="#DAD9D8"/>
<path d="M478.985 153.321L439.658 130.615C438.579 129.992 437.694 130.495 437.694 131.735C437.694 132.975 438.57 134.497 439.649 135.119L478.976 157.826C480.055 158.448 480.936 157.941 480.94 156.706C480.945 155.47 480.064 153.944 478.99 153.326L478.985 153.321Z" fill="#E36290"/>
<path d="M528.498 181.849L489.17 159.142C488.091 158.52 487.206 159.022 487.206 160.262C487.206 161.503 488.082 163.024 489.161 163.647L528.488 186.353C529.567 186.976 530.448 186.468 530.452 185.233C530.452 183.993 529.576 182.471 528.502 181.853L528.498 181.849Z" fill="#E36290"/>
<path d="M478.967 160.423L439.639 137.716C438.561 137.094 437.675 137.596 437.675 138.837C437.675 140.077 438.551 141.598 439.63 142.221L478.958 164.927C480.036 165.55 480.917 165.043 480.922 163.807C480.922 162.567 480.046 161.045 478.971 160.428L478.967 160.423Z" fill="#E36290"/>
<path d="M461.701 158.52L439.616 145.767C438.538 145.145 437.652 145.647 437.652 146.887C437.652 148.128 438.528 149.649 439.607 150.272L461.691 163.024C462.77 163.647 463.655 163.144 463.655 161.904C463.655 160.664 462.779 159.142 461.701 158.52Z" fill="#D4D4D4"/>
<path d="M511.254 179.672L489.17 166.919C488.091 166.297 487.206 166.8 487.206 168.04C487.206 169.28 488.082 170.802 489.161 171.424L511.245 184.177C512.324 184.799 513.209 184.296 513.209 183.056C513.209 181.816 512.333 180.294 511.254 179.672Z" fill="#D4D4D4"/>
<path d="M461.678 166.34L439.593 153.587C438.515 152.965 437.629 153.468 437.629 154.708C437.629 155.948 438.505 157.469 439.584 158.092L461.668 170.845C462.747 171.467 463.633 170.964 463.633 169.724C463.633 168.484 462.757 166.967 461.678 166.345V166.34Z" fill="#D4D4D4"/>
<path d="M563.786 189.168L534.201 206.25L534.219 212.99L563.805 195.913L563.786 189.168Z" fill="#7DB0D2"/>
<path d="M534.201 206.243L480.959 175.5L480.936 182.245L534.177 212.983L534.201 206.243Z" fill="#83BBE0"/>
<g opacity="0.1">
<path d="M238.35 159.931C232.859 156.764 226.464 154.306 219.336 152.633C212.453 151.019 205.191 150.203 197.745 150.203C190.299 150.203 183.042 151.024 176.182 152.637C169.077 154.311 162.71 156.764 157.256 159.931C151.802 163.103 147.583 166.801 144.72 170.923C141.954 174.902 140.566 179.106 140.589 183.422C140.617 187.737 142.051 191.942 144.858 195.921C147.104 199.102 150.16 202.034 153.964 204.662L146.348 209.088L145.661 208.692C144.655 208.111 143.014 208.111 142.018 208.692L86.9551 240.693C85.9547 241.274 85.9639 242.224 86.969 242.805L95.798 247.899C96.8031 248.48 98.4399 248.48 99.4404 247.899L154.503 215.898C155.499 215.317 155.495 214.367 154.49 213.786L153.803 213.39L161.419 208.964C165.97 211.158 171.037 212.915 176.537 214.206C183.42 215.82 190.682 216.64 198.128 216.64C205.574 216.64 212.831 215.82 219.696 214.206C226.801 212.532 233.172 210.08 238.626 206.908C244.081 203.736 248.295 200.043 251.158 195.921C253.919 191.937 255.312 187.733 255.289 183.422C255.266 179.111 253.827 174.902 251.019 170.923C248.11 166.801 243.855 163.103 238.359 159.936L238.35 159.931Z" fill="black"/>
</g>
<path d="M159.206 166.854C150.58 171.865 146.26 178.44 146.241 185.024L146.274 173.737C146.292 167.153 150.612 160.579 159.238 155.567C167.251 150.911 177.611 148.403 188.155 148.043C188.146 151.805 188.132 155.567 188.123 159.329C177.574 159.689 167.219 162.197 159.206 166.854Z" fill="#B7B7B7"/>
<path d="M188.123 159.342C188.132 155.58 188.146 151.818 188.155 148.056C200.456 147.641 213.02 150.149 222.43 155.58C231.227 160.661 235.62 167.342 235.597 174.013L235.565 185.299C235.583 178.628 231.194 171.947 222.397 166.867C212.987 161.431 200.424 158.923 188.123 159.342Z" fill="#B7B7B7"/>
<path d="M243.043 174.031L243.011 185.318C243.001 189.181 241.738 192.953 239.258 196.521L239.29 185.235C241.766 181.662 243.029 177.895 243.043 174.031Z" fill="#B7B7B7"/>
<path opacity="0.3" d="M235.597 173.996L235.565 185.283C235.547 191.867 231.227 198.441 222.6 203.458C205.233 213.55 176.883 213.55 159.409 203.458C150.612 198.377 146.218 191.696 146.237 185.025L146.269 173.738C146.251 180.41 150.644 187.09 159.441 192.171C176.92 202.263 205.27 202.263 222.633 192.171C231.259 187.159 235.579 180.585 235.597 173.996Z" fill="#39C3F2"/>
<g opacity="0.5">
<path d="M222.43 160.558C239.908 170.651 240 187.069 222.637 197.161C205.27 207.253 176.92 207.253 159.446 197.161C141.963 187.069 141.871 170.646 159.238 160.554C176.602 150.461 204.952 150.461 222.43 160.554V160.558Z" fill="#66ACDF"/>
</g>
<path d="M138.796 185.013L138.828 173.727C138.828 173.773 138.828 173.823 138.828 173.869C138.851 177.788 140.156 181.61 142.71 185.225C144.753 188.116 147.524 190.781 150.982 193.169C152 193.874 153.079 194.557 154.213 195.211C155.348 195.866 156.528 196.489 157.75 197.079C161.885 199.07 166.487 200.67 171.489 201.841C177.741 203.307 184.343 204.054 191.107 204.054C197.875 204.054 204.463 203.312 210.701 201.846C217.16 200.329 222.947 198.098 227.903 195.216C232.859 192.334 236.691 188.978 239.291 185.234L239.259 196.521C236.658 200.265 232.827 203.626 227.871 206.503C222.914 209.384 217.128 211.616 210.669 213.132C204.431 214.599 197.838 215.341 191.074 215.341C184.311 215.341 177.708 214.599 171.457 213.128C166.459 211.957 161.853 210.357 157.717 208.365C156.496 207.775 155.32 207.157 154.181 206.498C153.047 205.843 151.968 205.161 150.949 204.455C147.491 202.067 144.72 199.402 142.678 196.512C140.124 192.892 138.819 189.075 138.796 185.156C138.796 185.11 138.796 185.059 138.796 185.013Z" fill="#B7B7B7"/>
<path d="M145.568 204.277L145.545 213.069L140.271 210.027L140.294 201.234L145.568 204.277Z" fill="#4D4C4D"/>
<path d="M156.232 198.102L156.209 206.898L145.545 213.072L145.568 204.28L156.232 198.102Z" fill="#3A3A3B"/>
<path d="M156.232 198.094L145.568 204.272L140.294 201.229L150.958 195.051C151.751 195.599 152.59 196.13 153.475 196.641C154.361 197.153 155.278 197.637 156.228 198.094H156.232Z" fill="#4D4C4D"/>
<path d="M239.29 185.229C236.69 188.973 232.859 192.334 227.902 195.211C222.946 198.093 217.16 200.324 210.701 201.841C204.463 203.307 197.87 204.049 191.106 204.049C184.343 204.049 177.74 203.307 171.489 201.836C166.491 200.665 161.885 199.066 157.749 197.074C156.528 196.488 155.352 195.866 154.213 195.207C153.079 194.552 152 193.869 150.981 193.164C147.523 190.776 144.752 188.111 142.71 185.22C140.156 181.601 138.851 177.783 138.828 173.865C138.809 169.946 140.068 166.124 142.581 162.509C145.181 158.765 149.012 155.404 153.973 152.523C158.93 149.641 164.716 147.414 171.17 145.893C177.408 144.427 184.001 143.68 190.765 143.68C197.533 143.68 204.131 144.422 210.387 145.888C216.86 147.405 222.674 149.636 227.663 152.518C232.651 155.4 236.52 158.756 239.161 162.5C241.711 166.119 243.02 169.941 243.039 173.855C243.062 177.774 241.799 181.596 239.286 185.211L239.29 185.229ZM159.441 192.177C176.92 202.27 205.265 202.27 222.633 192.177C239.996 182.085 239.904 165.667 222.425 155.575C204.942 145.482 176.597 145.482 159.234 155.575C141.866 165.667 141.958 182.09 159.441 192.182V192.177Z" fill="#EAEAE9"/>
<path d="M147.284 205.129L147.251 216.415C147.251 216.761 147.026 217.107 146.574 217.365L146.606 206.079C147.058 205.816 147.284 205.47 147.284 205.129Z" fill="#E7AF2A"/>
<path d="M84.5255 240.849L84.5578 229.562C84.5578 229.913 84.7883 230.263 85.2447 230.526L85.2124 241.813C84.7514 241.545 84.5208 241.195 84.5255 240.849Z" fill="#F6BA2D"/>
<path d="M146.61 206.078L146.578 217.365L96.5449 246.443L96.5772 235.152L146.61 206.078Z" fill="#E7AF2A"/>
<path d="M93.2672 235.152L93.235 246.443L85.2173 241.815L85.2496 230.523L93.2672 235.152Z" fill="#F6BA2D"/>
<path d="M96.577 235.145L96.5447 246.431C95.6364 246.957 94.1473 246.957 93.2344 246.431L93.2666 235.145C94.1794 235.67 95.6687 235.67 96.577 235.145Z" fill="#F6BA2D"/>
<path d="M146.597 204.16C147.509 204.685 147.514 205.552 146.606 206.078L96.5727 235.152C95.6644 235.677 94.1752 235.677 93.2623 235.152L85.2447 230.523C84.3318 229.997 84.3272 229.135 85.2355 228.605L135.268 199.531C136.177 199.005 137.666 199.005 138.579 199.531L139.206 199.891L145.974 203.8L146.597 204.16Z" fill="#FFC43B"/>
<path opacity="0.1" d="M59.6192 312.179C71.019 312.179 80.2604 307.801 80.2604 302.4C80.2604 296.999 71.019 292.621 59.6192 292.621C48.2194 292.621 38.978 296.999 38.978 302.4C38.978 307.801 48.2194 312.179 59.6192 312.179Z" fill="black"/>
<path d="M46.5067 295.071C46.5067 295.071 45.5109 300.157 49.0887 300.235C49.0887 300.235 51.1541 301.129 54.884 298.418C54.884 298.418 58.3557 298.405 60.8914 297.487C60.8914 297.487 62.3023 296.288 60.4673 295.795C58.637 295.302 53.2749 293.863 53.2749 293.863C53.2749 293.863 52.7263 294.089 46.5021 295.067L46.5067 295.071Z" fill="#4F312B"/>
<path d="M43.7452 236.868C43.7452 236.868 49.7572 240.648 55.6909 239.906C55.6909 239.906 54.8565 261.783 54.672 264.937C54.4876 268.09 53.3719 293.858 53.2797 293.858C53.1875 293.858 50.1353 296.85 46.5069 295.061C46.4193 294.411 45.6771 285.237 44.8426 283.102C44.0081 280.972 43.1735 272.996 45.4926 269.473C45.4926 269.473 46.0505 256.771 44.9347 253.991C43.8236 251.211 40.7945 243.558 43.7452 236.863V236.868Z" fill="#134569"/>
<path d="M57.4525 301.263C57.4525 301.263 55.0782 305.252 58.075 306.732C61.0672 308.216 63.6261 305.339 66.0558 305.989C68.4855 306.639 72.2891 307.843 75.3459 305.897C75.3459 305.897 75.6179 305.717 75.9176 305.404C76.3924 304.91 76.1711 304.085 75.5118 303.887C73.1881 303.195 67.9737 301.512 66.4661 299.871C66.4661 299.871 66.3692 300.115 57.4571 301.263H57.4525Z" fill="#4F312B"/>
<path d="M66.0512 240.563C66.0512 240.563 67.5542 263.265 67.2776 268.641C67.0009 274.017 65.7007 278.931 65.6085 283.288C65.5163 287.645 66.4753 299.881 66.4615 299.881C66.4477 299.881 61.6251 303.127 57.4526 301.274C57.4526 301.274 57.9182 290.241 56.9869 285.884C56.0602 281.527 56.111 273.371 58.7297 270.218C58.7297 270.218 54.5112 256.497 52.7822 254.274C51.0533 252.048 47.6415 246.266 49.2551 240.305C49.2551 240.305 56.5767 242.896 66.0512 240.568V240.563Z" fill="#195D8D"/>
<path d="M55.1661 194.16C55.1661 194.16 55.5902 198.664 61.9665 197.304C61.9665 197.304 64.092 189.568 62.4783 184.639C62.4783 184.639 56.9549 182.173 55.1661 184.639C53.3818 187.106 55.1661 194.16 55.1661 194.16Z" fill="#FAC2B0"/>
<path d="M47.9826 199.417L49.8684 193.865L55.8297 193.621L59.306 196.005C59.306 196.005 56.2907 197.826 55.364 203.091L47.978 199.417H47.9826Z" fill="#FAC2B0"/>
<path d="M49.3381 195.607C49.3381 195.607 53.6718 196.833 55.6959 195.607C57.7152 194.38 58.6097 190.042 60.2511 191.204C60.2511 191.204 60.8965 190.374 60.2511 188.52C59.6056 186.667 59.8684 185.505 60.832 185.44C61.7956 185.376 63.7136 185.076 63.7136 182.425C63.7136 182.425 61.6066 182.914 58.8633 181.706C57.5217 181.116 53.3492 180.005 51.9937 181.199C50.6382 182.393 50.4722 183.781 50.5367 184.611C50.5367 184.611 49.1766 185.039 48.9138 186.86C48.651 188.682 48.9462 192.956 49.3427 195.602L49.3381 195.607Z" fill="#5F3D37"/>
<path d="M58.7945 193.682C58.7945 193.682 56.0419 191.192 57.3652 189.279C57.4896 189.095 57.6879 188.975 57.9138 188.956C58.4394 188.919 59.4491 189.178 60.3158 191.363L58.7945 193.682Z" fill="#FAC2B0"/>
<path d="M45.7002 200.469C47.8856 201.345 47.4568 204.715 46.7284 206.647C45.9999 208.579 40.8915 222.217 40.8915 225.301C40.8915 228.386 42.8879 240.553 42.8879 240.553C42.8879 240.553 39.9833 242.369 38.1068 241.217C38.1068 241.217 34.4138 229.958 35.382 223.904C36.3502 217.851 41.0759 203.369 41.6799 201.981C42.2654 200.644 44.1788 199.856 45.6956 200.46L45.7002 200.469Z" fill="#F4F5F5"/>
<path d="M38.1115 241.215C38.1115 241.215 37.9224 243.626 38.5356 244.935C39.3932 246.761 41.3296 248.112 43.5841 247.752C45.8386 247.393 42.888 240.551 42.888 240.551L38.1069 241.215H38.1115Z" fill="#FAC2B0"/>
<path d="M47.913 198.227C49.144 198.466 50.5087 198.803 51.9564 199.287C54.3861 200.098 55.3496 200.389 56.9587 201.334C56.493 202.731 56.0275 204.133 55.5618 205.53L47.2168 200.26L47.913 198.227Z" fill="#F7F7F7"/>
<path d="M49.8497 200.197C51.3619 200.418 52.8188 200.921 54.1513 201.677C57.7843 203.733 62.5746 207.477 63.0817 208.427C63.6949 209.579 65.1104 213.346 65.0044 216.486C64.8983 219.626 66.9546 257.505 68.4207 261.798C68.4207 261.798 55.788 265.62 49.089 262.48C49.089 262.48 45.6218 261.212 44.4323 259.811C44.4323 259.811 42.4867 250.525 42.7265 239.552C42.9339 230.05 41.5923 218.551 41.0114 215.37C39.7527 208.441 40.8546 201.036 43.8837 200.317C45.9723 199.824 48.2406 199.971 49.8497 200.206V200.197Z" fill="white"/>
<path d="M92.7038 211.569C92.7038 211.569 95.7514 210.135 96.2908 208.06C96.8302 205.986 95.9727 203.957 94.4974 202.357C94.4974 202.357 97.1807 198.908 96.4522 197.848C95.7238 196.788 90.9242 202.38 90.5415 203.238C90.1589 204.095 88.9556 207.756 88.9556 207.756L90.9473 210.946L92.7038 211.569Z" fill="#FAC2B0"/>
<path d="M58.5957 211.498C59.0291 208.534 61.007 207.492 63.0817 208.428C65.161 209.364 76.927 217.188 78.7989 216.155C80.6754 215.122 88.9466 207.75 88.9466 207.75C88.9466 207.75 92.3076 208.718 92.6949 211.563C92.6949 211.563 84.8709 222.49 80.5417 222.942C76.2124 223.393 61.4727 218.285 60.5644 217.188C59.6607 216.09 58.2269 213.956 58.5865 211.498H58.5957Z" fill="#F4F5F5"/>
<path opacity="0.1" d="M504.592 437.986C514.56 437.986 522.642 434.157 522.642 429.433C522.642 424.71 514.56 420.881 504.592 420.881C494.623 420.881 486.542 424.71 486.542 429.433C486.542 434.157 494.623 437.986 504.592 437.986Z" fill="black"/>
<path d="M513.361 423.889C513.361 423.889 514.578 427.264 513.531 428.61C512.485 429.956 507.939 429.389 506.164 428.905C504.389 428.421 498.312 424.788 498.068 423.889C497.828 422.99 498.446 422.745 499.626 422.99C500.806 423.234 513.361 423.889 513.361 423.889Z" fill="#333232"/>
<path d="M514.831 375.029C514.831 375.029 516.625 378.939 515.887 382.821C515.15 386.698 512.314 397.658 512.379 399.875C512.439 402.093 514.836 405.477 514.223 408.681C513.61 411.881 512.932 423.029 513.365 423.891C513.365 423.891 509.732 426.293 507.33 423.891L504.868 402.6L504.19 378.054L514.836 375.029H514.831Z" fill="#29867C"/>
<path d="M500.797 426.768C500.797 426.768 493.328 426.607 492.927 427.063C492.521 427.519 493.951 430.023 496.532 430.774C499.114 431.526 501.562 431.821 502.047 432.199C502.531 432.577 505.491 433.707 506.214 433.14C506.938 432.577 508.008 431.554 506.897 427.815L500.802 426.768H500.797Z" fill="#333232"/>
<path d="M496.016 377.021L497.597 403.504C497.597 403.504 497.473 405.722 497.966 407.262C498.46 408.802 500.797 426.778 500.797 426.778C500.797 426.778 503.444 428.996 506.892 427.824C506.892 427.824 506.155 418.405 506.892 416.188C507.63 413.97 507.137 408.059 505.846 406.215C505.846 406.215 505.417 394.025 506.832 391.07C508.248 388.114 511.862 382.808 510.272 377.427L496.016 377.026V377.021Z" fill="#55A89F"/>
<path d="M512.853 340.111C511.314 340.623 509.875 342.813 512.024 347.871C514.172 352.929 516.528 356.659 517.496 359.503C518.464 362.348 521.512 372.804 521.512 372.804C521.512 372.804 524.974 373.427 526.155 371.905C526.155 371.905 524.006 360.919 522.692 356.82C521.378 352.721 517.533 343.791 516.477 342.26C515.421 340.729 514.73 339.489 512.858 340.111H512.853Z" fill="#5DB8AE"/>
<path d="M526.15 371.904C526.15 371.904 527.685 377.469 525.813 378.875C523.941 380.282 521.553 378.723 521.41 377.022C521.272 375.316 521.507 372.803 521.507 372.803L526.15 371.904Z" fill="#FAC2B0"/>
<path d="M500.137 336.409C500.137 336.409 500.986 339.959 501.101 341.19C501.101 341.19 504.997 341.19 507.348 339.646L506.615 333.514L500.133 336.404L500.137 336.409Z" fill="#FAC2B0"/>
<path d="M501.129 324.761C498.732 324.544 495.892 325.047 495.965 328.117C496.039 331.188 496.399 337.61 497.289 337.97C497.289 337.97 501.927 338.237 504.518 336.098C504.518 336.098 507.999 325.388 501.129 324.765V324.761Z" fill="#FAC2B0"/>
<path d="M507.012 336.827C505.426 337.214 500.677 339.229 499.289 326.923C499.289 326.923 495.739 327.772 494.545 326.347C493.351 324.918 496.666 323.027 500.484 322.566C504.301 322.105 507.505 323.723 507.348 325.226C507.348 325.226 509.7 326.19 509.317 330.127C508.93 334.06 507.879 336.619 507.012 336.827Z" fill="#4D312C"/>
<path d="M501.83 330.081C501.152 329.127 499.534 330.833 499.34 331.193C499.34 331.193 499.289 332.668 500.138 332.862C500.986 333.055 502.789 331.432 501.83 330.086V330.081Z" fill="#FAC2B0"/>
<path d="M504.91 339.513C504.91 339.513 498.93 340.182 496.021 344.894C494.411 347.503 495.97 384.014 495.97 384.014C495.97 384.014 511.456 387.91 516.45 382.695C516.473 381.589 516.463 379.915 516.279 377.891C515.975 374.59 515.403 372.584 515.126 371.081C514.287 366.489 515.56 363.004 516.164 360.127C517.04 355.973 517.279 349.546 514.043 339.965C512.342 339.412 508.93 338.573 504.91 339.509V339.513Z" fill="#65C5BA"/>
<path d="M493.517 356.112L485.462 336.111L471.211 342.603L479.063 362.571L493.517 356.112Z" fill="white"/>
<path d="M482.747 360.127C482.747 360.127 480.843 356.605 480.391 354.53C479.939 352.455 478.768 354.774 479.16 357.329C479.16 357.329 477.343 357.674 476.532 356.185C476.532 356.185 476.011 357.776 477.021 359.491C477.021 359.491 477.053 361.63 477.929 362.442C478.805 363.253 480.584 364.258 480.584 364.258C480.584 364.258 480.534 361.828 482.747 360.123V360.127Z" fill="#FAC2B0"/>
<path d="M499.372 346.058C497.141 344.394 495.831 345.168 495.393 346.445C494.955 347.723 491.405 361.872 490.183 362.259C488.961 362.647 484.134 361.374 482.747 360.125C482.747 360.125 480.137 361.042 480.584 364.26C480.584 364.26 489.575 372.195 492.737 369.032C495.9 365.869 501.673 352.384 501.894 350.941C502.115 349.498 501.548 347.681 499.377 346.058H499.372Z" fill="#5DB8AE"/>
<path opacity="0.1" d="M647.95 306.365C659.829 306.365 669.458 302.928 669.458 298.688C669.458 294.449 659.829 291.012 647.95 291.012C636.072 291.012 626.442 294.449 626.442 298.688C626.442 302.928 636.072 306.365 647.95 306.365Z" fill="black"/>
<path d="M646.438 290.281C646.438 290.281 647.775 294.38 647.037 295.897C646.3 297.418 643.413 299.138 641.897 300.424C640.375 301.715 635.806 304.136 634.331 302.481C632.855 300.825 634.285 299.212 637.092 296.957C639.9 294.703 640.822 291.249 640.822 291.249C640.822 291.249 644.183 291.388 646.438 290.281Z" fill="#EFEFEF"/>
<path d="M654.22 274.184C654.22 274.184 657.457 275.632 657.798 277.379C658.139 279.131 656.696 285.143 655.705 286.056C654.714 286.969 652.206 288.795 651.214 288.528C650.223 288.26 652.09 284.834 652.09 284C652.09 283.165 652.395 278.329 651.634 277.416C651.634 277.416 653.953 275.858 654.22 274.18V274.184Z" fill="#EFEFEF"/>
<path d="M632.574 234.027C632.574 234.027 631.767 254.429 633.74 260.547C635.714 266.665 644.52 269.076 651.569 278.071C651.569 278.071 654.442 277.145 654.442 273.899C654.442 273.899 650.454 268.984 650.085 268.057C649.716 267.131 646.309 260.547 640.499 257.209L642.533 236.623L632.574 234.027Z" fill="#25796F"/>
<path d="M653.602 240.297C653.602 240.297 646.24 260.942 646.023 262.86C645.811 264.783 648.208 283.847 646.77 290.5C646.77 290.5 644.847 292.423 640.389 291.874C640.389 291.874 638.056 271.436 638.402 262.791C638.743 254.151 640.527 237.895 640.527 237.895C640.527 237.895 650.145 240.569 653.602 240.297Z" fill="#29867C"/>
<path d="M634.317 203.469C633.962 206.337 633.45 213.787 632.837 214.912C632.224 216.037 626.092 222.423 626.092 222.423C626.092 222.423 628.494 223.649 628.595 225.894C628.595 225.894 635.746 221.196 637.023 218.693C638.3 216.189 639.213 207.914 639.038 205.714C638.863 203.52 638.153 203.363 637.613 203.008C637.074 202.648 634.469 202.224 634.317 203.469Z" fill="#5DB8AE"/>
<path d="M628.59 225.89C628.59 225.89 628.664 227.592 627.442 228.237C626.221 228.887 624.801 229.284 624.501 229.832C624.201 230.381 624.303 230.98 623.68 231.128C623.058 231.275 621.587 228.883 621.661 227.015C621.735 225.148 624.934 222.875 626.092 222.414C626.092 222.414 628.821 223.64 628.595 225.886L628.59 225.89Z" fill="#FAC2B0"/>
<path d="M652.57 188.301C652.57 188.301 655.525 190.26 655.58 193.875C655.631 197.489 651.555 202.616 651.555 202.616L648.789 201.206C648.789 201.206 650.536 196.595 650.486 191.929L652.574 188.301H652.57Z" fill="#966627"/>
<path d="M651.837 187.309L652.574 188.3C652.574 188.3 652.717 190.186 650.486 191.928L649.656 191.476C649.656 191.476 651.666 189.522 651.837 187.309Z" fill="#F16722"/>
<path d="M647.867 194.037C648.886 193.083 651.638 190.497 652.072 187.882C652.505 185.273 652.049 177.527 644.806 176.896C637.562 176.264 637.065 186.319 639.743 188.565L647.867 194.037Z" fill="#966627"/>
<path d="M647.226 194.038C649.697 195.32 656.161 199.598 656.438 202.623C656.715 205.647 654.778 217.505 654.658 220.751C654.539 223.992 653.948 230.673 654.976 233.559C656.005 236.445 653.63 242.019 653.63 242.019C653.63 242.019 640.901 243.048 631.532 234.352C631.532 234.352 633.943 226.722 634.575 221.069C635.207 215.417 634.455 212.056 632.717 209.409C630.979 206.763 636.355 193.24 637.973 192.609C639.596 191.977 644.557 192.655 647.222 194.043L647.226 194.038Z" fill="#65C5BA"/>
<path d="M642.962 178.664C639.753 179.494 638.365 181.886 638.504 184.768C638.642 187.649 640.288 194.851 642.275 194.92C644.262 194.989 647.42 192.518 648.107 189.503C648.794 186.483 648.794 177.156 642.962 178.664Z" fill="#FAC2B0"/>
<path d="M640.283 180.026C638.743 181.441 640.726 185.13 643.45 186.31C646.175 187.49 650.481 186.31 650.481 186.31C650.481 186.31 647.729 173.175 640.283 180.026Z" fill="#966627"/>
<path d="M646.419 188.327C646.419 188.327 646.456 184.33 648.397 185.607C650.338 186.884 648.895 189.706 646.797 190.116L646.419 188.327Z" fill="#FAC2B0"/>
<path d="M649.536 195.405C649.536 195.405 647.494 198.978 643.81 198.093C643.81 198.093 643.87 194.727 642.085 193.653C642.085 193.653 646.332 189.752 647.669 188.867C647.669 188.867 648.074 193.395 649.541 195.405H649.536Z" fill="#FAC2B0"/>
<path d="M651.246 208.477L637.525 210.957L641.315 231.142L655.188 228.509L651.246 208.477Z" fill="#6778B9"/>
<path d="M652.856 202.621C650.537 204.166 651.8 207.923 652.399 209.643C652.999 211.363 654.506 217.97 654.506 217.97C654.506 217.97 649.481 219.408 644.986 221.377C644.986 221.377 646.429 223.59 645.811 225.24C645.811 225.24 659.002 224.775 661.007 220.847C661.796 219.307 657.379 204.064 656.65 202.612C655.922 201.164 652.856 202.612 652.856 202.612V202.621Z" fill="#5DB8AE"/>
<path d="M644.986 221.38C644.986 221.38 642.049 220.956 640.864 221.38C639.684 221.804 638.932 222.468 639.047 223.911C639.163 225.354 639.365 227.775 641.325 227.918C643.284 228.06 645.811 225.244 645.811 225.244C645.811 225.244 646.655 224.013 644.986 221.38Z" fill="#FAC2B0"/>
<path opacity="0.1" d="M585.672 289.369C596.621 289.369 605.497 286.201 605.497 282.292C605.497 278.383 596.621 275.215 585.672 275.215C574.723 275.215 565.847 278.383 565.847 282.292C565.847 286.201 574.723 289.369 585.672 289.369Z" fill="black"/>
<path d="M574.943 248.53C574.943 248.53 576.566 265.981 575.925 272.933C578.419 273.159 580.19 272.629 581.25 272.131C580.904 268.784 580.586 263.579 581.407 259.987C582.702 254.302 582.956 250.342 581.84 247.843L581.319 229.752C581.319 229.752 584.422 246.289 585.455 250.167C586.28 253.279 590.766 267.484 592.684 274.353C593.155 276.041 593.468 277.286 593.542 277.816C593.897 280.485 591.486 291.426 596.138 291.426C600.79 291.426 600.96 281.002 599.498 277.645C598.184 274.63 597.977 275.843 597.392 273.081C597.322 272.767 597.253 272.399 597.175 271.961C596.4 267.742 596.741 256.538 594.934 252.149C593.127 247.756 592.352 247.585 592.094 245.602C591.836 243.624 595.925 220.798 591.467 215.971C591.467 215.971 581.223 219.401 573.14 213.988C573.14 213.988 571.937 238.193 574.948 248.535L574.943 248.53Z" fill="#253C80"/>
<path d="M566.935 281.611C567.018 282.727 569.171 284.11 573.048 283.073C576.926 282.04 582.352 279.458 582.44 278.08C582.527 276.697 581.66 275.41 581.66 275.41C581.66 275.41 577.483 280.154 572.43 280.191C571.6 280.191 570.964 279.975 570.485 279.587C568.571 280.505 566.888 281.072 566.93 281.616L566.935 281.611Z" fill="#FAC2B0"/>
<path d="M566.935 281.611C567.018 282.727 569.171 284.11 573.048 283.073C576.926 282.04 582.352 279.458 582.44 278.08C582.527 276.697 581.66 275.41 581.66 275.41C581.66 275.41 577.483 280.154 572.43 280.191C571.6 280.191 570.964 279.975 570.485 279.587C568.571 280.505 566.888 281.072 566.93 281.616L566.935 281.611Z" fill="#FAC2B0"/>
<path d="M570.489 279.576C570.969 279.963 571.6 280.184 572.435 280.18C577.488 280.147 581.665 275.398 581.665 275.398C581.665 275.398 581.453 274.075 581.255 272.125C580.194 272.618 578.424 273.153 575.93 272.927C575.842 273.84 575.718 274.569 575.552 275.057C574.795 277.229 572.513 278.603 570.489 279.576Z" fill="#FAC2B0"/>
<path d="M566.935 281.611C567.018 282.727 569.171 284.11 573.048 283.073C576.926 282.04 582.352 279.458 582.44 278.08C582.527 276.697 581.66 275.41 581.66 275.41C581.66 275.41 577.483 280.154 572.43 280.191C571.6 280.191 570.964 279.975 570.485 279.587C568.571 280.505 566.888 281.072 566.93 281.616L566.935 281.611Z" fill="#24356D"/>
<path d="M593.375 281.984C593.085 286.106 592.891 291.431 596.137 291.431C600.784 291.431 600.96 281.007 599.498 277.65C599.148 276.843 598.876 276.341 598.654 275.981C598.046 274.999 597.825 275.11 597.391 273.086C596.57 273.759 595.1 274.52 592.688 274.363C593.159 276.05 593.472 277.295 593.546 277.825C593.652 278.632 593.509 280.2 593.38 281.989L593.375 281.984Z" fill="#FAC2B0"/>
<path d="M596.138 291.426C600.785 291.426 600.96 281.002 599.498 277.646C599.148 276.839 598.876 276.336 598.655 275.977C599.199 279.439 600.02 287.337 596.184 287.268C596.184 287.268 594.183 287.618 593.376 281.975C593.085 286.097 592.892 291.422 596.138 291.422V291.426Z" fill="#24356D"/>
<path d="M559.765 211.735C559.765 211.735 560.77 212.463 561.194 215.617C561.277 215.571 561.319 215.543 561.319 215.543C561.319 215.543 571.042 211.79 572.213 209.489C573.38 207.184 578.885 193.892 579.636 192.205C580.388 190.513 579.268 187.198 579.268 187.198C578.368 186.681 577.101 186.797 575.782 188.161C574.468 189.521 569.775 204.741 568.599 206.055C567.428 207.369 559.77 211.735 559.77 211.735H559.765Z" fill="#F4F5F5"/>
<path d="M554.55 217.425C557.63 217.637 560.563 215.996 561.19 215.618C560.765 212.464 559.76 211.736 559.76 211.736C559.76 211.736 554.034 210.284 553.236 210.754C552.439 211.22 554.878 213.004 554.878 213.004C554.878 213.004 550.558 212.63 550.512 213.004C550.466 213.382 551.074 217.186 554.55 217.421V217.425Z" fill="#FAC2B0"/>
<path d="M572.9 229.041C572.9 229.041 576.543 220.843 575.372 215.053C575.372 215.053 576.086 217.007 581.287 216.943C581.287 216.943 580.462 209.912 580.775 207.952C581.089 205.993 582.661 198.773 585.874 195.32C587.912 193.134 589.669 189.561 590.678 187.242C590.014 186.795 589.277 186.389 588.442 186.043C587.303 185.569 585.962 185.887 584.722 185.827C581.342 185.675 578.133 186.242 577.515 187.145C576.667 188.386 573.739 194.693 573.675 201.263C573.606 207.833 572.241 218.829 571.139 220.129C570.033 221.429 572.896 229.041 572.896 229.041H572.9Z" fill="#4470B6"/>
<path d="M572.9 230.704C572.9 230.704 576.616 222.889 576.335 217.126C576.275 215.937 576.326 214.743 576.441 213.558C576.483 213.106 576.529 212.571 576.57 211.935C576.838 207.735 577.253 201.451 578.889 196.356C580.125 192.511 585.1 187.698 586.953 185.383C583.574 185.231 578.069 186.195 577.456 187.094C576.607 188.334 573.523 194.664 573.463 201.239C573.394 207.809 571.951 218.616 571.148 220.123C570.111 222.083 572.905 230.704 572.905 230.704H572.9Z" fill="white"/>
<path d="M579.383 172.913C578.825 174.31 578.489 177.606 579.775 181.124C581.061 184.642 581.619 186.039 581.619 186.039C581.619 186.039 591.057 185.145 590.052 177.606C589.047 170.068 579.383 172.913 579.383 172.913Z" fill="#FAC2B0"/>
<path d="M583.288 184.179C583.288 184.179 584.514 187.033 584.505 188.96C584.505 188.96 588.894 190.846 590.13 186.881L589.876 180.527L583.288 184.179Z" fill="#FAC2B0"/>
<path d="M580.904 173.713C580.904 173.713 580.134 175.548 578.89 175.709C578.89 175.709 577.156 169.319 585.1 167.793L580.904 173.713Z" fill="#693215"/>
<path d="M580.609 172.371C580.231 173.326 580.272 174.404 580.761 175.308C581.171 176.069 581.84 177 582.9 177.848C585.252 179.73 588.461 184.027 587.958 187.498C587.958 187.498 595.842 180.878 592.873 173.496C589.904 166.11 585.146 167.493 583.288 168.438C582.098 169.038 581.144 171.02 580.604 172.376L580.609 172.371Z" fill="#52260F"/>
<path d="M581.291 216.935C581.291 216.935 583.961 228.254 586.889 230.854C589.816 233.459 593.546 233.325 593.546 233.325C593.546 233.325 595.801 223.887 593.196 215.432C590.595 206.976 592.647 203.786 594.45 202.421C594.45 202.421 597.88 196.307 596.123 193.573C594.726 191.393 594.275 188.945 590.13 186.418C589.12 188.742 586.266 190.581 584.505 193.845C581.296 199.798 581.089 205.98 580.775 207.944C580.466 209.904 581.287 216.935 581.287 216.935H581.291Z" fill="white"/>
<path d="M592.121 199.032C593.445 202.19 597.783 208.387 597.41 210.125C597.142 211.388 594.865 219.71 593.698 224.865C595.16 224.468 596.594 225.021 597.29 225.358C597.322 225.21 597.364 225.095 597.41 224.998C597.848 224.132 604.353 212.223 603.671 208.723C602.988 205.229 598.659 197.852 597.304 195.127C596.511 193.536 595.026 192.517 593.915 192.711C592.656 192.928 592.274 193.536 591.854 194.408C591.352 195.45 591.236 196.925 592.121 199.032Z" fill="#F4F5F5"/>
<path d="M593.011 228.771C593.131 230.629 593.315 233.045 595.551 233.294C597.783 233.543 598.65 232.238 597.843 230.629C597.124 229.195 596.995 226.531 597.285 225.35C596.589 225.009 595.155 224.46 593.693 224.857C593.255 226.784 592.974 228.269 593.011 228.776V228.771Z" fill="#FAC2B0"/>
<path d="M414.895 176.508C414.083 178.481 413.241 180.367 412.37 182.224C409.469 188.525 406.36 194.154 403.865 199.265V199.294C403.865 199.294 403.865 199.323 403.836 199.352C403.807 199.381 403.778 199.439 403.749 199.497C403.139 200.774 402.559 202.022 402.036 203.241H402.007C400.15 207.565 398.931 211.514 398.931 215.2C398.931 225.36 395.188 243.3 392.283 252.006C389.381 260.715 386.36 272.297 382.964 284.866C379.598 297.463 380.004 328.465 365.546 334.708C362.586 334.708 359.652 330.616 357.243 324.78H357.214C353.732 316.303 351.262 304.17 351.262 295.403C351.262 266.229 348.651 246.405 337.968 229.277C328.563 238.683 325.4 256.826 325.4 274.241C325.4 291.656 318.867 321.875 308.475 332.296C305.66 332.296 301.913 327.566 298.344 320.714C298.344 320.685 298.315 320.685 298.315 320.685C292.74 309.858 287.662 293.72 287.662 282.457C287.662 282.457 277.995 250.323 277.995 236.884C277.995 231.048 276.167 222.052 273.526 212.385C272.685 209.396 271.785 206.317 270.856 203.299C270.827 203.27 270.827 203.241 270.827 203.241C269.492 198.975 268.041 194.764 266.59 190.788C264.733 185.623 262.818 180.889 261.044 177.001C258.462 171.284 257.243 165.187 257.475 159.322C257.823 148.755 262.699 138.915 272.191 133.459C283.541 126.868 297.241 129.599 306.153 133.053L306.182 133.082C308.794 134.097 311.029 135.171 312.628 136.1H312.657C318.406 131.892 326.125 127.652 334.109 127.652C343.079 127.652 351.904 132.995 357.911 137.667C357.911 137.667 361.858 134.968 367.578 131.889C367.578 131.889 367.607 131.889 367.665 131.86C378.869 125.908 396.781 118.711 405.722 127.652C411.41 133.343 415.156 140.017 417.043 147.043C419.654 156.681 418.813 166.986 414.895 176.508Z" fill="#E6F1FF"/>
<path d="M412.367 182.221C408.231 190.662 406.357 194.151 403.862 199.261V199.291C403.862 199.291 403.862 199.32 403.833 199.349C403.803 199.378 403.774 199.436 403.745 199.494C402.469 201.264 391.438 215.867 371.002 218.595C371.002 218.595 354.077 216.418 340.667 216.418C327.257 216.418 316.546 221.497 309.665 221.497C285.427 221.497 271.698 204.369 270.853 203.295C270.824 203.266 270.824 203.237 270.824 203.237C269.489 198.971 268.038 194.76 266.587 190.785C279.578 203.237 300.027 208.935 337.994 208.935C389.316 208.935 401.92 191.336 412.364 182.221H412.367Z" fill="#E6F1FF"/>
<path d="M384.789 144.579C375.168 139.024 348.505 159.456 348.505 159.456C336.182 152.343 320.566 159.456 320.566 159.456C320.566 159.456 301.32 143.66 284.644 153.288C284.644 153.288 304.618 142.751 322.033 152.805C322.033 152.805 334.902 149.548 345.981 151.541C345.981 151.541 375.529 135.319 384.789 144.582V144.579Z" fill="#CEE0E8"/>
<path d="M303.148 144.575C303.148 144.575 318.144 127.641 334.112 127.641C350.079 127.641 365.559 144.575 365.559 144.575C365.559 144.575 336.249 125.464 303.148 144.575Z" fill="#E6F1FF"/>
<path d="M306.186 133.085C306.186 133.085 266.445 131.024 257.479 159.325C257.827 148.758 262.702 138.917 272.194 133.462C283.544 126.871 297.245 129.602 306.157 133.056L306.186 133.085Z" fill="#E6F1FF"/>
<path d="M417.042 147.04C404.532 123.354 369.525 131.424 367.665 131.86C378.869 125.908 396.781 118.711 405.722 127.652C411.41 133.343 415.156 140.017 417.042 147.043V147.04Z" fill="#E6F1FF"/>
<g style="mix-blend-mode:screen" opacity="0.8">
<path d="M405.49 147.051C407.589 149.121 408.679 151.907 409.259 154.709C409.804 157.536 409.749 160.487 409.149 163.308C408.488 166.107 407.424 168.822 405.796 171.156C404.21 173.51 402.178 175.541 399.683 176.999C400.208 174.113 401.043 171.675 401.666 169.212C402.388 166.797 402.901 164.424 403.478 162.086C403.981 159.729 404.387 157.369 404.716 154.912C405.061 152.439 405.296 149.93 405.49 147.054V147.051Z" fill="#E6F1FF"/>
</g>
<g style="mix-blend-mode:screen" opacity="0.8">
<path d="M270.833 151.535C272.739 156.72 273.758 161.305 275.051 165.842C275.651 168.118 276.366 170.301 277.079 172.574C277.769 174.883 278.723 177.062 279.581 179.774C276.986 178.775 274.741 176.966 273.071 174.763C271.42 172.555 270.143 170.037 269.457 167.396C268.741 164.762 268.457 162.037 268.634 159.348C268.857 156.665 269.408 153.979 270.833 151.535Z" fill="#E6F1FF"/>
</g>
<path d="M402.008 203.242C400.15 207.566 398.931 211.516 398.931 215.201C398.931 225.361 395.188 243.302 392.283 252.007C389.381 260.717 386.36 272.298 382.964 284.867C379.598 297.465 380.004 328.467 365.546 334.709C362.586 334.709 359.652 330.618 357.244 324.781C362.293 329.715 373.149 315.037 371.002 301.917C368.855 288.769 374.575 263.912 379.624 249.399C384.731 234.886 381.9 215.817 381.9 215.817L402.004 203.242H402.008Z" fill="#CEE0E8"/>
<path d="M337.971 229.279C328.566 238.684 325.403 256.828 325.403 274.242C325.403 291.657 318.87 321.876 308.478 332.297C305.663 332.297 301.917 327.567 298.347 320.715C310.451 327.625 309.903 297.464 313.299 288.755C316.694 280.046 317.052 264.86 318.158 252.223C319.825 233.151 337.968 229.275 337.968 229.275L337.971 229.279Z" fill="#CEE0E8"/>
<path d="M303.148 144.58C306.859 139.731 311.451 135.562 316.604 132.131C319.186 130.409 322.001 129.029 324.942 127.897C327.928 126.865 331.094 126.269 334.318 126.211C337.552 126.288 340.686 126.988 343.662 128.017C346.606 129.139 349.399 130.554 351.984 132.257C357.153 135.662 361.774 139.786 365.553 144.58C363.234 142.607 360.884 140.701 358.401 138.996C355.967 137.232 353.465 135.575 350.84 134.175C345.626 131.373 340.012 129.19 334.292 129.11C331.449 129.116 328.598 129.629 325.819 130.49C323.043 131.389 320.379 132.66 317.745 134.033C315.136 135.458 312.638 137.116 310.222 138.905C307.756 140.637 305.431 142.568 303.145 144.577L303.148 144.58Z" fill="#C4E5F2"/>
<path d="M365.859 336.164H365.559C356.466 336.164 349.821 309.353 349.821 295.398C349.821 268.859 347.767 248.8 337.739 231.675C330.707 239.884 326.857 254.881 326.857 274.24C326.857 291.661 320.253 322.567 309.497 333.323L309.071 333.749H308.472C299.556 333.749 286.327 300.399 286.217 282.681C285.317 279.676 276.541 249.99 276.541 236.895C276.541 223.801 266.59 192.673 259.739 177.603C251.81 160.155 256.85 140.638 271.459 132.2C286.185 123.701 304.731 129.875 313.369 134.86L311.918 137.375C304.377 133.022 286.52 126.864 272.913 134.715C259.6 142.399 255.073 160.32 262.383 176.4C269.338 191.706 279.446 222.882 279.446 236.895C279.446 249.977 288.964 281.73 289.061 282.046L289.122 282.465C289.122 301.109 302.033 329.067 307.936 330.763C317.877 320.087 323.958 290.891 323.958 274.24C323.958 261.92 325.648 239.562 336.962 228.248L338.255 226.955L339.219 228.506C350.469 246.578 352.729 267.498 352.729 295.398C352.729 311.059 359.923 332.54 365.295 333.246C375.01 328.725 377.418 311.346 379.359 297.362C380.069 292.251 380.681 287.84 381.578 284.506L382.984 279.27C385.763 268.891 388.394 259.082 390.903 251.557C393.653 243.299 397.493 225.481 397.493 215.215C397.493 208.386 401.369 200.853 405.854 192.132C408.33 187.318 411.135 181.865 413.567 175.958C420.476 159.175 417.075 141.058 404.69 128.673C392.137 116.12 359.068 138.646 358.736 138.878L357.089 136.489C358.53 135.495 392.505 112.383 406.741 126.622C419.97 139.848 423.614 159.178 416.249 177.064C413.77 183.081 410.936 188.594 408.433 193.46C404.119 201.847 400.395 209.088 400.395 215.215C400.395 225.771 396.468 244.031 393.653 252.476C391.173 259.921 388.555 269.684 385.786 280.021L384.38 285.261C383.528 288.418 382.9 292.957 382.232 297.759C380.172 312.616 377.605 331.105 366.136 336.048L365.862 336.167L365.859 336.164Z" fill="#C4E5F2"/>
<path d="M405.071 200.096C402.914 202.857 400.547 205.133 397.964 207.267C395.394 209.386 392.631 211.253 389.713 212.817C386.808 214.393 383.767 215.719 380.611 216.647C377.486 217.679 374.233 218.195 371.002 218.601C374.201 217.956 377.373 217.205 380.372 215.964C383.4 214.822 386.269 213.303 388.971 211.569C391.686 209.847 394.211 207.848 396.52 205.639C398.815 203.456 400.985 200.99 402.665 198.475L405.071 200.1V200.096Z" fill="#C4E5F2"/>
<path d="M271.991 202.382C274.071 205.126 276.708 207.747 279.488 210.021C282.283 212.323 285.33 214.332 288.574 215.982C291.805 217.653 295.223 219.017 298.782 219.894C302.32 220.9 305.995 221.267 309.681 221.506C305.995 221.506 302.265 221.383 298.621 220.6C294.955 219.948 291.379 218.788 287.949 217.292C284.508 215.815 281.223 213.945 278.163 211.746C275.087 209.534 272.259 207.109 269.673 204.13L271.988 202.379L271.991 202.382Z" fill="#C4E5F2"/>
<path d="M284.643 153.287C287.326 151.494 290.45 150.298 293.707 149.805C296.967 149.263 300.32 149.485 303.554 150.143C306.785 150.823 309.926 151.904 312.918 153.29C315.92 154.696 318.709 156.369 321.424 158.414L320.008 158.23C322.365 157.172 324.696 156.469 327.134 155.895C329.556 155.334 332.035 154.973 334.544 154.873C339.535 154.702 344.758 155.647 349.185 158.278L347.676 158.375C353.219 154.332 359.013 150.753 365.169 147.757C368.242 146.267 371.411 144.92 374.755 144.094C378.008 143.33 381.803 142.734 384.789 144.578C381.623 143.198 378.156 144.094 375.061 145.123C371.933 146.271 368.925 147.735 366.001 149.36C363.079 150.991 360.248 152.79 357.482 154.683C354.712 156.556 351.949 158.497 349.331 160.532L348.637 161.071L347.818 160.632C345.832 159.562 343.707 158.736 341.473 158.291C339.248 157.82 336.943 157.682 334.64 157.766C332.335 157.833 330.023 158.146 327.75 158.646C325.493 159.146 323.197 159.845 321.121 160.68L320.327 161L319.705 160.493C317.345 158.575 314.611 156.876 311.86 155.396C309.09 153.906 306.169 152.703 303.142 151.875C300.107 151.088 296.967 150.685 293.817 150.849C290.66 151.014 287.555 151.897 284.64 153.28L284.643 153.287Z" fill="#C4E5F2"/>
<g style="mix-blend-mode:screen" opacity="0.8">
<path d="M300.236 157.777C304.041 157.79 307.714 158.874 311.144 160.437C314.524 162.066 317.777 164.349 319.831 167.573C316.594 165.619 313.498 163.939 310.213 162.404C306.953 160.844 303.622 159.451 300.236 157.777Z" fill="#E6F1FF"/>
</g>
<path opacity="0.1" d="M447.191 411.781C458.14 411.781 467.016 408.613 467.016 404.704C467.016 400.795 458.14 397.627 447.191 397.627C436.242 397.627 427.366 400.795 427.366 404.704C427.366 408.613 436.242 411.781 447.191 411.781Z" fill="black"/>
<path d="M457.357 393.271C455.356 394.34 453.581 394.644 452.313 394.681C452.152 392.335 452.078 389.822 451.58 388.596C450.616 386.221 448.011 383.75 446.771 380.753C445.531 377.761 447.228 371.265 447.228 371.265C447.228 371.265 439.339 360.333 435.217 352.906C431.091 345.478 433.945 339.752 433.945 339.752L445.536 340.78C445.536 340.78 452.442 366.935 452.857 369.268C453.267 371.601 455.951 390.14 457.292 393.132C457.315 393.178 457.334 393.224 457.361 393.266L457.357 393.271Z" fill="#67481C"/>
<path d="M466.887 396.623C466.062 398.481 461.419 397.863 459.976 399.145C458.533 400.427 454.817 401.165 453.374 399.652C452.963 399.224 452.719 398.338 452.558 397.232C456.684 397.624 458.422 395.77 459.04 394.77C460.852 395.475 463.337 394.807 464.513 394.659C466.163 394.452 467.708 394.765 466.887 396.619V396.623Z" fill="#4C3718"/>
<path d="M459.04 394.781C458.418 395.781 456.684 397.63 452.558 397.243C452.443 396.468 452.373 395.578 452.313 394.674C453.581 394.638 455.352 394.333 457.357 393.264C457.745 394.043 458.344 394.513 459.04 394.785V394.781Z" fill="#FAC2B0"/>
<path d="M437.652 410.295C437.739 411.277 433.202 412.531 431.312 411.189C429.417 409.848 422.889 402.01 423.958 400.11C425.033 398.211 426.554 397.943 426.554 397.943C427.693 400.986 430.404 402.577 432.101 403.296C432.631 405.689 433.557 407.994 434.337 408.501C435.858 409.483 437.559 409.304 437.652 410.29V410.295Z" fill="#4C3718"/>
<path d="M445.526 372.532C437.827 387.387 433.447 395.796 432.1 397.765C432.017 397.89 431.944 398.037 431.888 398.212C430.007 396.539 428.163 395.428 428.163 395.428C428.163 395.428 430.491 382.288 434.161 377.004C437.827 371.725 439.551 370.743 439.551 370.743C439.551 370.743 436.222 350.964 437.384 345.597C438.546 340.226 439.551 340.318 439.551 340.318L451.58 341.241C451.58 341.241 453.226 357.672 445.526 372.532Z" fill="#805A24"/>
<path d="M432.101 403.295C430.404 402.571 427.693 400.985 426.554 397.942L428.168 395.42C428.168 395.42 430.012 396.531 431.893 398.205C431.497 399.325 431.672 401.335 432.105 403.295H432.101Z" fill="#FAC2B0"/>
<path d="M428.2 330.144C427.168 331.85 429.012 341.385 429.173 342.21C427.804 342.837 426.204 343.137 424.955 343.28C424.766 342.016 423.046 330.499 423 328.586C422.954 326.557 430.021 315.543 430.819 314.515C431.617 313.482 432.908 313.482 433.811 314.515C434.839 315.681 436.057 318.305 435.545 319.665C435.028 321.02 429.27 328.369 428.196 330.144H428.2Z" fill="#F4F5F5"/>
<path d="M431.147 347.28C430.492 347.607 429.367 345.643 429.367 345.643C429.367 345.643 429.367 349.903 428.408 350.42C427.444 350.931 425.388 350.701 424.309 350.092C423.235 349.484 424.968 343.398 424.968 343.398C424.968 343.398 424.968 343.361 424.95 343.282C426.199 343.14 427.799 342.835 429.169 342.213C429.169 342.25 429.178 342.273 429.178 342.273C430.344 343.582 431.797 346.957 431.142 347.284L431.147 347.28Z" fill="#FAC2B0"/>
<path d="M442.802 294.213C445.024 295.029 448.685 294.406 446.619 304.264C446.619 304.264 445.725 308.468 444.748 308.625C443.775 308.782 441.28 308.081 439.837 306.016C438.394 303.95 442.797 294.213 442.797 294.213H442.802Z" fill="#FAC2B0"/>
<path d="M441.493 312.363C441.493 312.363 442.115 308.38 443.711 307.555L437.182 305.139L436.361 310.966L441.493 312.363Z" fill="#FAC2B0"/>
<path d="M438.339 310.494C440.76 310.891 445.638 312.647 447.749 314.542C449.861 316.432 451.179 320.259 450.345 324.261C449.261 329.439 449.243 330.365 449.819 335.077C450.322 339.208 451.382 338.701 451.94 342.8C452.834 349.361 450.843 355.995 450.843 355.995C450.843 355.995 442.05 361.537 435.674 355.995C434.213 353.044 432.502 348.535 432.585 343.03C432.668 337.618 434.393 337.083 434.48 332.094C434.641 322.919 428.892 318.807 431.179 314.45C431.88 313.113 433.567 311.319 438.348 310.494H438.339Z" fill="white"/>
<path d="M468.062 335.498C467.113 338.02 466.002 338.947 466.002 338.947C466.002 338.947 455.886 334.419 453.553 332.395C451.22 330.371 446.697 322.455 445.596 320.832C444.494 319.205 445.148 316.517 445.9 315.862C447.431 314.534 447.809 314.138 449.87 317.066C451.926 319.993 454.83 326.808 457.246 328.481C459.667 330.155 467.887 335.475 467.887 335.475C467.887 335.475 467.952 335.484 468.058 335.498H468.062Z" fill="#F4F5F5"/>
<path d="M472.249 342.297C471.848 343.353 468.86 344.98 468.644 344.275C468.427 343.574 469.349 342.472 469.349 342.472C469.349 342.472 466.532 340.799 466.006 338.954C466.006 338.954 467.117 338.032 468.067 335.506C468.805 335.64 471.714 336.211 472.249 337.281C472.862 338.516 472.645 341.241 472.249 342.297Z" fill="#FAC2B0"/>
<path d="M447.786 298.336C446.84 301.287 444.517 300.844 444.581 302.85C444.646 304.856 442.756 307.52 439.33 307.963C439.33 307.963 436.734 322.214 439.33 328.59C439.076 328.369 428.671 318.908 435.204 305.704L435.323 304.15C435.323 304.15 432.848 298.484 435.204 294.588C437.569 290.692 441.82 292.347 441.82 292.347C446.071 293.998 448.74 295.386 447.795 298.341L447.786 298.336Z" fill="#87574E"/>
<path d="M440.252 306.834L439.33 307.963C437.961 305.875 435.199 305.704 435.199 305.704L435.319 304.15C439.344 304.782 440.257 306.834 440.257 306.834H440.252Z" fill="#4F332E"/>
<defs>
<linearGradient id="paint0_linear_2356_222326" x1="175.303" y1="386.36" x2="142.974" y2="390.873" gradientUnits="userSpaceOnUse">
<stop stop-color="#CBCBCA"/>
<stop offset="0.18" stop-color="#D9D9D8"/>
<stop offset="0.52" stop-color="#F2F2F2"/>
</linearGradient>
</defs>
</svg>
