<svg width="12" height="6" viewBox="0 0 12 6" fill="none" xmlns="http://www.w3.org/2000/svg">
<path d="M1.95279 0.416464C2.0442 0.537494 2.31713 0.898802 2.47968 1.10708C2.80523 1.52424 3.25007 2.07856 3.72992 2.63123C4.2122 3.1867 4.71884 3.72767 5.16892 4.12535C5.3946 4.32476 5.59286 4.47628 5.75645 4.5749C5.91032 4.66766 6.00121 4.68695 6.00121 4.68695C6.00121 4.68695 6.08943 4.66766 6.24328 4.57491C6.40688 4.47629 6.60513 4.32476 6.83081 4.12535C7.2809 3.72767 7.78753 3.18669 8.26981 2.63122C8.74967 2.07855 9.1945 1.52422 9.52005 1.10706C9.6826 0.898775 9.95515 0.537977 10.0466 0.416946C10.2308 0.166803 10.5833 0.112852 10.8334 0.297076C11.0836 0.4813 11.137 0.833424 10.9528 1.08357L10.9513 1.08548C10.8555 1.21244 10.5728 1.58668 10.4069 1.79919C10.074 2.22578 9.61622 2.79646 9.1193 3.36878C8.62481 3.93831 8.08056 4.52234 7.57572 4.96841C7.32394 5.19087 7.06873 5.39091 6.8241 5.53838C6.59492 5.67654 6.30475 5.8125 5.99986 5.8125C5.69498 5.8125 5.40482 5.67653 5.17563 5.53837C4.93101 5.3909 4.67579 5.19087 4.42402 4.9684C3.91918 4.52234 3.37493 3.93832 2.88044 3.3688C2.38352 2.79647 1.9257 2.2258 1.59279 1.79922C1.42683 1.58656 1.14415 1.21231 1.04846 1.08561L1.04721 1.08396C0.862984 0.833821 0.916155 0.48134 1.1663 0.297114C1.41643 0.112894 1.76856 0.166343 1.95279 0.416464Z" fill="#006289"/>
</svg>
