<svg width="12" height="8" viewBox="0 0 12 8" fill="none" xmlns="http://www.w3.org/2000/svg">
<path d="M1.5031 1.1294C1.60467 1.26388 1.90793 1.66534 2.08853 1.89676C2.45026 2.36027 2.94452 2.97618 3.47769 3.59026C4.01356 4.20744 4.57648 4.80852 5.07658 5.25039C5.32734 5.47195 5.54762 5.64031 5.72939 5.74989C5.90035 5.85296 6.00134 5.87439 6.00134 5.87439C6.00134 5.87439 6.09936 5.85295 6.27031 5.7499C6.45208 5.64032 6.67236 5.47196 6.92313 5.25039C7.42322 4.80852 7.98614 4.20744 8.52201 3.59025C9.05518 2.97616 9.54944 2.36025 9.91117 1.89673C10.0918 1.66531 10.3946 1.26442 10.4962 1.12994C10.7009 0.852005 11.0925 0.792058 11.3705 0.996752C11.6484 1.20145 11.7078 1.59269 11.5031 1.87063L11.5016 1.87263C11.3951 2.01356 11.0809 2.42957 10.8966 2.66577C10.5267 3.13975 10.018 3.77384 9.46589 4.40976C8.91645 5.04257 8.31173 5.69149 7.7508 6.18712C7.47105 6.4343 7.18747 6.65656 6.91567 6.82042C6.66102 6.97393 6.33861 7.125 5.99985 7.125C5.66109 7.125 5.33868 6.97393 5.08403 6.82041C4.81223 6.65656 4.52866 6.4343 4.24891 6.18712C3.68798 5.69149 3.08325 5.04258 2.53382 4.40977C1.98169 3.77386 1.473 3.13978 1.1031 2.6658C0.918665 2.42947 0.604492 2.01352 0.498225 1.87283L0.496899 1.87107C0.292204 1.59314 0.351284 1.20149 0.629218 0.996794C0.907143 0.792106 1.2984 0.851494 1.5031 1.1294Z" fill="#00212E"/>
</svg>
