<svg width="147" height="207" viewBox="0 0 147 207" fill="none" xmlns="http://www.w3.org/2000/svg">
<g clip-path="url(#clip0_3650_27764)">
<rect y="0.41748" width="232" height="364.24" rx="3.09333" fill="white"/>
<mask id="path-2-inside-1_3650_27764" fill="white">
<path d="M0 0.41748H232V27.4308H0V0.41748Z"/>
</mask>
<path d="M232 27.0441H0V27.8175H232V27.0441Z" fill="#E8E8E8" mask="url(#path-2-inside-1_3650_27764)"/>
<path d="M11.6002 10.7827H11.5818C10.9138 10.7827 10.3879 10.7827 9.97692 10.838C9.55526 10.8946 9.21871 11.0135 8.95397 11.2782C8.68924 11.5429 8.57043 11.8795 8.51374 12.3011C8.45849 12.7121 8.45849 13.2381 8.4585 13.906V13.9427C8.45849 14.6107 8.45849 15.1367 8.51374 15.5476C8.57043 15.9693 8.68924 16.3058 8.95397 16.5706C9.21871 16.8353 9.55526 16.9541 9.97692 17.0108C10.3879 17.0661 10.9138 17.0661 11.5818 17.066H11.6185C12.2865 17.0661 12.8125 17.0661 13.2234 17.0108C13.6451 16.9541 13.9816 16.8353 14.2464 16.5706C14.5111 16.3058 14.6299 15.9693 14.6866 15.5476C14.7418 15.1367 14.7418 14.6107 14.7418 13.9427V13.9244C14.7418 13.7909 14.6336 13.6827 14.5002 13.6827C14.3667 13.6827 14.2585 13.7909 14.2585 13.9244C14.2585 14.6147 14.258 15.1082 14.2076 15.4832C14.1581 15.8513 14.0645 16.0688 13.9046 16.2288C13.7446 16.3888 13.5271 16.4823 13.159 16.5318C12.784 16.5822 12.2905 16.5827 11.6002 16.5827C10.9098 16.5827 10.4163 16.5822 10.0413 16.5318C9.67326 16.4823 9.4557 16.3888 9.29574 16.2288C9.13578 16.0688 9.04225 15.8513 8.99276 15.4832C8.94234 15.1082 8.94183 14.6147 8.94183 13.9244C8.94183 13.234 8.94234 12.7405 8.99276 12.3655C9.04225 11.9975 9.13578 11.7799 9.29574 11.62C9.4557 11.46 9.67326 11.3665 10.0413 11.317C10.4163 11.2666 10.9098 11.266 11.6002 11.266C11.7336 11.266 11.8418 11.1579 11.8418 11.0244C11.8418 10.8909 11.7336 10.7827 11.6002 10.7827Z" fill="#00212E"/>
<path fill-rule="evenodd" clip-rule="evenodd" d="M14.484 11.0406C14.1401 10.6968 13.5827 10.6968 13.2388 11.0406L11.0748 13.2047C10.7627 13.5167 10.5719 13.7074 10.4407 13.9422C10.3675 14.0731 10.3036 14.2718 10.247 14.4751C10.1888 14.6842 10.1315 14.9248 10.0769 15.1545L10.0762 15.1573C10.0567 15.2389 10.0811 15.3248 10.1404 15.3842C10.1997 15.4435 10.2856 15.4678 10.3673 15.4484L10.3701 15.4477C10.5997 15.393 10.8404 15.3357 11.0495 15.2775C11.2528 15.221 11.4514 15.157 11.5824 15.0838C11.8172 14.9526 12.0079 14.7619 12.3199 14.4498L14.484 12.2857C14.8278 11.9419 14.8278 11.3844 14.484 11.0406ZM13.5806 11.3824C13.7357 11.2273 13.9871 11.2273 14.1422 11.3824C14.2973 11.5374 14.2973 11.7889 14.1422 11.9439L13.8614 12.2247L13.2998 11.6632L13.5806 11.3824ZM12.958 12.0049L13.5196 12.5665L12.004 14.0821C11.6579 14.4282 11.5158 14.5674 11.3466 14.6619C11.2723 14.7034 11.1261 14.7545 10.9199 14.8119C10.8318 14.8364 10.7373 14.8609 10.6392 14.8854C10.6637 14.7872 10.6881 14.6927 10.7127 14.6047C10.77 14.3985 10.8211 14.2522 10.8626 14.178C10.9572 14.0087 11.0964 13.8666 11.4425 13.5205L12.958 12.0049Z" fill="#00212E"/>
<path d="M19.092 15.9243V11.606H21.8574V12.2247H19.7911V13.4249H21.6656V14.0436H19.7911V15.3056H21.8574V15.9243H19.092ZM24.6724 15.3923H24.6415C24.5714 15.582 24.4559 15.7305 24.295 15.8377C24.1383 15.9449 23.9527 15.9986 23.7382 15.9986C23.3299 15.9986 23.0144 15.8521 22.7917 15.5593C22.5689 15.2623 22.4576 14.8478 22.4576 14.3158C22.4576 13.7837 22.5689 13.3713 22.7917 13.0784C23.0144 12.7815 23.3299 12.633 23.7382 12.633C23.9527 12.633 24.1383 12.6866 24.295 12.7939C24.4559 12.897 24.5714 13.0455 24.6415 13.2393H24.6724V11.3462H25.3468V15.9243H24.6724V15.3923ZM23.9424 15.417C24.1486 15.417 24.3218 15.3675 24.4621 15.2685C24.6023 15.1654 24.6724 15.0314 24.6724 14.8664V13.7652C24.6724 13.6002 24.6023 13.4682 24.4621 13.3692C24.3218 13.2661 24.1486 13.2146 23.9424 13.2146C23.7073 13.2146 23.5196 13.2909 23.3794 13.4435C23.2392 13.5919 23.1691 13.7899 23.1691 14.0374V14.5942C23.1691 14.8416 23.2392 15.0417 23.3794 15.1943C23.5196 15.3428 23.7073 15.417 23.9424 15.417ZM26.6509 12.1319C26.5107 12.1319 26.4075 12.0989 26.3416 12.0329C26.2797 11.9669 26.2488 11.8824 26.2488 11.7792V11.6741C26.2488 11.571 26.2797 11.4864 26.3416 11.4204C26.4075 11.3544 26.5107 11.3214 26.6509 11.3214C26.7911 11.3214 26.8922 11.3544 26.954 11.4204C27.0159 11.4864 27.0468 11.571 27.0468 11.6741V11.7792C27.0468 11.8824 27.0159 11.9669 26.954 12.0329C26.8922 12.0989 26.7911 12.1319 26.6509 12.1319ZM26.3106 12.7072H26.985V15.9243H26.3106V12.7072ZM28.8388 15.9243C28.6037 15.9243 28.4263 15.8645 28.3067 15.7449C28.1871 15.6212 28.1273 15.4479 28.1273 15.2252V13.2579H27.6262V12.7072H27.8984C28.0098 12.7072 28.0861 12.6825 28.1273 12.633C28.1727 12.5835 28.1954 12.5031 28.1954 12.3917V11.8287H28.8017V12.7072H29.476V13.2579H28.8017V15.3737H29.4265V15.9243H28.8388ZM31.7191 15.9243V11.606H33.5751C33.9751 11.606 34.2845 11.7236 34.5031 11.9587C34.7217 12.1938 34.831 12.5093 34.831 12.9052C34.831 13.3012 34.7217 13.6167 34.5031 13.8518C34.2845 14.0869 33.9751 14.2044 33.5751 14.2044H32.4182V15.9243H31.7191ZM32.4182 13.5919H33.5318C33.7091 13.5919 33.8473 13.5466 33.9463 13.4558C34.0453 13.361 34.0948 13.2269 34.0948 13.0537V12.7567C34.0948 12.5835 34.0453 12.4515 33.9463 12.3608C33.8473 12.2659 33.7091 12.2185 33.5318 12.2185H32.4182V13.5919ZM36.6896 15.9986C36.4586 15.9986 36.2524 15.9594 36.0709 15.881C35.8894 15.8026 35.7348 15.6913 35.6069 15.5469C35.4791 15.3984 35.3801 15.2211 35.31 15.0149C35.244 14.8045 35.211 14.5715 35.211 14.3158C35.211 14.0601 35.244 13.8291 35.31 13.6229C35.3801 13.4125 35.4791 13.2352 35.6069 13.0908C35.7348 12.9423 35.8894 12.8289 36.0709 12.7506C36.2524 12.6722 36.4586 12.633 36.6896 12.633C36.9247 12.633 37.1309 12.6743 37.3082 12.7567C37.4897 12.8392 37.6403 12.9547 37.7599 13.1032C37.8795 13.2476 37.9682 13.4167 38.0259 13.6105C38.0878 13.8044 38.1187 14.0126 38.1187 14.2354V14.489H35.9101V14.5942C35.9101 14.8416 35.9822 15.0458 36.1266 15.2067C36.2751 15.3634 36.4854 15.4418 36.7576 15.4418C36.9556 15.4418 37.1226 15.3984 37.2588 15.3118C37.3949 15.2252 37.5103 15.1077 37.6052 14.9592L38.0012 15.349C37.8815 15.5469 37.7083 15.7057 37.4815 15.8253C37.2546 15.9408 36.9907 15.9986 36.6896 15.9986ZM36.6896 13.1589C36.5741 13.1589 36.4669 13.1795 36.3679 13.2207C36.273 13.262 36.1905 13.3197 36.1204 13.394C36.0544 13.4682 36.0029 13.5569 35.9657 13.66C35.9286 13.7631 35.9101 13.8765 35.9101 14.0003V14.0436H37.4072V13.9817C37.4072 13.7342 37.3433 13.5363 37.2154 13.3878C37.0876 13.2352 36.9123 13.1589 36.6896 13.1589ZM38.8652 15.9243V12.7072H39.5396V13.3259H39.5705C39.6159 13.1609 39.7107 13.0166 39.8551 12.8928C39.9994 12.7691 40.1995 12.7072 40.4552 12.7072H40.6346V13.3568H40.3686C40.1005 13.3568 39.8943 13.4002 39.7499 13.4868C39.6097 13.5734 39.5396 13.7012 39.5396 13.8703V15.9243H38.8652ZM41.2335 15.9243V12.7072H41.9079V13.2393H41.9388C41.9718 13.1568 42.011 13.0784 42.0564 13.0042C42.1059 12.93 42.1636 12.866 42.2296 12.8124C42.2997 12.7547 42.3801 12.7114 42.4709 12.6825C42.5657 12.6495 42.675 12.633 42.7988 12.633C43.0174 12.633 43.2112 12.6866 43.3803 12.7939C43.5494 12.9011 43.6731 13.0661 43.7515 13.2888H43.7701C43.8278 13.1073 43.9392 12.9527 44.1042 12.8248C44.2691 12.6969 44.4815 12.633 44.7414 12.633C45.0631 12.633 45.3126 12.7423 45.49 12.9609C45.6673 13.1754 45.756 13.4826 45.756 13.8827V15.9243H45.0816V13.9631C45.0816 13.7157 45.0342 13.5301 44.9394 13.4063C44.8445 13.2785 44.6939 13.2146 44.4877 13.2146C44.4011 13.2146 44.3186 13.2269 44.2403 13.2517C44.1619 13.2723 44.0918 13.3053 44.0299 13.3507C43.9722 13.396 43.9247 13.4538 43.8876 13.5239C43.8505 13.594 43.8319 13.6744 43.8319 13.7652V15.9243H43.1576V13.9631C43.1576 13.4641 42.9617 13.2146 42.5699 13.2146C42.4874 13.2146 42.4049 13.2269 42.3224 13.2517C42.244 13.2723 42.1739 13.3053 42.112 13.3507C42.0502 13.396 42.0007 13.4538 41.9636 13.5239C41.9264 13.594 41.9079 13.6744 41.9079 13.7652V15.9243H41.2335ZM47.0294 12.1319C46.8892 12.1319 46.7861 12.0989 46.7201 12.0329C46.6582 11.9669 46.6273 11.8824 46.6273 11.7792V11.6741C46.6273 11.571 46.6582 11.4864 46.7201 11.4204C46.7861 11.3544 46.8892 11.3214 47.0294 11.3214C47.1697 11.3214 47.2707 11.3544 47.3326 11.4204C47.3944 11.4864 47.4254 11.571 47.4254 11.6741V11.7792C47.4254 11.8824 47.3944 11.9669 47.3326 12.0329C47.2707 12.0989 47.1697 12.1319 47.0294 12.1319ZM46.6892 12.7072H47.3635V15.9243H46.6892V12.7072ZM49.3473 15.9986C49.042 15.9986 48.7863 15.9449 48.5801 15.8377C48.3739 15.7305 48.1945 15.582 48.0419 15.3923L48.4749 14.9963C48.5945 15.1407 48.7265 15.2541 48.8709 15.3366C49.0194 15.4149 49.1905 15.4541 49.3844 15.4541C49.5823 15.4541 49.7288 15.417 49.8236 15.3428C49.9226 15.2644 49.9721 15.1572 49.9721 15.0211C49.9721 14.918 49.9371 14.8313 49.8669 14.7612C49.8009 14.687 49.6834 14.6396 49.5143 14.6189L49.2173 14.5818C48.8874 14.5406 48.6275 14.4457 48.4378 14.2972C48.2522 14.1446 48.1594 13.9198 48.1594 13.6229C48.1594 13.4661 48.1883 13.328 48.246 13.2084C48.3038 13.0846 48.3842 12.9815 48.4873 12.899C48.5945 12.8124 48.7203 12.7464 48.8647 12.7011C49.0132 12.6557 49.1761 12.633 49.3534 12.633C49.6422 12.633 49.8772 12.6784 50.0587 12.7691C50.2443 12.8599 50.4093 12.9856 50.5537 13.1465L50.1391 13.5424C50.0567 13.4435 49.9474 13.3589 49.8113 13.2888C49.6793 13.2146 49.5267 13.1774 49.3534 13.1774C49.1678 13.1774 49.0297 13.2146 48.9389 13.2888C48.8523 13.363 48.809 13.46 48.809 13.5796C48.809 13.7033 48.8482 13.7961 48.9266 13.858C49.0049 13.9198 49.1307 13.9652 49.3039 13.9941L49.6009 14.0312C49.9556 14.0848 50.2134 14.19 50.3742 14.3467C50.5392 14.4993 50.6217 14.7055 50.6217 14.9654C50.6217 15.1221 50.5908 15.2644 50.5289 15.3923C50.4712 15.516 50.3866 15.6232 50.2753 15.714C50.1639 15.8047 50.0299 15.8748 49.8731 15.9243C49.7164 15.9738 49.5411 15.9986 49.3473 15.9986ZM52.3681 15.9986C52.0629 15.9986 51.8072 15.9449 51.6009 15.8377C51.3947 15.7305 51.2153 15.582 51.0627 15.3923L51.4958 14.9963C51.6154 15.1407 51.7474 15.2541 51.8917 15.3366C52.0402 15.4149 52.2114 15.4541 52.4052 15.4541C52.6032 15.4541 52.7496 15.417 52.8445 15.3428C52.9434 15.2644 52.9929 15.1572 52.9929 15.0211C52.9929 14.918 52.9579 14.8313 52.8878 14.7612C52.8218 14.687 52.7042 14.6396 52.5351 14.6189L52.2382 14.5818C51.9082 14.5406 51.6484 14.4457 51.4586 14.2972C51.273 14.1446 51.1802 13.9198 51.1802 13.6229C51.1802 13.4661 51.2091 13.328 51.2669 13.2084C51.3246 13.0846 51.405 12.9815 51.5081 12.899C51.6154 12.8124 51.7412 12.7464 51.8855 12.7011C52.034 12.6557 52.1969 12.633 52.3743 12.633C52.663 12.633 52.8981 12.6784 53.0796 12.7691C53.2652 12.8599 53.4301 12.9856 53.5745 13.1465L53.16 13.5424C53.0775 13.4435 52.9682 13.3589 52.8321 13.2888C52.7001 13.2146 52.5475 13.1774 52.3743 13.1774C52.1887 13.1774 52.0505 13.2146 51.9598 13.2888C51.8732 13.363 51.8298 13.46 51.8298 13.5796C51.8298 13.7033 51.869 13.7961 51.9474 13.858C52.0258 13.9198 52.1516 13.9652 52.3248 13.9941L52.6217 14.0312C52.9764 14.0848 53.2342 14.19 53.3951 14.3467C53.5601 14.4993 53.6425 14.7055 53.6425 14.9654C53.6425 15.1221 53.6116 15.2644 53.5497 15.3923C53.492 15.516 53.4074 15.6232 53.2961 15.714C53.1847 15.8047 53.0507 15.8748 52.894 15.9243C52.7372 15.9738 52.5619 15.9986 52.3681 15.9986ZM54.7446 12.1319C54.6044 12.1319 54.5013 12.0989 54.4353 12.0329C54.3734 11.9669 54.3425 11.8824 54.3425 11.7792V11.6741C54.3425 11.571 54.3734 11.4864 54.4353 11.4204C54.5013 11.3544 54.6044 11.3214 54.7446 11.3214C54.8849 11.3214 54.9859 11.3544 55.0478 11.4204C55.1097 11.4864 55.1406 11.571 55.1406 11.6741V11.7792C55.1406 11.8824 55.1097 11.9669 55.0478 12.0329C54.9859 12.0989 54.8849 12.1319 54.7446 12.1319ZM54.4044 12.7072H55.0787V15.9243H54.4044V12.7072ZM57.3037 15.9986C57.081 15.9986 56.8769 15.9594 56.6913 15.881C56.5098 15.8026 56.3551 15.6913 56.2273 15.5469C56.0994 15.3984 56.0004 15.2211 55.9303 15.0149C55.8602 14.8045 55.8251 14.5715 55.8251 14.3158C55.8251 14.0601 55.8602 13.8291 55.9303 13.6229C56.0004 13.4125 56.0994 13.2352 56.2273 13.0908C56.3551 12.9423 56.5098 12.8289 56.6913 12.7506C56.8769 12.6722 57.081 12.633 57.3037 12.633C57.5265 12.633 57.7286 12.6722 57.91 12.7506C58.0956 12.8289 58.2524 12.9423 58.3802 13.0908C58.5081 13.2352 58.6071 13.4125 58.6772 13.6229C58.7473 13.8291 58.7824 14.0601 58.7824 14.3158C58.7824 14.5715 58.7473 14.8045 58.6772 15.0149C58.6071 15.2211 58.5081 15.3984 58.3802 15.5469C58.2524 15.6913 58.0956 15.8026 57.91 15.881C57.7286 15.9594 57.5265 15.9986 57.3037 15.9986ZM57.3037 15.4418C57.5347 15.4418 57.7203 15.3716 57.8605 15.2314C58.0008 15.0871 58.0709 14.8726 58.0709 14.588V14.0436C58.0709 13.759 58.0008 13.5466 57.8605 13.4063C57.7203 13.262 57.5347 13.1898 57.3037 13.1898C57.0728 13.1898 56.8872 13.262 56.7469 13.4063C56.6067 13.5466 56.5366 13.759 56.5366 14.0436V14.588C56.5366 14.8726 56.6067 15.0871 56.7469 15.2314C56.8872 15.3716 57.0728 15.4418 57.3037 15.4418ZM59.5337 15.9243V12.7072H60.2081V13.2393H60.239C60.3091 13.0661 60.4143 12.9217 60.5545 12.8062C60.6989 12.6908 60.8948 12.633 61.1423 12.633C61.4722 12.633 61.728 12.7423 61.9094 12.9609C62.095 13.1754 62.1878 13.4826 62.1878 13.8827V15.9243H61.5135V13.9693C61.5135 13.4661 61.3114 13.2146 60.9072 13.2146C60.8206 13.2146 60.734 13.2269 60.6473 13.2517C60.5649 13.2723 60.4906 13.3053 60.4246 13.3507C60.3586 13.396 60.305 13.4538 60.2638 13.5239C60.2267 13.594 60.2081 13.6765 60.2081 13.7714V15.9243H59.5337Z" fill="#00212E"/>
<g clip-path="url(#clip1_3650_27764)">
<g clip-path="url(#clip2_3650_27764)">
<g clip-path="url(#clip3_3650_27764)">
<mask id="path-8-inside-2_3650_27764" fill="white">
<path d="M7.73328 35.1639C7.73328 34.3097 8.42574 33.6172 9.27994 33.6172H222.72C223.574 33.6172 224.267 34.3097 224.267 35.1639V53.9905H7.73328V35.1639Z"/>
</mask>
<mask id="path-10-inside-3_3650_27764" fill="white">
<path d="M7.73328 33.6172H25.5199V53.9905H7.73328V33.6172Z"/>
</mask>
<path d="M25.3266 33.6172V53.9905H25.7133V33.6172H25.3266Z" fill="#E8E8E8" mask="url(#path-10-inside-3_3650_27764)"/>
<path d="M18.1919 44.8028C18.1565 44.756 18.051 44.6163 17.9882 44.5357C17.8623 44.3744 17.6903 44.1601 17.5047 43.9464C17.3183 43.7316 17.1224 43.5224 16.9483 43.3687C16.8611 43.2916 16.7844 43.233 16.7211 43.1948C16.6616 43.159 16.6265 43.1515 16.6265 43.1515C16.6265 43.1515 16.5924 43.159 16.5329 43.1948C16.4696 43.233 16.393 43.2916 16.3057 43.3687C16.1317 43.5224 15.9358 43.7316 15.7493 43.9464C15.5638 44.1601 15.3918 44.3744 15.2659 44.5357C15.203 44.6163 15.0976 44.7558 15.0623 44.8026C14.9911 44.8993 14.8548 44.9202 14.758 44.8489C14.6613 44.7777 14.6407 44.6416 14.7119 44.5448L14.7124 44.5441C14.7495 44.495 14.8588 44.3503 14.923 44.2681C15.0517 44.1032 15.2287 43.8825 15.4208 43.6612C15.612 43.441 15.8225 43.2152 16.0177 43.0427C16.115 42.9567 16.2137 42.8793 16.3083 42.8223C16.3969 42.7689 16.5091 42.7163 16.627 42.7163C16.7449 42.7163 16.8571 42.7689 16.9457 42.8223C17.0403 42.8793 17.139 42.9567 17.2364 43.0427C17.4316 43.2152 17.642 43.441 17.8332 43.6612C18.0253 43.8825 18.2024 44.1032 18.3311 44.2681C18.3953 44.3503 18.5046 44.495 18.5416 44.544L18.5421 44.5447C18.6133 44.6414 18.5927 44.7777 18.496 44.8489C18.3993 44.9202 18.2631 44.8995 18.1919 44.8028Z" fill="#006289"/>
<path d="M31.3988 42.0252H32.7359C32.9777 42.0252 33.196 42.0649 33.3909 42.1443C33.5894 42.2237 33.7572 42.3428 33.8943 42.5016C34.0351 42.6568 34.1433 42.8534 34.2191 43.0916C34.2949 43.3262 34.3328 43.6005 34.3328 43.9145C34.3328 44.2284 34.2949 44.5045 34.2191 44.7427C34.1433 44.9773 34.0351 45.174 33.8943 45.3328C33.7572 45.4879 33.5894 45.6052 33.3909 45.6846C33.196 45.764 32.9777 45.8037 32.7359 45.8037H31.3988V42.0252ZM32.7359 45.2624C33.0174 45.2624 33.2447 45.174 33.4179 44.9971C33.5912 44.8203 33.6778 44.5604 33.6778 44.2176V43.6113C33.6778 43.2685 33.5912 43.0086 33.4179 42.8318C33.2447 42.655 33.0174 42.5665 32.7359 42.5665H32.0105V45.2624H32.7359ZM37.1132 45.8037C36.958 45.8037 36.8389 45.7604 36.7559 45.6738C36.6729 45.5836 36.6224 45.4699 36.6043 45.3328H36.5773C36.5231 45.5096 36.4239 45.6431 36.2795 45.7333C36.1352 45.8236 35.9601 45.8687 35.7544 45.8687C35.4621 45.8687 35.2366 45.7929 35.0778 45.6413C34.9226 45.4897 34.845 45.2858 34.845 45.0296C34.845 44.7481 34.946 44.537 35.1481 44.3962C35.3538 44.2555 35.6534 44.1851 36.0468 44.1851H36.5556V43.9469C36.5556 43.7737 36.5087 43.6402 36.4149 43.5464C36.321 43.4525 36.1749 43.4056 35.9764 43.4056C35.8104 43.4056 35.675 43.4417 35.5704 43.5139C35.4657 43.586 35.3773 43.6781 35.3051 43.79L34.9533 43.4706C35.0471 43.3118 35.1788 43.1819 35.3484 43.0808C35.5181 42.9761 35.74 42.9238 36.0143 42.9238C36.3788 42.9238 36.6585 43.0086 36.8533 43.1782C37.0482 43.3479 37.1457 43.5915 37.1457 43.909V45.3219H37.4434V45.8037H37.1132ZM35.9222 45.4194C36.1063 45.4194 36.2579 45.3797 36.377 45.3003C36.4961 45.2173 36.5556 45.1072 36.5556 44.9701V44.5641H36.0576C35.6498 44.5641 35.4459 44.6904 35.4459 44.943V45.0404C35.4459 45.1667 35.4874 45.2624 35.5704 45.3273C35.657 45.3887 35.7743 45.4194 35.9222 45.4194ZM38.9149 45.8687C38.6478 45.8687 38.4241 45.8218 38.2436 45.7279C38.0632 45.6341 37.9062 45.5042 37.7727 45.3382L38.1516 44.9917C38.2563 45.118 38.3718 45.2173 38.4981 45.2894C38.628 45.358 38.7778 45.3923 38.9474 45.3923C39.1206 45.3923 39.2487 45.3598 39.3317 45.2949C39.4183 45.2263 39.4616 45.1325 39.4616 45.0134C39.4616 44.9231 39.431 44.8474 39.3696 44.786C39.3119 44.721 39.209 44.6795 39.0611 44.6615L38.8012 44.629C38.5125 44.5929 38.2851 44.5099 38.1191 44.38C37.9567 44.2465 37.8755 44.0498 37.8755 43.79C37.8755 43.6528 37.9008 43.5319 37.9513 43.4273C38.0018 43.319 38.0722 43.2288 38.1624 43.1566C38.2563 43.0808 38.3663 43.0231 38.4927 42.9834C38.6226 42.9437 38.7651 42.9238 38.9203 42.9238C39.1729 42.9238 39.3786 42.9635 39.5374 43.0429C39.6998 43.1223 39.8442 43.2324 39.9705 43.3731L39.6078 43.7196C39.5356 43.633 39.44 43.559 39.3209 43.4976C39.2054 43.4327 39.0719 43.4002 38.9203 43.4002C38.7579 43.4002 38.637 43.4327 38.5576 43.4976C38.4818 43.5626 38.4439 43.6474 38.4439 43.7521C38.4439 43.8603 38.4782 43.9415 38.5468 43.9957C38.6154 44.0498 38.7254 44.0895 38.877 44.1148L39.1368 44.1472C39.4472 44.1941 39.6728 44.2862 39.8135 44.4233C39.9579 44.5568 40.03 44.7373 40.03 44.9646C40.03 45.1018 40.003 45.2263 39.9488 45.3382C39.8983 45.4464 39.8243 45.5403 39.7269 45.6197C39.6295 45.6991 39.5122 45.7604 39.375 45.8037C39.2379 45.847 39.0845 45.8687 38.9149 45.8687ZM40.6966 41.7978H41.2867V43.4543H41.3138C41.3751 43.3028 41.4671 43.1764 41.5898 43.0754C41.7161 42.9743 41.8876 42.9238 42.1041 42.9238C42.3928 42.9238 42.6166 43.0195 42.7754 43.2107C42.9378 43.3984 43.019 43.6672 43.019 44.0173V45.8037H42.4289V44.0877C42.4289 43.651 42.2521 43.4327 41.8984 43.4327C41.8226 43.4327 41.7468 43.4435 41.671 43.4652C41.5989 43.4832 41.5339 43.5121 41.4762 43.5518C41.4184 43.5915 41.3715 43.642 41.3354 43.7033C41.3029 43.7647 41.2867 43.8351 41.2867 43.9145V45.8037H40.6966V41.7978ZM43.8368 41.7978H44.4268V43.4543H44.4539C44.5153 43.2847 44.6145 43.1548 44.7516 43.0646C44.8924 42.9707 45.0566 42.9238 45.2443 42.9238C45.6015 42.9238 45.8776 43.0537 46.0725 43.3136C46.2674 43.5698 46.3648 43.9307 46.3648 44.3962C46.3648 44.8618 46.2674 45.2245 46.0725 45.4843C45.8776 45.7406 45.6015 45.8687 45.2443 45.8687C45.0566 45.8687 44.8924 45.8218 44.7516 45.7279C44.6145 45.6341 44.5153 45.5042 44.4539 45.3382H44.4268V45.8037H43.8368V41.7978ZM45.0656 45.3598C45.2713 45.3598 45.4355 45.2949 45.5582 45.1649C45.6809 45.0314 45.7423 44.8564 45.7423 44.6398V44.1526C45.7423 43.9361 45.6809 43.7629 45.5582 43.633C45.4355 43.4994 45.2713 43.4327 45.0656 43.4327C44.8852 43.4327 44.7336 43.4778 44.6109 43.568C44.4882 43.6546 44.4268 43.7701 44.4268 43.9145V44.878C44.4268 45.0224 44.4882 45.1397 44.6109 45.2299C44.7336 45.3165 44.8852 45.3598 45.0656 45.3598ZM48.1447 45.8687C47.9498 45.8687 47.7712 45.8344 47.6088 45.7658C47.45 45.6972 47.3147 45.5998 47.2028 45.4735C47.0909 45.3436 47.0043 45.1884 46.9429 45.008C46.8816 44.8239 46.8509 44.62 46.8509 44.3962C46.8509 44.1725 46.8816 43.9704 46.9429 43.79C47.0043 43.6059 47.0909 43.4507 47.2028 43.3244C47.3147 43.1945 47.45 43.0952 47.6088 43.0267C47.7712 42.9581 47.9498 42.9238 48.1447 42.9238C48.3396 42.9238 48.5164 42.9581 48.6752 43.0267C48.8376 43.0952 48.9748 43.1945 49.0866 43.3244C49.1985 43.4507 49.2851 43.6059 49.3465 43.79C49.4078 43.9704 49.4385 44.1725 49.4385 44.3962C49.4385 44.62 49.4078 44.8239 49.3465 45.008C49.2851 45.1884 49.1985 45.3436 49.0866 45.4735C48.9748 45.5998 48.8376 45.6972 48.6752 45.7658C48.5164 45.8344 48.3396 45.8687 48.1447 45.8687ZM48.1447 45.3815C48.3468 45.3815 48.5092 45.3201 48.6319 45.1974C48.7546 45.0711 48.816 44.8834 48.816 44.6344V44.1581C48.816 43.909 48.7546 43.7232 48.6319 43.6005C48.5092 43.4742 48.3468 43.411 48.1447 43.411C47.9426 43.411 47.7802 43.4742 47.6575 43.6005C47.5348 43.7232 47.4735 43.909 47.4735 44.1581V44.6344C47.4735 44.8834 47.5348 45.0711 47.6575 45.1974C47.7802 45.3201 47.9426 45.3815 48.1447 45.3815ZM52.1584 45.8037C52.0033 45.8037 51.8842 45.7604 51.8012 45.6738C51.7182 45.5836 51.6676 45.4699 51.6496 45.3328H51.6225C51.5684 45.5096 51.4691 45.6431 51.3248 45.7333C51.1804 45.8236 51.0054 45.8687 50.7997 45.8687C50.5074 45.8687 50.2818 45.7929 50.123 45.6413C49.9678 45.4897 49.8903 45.2858 49.8903 45.0296C49.8903 44.7481 49.9913 44.537 50.1934 44.3962C50.3991 44.2555 50.6986 44.1851 51.092 44.1851H51.6009V43.9469C51.6009 43.7737 51.554 43.6402 51.4601 43.5464C51.3663 43.4525 51.2201 43.4056 51.0216 43.4056C50.8556 43.4056 50.7203 43.4417 50.6156 43.5139C50.511 43.586 50.4226 43.6781 50.3504 43.79L49.9985 43.4706C50.0924 43.3118 50.2241 43.1819 50.3937 43.0808C50.5633 42.9761 50.7853 42.9238 51.0595 42.9238C51.424 42.9238 51.7037 43.0086 51.8986 43.1782C52.0935 43.3479 52.1909 43.5915 52.1909 43.909V45.3219H52.4887V45.8037H52.1584ZM50.9675 45.4194C51.1516 45.4194 51.3031 45.3797 51.4222 45.3003C51.5413 45.2173 51.6009 45.1072 51.6009 44.9701V44.5641H51.1028C50.695 44.5641 50.4911 44.6904 50.4911 44.943V45.0404C50.4911 45.1667 50.5326 45.2624 50.6156 45.3273C50.7023 45.3887 50.8195 45.4194 50.9675 45.4194ZM53.067 45.8037V42.9888H53.657V43.5301H53.6841C53.7238 43.3858 53.8068 43.2594 53.9331 43.1512C54.0594 43.0429 54.2344 42.9888 54.4582 42.9888H54.6152V43.5572H54.3824C54.1478 43.5572 53.9674 43.5951 53.8411 43.6709C53.7184 43.7466 53.657 43.8585 53.657 44.0065V45.8037H53.067ZM56.883 45.3382H56.8559C56.7946 45.5042 56.6935 45.6341 56.5528 45.7279C56.4156 45.8218 56.2532 45.8687 56.0656 45.8687C55.7083 45.8687 55.4322 45.7406 55.2373 45.4843C55.0424 45.2245 54.945 44.8618 54.945 44.3962C54.945 43.9307 55.0424 43.5698 55.2373 43.3136C55.4322 43.0537 55.7083 42.9238 56.0656 42.9238C56.2532 42.9238 56.4156 42.9707 56.5528 43.0646C56.6935 43.1548 56.7946 43.2847 56.8559 43.4543H56.883V41.7978H57.473V45.8037H56.883V45.3382ZM56.2442 45.3598C56.4246 45.3598 56.5762 45.3165 56.6989 45.2299C56.8216 45.1397 56.883 45.0224 56.883 44.878V43.9145C56.883 43.7701 56.8216 43.6546 56.6989 43.568C56.5762 43.4778 56.4246 43.4327 56.2442 43.4327C56.0385 43.4327 55.8743 43.4994 55.7516 43.633C55.6289 43.7629 55.5675 43.9361 55.5675 44.1526V44.6398C55.5675 44.8564 55.6289 45.0314 55.7516 45.1649C55.8743 45.2949 56.0385 45.3598 56.2442 45.3598Z" fill="#00212E"/>
</g>
<path d="M7.73328 33.6172H224.267H7.73328ZM224.267 54.1839H7.73328V53.7972H224.267V54.1839ZM7.73328 53.9905V33.6172V53.9905ZM224.267 33.6172V53.9905V33.6172Z" fill="#E8E8E8" mask="url(#path-8-inside-2_3650_27764)"/>
<g clip-path="url(#clip4_3650_27764)">
<mask id="path-14-inside-4_3650_27764" fill="white">
<path d="M7.73328 53.9907H224.267V74.3641H7.73328V53.9907Z"/>
</mask>
<path d="M7.73328 53.9907H224.267V74.3641H7.73328V53.9907Z" fill="#F6F6F6"/>
<mask id="path-16-inside-5_3650_27764" fill="white">
<path d="M7.73328 53.9907H55.6799V74.3641H7.73328V53.9907Z"/>
</mask>
<path d="M55.4866 53.9907V74.3641H55.8733V53.9907H55.4866Z" fill="#E8E8E8" mask="url(#path-16-inside-5_3650_27764)"/>
<path d="M17.1614 63.2865H17.1343L16.8366 63.8982L16.0084 65.4086L15.1801 63.8982L14.8824 63.2865H14.8553V66.1772H14.2707V62.3987H14.9961L16.0084 64.3205H16.0409L17.0531 62.3987H17.7461V66.1772H17.1614V63.2865ZM19.7406 66.2422C19.5457 66.2422 19.3671 66.2079 19.2047 66.1394C19.0459 66.0708 18.9106 65.9733 18.7987 65.847C18.6868 65.7171 18.6002 65.5619 18.5389 65.3815C18.4775 65.1974 18.4468 64.9935 18.4468 64.7698C18.4468 64.546 18.4775 64.3439 18.5389 64.1635C18.6002 63.9794 18.6868 63.8243 18.7987 63.6979C18.9106 63.568 19.0459 63.4688 19.2047 63.4002C19.3671 63.3316 19.5457 63.2974 19.7406 63.2974C19.9355 63.2974 20.1123 63.3316 20.2711 63.4002C20.4335 63.4688 20.5707 63.568 20.6825 63.6979C20.7944 63.8243 20.881 63.9794 20.9424 64.1635C21.0037 64.3439 21.0344 64.546 21.0344 64.7698C21.0344 64.9935 21.0037 65.1974 20.9424 65.3815C20.881 65.5619 20.7944 65.7171 20.6825 65.847C20.5707 65.9733 20.4335 66.0708 20.2711 66.1394C20.1123 66.2079 19.9355 66.2422 19.7406 66.2422ZM19.7406 65.755C19.9427 65.755 20.1051 65.6937 20.2278 65.571C20.3505 65.4446 20.4119 65.257 20.4119 65.008V64.5316C20.4119 64.2826 20.3505 64.0967 20.2278 63.974C20.1051 63.8477 19.9427 63.7846 19.7406 63.7846C19.5385 63.7846 19.3761 63.8477 19.2534 63.974C19.1307 64.0967 19.0694 64.2826 19.0694 64.5316V65.008C19.0694 65.257 19.1307 65.4446 19.2534 65.571C19.3761 65.6937 19.5385 65.755 19.7406 65.755ZM23.462 65.7117H23.435C23.3736 65.8777 23.2726 66.0076 23.1318 66.1015C22.9947 66.1953 22.8323 66.2422 22.6446 66.2422C22.2873 66.2422 22.0113 66.1141 21.8164 65.8579C21.6215 65.598 21.5241 65.2353 21.5241 64.7698C21.5241 64.3042 21.6215 63.9433 21.8164 63.6871C22.0113 63.4273 22.2873 63.2974 22.6446 63.2974C22.8323 63.2974 22.9947 63.3443 23.1318 63.4381C23.2726 63.5283 23.3736 63.6582 23.435 63.8279H23.462V62.1714H24.0521V66.1772H23.462V65.7117ZM22.8233 65.7334C23.0037 65.7334 23.1553 65.69 23.278 65.6034C23.4007 65.5132 23.462 65.3959 23.462 65.2516V64.288C23.462 64.1436 23.4007 64.0282 23.278 63.9415C23.1553 63.8513 23.0037 63.8062 22.8233 63.8062C22.6175 63.8062 22.4533 63.873 22.3306 64.0065C22.2079 64.1364 22.1466 64.3096 22.1466 64.5262V65.0134C22.1466 65.2299 22.2079 65.4049 22.3306 65.5385C22.4533 65.6684 22.6175 65.7334 22.8233 65.7334ZM26.6007 65.7117H26.579C26.5537 65.7803 26.5195 65.847 26.4762 65.912C26.4365 65.977 26.3841 66.0347 26.3192 66.0852C26.2578 66.1321 26.182 66.17 26.0918 66.1989C26.0052 66.2278 25.9041 66.2422 25.7887 66.2422C25.4963 66.2422 25.269 66.1484 25.1066 65.9607C24.9478 65.7731 24.8684 65.5042 24.8684 65.1541V63.3623H25.4584V65.0783C25.4584 65.515 25.6389 65.7334 25.9998 65.7334C26.0756 65.7334 26.1495 65.7243 26.2217 65.7063C26.2939 65.6846 26.3571 65.654 26.4112 65.6143C26.4689 65.5746 26.514 65.524 26.5465 65.4627C26.5826 65.4013 26.6007 65.3292 26.6007 65.2462V63.3623H27.1907V66.1772H26.6007V65.7117ZM28.6365 66.1772C28.4344 66.1772 28.2828 66.1267 28.1818 66.0257C28.0843 65.921 28.0356 65.7767 28.0356 65.5926V62.1714H28.6257V65.6955H29.0154V66.1772H28.6365ZM30.6836 66.2422C30.4815 66.2422 30.301 66.2079 30.1423 66.1394C29.9835 66.0708 29.8481 65.9733 29.7363 65.847C29.6244 65.7171 29.5378 65.5619 29.4764 65.3815C29.4187 65.1974 29.3898 64.9935 29.3898 64.7698C29.3898 64.546 29.4187 64.3439 29.4764 64.1635C29.5378 63.9794 29.6244 63.8243 29.7363 63.6979C29.8481 63.568 29.9835 63.4688 30.1423 63.4002C30.301 63.3316 30.4815 63.2974 30.6836 63.2974C30.8893 63.2974 31.0697 63.3334 31.2249 63.4056C31.3837 63.4778 31.5154 63.5788 31.6201 63.7088C31.7247 63.8351 31.8023 63.983 31.8529 64.1527C31.907 64.3223 31.9341 64.5045 31.9341 64.6994V64.9214H30.0015V65.0134C30.0015 65.2299 30.0647 65.4086 30.191 65.5493C30.3209 65.6864 30.5049 65.755 30.7431 65.755C30.9164 65.755 31.0625 65.7171 31.1816 65.6413C31.3007 65.5655 31.4018 65.4627 31.4848 65.3328L31.8312 65.6738C31.7266 65.847 31.575 65.986 31.3765 66.0906C31.178 66.1917 30.947 66.2422 30.6836 66.2422ZM30.6836 63.7575C30.5825 63.7575 30.4887 63.7755 30.4021 63.8116C30.3191 63.8477 30.2469 63.8982 30.1856 63.9632C30.1278 64.0282 30.0827 64.1057 30.0502 64.196C30.0177 64.2862 30.0015 64.3854 30.0015 64.4937V64.5316H31.3115V64.4775C31.3115 64.2609 31.2556 64.0877 31.1437 63.9578C31.0318 63.8243 30.8785 63.7575 30.6836 63.7575ZM34.9276 64.0877L34.5108 63.2865H34.4945V66.1772H33.9099V62.3987H34.592L35.8262 64.4883L36.243 65.2895H36.2593V62.3987H36.8439V66.1772H36.1618L34.9276 64.0877ZM39.7935 66.1772C39.6383 66.1772 39.5192 66.1339 39.4362 66.0473C39.3532 65.9571 39.3027 65.8434 39.2846 65.7063H39.2575C39.2034 65.8831 39.1042 66.0167 38.9598 66.1069C38.8155 66.1971 38.6404 66.2422 38.4347 66.2422C38.1424 66.2422 37.9168 66.1664 37.758 66.0148C37.6029 65.8633 37.5253 65.6594 37.5253 65.4031C37.5253 65.1216 37.6263 64.9105 37.8284 64.7698C38.0341 64.629 38.3337 64.5587 38.727 64.5587H39.2359V64.3205C39.2359 64.1472 39.189 64.0137 39.0951 63.9199C39.0013 63.8261 38.8551 63.7791 38.6567 63.7791C38.4907 63.7791 38.3553 63.8152 38.2507 63.8874C38.146 63.9596 38.0576 64.0516 37.9854 64.1635L37.6335 63.8441C37.7274 63.6853 37.8591 63.5554 38.0287 63.4543C38.1983 63.3497 38.4203 63.2974 38.6946 63.2974C39.0591 63.2974 39.3387 63.3822 39.5336 63.5518C39.7285 63.7214 39.8259 63.965 39.8259 64.2826V65.6955H40.1237V66.1772H39.7935ZM38.6025 65.7929C38.7866 65.7929 38.9382 65.7532 39.0572 65.6738C39.1763 65.5908 39.2359 65.4807 39.2359 65.3436V64.9376H38.7379C38.3301 64.9376 38.1262 65.0639 38.1262 65.3165V65.414C38.1262 65.5403 38.1677 65.6359 38.2507 65.7009C38.3373 65.7622 38.4546 65.7929 38.6025 65.7929ZM40.702 66.1772V63.3623H41.292V63.8279H41.3191C41.348 63.7557 41.3822 63.6871 41.4219 63.6222C41.4653 63.5572 41.5158 63.5013 41.5735 63.4543C41.6349 63.4038 41.7052 63.3659 41.7846 63.3407C41.8676 63.3118 41.9633 63.2974 42.0715 63.2974C42.2628 63.2974 42.4324 63.3443 42.5804 63.4381C42.7284 63.5319 42.8366 63.6763 42.9052 63.8712H42.9214C42.972 63.7124 43.0694 63.577 43.2138 63.4652C43.3581 63.3533 43.544 63.2974 43.7713 63.2974C44.0528 63.2974 44.2712 63.393 44.4263 63.5843C44.5815 63.7719 44.6591 64.0408 44.6591 64.3908V66.1772H44.0691V64.4612C44.0691 64.2447 44.0276 64.0823 43.9446 63.974C43.8616 63.8621 43.7298 63.8062 43.5494 63.8062C43.4736 63.8062 43.4014 63.817 43.3329 63.8387C43.2643 63.8567 43.2029 63.8856 43.1488 63.9253C43.0983 63.965 43.0568 64.0155 43.0243 64.0769C42.9918 64.1382 42.9756 64.2086 42.9756 64.288V66.1772H42.3855V64.4612C42.3855 64.0245 42.2141 63.8062 41.8713 63.8062C41.7991 63.8062 41.7269 63.817 41.6547 63.8387C41.5861 63.8567 41.5248 63.8856 41.4707 63.9253C41.4165 63.965 41.3732 64.0155 41.3407 64.0769C41.3083 64.1382 41.292 64.2086 41.292 64.288V66.1772H40.702ZM46.58 66.2422C46.3779 66.2422 46.1974 66.2079 46.0386 66.1394C45.8798 66.0708 45.7445 65.9733 45.6326 65.847C45.5208 65.7171 45.4341 65.5619 45.3728 65.3815C45.315 65.1974 45.2862 64.9935 45.2862 64.7698C45.2862 64.546 45.315 64.3439 45.3728 64.1635C45.4341 63.9794 45.5208 63.8243 45.6326 63.6979C45.7445 63.568 45.8798 63.4688 46.0386 63.4002C46.1974 63.3316 46.3779 63.2974 46.58 63.2974C46.7857 63.2974 46.9661 63.3334 47.1213 63.4056C47.2801 63.4778 47.4118 63.5788 47.5165 63.7088C47.6211 63.8351 47.6987 63.983 47.7492 64.1527C47.8034 64.3223 47.8304 64.5045 47.8304 64.6994V64.9214H45.8979V65.0134C45.8979 65.2299 45.961 65.4086 46.0873 65.5493C46.2173 65.6864 46.4013 65.755 46.6395 65.755C46.8127 65.755 46.9589 65.7171 47.078 65.6413C47.1971 65.5655 47.2981 65.4627 47.3811 65.3328L47.7276 65.6738C47.6229 65.847 47.4714 65.986 47.2729 66.0906C47.0744 66.1917 46.8434 66.2422 46.58 66.2422ZM46.58 63.7575C46.4789 63.7575 46.3851 63.7755 46.2985 63.8116C46.2155 63.8477 46.1433 63.8982 46.0819 63.9632C46.0242 64.0282 45.9791 64.1057 45.9466 64.196C45.9141 64.2862 45.8979 64.3854 45.8979 64.4937V64.5316H47.2079V64.4775C47.2079 64.2609 47.152 64.0877 47.0401 63.9578C46.9282 63.8243 46.7748 63.7575 46.58 63.7575Z" fill="#00212E"/>
<path d="M67.8068 66.1772L66.5672 62.3987H67.2005L67.8014 64.2663L68.1641 65.5818H68.1858L68.5539 64.2663L69.1548 62.3987H69.7719L68.516 66.1772H67.8068ZM70.5889 62.8589C70.4662 62.8589 70.376 62.83 70.3182 62.7723C70.2641 62.7145 70.237 62.6405 70.237 62.5503V62.4583C70.237 62.3681 70.2641 62.2941 70.3182 62.2363C70.376 62.1786 70.4662 62.1497 70.5889 62.1497C70.7116 62.1497 70.8 62.1786 70.8542 62.2363C70.9083 62.2941 70.9354 62.3681 70.9354 62.4583V62.5503C70.9354 62.6405 70.9083 62.7145 70.8542 62.7723C70.8 62.83 70.7116 62.8589 70.5889 62.8589ZM70.2912 63.3623H70.8812V66.1772H70.2912V63.3623ZM72.8281 66.2422C72.626 66.2422 72.4456 66.2079 72.2868 66.1394C72.128 66.0708 71.9927 65.9733 71.8808 65.847C71.7689 65.7171 71.6823 65.5619 71.6209 65.3815C71.5632 65.1974 71.5343 64.9935 71.5343 64.7698C71.5343 64.546 71.5632 64.3439 71.6209 64.1635C71.6823 63.9794 71.7689 63.8243 71.8808 63.6979C71.9927 63.568 72.128 63.4688 72.2868 63.4002C72.4456 63.3316 72.626 63.2974 72.8281 63.2974C73.0338 63.2974 73.2143 63.3334 73.3695 63.4056C73.5282 63.4778 73.66 63.5788 73.7646 63.7088C73.8693 63.8351 73.9469 63.983 73.9974 64.1527C74.0515 64.3223 74.0786 64.5045 74.0786 64.6994V64.9214H72.146V65.0134C72.146 65.2299 72.2092 65.4086 72.3355 65.5493C72.4654 65.6864 72.6495 65.755 72.8877 65.755C73.0609 65.755 73.2071 65.7171 73.3261 65.6413C73.4452 65.5655 73.5463 65.4627 73.6293 65.3328L73.9757 65.6738C73.8711 65.847 73.7195 65.986 73.521 66.0906C73.3225 66.1917 73.0916 66.2422 72.8281 66.2422ZM72.8281 63.7575C72.7271 63.7575 72.6332 63.7755 72.5466 63.8116C72.4636 63.8477 72.3914 63.8982 72.3301 63.9632C72.2724 64.0282 72.2272 64.1057 72.1948 64.196C72.1623 64.2862 72.146 64.3854 72.146 64.4937V64.5316H73.4561V64.4775C73.4561 64.2609 73.4001 64.0877 73.2883 63.9578C73.1764 63.8243 73.023 63.7575 72.8281 63.7575ZM74.4239 63.3623H74.9977L75.2846 64.5424L75.539 65.6088H75.5553L75.8476 64.5424L76.1886 63.3623H76.7191L77.0656 64.5424L77.3633 65.6088H77.3796L77.6286 64.5424L77.9209 63.3623H78.4676L77.7098 66.1772H77.0439L76.6758 64.8943L76.4485 64.1039H76.4376L76.2157 64.8943L75.8422 66.1772H75.1926L74.4239 63.3623Z" fill="#00212E"/>
<path d="M99.9378 66.2422C99.4434 66.2422 99.0554 66.0762 98.7739 65.7442C98.4924 65.4086 98.3517 64.9232 98.3517 64.288C98.3517 63.9704 98.3878 63.6907 98.4599 63.4489C98.5321 63.2071 98.6368 63.0032 98.7739 62.8372C98.9111 62.6712 99.0771 62.5467 99.2719 62.4637C99.4704 62.3771 99.6924 62.3338 99.9378 62.3338C100.266 62.3338 100.54 62.406 100.761 62.5503C100.984 62.6947 101.159 62.9076 101.286 63.1891L100.771 63.4706C100.706 63.2901 100.605 63.1476 100.468 63.0429C100.335 62.9347 100.158 62.8805 99.9378 62.8805C99.6455 62.8805 99.4163 62.9798 99.2503 63.1783C99.0843 63.3767 99.0013 63.651 99.0013 64.0011V64.5749C99.0013 64.925 99.0843 65.1992 99.2503 65.3977C99.4163 65.5962 99.6455 65.6955 99.9378 65.6955C100.165 65.6955 100.349 65.6377 100.49 65.5222C100.634 65.4031 100.741 65.2516 100.809 65.0675L101.302 65.3652C101.176 65.6395 100.999 65.8543 100.771 66.0094C100.544 66.1646 100.266 66.2422 99.9378 66.2422ZM101.907 66.1772V63.3623H102.497V63.9036H102.524C102.564 63.7593 102.647 63.633 102.773 63.5247C102.9 63.4164 103.075 63.3623 103.298 63.3623H103.455V63.9307H103.223C102.988 63.9307 102.808 63.9686 102.681 64.0444C102.558 64.1202 102.497 64.2321 102.497 64.38V66.1772H101.907ZM105.057 66.2422C104.855 66.2422 104.675 66.2079 104.516 66.1394C104.357 66.0708 104.222 65.9733 104.11 65.847C103.998 65.7171 103.911 65.5619 103.85 65.3815C103.792 65.1974 103.763 64.9935 103.763 64.7698C103.763 64.546 103.792 64.3439 103.85 64.1635C103.911 63.9794 103.998 63.8243 104.11 63.6979C104.222 63.568 104.357 63.4688 104.516 63.4002C104.675 63.3316 104.855 63.2974 105.057 63.2974C105.263 63.2974 105.443 63.3334 105.599 63.4056C105.757 63.4778 105.889 63.5788 105.994 63.7088C106.098 63.8351 106.176 63.983 106.227 64.1527C106.281 64.3223 106.308 64.5045 106.308 64.6994V64.9214H104.375V65.0134C104.375 65.2299 104.438 65.4086 104.565 65.5493C104.695 65.6864 104.879 65.755 105.117 65.755C105.29 65.755 105.436 65.7171 105.555 65.6413C105.674 65.5655 105.775 65.4627 105.858 65.3328L106.205 65.6738C106.1 65.847 105.949 65.986 105.75 66.0906C105.552 66.1917 105.321 66.2422 105.057 66.2422ZM105.057 63.7575C104.956 63.7575 104.862 63.7755 104.776 63.8116C104.693 63.8477 104.621 63.8982 104.559 63.9632C104.502 64.0282 104.456 64.1057 104.424 64.196C104.391 64.2862 104.375 64.3854 104.375 64.4937V64.5316H105.685V64.4775C105.685 64.2609 105.629 64.0877 105.517 63.9578C105.406 63.8243 105.252 63.7575 105.057 63.7575ZM109.023 66.1772C108.868 66.1772 108.749 66.1339 108.666 66.0473C108.583 65.9571 108.533 65.8434 108.515 65.7063H108.488C108.433 65.8831 108.334 66.0167 108.19 66.1069C108.045 66.1971 107.87 66.2422 107.665 66.2422C107.372 66.2422 107.147 66.1664 106.988 66.0148C106.833 65.8633 106.755 65.6594 106.755 65.4031C106.755 65.1216 106.856 64.9105 107.058 64.7698C107.264 64.629 107.564 64.5587 107.957 64.5587H108.466V64.3205C108.466 64.1472 108.419 64.0137 108.325 63.9199C108.231 63.8261 108.085 63.7791 107.887 63.7791C107.721 63.7791 107.585 63.8152 107.481 63.8874C107.376 63.9596 107.288 64.0516 107.215 64.1635L106.864 63.8441C106.957 63.6853 107.089 63.5554 107.259 63.4543C107.428 63.3497 107.65 63.2974 107.925 63.2974C108.289 63.2974 108.569 63.3822 108.764 63.5518C108.958 63.7214 109.056 63.965 109.056 64.2826V65.6955H109.354V66.1772H109.023ZM107.832 65.7929C108.017 65.7929 108.168 65.7532 108.287 65.6738C108.406 65.5908 108.466 65.4807 108.466 65.3436V64.9376H107.968C107.56 64.9376 107.356 65.0639 107.356 65.3165V65.414C107.356 65.5403 107.398 65.6359 107.481 65.7009C107.567 65.7622 107.685 65.7929 107.832 65.7929ZM110.696 66.1772C110.49 66.1772 110.335 66.1249 110.23 66.0203C110.125 65.912 110.073 65.7604 110.073 65.5655V63.8441H109.635V63.3623H109.873C109.97 63.3623 110.037 63.3407 110.073 63.2974C110.113 63.254 110.133 63.1837 110.133 63.0862V62.5936H110.663V63.3623H111.253V63.8441H110.663V65.6955H111.21V66.1772H110.696ZM112.976 66.2422C112.774 66.2422 112.594 66.2079 112.435 66.1394C112.276 66.0708 112.141 65.9733 112.029 65.847C111.917 65.7171 111.831 65.5619 111.769 65.3815C111.711 65.1974 111.683 64.9935 111.683 64.7698C111.683 64.546 111.711 64.3439 111.769 64.1635C111.831 63.9794 111.917 63.8243 112.029 63.6979C112.141 63.568 112.276 63.4688 112.435 63.4002C112.594 63.3316 112.774 63.2974 112.976 63.2974C113.182 63.2974 113.363 63.3334 113.518 63.4056C113.677 63.4778 113.808 63.5788 113.913 63.7088C114.018 63.8351 114.095 63.983 114.146 64.1527C114.2 64.3223 114.227 64.5045 114.227 64.6994V64.9214H112.294V65.0134C112.294 65.2299 112.357 65.4086 112.484 65.5493C112.614 65.6864 112.798 65.755 113.036 65.755C113.209 65.755 113.355 65.7171 113.474 65.6413C113.594 65.5655 113.695 65.4627 113.778 65.3328L114.124 65.6738C114.019 65.847 113.868 65.986 113.669 66.0906C113.471 66.1917 113.24 66.2422 112.976 66.2422ZM112.976 63.7575C112.875 63.7575 112.782 63.7755 112.695 63.8116C112.612 63.8477 112.54 63.8982 112.478 63.9632C112.421 64.0282 112.376 64.1057 112.343 64.196C112.311 64.2862 112.294 64.3854 112.294 64.4937V64.5316H113.604V64.4775C113.604 64.2609 113.548 64.0877 113.437 63.9578C113.325 63.8243 113.171 63.7575 112.976 63.7575Z" fill="#00212E"/>
<path d="M135.554 66.1772V62.3987H137.974V62.9401H136.166V63.9903H137.806V64.5316H136.166V65.6359H137.974V66.1772H135.554ZM140.437 65.7117H140.41C140.349 65.8777 140.248 66.0076 140.107 66.1015C139.97 66.1953 139.807 66.2422 139.62 66.2422C139.262 66.2422 138.986 66.1141 138.791 65.8579C138.596 65.598 138.499 65.2353 138.499 64.7698C138.499 64.3042 138.596 63.9433 138.791 63.6871C138.986 63.4273 139.262 63.2974 139.62 63.2974C139.807 63.2974 139.97 63.3443 140.107 63.4381C140.248 63.5283 140.349 63.6582 140.41 63.8279H140.437V62.1714H141.027V66.1772H140.437V65.7117ZM139.798 65.7334C139.979 65.7334 140.13 65.69 140.253 65.6034C140.376 65.5132 140.437 65.3959 140.437 65.2516V64.288C140.437 64.1436 140.376 64.0282 140.253 63.9415C140.13 63.8513 139.979 63.8062 139.798 63.8062C139.593 63.8062 139.428 63.873 139.306 64.0065C139.183 64.1364 139.122 64.3096 139.122 64.5262V65.0134C139.122 65.2299 139.183 65.4049 139.306 65.5385C139.428 65.6684 139.593 65.7334 139.798 65.7334ZM142.168 62.8589C142.045 62.8589 141.955 62.83 141.898 62.7723C141.843 62.7145 141.816 62.6405 141.816 62.5503V62.4583C141.816 62.3681 141.843 62.2941 141.898 62.2363C141.955 62.1786 142.045 62.1497 142.168 62.1497C142.291 62.1497 142.379 62.1786 142.433 62.2363C142.488 62.2941 142.515 62.3681 142.515 62.4583V62.5503C142.515 62.6405 142.488 62.7145 142.433 62.7723C142.379 62.83 142.291 62.8589 142.168 62.8589ZM141.87 63.3623H142.46V66.1772H141.87V63.3623ZM144.083 66.1772C143.877 66.1772 143.722 66.1249 143.617 66.0203C143.512 65.912 143.46 65.7604 143.46 65.5655V63.8441H143.022V63.3623H143.26C143.357 63.3623 143.424 63.3407 143.46 63.2974C143.5 63.254 143.52 63.1837 143.52 63.0862V62.5936H144.05V63.3623H144.64V63.8441H144.05V65.6955H144.597V66.1772H144.083Z" fill="#00212E"/>
</g>
<path d="M224.267 74.1707H7.73328V74.5574H224.267V74.1707Z" fill="#E8E8E8" mask="url(#path-14-inside-4_3650_27764)"/>
<g clip-path="url(#clip5_3650_27764)">
<mask id="path-22-inside-6_3650_27764" fill="white">
<path d="M7.73328 74.3643H224.267V94.4709H7.73328V74.3643Z"/>
</mask>
<path d="M7.73328 74.3643H224.267V94.4709H7.73328V74.3643Z" fill="#F6F6F6"/>
<mask id="path-24-inside-7_3650_27764" fill="white">
<path d="M7.73328 74.3643H55.6799V94.4709H7.73328V74.3643Z"/>
</mask>
<path d="M55.4866 74.3643V94.4709H55.8733V74.3643H55.4866Z" fill="#E8E8E8" mask="url(#path-24-inside-7_3650_27764)"/>
<path d="M20.5509 82.6788H21.697C21.9043 82.6788 22.0914 82.7128 22.2585 82.7808C22.4286 82.8489 22.5724 82.951 22.69 83.0871C22.8106 83.2201 22.9034 83.3887 22.9684 83.5928C23.0333 83.7939 23.0658 84.029 23.0658 84.2981C23.0658 84.5672 23.0333 84.8039 22.9684 85.008C22.9034 85.2091 22.8106 85.3777 22.69 85.5138C22.5724 85.6468 22.4286 85.7473 22.2585 85.8154C22.0914 85.8835 21.9043 85.9175 21.697 85.9175H20.5509V82.6788ZM21.697 85.4535C21.9383 85.4535 22.1332 85.3777 22.2817 85.2261C22.4301 85.0745 22.5044 84.8518 22.5044 84.558V84.0383C22.5044 83.7444 22.4301 83.5217 22.2817 83.3701C22.1332 83.2185 21.9383 83.1428 21.697 83.1428H21.0753V85.4535H21.697ZM25.449 85.9175C25.316 85.9175 25.2139 85.8804 25.1428 85.8061C25.0716 85.7288 25.0283 85.6313 25.0128 85.5138H24.9896C24.9432 85.6654 24.8582 85.7798 24.7344 85.8572C24.6107 85.9345 24.4607 85.9732 24.2844 85.9732C24.0338 85.9732 23.8405 85.9082 23.7044 85.7783C23.5714 85.6484 23.5048 85.4736 23.5048 85.254C23.5048 85.0127 23.5915 84.8317 23.7647 84.7111C23.941 84.5904 24.1978 84.5301 24.5349 84.5301H24.9711V84.326C24.9711 84.1775 24.9309 84.063 24.8504 83.9826C24.77 83.9022 24.6447 83.862 24.4746 83.862C24.3323 83.862 24.2163 83.8929 24.1266 83.9548C24.0369 84.0166 23.9611 84.0955 23.8992 84.1914L23.5976 83.9176C23.6781 83.7815 23.791 83.6702 23.9364 83.5836C24.0818 83.4939 24.272 83.449 24.5071 83.449C24.8195 83.449 25.0592 83.5217 25.2263 83.6671C25.3933 83.8125 25.4768 84.0213 25.4768 84.2935V85.5045H25.732V85.9175H25.449ZM24.4282 85.588C24.586 85.588 24.7159 85.554 24.818 85.486C24.92 85.4148 24.9711 85.3205 24.9711 85.2029V84.8549H24.5442C24.1947 84.8549 24.0199 84.9632 24.0199 85.1797V85.2632C24.0199 85.3715 24.0555 85.4535 24.1266 85.5092C24.2008 85.5617 24.3014 85.588 24.4282 85.588ZM26.9933 85.9732C26.7644 85.9732 26.5726 85.9329 26.418 85.8525C26.2633 85.7721 26.1287 85.6607 26.0143 85.5184L26.3391 85.2215C26.4288 85.3297 26.5278 85.4148 26.636 85.4767C26.7474 85.5355 26.8758 85.5648 27.0212 85.5648C27.1696 85.5648 27.2795 85.537 27.3506 85.4813C27.4248 85.4225 27.462 85.3421 27.462 85.24C27.462 85.1627 27.4357 85.0977 27.3831 85.0452C27.3336 84.9895 27.2454 84.9539 27.1186 84.9384L26.8959 84.9106C26.6484 84.8797 26.4535 84.8085 26.3112 84.6972C26.172 84.5827 26.1024 84.4141 26.1024 84.1914C26.1024 84.0739 26.1241 83.9702 26.1674 83.8805C26.2107 83.7877 26.271 83.7104 26.3484 83.6485C26.4288 83.5836 26.5231 83.5341 26.6314 83.5C26.7428 83.466 26.865 83.449 26.998 83.449C27.2145 83.449 27.3908 83.483 27.5269 83.5511C27.6661 83.6191 27.7899 83.7135 27.8981 83.8341L27.5872 84.1311C27.5254 84.0568 27.4434 83.9934 27.3413 83.9408C27.2423 83.8852 27.1279 83.8573 26.998 83.8573C26.8588 83.8573 26.7551 83.8852 26.6871 83.9408C26.6221 83.9965 26.5896 84.0692 26.5896 84.1589C26.5896 84.2517 26.619 84.3213 26.6778 84.3677C26.7366 84.4141 26.8309 84.4481 26.9608 84.4698L27.1836 84.4976C27.4496 84.5379 27.6429 84.6167 27.7636 84.7343C27.8873 84.8487 27.9492 85.0034 27.9492 85.1983C27.9492 85.3158 27.926 85.4225 27.8796 85.5184C27.8363 85.6112 27.7728 85.6917 27.6893 85.7597C27.6058 85.8278 27.5053 85.8804 27.3877 85.9175C27.2702 85.9546 27.1387 85.9732 26.9933 85.9732ZM28.5205 82.4839H29.0263V83.9037H29.0495C29.1021 83.7738 29.181 83.6655 29.2861 83.5789C29.3944 83.4923 29.5413 83.449 29.7269 83.449C29.9744 83.449 30.1662 83.531 30.3023 83.6949C30.4415 83.8558 30.5111 84.0862 30.5111 84.3863V85.9175H30.0053V84.4466C30.0053 84.0723 29.8538 83.8852 29.5506 83.8852C29.4857 83.8852 29.4207 83.8944 29.3557 83.913C29.2939 83.9285 29.2382 83.9532 29.1887 83.9872C29.1392 84.0213 29.099 84.0646 29.0681 84.1172C29.0402 84.1697 29.0263 84.2301 29.0263 84.2981V85.9175H28.5205V82.4839ZM31.2121 82.4839H31.7179V83.9037H31.7411C31.7936 83.7583 31.8787 83.647 31.9963 83.5696C32.1169 83.4892 32.2576 83.449 32.4185 83.449C32.7247 83.449 32.9614 83.5604 33.1284 83.7831C33.2955 84.0027 33.379 84.312 33.379 84.7111C33.379 85.1101 33.2955 85.421 33.1284 85.6437C32.9614 85.8633 32.7247 85.9732 32.4185 85.9732C32.2576 85.9732 32.1169 85.9329 31.9963 85.8525C31.8787 85.7721 31.7936 85.6607 31.7411 85.5184H31.7179V85.9175H31.2121V82.4839ZM32.2654 85.537C32.4417 85.537 32.5824 85.4813 32.6876 85.37C32.7928 85.2555 32.8454 85.1055 32.8454 84.9199V84.5023C32.8454 84.3167 32.7928 84.1682 32.6876 84.0568C32.5824 83.9424 32.4417 83.8852 32.2654 83.8852C32.1107 83.8852 31.9808 83.9238 31.8756 84.0012C31.7704 84.0754 31.7179 84.1744 31.7179 84.2981V85.124C31.7179 85.2478 31.7704 85.3483 31.8756 85.4256C31.9808 85.4999 32.1107 85.537 32.2654 85.537ZM34.9046 85.9732C34.7376 85.9732 34.5844 85.9438 34.4452 85.885C34.3091 85.8262 34.1931 85.7427 34.0972 85.6344C34.0013 85.5231 33.9271 85.3901 33.8745 85.2354C33.8219 85.0776 33.7956 84.9029 33.7956 84.7111C33.7956 84.5193 33.8219 84.3461 33.8745 84.1914C33.9271 84.0336 34.0013 83.9006 34.0972 83.7924C34.1931 83.681 34.3091 83.5959 34.4452 83.5372C34.5844 83.4784 34.7376 83.449 34.9046 83.449C35.0716 83.449 35.2232 83.4784 35.3593 83.5372C35.4985 83.5959 35.6161 83.681 35.712 83.7924C35.8079 83.9006 35.8821 84.0336 35.9347 84.1914C35.9873 84.3461 36.0136 84.5193 36.0136 84.7111C36.0136 84.9029 35.9873 85.0776 35.9347 85.2354C35.8821 85.3901 35.8079 85.5231 35.712 85.6344C35.6161 85.7427 35.4985 85.8262 35.3593 85.885C35.2232 85.9438 35.0716 85.9732 34.9046 85.9732ZM34.9046 85.5556C35.0778 85.5556 35.217 85.503 35.3222 85.3978C35.4274 85.2895 35.48 85.1287 35.48 84.9152V84.5069C35.48 84.2935 35.4274 84.1342 35.3222 84.029C35.217 83.9207 35.0778 83.8666 34.9046 83.8666C34.7314 83.8666 34.5922 83.9207 34.487 84.029C34.3818 84.1342 34.3292 84.2935 34.3292 84.5069V84.9152C34.3292 85.1287 34.3818 85.2895 34.487 85.3978C34.5922 85.503 34.7314 85.5556 34.9046 85.5556ZM38.3449 85.9175C38.2119 85.9175 38.1098 85.8804 38.0387 85.8061C37.9676 85.7288 37.9242 85.6313 37.9088 85.5138H37.8856C37.8392 85.6654 37.7541 85.7798 37.6304 85.8572C37.5066 85.9345 37.3566 85.9732 37.1803 85.9732C36.9297 85.9732 36.7364 85.9082 36.6003 85.7783C36.4673 85.6484 36.4008 85.4736 36.4008 85.254C36.4008 85.0127 36.4874 84.8317 36.6606 84.7111C36.8369 84.5904 37.0937 84.5301 37.4309 84.5301H37.867V84.326C37.867 84.1775 37.8268 84.063 37.7464 83.9826C37.666 83.9022 37.5407 83.862 37.3705 83.862C37.2282 83.862 37.1122 83.8929 37.0225 83.9548C36.9328 84.0166 36.857 84.0955 36.7952 84.1914L36.4936 83.9176C36.574 83.7815 36.6869 83.6702 36.8323 83.5836C36.9777 83.4939 37.1679 83.449 37.403 83.449C37.7154 83.449 37.9552 83.5217 38.1222 83.6671C38.2893 83.8125 38.3728 84.0213 38.3728 84.2935V85.5045H38.628V85.9175H38.3449ZM37.3241 85.588C37.4819 85.588 37.6118 85.554 37.7139 85.486C37.816 85.4148 37.867 85.3205 37.867 85.2029V84.8549H37.4401C37.0906 84.8549 36.9158 84.9632 36.9158 85.1797V85.2632C36.9158 85.3715 36.9514 85.4535 37.0225 85.5092C37.0968 85.5617 37.1973 85.588 37.3241 85.588ZM39.1237 85.9175V83.5047H39.6294V83.9687H39.6526C39.6867 83.8449 39.7578 83.7367 39.8661 83.6439C39.9743 83.5511 40.1244 83.5047 40.3161 83.5047H40.4507V83.9919H40.2512C40.0501 83.9919 39.8955 84.0244 39.7872 84.0893C39.682 84.1543 39.6294 84.2502 39.6294 84.377V85.9175H39.1237ZM42.3945 85.5184H42.3713C42.3188 85.6607 42.2321 85.7721 42.1115 85.8525C41.994 85.9329 41.8548 85.9732 41.6939 85.9732C41.3877 85.9732 41.151 85.8633 40.984 85.6437C40.8169 85.421 40.7334 85.1101 40.7334 84.7111C40.7334 84.312 40.8169 84.0027 40.984 83.7831C41.151 83.5604 41.3877 83.449 41.6939 83.449C41.8548 83.449 41.994 83.4892 42.1115 83.5696C42.2321 83.647 42.3188 83.7583 42.3713 83.9037H42.3945V82.4839H42.9003V85.9175H42.3945V85.5184ZM41.847 85.537C42.0017 85.537 42.1316 85.4999 42.2368 85.4256C42.342 85.3483 42.3945 85.2478 42.3945 85.124V84.2981C42.3945 84.1744 42.342 84.0754 42.2368 84.0012C42.1316 83.9238 42.0017 83.8852 41.847 83.8852C41.6707 83.8852 41.53 83.9424 41.4248 84.0568C41.3196 84.1682 41.267 84.3167 41.267 84.5023V84.9199C41.267 85.1055 41.3196 85.2555 41.4248 85.37C41.53 85.4813 41.6707 85.537 41.847 85.537Z" fill="#00212E"/>
<path opacity="0.4" d="M74.251 81.1731C73.8183 81.1147 73.2637 81.1147 72.5577 81.1147H72.521C71.815 81.1147 71.2604 81.1147 70.8277 81.1731C70.384 81.2327 70.0321 81.3574 69.7557 81.6338C69.4792 81.9103 69.3545 82.2622 69.2949 82.7059C69.2366 83.1386 69.2366 83.6932 69.2366 84.3992V84.4359C69.2366 85.1419 69.2366 85.6964 69.2949 86.1292C69.3545 86.5729 69.4792 86.9247 69.7557 87.2012C70.0321 87.4777 70.384 87.6024 70.8277 87.662C71.2604 87.7203 71.815 87.7203 72.521 87.7203H72.5577C73.2637 87.7203 73.8183 87.7203 74.251 87.662C74.6947 87.6024 75.0466 87.4777 75.323 87.2012C75.5995 86.9247 75.7242 86.5729 75.7838 86.1292C75.8421 85.6964 75.8421 85.1419 75.8421 84.4359V84.3992C75.8421 83.6932 75.8421 83.1386 75.7838 82.7059C75.7242 82.2622 75.5995 81.9103 75.323 81.6338C75.0466 81.3574 74.6947 81.2327 74.251 81.1731Z" fill="#00A4E5"/>
<path fill-rule="evenodd" clip-rule="evenodd" d="M74.0658 83.6689C74.186 83.5378 74.1773 83.3338 74.0461 83.2136C73.915 83.0934 73.711 83.1021 73.5908 83.2333L72.0461 84.9185L71.4783 84.3511C71.3527 84.2251 71.1484 84.2251 71.0227 84.3511C70.8967 84.4767 70.8967 84.681 71.0227 84.8067L71.8283 85.6123C71.8905 85.6744 71.9752 85.7086 72.0632 85.7067C72.1508 85.7047 72.2343 85.667 72.2936 85.6023L74.0658 83.6689Z" fill="#00A4E5"/>
<path fill-rule="evenodd" clip-rule="evenodd" d="M106.274 81.1147H106.237C105.531 81.1147 104.977 81.1147 104.544 81.1729C104.101 81.2326 103.749 81.3573 103.472 81.6338C103.196 81.9103 103.071 82.2623 103.011 82.7059C102.953 83.1388 102.953 83.6932 102.953 84.3991V84.4359C102.953 85.1418 102.953 85.6963 103.011 86.1292C103.071 86.5728 103.196 86.9247 103.472 87.2012C103.749 87.4778 104.101 87.6025 104.544 87.6621C104.977 87.7203 105.531 87.7203 106.237 87.7203H106.274C106.98 87.7203 107.535 87.7203 107.967 87.6621C108.411 87.6025 108.763 87.4778 109.039 87.2012C109.316 86.9247 109.441 86.5728 109.5 86.1292C109.559 85.6963 109.559 85.1418 109.559 84.436V84.3991C109.559 83.6932 109.559 83.1388 109.5 82.7059C109.441 82.2623 109.316 81.9103 109.039 81.6338C108.763 81.3573 108.411 81.2326 107.967 81.1729C107.535 81.1147 106.98 81.1147 106.274 81.1147ZM103.814 81.9756C103.986 81.8038 104.219 81.7044 104.609 81.652C105.005 81.5986 105.527 81.5981 106.256 81.5981C106.984 81.5981 107.506 81.5986 107.903 81.652C108.293 81.7044 108.526 81.8038 108.698 81.9756C108.869 82.1473 108.969 82.3803 109.021 82.7703C109.075 83.1672 109.075 83.6892 109.075 84.4175C109.075 85.1459 109.075 85.6678 109.021 86.0648C108.969 86.4548 108.869 86.6877 108.698 86.8595C108.526 87.0312 108.293 87.1307 107.903 87.1831C107.506 87.2365 106.984 87.237 106.256 87.237C105.527 87.237 105.005 87.2365 104.609 87.1831C104.219 87.1307 103.986 87.0312 103.814 86.8595C103.642 86.6877 103.543 86.4548 103.49 86.0648C103.437 85.6678 103.436 85.1459 103.436 84.4175C103.436 83.6892 103.437 83.1672 103.49 82.7703C103.543 82.3803 103.642 82.1473 103.814 81.9756Z" fill="#BBBBBB"/>
<path fill-rule="evenodd" clip-rule="evenodd" d="M139.993 81.1147H139.956C139.25 81.1147 138.696 81.1147 138.263 81.1729C137.819 81.2326 137.467 81.3573 137.191 81.6338C136.914 81.9103 136.79 82.2623 136.73 82.7059C136.672 83.1388 136.672 83.6932 136.672 84.3991V84.4359C136.672 85.1418 136.672 85.6963 136.73 86.1292C136.79 86.5728 136.914 86.9247 137.191 87.2012C137.467 87.4778 137.819 87.6025 138.263 87.6621C138.696 87.7203 139.25 87.7203 139.956 87.7203H139.993C140.699 87.7203 141.253 87.7203 141.686 87.6621C142.13 87.6025 142.482 87.4778 142.758 87.2012C143.035 86.9247 143.159 86.5728 143.219 86.1292C143.277 85.6963 143.277 85.1418 143.277 84.436V84.3991C143.277 83.6932 143.277 83.1388 143.219 82.7059C143.159 82.2623 143.035 81.9103 142.758 81.6338C142.482 81.3573 142.13 81.2326 141.686 81.1729C141.253 81.1147 140.699 81.1147 139.993 81.1147ZM137.533 81.9756C137.704 81.8038 137.937 81.7044 138.327 81.652C138.724 81.5986 139.246 81.5981 139.975 81.5981C140.703 81.5981 141.225 81.5986 141.622 81.652C142.012 81.7044 142.245 81.8038 142.416 81.9756C142.588 82.1473 142.688 82.3803 142.74 82.7703C142.793 83.1672 142.794 83.6892 142.794 84.4175C142.794 85.1459 142.793 85.6678 142.74 86.0648C142.688 86.4548 142.588 86.6877 142.416 86.8595C142.245 87.0312 142.012 87.1307 141.622 87.1831C141.225 87.2365 140.703 87.237 139.975 87.237C139.246 87.237 138.724 87.2365 138.327 87.1831C137.937 87.1307 137.704 87.0312 137.533 86.8595C137.361 86.6877 137.261 86.4548 137.209 86.0648C137.156 85.6678 137.155 85.1459 137.155 84.4175C137.155 83.6892 137.156 83.1672 137.209 82.7703C137.261 82.3803 137.361 82.1473 137.533 81.9756Z" fill="#BBBBBB"/>
</g>
<path d="M224.267 94.2776H7.73328V94.6643H224.267V94.2776Z" fill="#E8E8E8" mask="url(#path-22-inside-6_3650_27764)"/>
</g>
<rect x="7.63661" y="33.5205" width="216.727" height="61.0467" rx="1.64333" stroke="#E8E8E8" stroke-width="0.193333"/>
<g clip-path="url(#clip6_3650_27764)">
<g clip-path="url(#clip7_3650_27764)">
<mask id="path-33-inside-8_3650_27764" fill="white">
<path d="M7.7334 102.204C7.7334 101.35 8.42586 100.657 9.28007 100.657H222.72C223.574 100.657 224.267 101.35 224.267 102.204V121.031H7.7334V102.204Z"/>
</mask>
<mask id="path-35-inside-9_3650_27764" fill="white">
<path d="M7.7334 100.657H25.5201V121.031H7.7334V100.657Z"/>
</mask>
<path d="M25.3267 100.657V121.031H25.7134V100.657H25.3267Z" fill="#E8E8E8" mask="url(#path-35-inside-9_3650_27764)"/>
<path d="M15.0623 109.845C15.0976 109.891 15.2031 110.031 15.266 110.112C15.3919 110.273 15.5639 110.487 15.7494 110.701C15.9359 110.916 16.1318 111.125 16.3058 111.279C16.3931 111.356 16.4697 111.414 16.533 111.453C16.5925 111.488 16.6276 111.496 16.6276 111.496C16.6276 111.496 16.6618 111.488 16.7212 111.453C16.7845 111.414 16.8612 111.356 16.9484 111.279C17.1225 111.125 17.3184 110.916 17.5048 110.701C17.6904 110.487 17.8624 110.273 17.9883 110.112C18.0511 110.031 18.1565 109.892 18.1918 109.845C18.2631 109.748 18.3994 109.727 18.4961 109.799C18.5928 109.87 18.6135 110.006 18.5423 110.103L18.5417 110.103C18.5046 110.152 18.3953 110.297 18.3312 110.379C18.2025 110.544 18.0254 110.765 17.8333 110.986C17.6421 111.206 17.4317 111.432 17.2365 111.605C17.1391 111.691 17.0404 111.768 16.9458 111.825C16.8572 111.879 16.745 111.931 16.6271 111.931C16.5092 111.931 16.397 111.879 16.3084 111.825C16.2138 111.768 16.1152 111.691 16.0178 111.605C15.8226 111.432 15.6121 111.206 15.4209 110.986C15.2288 110.765 15.0518 110.544 14.9231 110.379C14.8589 110.297 14.7496 110.152 14.7126 110.103L14.7121 110.103C14.6409 110.006 14.6614 109.87 14.7581 109.799C14.8549 109.727 14.991 109.748 15.0623 109.845Z" fill="#006289"/>
<path d="M33.7591 112.844L33.4181 111.821H32.0052L31.675 112.844H31.0524L32.3408 109.065H33.1095L34.3979 112.844H33.7591ZM32.7252 109.628H32.6981L32.1513 111.296H33.2665L32.7252 109.628ZM34.9398 110.029H35.5299V110.494H35.5569C35.6183 110.325 35.7175 110.195 35.8547 110.105C35.9954 110.011 36.1596 109.964 36.3473 109.964C36.7046 109.964 36.9806 110.094 37.1755 110.354C37.3704 110.61 37.4678 110.971 37.4678 111.436C37.4678 111.902 37.3704 112.265 37.1755 112.524C36.9806 112.781 36.7046 112.909 36.3473 112.909C36.1596 112.909 35.9954 112.862 35.8547 112.768C35.7175 112.674 35.6183 112.544 35.5569 112.378H35.5299V113.926H34.9398V110.029ZM36.1686 112.4C36.3743 112.4 36.5385 112.335 36.6612 112.205C36.784 112.071 36.8453 111.896 36.8453 111.68V111.193C36.8453 110.976 36.784 110.803 36.6612 110.673C36.5385 110.539 36.3743 110.473 36.1686 110.473C35.9882 110.473 35.8366 110.518 35.7139 110.608C35.5912 110.695 35.5299 110.81 35.5299 110.954V111.918C35.5299 112.062 35.5912 112.18 35.7139 112.27C35.8366 112.357 35.9882 112.4 36.1686 112.4ZM38.1434 110.029H38.7335V110.494H38.7605C38.8219 110.325 38.9211 110.195 39.0583 110.105C39.199 110.011 39.3632 109.964 39.5509 109.964C39.9081 109.964 40.1842 110.094 40.3791 110.354C40.574 110.61 40.6714 110.971 40.6714 111.436C40.6714 111.902 40.574 112.265 40.3791 112.524C40.1842 112.781 39.9081 112.909 39.5509 112.909C39.3632 112.909 39.199 112.862 39.0583 112.768C38.9211 112.674 38.8219 112.544 38.7605 112.378H38.7335V113.926H38.1434V110.029ZM39.3722 112.4C39.5779 112.4 39.7421 112.335 39.8648 112.205C39.9875 112.071 40.0489 111.896 40.0489 111.68V111.193C40.0489 110.976 39.9875 110.803 39.8648 110.673C39.7421 110.539 39.5779 110.473 39.3722 110.473C39.1918 110.473 39.0402 110.518 38.9175 110.608C38.7948 110.695 38.7335 110.81 38.7335 110.954V111.918C38.7335 112.062 38.7948 112.18 38.9175 112.27C39.0402 112.357 39.1918 112.4 39.3722 112.4ZM42.4513 112.909C42.2564 112.909 42.0778 112.874 41.9154 112.806C41.7566 112.737 41.6213 112.64 41.5094 112.514C41.3975 112.384 41.3109 112.228 41.2496 112.048C41.1882 111.864 41.1575 111.66 41.1575 111.436C41.1575 111.213 41.1882 111.01 41.2496 110.83C41.3109 110.646 41.3975 110.491 41.5094 110.364C41.6213 110.235 41.7566 110.135 41.9154 110.067C42.0778 109.998 42.2564 109.964 42.4513 109.964C42.6462 109.964 42.823 109.998 42.9818 110.067C43.1442 110.135 43.2814 110.235 43.3932 110.364C43.5051 110.491 43.5917 110.646 43.6531 110.83C43.7144 111.01 43.7451 111.213 43.7451 111.436C43.7451 111.66 43.7144 111.864 43.6531 112.048C43.5917 112.228 43.5051 112.384 43.3932 112.514C43.2814 112.64 43.1442 112.737 42.9818 112.806C42.823 112.874 42.6462 112.909 42.4513 112.909ZM42.4513 112.422C42.6534 112.422 42.8158 112.36 42.9385 112.237C43.0612 112.111 43.1226 111.923 43.1226 111.674V111.198C43.1226 110.949 43.0612 110.763 42.9385 110.641C42.8158 110.514 42.6534 110.451 42.4513 110.451C42.2492 110.451 42.0868 110.514 41.9641 110.641C41.8414 110.763 41.7801 110.949 41.7801 111.198V111.674C41.7801 111.923 41.8414 112.111 41.9641 112.237C42.0868 112.36 42.2492 112.422 42.4513 112.422ZM44.7003 109.525C44.5776 109.525 44.4874 109.497 44.4296 109.439C44.3755 109.381 44.3484 109.307 44.3484 109.217V109.125C44.3484 109.035 44.3755 108.961 44.4296 108.903C44.4874 108.845 44.5776 108.816 44.7003 108.816C44.823 108.816 44.9114 108.845 44.9656 108.903C45.0197 108.961 45.0468 109.035 45.0468 109.125V109.217C45.0468 109.307 45.0197 109.381 44.9656 109.439C44.9114 109.497 44.823 109.525 44.7003 109.525ZM44.4026 110.029H44.9926V112.844H44.4026V110.029ZM45.8352 112.844V110.029H46.4253V110.494H46.4523C46.5137 110.343 46.6057 110.216 46.7284 110.115C46.8547 110.014 47.0261 109.964 47.2427 109.964C47.5314 109.964 47.7551 110.059 47.9139 110.251C48.0763 110.438 48.1575 110.707 48.1575 111.057V112.844H47.5675V111.133C47.5675 110.693 47.3906 110.473 47.037 110.473C46.9612 110.473 46.8854 110.484 46.8096 110.505C46.7374 110.523 46.6725 110.552 46.6147 110.592C46.557 110.632 46.5101 110.682 46.474 110.743C46.4415 110.805 46.4253 110.877 46.4253 110.96V112.844H45.8352ZM49.7549 112.844C49.5492 112.844 49.394 112.791 49.2893 112.687C49.1847 112.578 49.1323 112.427 49.1323 112.232V110.511H48.6939V110.029H48.932C49.0295 110.029 49.0963 110.007 49.1323 109.964C49.172 109.921 49.1919 109.85 49.1919 109.753V109.26H49.7224V110.029H50.3124V110.511H49.7224V112.362H50.2691V112.844H49.7549ZM50.9525 112.844V110.029H51.5425V110.494H51.5696C51.5985 110.422 51.6328 110.354 51.6725 110.289C51.7158 110.224 51.7663 110.168 51.824 110.121C51.8854 110.07 51.9558 110.032 52.0352 110.007C52.1182 109.978 52.2138 109.964 52.3221 109.964C52.5133 109.964 52.683 110.011 52.8309 110.105C52.9789 110.198 53.0871 110.343 53.1557 110.538H53.172C53.2225 110.379 53.3199 110.244 53.4643 110.132C53.6086 110.02 53.7945 109.964 54.0218 109.964C54.3033 109.964 54.5217 110.059 54.6769 110.251C54.832 110.438 54.9096 110.707 54.9096 111.057V112.844H54.3196V111.128C54.3196 110.911 54.2781 110.749 54.1951 110.641C54.1121 110.529 53.9803 110.473 53.7999 110.473C53.7241 110.473 53.6519 110.484 53.5834 110.505C53.5148 110.523 53.4534 110.552 53.3993 110.592C53.3488 110.632 53.3073 110.682 53.2748 110.743C53.2423 110.805 53.2261 110.875 53.2261 110.954V112.844H52.636V111.128C52.636 110.691 52.4646 110.473 52.1218 110.473C52.0496 110.473 51.9774 110.484 51.9052 110.505C51.8367 110.523 51.7753 110.552 51.7212 110.592C51.667 110.632 51.6237 110.682 51.5913 110.743C51.5588 110.805 51.5425 110.875 51.5425 110.954V112.844H50.9525ZM56.8305 112.909C56.6284 112.909 56.4479 112.874 56.2891 112.806C56.1304 112.737 55.995 112.64 55.8831 112.514C55.7713 112.384 55.6847 112.228 55.6233 112.048C55.5656 111.864 55.5367 111.66 55.5367 111.436C55.5367 111.213 55.5656 111.01 55.6233 110.83C55.6847 110.646 55.7713 110.491 55.8831 110.364C55.995 110.235 56.1304 110.135 56.2891 110.067C56.4479 109.998 56.6284 109.964 56.8305 109.964C57.0362 109.964 57.2166 110 57.3718 110.072C57.5306 110.144 57.6623 110.245 57.767 110.375C57.8716 110.502 57.9492 110.65 57.9998 110.819C58.0539 110.989 58.081 111.171 58.081 111.366V111.588H56.1484V111.68C56.1484 111.896 56.2116 112.075 56.3379 112.216C56.4678 112.353 56.6518 112.422 56.89 112.422C57.0633 112.422 57.2094 112.384 57.3285 112.308C57.4476 112.232 57.5486 112.129 57.6317 111.999L57.9781 112.34C57.8734 112.514 57.7219 112.652 57.5234 112.757C57.3249 112.858 57.0939 112.909 56.8305 112.909ZM56.8305 110.424C56.7294 110.424 56.6356 110.442 56.549 110.478C56.466 110.514 56.3938 110.565 56.3325 110.63C56.2747 110.695 56.2296 110.772 56.1971 110.862C56.1646 110.953 56.1484 111.052 56.1484 111.16V111.198H57.4584V111.144C57.4584 110.927 57.4025 110.754 57.2906 110.624C57.1787 110.491 57.0254 110.424 56.8305 110.424ZM58.7342 112.844V110.029H59.3242V110.494H59.3513C59.4126 110.343 59.5047 110.216 59.6274 110.115C59.7537 110.014 59.9251 109.964 60.1416 109.964C60.4303 109.964 60.6541 110.059 60.8129 110.251C60.9753 110.438 61.0565 110.707 61.0565 111.057V112.844H60.4664V111.133C60.4664 110.693 60.2896 110.473 59.9359 110.473C59.8601 110.473 59.7843 110.484 59.7086 110.505C59.6364 110.523 59.5714 110.552 59.5137 110.592C59.4559 110.632 59.409 110.682 59.3729 110.743C59.3404 110.805 59.3242 110.877 59.3242 110.96V112.844H58.7342ZM62.6538 112.844C62.4481 112.844 62.2929 112.791 62.1883 112.687C62.0836 112.578 62.0313 112.427 62.0313 112.232V110.511H61.5928V110.029H61.831C61.9284 110.029 61.9952 110.007 62.0313 109.964C62.071 109.921 62.0908 109.85 62.0908 109.753V109.26H62.6214V110.029H63.2114V110.511H62.6214V112.362H63.1681V112.844H62.6538ZM64.7446 112.909C64.4776 112.909 64.2538 112.862 64.0734 112.768C63.8929 112.674 63.736 112.544 63.6024 112.378L63.9814 112.032C64.086 112.158 64.2015 112.257 64.3278 112.329C64.4577 112.398 64.6075 112.432 64.7771 112.432C64.9504 112.432 65.0785 112.4 65.1615 112.335C65.2481 112.266 65.2914 112.172 65.2914 112.053C65.2914 111.963 65.2607 111.887 65.1994 111.826C65.1416 111.761 65.0388 111.72 64.8908 111.702L64.631 111.669C64.3423 111.633 64.1149 111.55 63.9489 111.42C63.7865 111.287 63.7053 111.09 63.7053 110.83C63.7053 110.693 63.7305 110.572 63.7811 110.467C63.8316 110.359 63.902 110.269 63.9922 110.197C64.086 110.121 64.1961 110.063 64.3224 110.023C64.4523 109.984 64.5949 109.964 64.7501 109.964C65.0027 109.964 65.2084 110.004 65.3672 110.083C65.5296 110.162 65.6739 110.272 65.8002 110.413L65.4376 110.76C65.3654 110.673 65.2697 110.599 65.1506 110.538C65.0352 110.473 64.9016 110.44 64.7501 110.44C64.5877 110.44 64.4668 110.473 64.3874 110.538C64.3116 110.603 64.2737 110.687 64.2737 110.792C64.2737 110.9 64.308 110.982 64.3765 111.036C64.4451 111.09 64.5552 111.13 64.7068 111.155L64.9666 111.187C65.277 111.234 65.5025 111.326 65.6433 111.463C65.7876 111.597 65.8598 111.777 65.8598 112.005C65.8598 112.142 65.8327 112.266 65.7786 112.378C65.7281 112.486 65.6541 112.58 65.5566 112.66C65.4592 112.739 65.3419 112.8 65.2048 112.844C65.0676 112.887 64.9143 112.909 64.7446 112.909Z" fill="#00212E"/>
</g>
<path d="M7.7334 100.657H224.267H7.7334ZM224.267 121.224H7.7334V120.837H224.267V121.224ZM7.7334 121.031V100.657V121.031ZM224.267 100.657V121.031V100.657Z" fill="#E8E8E8" mask="url(#path-33-inside-8_3650_27764)"/>
</g>
<rect x="7.63673" y="100.561" width="216.727" height="20.5667" rx="1.64333" stroke="#E8E8E8" stroke-width="0.193333"/>
<g clip-path="url(#clip8_3650_27764)">
<g clip-path="url(#clip9_3650_27764)">
<mask id="path-41-inside-10_3650_27764" fill="white">
<path d="M7.7334 128.764C7.7334 127.91 8.42586 127.217 9.28007 127.217H222.72C223.574 127.217 224.267 127.91 224.267 128.764V147.591H7.7334V128.764Z"/>
</mask>
<mask id="path-43-inside-11_3650_27764" fill="white">
<path d="M7.7334 127.217H25.5201V147.591H7.7334V127.217Z"/>
</mask>
<path d="M25.3267 127.217V147.591H25.7134V127.217H25.3267Z" fill="#E8E8E8" mask="url(#path-43-inside-11_3650_27764)"/>
<path d="M15.0623 136.405C15.0976 136.452 15.2031 136.591 15.266 136.672C15.3919 136.833 15.5639 137.047 15.7494 137.261C15.9359 137.476 16.1318 137.685 16.3058 137.839C16.3931 137.916 16.4697 137.975 16.533 138.013C16.5925 138.049 16.6276 138.056 16.6276 138.056C16.6276 138.056 16.6618 138.049 16.7212 138.013C16.7845 137.975 16.8612 137.916 16.9484 137.839C17.1225 137.685 17.3184 137.476 17.5048 137.261C17.6904 137.047 17.8624 136.833 17.9883 136.672C18.0511 136.591 18.1565 136.452 18.1918 136.405C18.2631 136.308 18.3994 136.287 18.4961 136.359C18.5928 136.43 18.6135 136.566 18.5423 136.663L18.5417 136.663C18.5046 136.712 18.3953 136.857 18.3312 136.939C18.2025 137.104 18.0254 137.325 17.8333 137.546C17.6421 137.767 17.4317 137.992 17.2365 138.165C17.1391 138.251 17.0404 138.328 16.9458 138.385C16.8572 138.439 16.745 138.491 16.6271 138.491C16.5092 138.491 16.397 138.439 16.3084 138.385C16.2138 138.328 16.1152 138.251 16.0178 138.165C15.8226 137.992 15.6121 137.767 15.4209 137.546C15.2288 137.325 15.0518 137.104 14.9231 136.939C14.8589 136.857 14.7496 136.712 14.7126 136.663L14.7121 136.663C14.6409 136.566 14.6614 136.43 14.7581 136.359C14.8549 136.287 14.991 136.308 15.0623 136.405Z" fill="#006289"/>
<path d="M31.3989 139.404V135.625H33.0229C33.373 135.625 33.6436 135.728 33.8349 135.934C34.0262 136.14 34.1218 136.416 34.1218 136.762C34.1218 137.109 34.0262 137.385 33.8349 137.59C33.6436 137.796 33.373 137.899 33.0229 137.899H32.0106V139.404H31.3989ZM32.0106 137.363H32.985C33.1402 137.363 33.2611 137.323 33.3477 137.244C33.4343 137.161 33.4776 137.044 33.4776 136.892V136.632C33.4776 136.481 33.4343 136.365 33.3477 136.286C33.2611 136.203 33.1402 136.161 32.985 136.161H32.0106V137.363ZM36.7485 139.404C36.5934 139.404 36.4743 139.361 36.3913 139.274C36.3083 139.184 36.2577 139.07 36.2397 138.933H36.2126C36.1585 139.11 36.0592 139.243 35.9149 139.333C35.7705 139.424 35.5955 139.469 35.3898 139.469C35.0975 139.469 34.8719 139.393 34.7131 139.241C34.5579 139.09 34.4804 138.886 34.4804 138.63C34.4804 138.348 34.5814 138.137 34.7835 137.996C34.9892 137.856 35.2887 137.785 35.6821 137.785H36.191V137.547C36.191 137.374 36.144 137.24 36.0502 137.146C35.9564 137.053 35.8102 137.006 35.6117 137.006C35.4457 137.006 35.3104 137.042 35.2057 137.114C35.1011 137.186 35.0127 137.278 34.9405 137.39L34.5886 137.071C34.6824 136.912 34.8142 136.782 34.9838 136.681C35.1534 136.576 35.3754 136.524 35.6496 136.524C36.0141 136.524 36.2938 136.609 36.4887 136.778C36.6836 136.948 36.781 137.192 36.781 137.509V138.922H37.0788V139.404H36.7485ZM35.5576 139.019C35.7417 139.019 35.8932 138.98 36.0123 138.9C36.1314 138.817 36.191 138.707 36.191 138.57V138.164H35.6929C35.2851 138.164 35.0812 138.29 35.0812 138.543V138.641C35.0812 138.767 35.1227 138.862 35.2057 138.927C35.2924 138.989 35.4096 139.019 35.5576 139.019ZM38.4207 139.404C38.215 139.404 38.0598 139.351 37.9552 139.247C37.8505 139.139 37.7982 138.987 37.7982 138.792V137.071H37.3597V136.589H37.5979C37.6953 136.589 37.7621 136.567 37.7982 136.524C37.8379 136.481 37.8577 136.41 37.8577 136.313V135.82H38.3882V136.589H38.9783V137.071H38.3882V138.922H38.935V139.404H38.4207ZM39.9161 136.085C39.7934 136.085 39.7031 136.057 39.6454 135.999C39.5913 135.941 39.5642 135.867 39.5642 135.777V135.685C39.5642 135.595 39.5913 135.521 39.6454 135.463C39.7031 135.405 39.7934 135.376 39.9161 135.376C40.0388 135.376 40.1272 135.405 40.1813 135.463C40.2354 135.521 40.2625 135.595 40.2625 135.685V135.777C40.2625 135.867 40.2354 135.941 40.1813 135.999C40.1272 136.057 40.0388 136.085 39.9161 136.085ZM39.6183 136.589H40.2084V139.404H39.6183V136.589ZM42.1553 139.469C41.9532 139.469 41.7727 139.434 41.6139 139.366C41.4551 139.297 41.3198 139.2 41.2079 139.074C41.0961 138.944 41.0095 138.788 40.9481 138.608C40.8904 138.424 40.8615 138.22 40.8615 137.996C40.8615 137.773 40.8904 137.57 40.9481 137.39C41.0095 137.206 41.0961 137.051 41.2079 136.925C41.3198 136.795 41.4551 136.695 41.6139 136.627C41.7727 136.558 41.9532 136.524 42.1553 136.524C42.361 136.524 42.5414 136.56 42.6966 136.632C42.8554 136.704 42.9871 136.805 43.0918 136.935C43.1964 137.062 43.274 137.21 43.3246 137.379C43.3787 137.549 43.4058 137.731 43.4058 137.926V138.148H41.4732V138.24C41.4732 138.456 41.5363 138.635 41.6627 138.776C41.7926 138.913 41.9766 138.982 42.2148 138.982C42.388 138.982 42.5342 138.944 42.6533 138.868C42.7724 138.792 42.8734 138.689 42.9564 138.559L43.3029 138.9C43.1982 139.074 43.0467 139.213 42.8482 139.317C42.6497 139.418 42.4187 139.469 42.1553 139.469ZM42.1553 136.984C42.0542 136.984 41.9604 137.002 41.8738 137.038C41.7908 137.074 41.7186 137.125 41.6572 137.19C41.5995 137.255 41.5544 137.332 41.5219 137.423C41.4894 137.513 41.4732 137.612 41.4732 137.72V137.758H42.7832V137.704C42.7832 137.487 42.7273 137.314 42.6154 137.184C42.5035 137.051 42.3502 136.984 42.1553 136.984ZM44.0589 139.404V136.589H44.649V137.054H44.6761C44.7374 136.903 44.8294 136.777 44.9521 136.675C45.0785 136.574 45.2499 136.524 45.4664 136.524C45.7551 136.524 45.9789 136.62 46.1377 136.811C46.3001 136.998 46.3813 137.267 46.3813 137.617V139.404H45.7912V137.693C45.7912 137.253 45.6144 137.033 45.2607 137.033C45.1849 137.033 45.1091 137.044 45.0333 137.065C44.9612 137.083 44.8962 137.112 44.8385 137.152C44.7807 137.192 44.7338 137.242 44.6977 137.303C44.6652 137.365 44.649 137.437 44.649 137.52V139.404H44.0589ZM47.9786 139.404C47.7729 139.404 47.6177 139.351 47.5131 139.247C47.4084 139.139 47.3561 138.987 47.3561 138.792V137.071H46.9176V136.589H47.1558C47.2532 136.589 47.32 136.567 47.3561 136.524C47.3958 136.481 47.4156 136.41 47.4156 136.313V135.82H47.9461V136.589H48.5362V137.071H47.9461V138.922H48.4929V139.404H47.9786Z" fill="#00212E"/>
</g>
<path d="M7.7334 127.217H224.267H7.7334ZM224.267 147.784H7.7334V147.397H224.267V147.784ZM7.7334 147.591V127.217V147.591ZM224.267 127.217V147.591V127.217Z" fill="#E8E8E8" mask="url(#path-41-inside-10_3650_27764)"/>
</g>
<rect x="7.63673" y="127.121" width="216.727" height="20.5667" rx="1.64333" stroke="#E8E8E8" stroke-width="0.193333"/>
<g clip-path="url(#clip10_3650_27764)">
<g clip-path="url(#clip11_3650_27764)">
<mask id="path-49-inside-12_3650_27764" fill="white">
<path d="M7.7334 155.324C7.7334 154.47 8.42586 153.777 9.28007 153.777H222.72C223.574 153.777 224.267 154.47 224.267 155.324V174.151H7.7334V155.324Z"/>
</mask>
<mask id="path-51-inside-13_3650_27764" fill="white">
<path d="M7.7334 153.777H25.5201V174.151H7.7334V153.777Z"/>
</mask>
<path d="M25.3267 153.777V174.151H25.7134V153.777H25.3267Z" fill="#E8E8E8" mask="url(#path-51-inside-13_3650_27764)"/>
<path d="M15.0623 162.965C15.0976 163.012 15.2031 163.152 15.266 163.232C15.3919 163.394 15.5639 163.608 15.7494 163.822C15.9359 164.036 16.1318 164.246 16.3058 164.399C16.3931 164.476 16.4697 164.535 16.533 164.573C16.5925 164.609 16.6276 164.617 16.6276 164.617C16.6276 164.617 16.6618 164.609 16.7212 164.573C16.7845 164.535 16.8612 164.476 16.9484 164.399C17.1225 164.246 17.3184 164.036 17.5048 163.822C17.6904 163.608 17.8624 163.394 17.9883 163.232C18.0511 163.152 18.1565 163.012 18.1918 162.965C18.2631 162.869 18.3994 162.848 18.4961 162.919C18.5928 162.99 18.6135 163.127 18.5423 163.223L18.5417 163.224C18.5046 163.273 18.3953 163.418 18.3312 163.5C18.2025 163.665 18.0254 163.886 17.8333 164.107C17.6421 164.327 17.4317 164.553 17.2365 164.725C17.1391 164.811 17.0404 164.889 16.9458 164.946C16.8572 164.999 16.745 165.052 16.6271 165.052C16.5092 165.052 16.397 164.999 16.3084 164.946C16.2138 164.889 16.1152 164.811 16.0178 164.725C15.8226 164.553 15.6121 164.327 15.4209 164.107C15.2288 163.886 15.0518 163.665 14.9231 163.5C14.8589 163.418 14.7496 163.273 14.7126 163.224L14.7121 163.223C14.6409 163.127 14.6614 162.99 14.7581 162.919C14.8549 162.848 14.991 162.869 15.0623 162.965Z" fill="#006289"/>
<path d="M34.2896 163.073H34.2625L33.9648 163.685L33.1366 165.195L32.3083 163.685L32.0106 163.073H31.9835V165.964H31.3989V162.185H32.1243L33.1366 164.107H33.1691L34.1813 162.185H34.8743V165.964H34.2896V163.073ZM37.827 165.964C37.6718 165.964 37.5527 165.921 37.4697 165.834C37.3867 165.744 37.3362 165.63 37.3181 165.493H37.2911C37.2369 165.67 37.1377 165.803 36.9933 165.893C36.849 165.984 36.6739 166.029 36.4682 166.029C36.1759 166.029 35.9504 165.953 35.7916 165.801C35.6364 165.65 35.5588 165.446 35.5588 165.19C35.5588 164.908 35.6598 164.697 35.8619 164.556C36.0676 164.416 36.3672 164.345 36.7605 164.345H37.2694V164.107C37.2694 163.934 37.2225 163.8 37.1287 163.707C37.0348 163.613 36.8887 163.566 36.6902 163.566C36.5242 163.566 36.3888 163.602 36.2842 163.674C36.1795 163.746 36.0911 163.838 36.0189 163.95L35.6671 163.631C35.7609 163.472 35.8926 163.342 36.0622 163.241C36.2318 163.136 36.4538 163.084 36.7281 163.084C37.0926 163.084 37.3723 163.169 37.5671 163.338C37.762 163.508 37.8595 163.752 37.8595 164.069V165.482H38.1572V165.964H37.827ZM36.636 165.58C36.8201 165.58 36.9717 165.54 37.0908 165.46C37.2099 165.377 37.2694 165.267 37.2694 165.13V164.724H36.7714C36.3636 164.724 36.1597 164.851 36.1597 165.103V165.201C36.1597 165.327 36.2012 165.423 36.2842 165.487C36.3708 165.549 36.4881 165.58 36.636 165.58ZM39.4991 165.964C39.2934 165.964 39.1383 165.912 39.0336 165.807C38.9289 165.699 38.8766 165.547 38.8766 165.352V163.631H38.4381V163.149H38.6763C38.7738 163.149 38.8405 163.127 38.8766 163.084C38.9163 163.041 38.9362 162.97 38.9362 162.873V162.38H39.4667V163.149H40.0567V163.631H39.4667V165.482H40.0134V165.964H39.4991ZM41.7799 166.029C41.5778 166.029 41.3974 165.995 41.2386 165.926C41.0798 165.857 40.9445 165.76 40.8326 165.634C40.7207 165.504 40.6341 165.349 40.5728 165.168C40.515 164.984 40.4861 164.78 40.4861 164.556C40.4861 164.333 40.515 164.131 40.5728 163.95C40.6341 163.766 40.7207 163.611 40.8326 163.485C40.9445 163.355 41.0798 163.255 41.2386 163.187C41.3974 163.118 41.5778 163.084 41.7799 163.084C41.9856 163.084 42.1661 163.12 42.3213 163.192C42.4801 163.264 42.6118 163.365 42.7164 163.495C42.8211 163.622 42.8987 163.77 42.9492 163.939C43.0033 164.109 43.0304 164.291 43.0304 164.486V164.708H41.0979V164.8C41.0979 165.017 41.161 165.195 41.2873 165.336C41.4172 165.473 41.6013 165.542 41.8395 165.542C42.0127 165.542 42.1589 165.504 42.278 165.428C42.3971 165.352 42.4981 165.249 42.5811 165.119L42.9276 165.46C42.8229 165.634 42.6713 165.773 42.4728 165.877C42.2744 165.978 42.0434 166.029 41.7799 166.029ZM41.7799 163.544C41.6789 163.544 41.5851 163.562 41.4984 163.598C41.4154 163.634 41.3433 163.685 41.2819 163.75C41.2242 163.815 41.1791 163.892 41.1466 163.983C41.1141 164.073 41.0979 164.172 41.0979 164.28V164.318H42.4079V164.264C42.4079 164.048 42.3519 163.874 42.2401 163.744C42.1282 163.611 41.9748 163.544 41.7799 163.544ZM43.6836 165.964V163.149H44.2737V163.69H44.3007C44.3404 163.546 44.4234 163.42 44.5497 163.311C44.6761 163.203 44.8511 163.149 45.0748 163.149H45.2318V163.717H44.999C44.7645 163.717 44.584 163.755 44.4577 163.831C44.335 163.907 44.2737 164.019 44.2737 164.167V165.964H43.6836ZM46.0536 162.645C45.9309 162.645 45.8407 162.617 45.783 162.559C45.7288 162.501 45.7018 162.427 45.7018 162.337V162.245C45.7018 162.155 45.7288 162.081 45.783 162.023C45.8407 161.965 45.9309 161.936 46.0536 161.936C46.1763 161.936 46.2648 161.965 46.3189 162.023C46.373 162.081 46.4001 162.155 46.4001 162.245V162.337C46.4001 162.427 46.373 162.501 46.3189 162.559C46.2648 162.617 46.1763 162.645 46.0536 162.645ZM45.7559 163.149H46.346V165.964H45.7559V163.149ZM49.251 165.964C49.0958 165.964 48.9767 165.921 48.8937 165.834C48.8107 165.744 48.7602 165.63 48.7422 165.493H48.7151C48.661 165.67 48.5617 165.803 48.4174 165.893C48.273 165.984 48.098 166.029 47.8923 166.029C47.5999 166.029 47.3744 165.953 47.2156 165.801C47.0604 165.65 46.9828 165.446 46.9828 165.19C46.9828 164.908 47.0839 164.697 47.286 164.556C47.4917 164.416 47.7912 164.345 48.1846 164.345H48.6934V164.107C48.6934 163.934 48.6465 163.8 48.5527 163.707C48.4589 163.613 48.3127 163.566 48.1142 163.566C47.9482 163.566 47.8129 163.602 47.7082 163.674C47.6036 163.746 47.5151 163.838 47.443 163.95L47.0911 163.631C47.1849 163.472 47.3166 163.342 47.4863 163.241C47.6559 163.136 47.8778 163.084 48.1521 163.084C48.5166 163.084 48.7963 163.169 48.9912 163.338C49.1861 163.508 49.2835 163.752 49.2835 164.069V165.482H49.5812V165.964H49.251ZM48.0601 165.58C48.2441 165.58 48.3957 165.54 48.5148 165.46C48.6339 165.377 48.6934 165.267 48.6934 165.13V164.724H48.1954C47.7876 164.724 47.5837 164.851 47.5837 165.103V165.201C47.5837 165.327 47.6252 165.423 47.7082 165.487C47.7948 165.549 47.9121 165.58 48.0601 165.58ZM50.7604 165.964C50.5583 165.964 50.4067 165.913 50.3057 165.812C50.2082 165.708 50.1595 165.563 50.1595 165.379V161.958H50.7496V165.482H51.1393V165.964H50.7604ZM52.5964 166.029C52.3293 166.029 52.1056 165.982 51.9251 165.888C51.7447 165.794 51.5877 165.664 51.4542 165.498L51.8331 165.152C51.9377 165.278 52.0532 165.377 52.1795 165.45C52.3095 165.518 52.4592 165.552 52.6288 165.552C52.8021 165.552 52.9302 165.52 53.0132 165.455C53.0998 165.386 53.1431 165.293 53.1431 165.174C53.1431 165.083 53.1124 165.008 53.0511 164.946C52.9933 164.881 52.8905 164.84 52.7425 164.822L52.4827 164.789C52.194 164.753 51.9666 164.67 51.8006 164.54C51.6382 164.407 51.557 164.21 51.557 163.95C51.557 163.813 51.5823 163.692 51.6328 163.587C51.6833 163.479 51.7537 163.389 51.8439 163.317C51.9377 163.241 52.0478 163.183 52.1741 163.144C52.304 163.104 52.4466 163.084 52.6018 163.084C52.8544 163.084 53.0601 163.124 53.2189 163.203C53.3813 163.282 53.5257 163.393 53.652 163.533L53.2893 163.88C53.2171 163.793 53.1215 163.719 53.0024 163.658C52.8869 163.593 52.7534 163.56 52.6018 163.56C52.4394 163.56 52.3185 163.593 52.2391 163.658C52.1633 163.723 52.1254 163.808 52.1254 163.912C52.1254 164.02 52.1597 164.102 52.2283 164.156C52.2968 164.21 52.4069 164.25 52.5585 164.275L52.8183 164.307C53.1287 164.354 53.3542 164.446 53.495 164.583C53.6393 164.717 53.7115 164.897 53.7115 165.125C53.7115 165.262 53.6844 165.386 53.6303 165.498C53.5798 165.607 53.5058 165.7 53.4084 165.78C53.3109 165.859 53.1936 165.921 53.0565 165.964C52.9194 166.007 52.766 166.029 52.5964 166.029Z" fill="#00212E"/>
</g>
<path d="M7.7334 153.777H224.267H7.7334ZM224.267 174.344H7.7334V173.957H224.267V174.344ZM7.7334 174.151V153.777V174.151ZM224.267 153.777V174.151V153.777Z" fill="#E8E8E8" mask="url(#path-49-inside-12_3650_27764)"/>
</g>
<rect x="7.63673" y="153.681" width="216.727" height="20.5667" rx="1.64333" stroke="#E8E8E8" stroke-width="0.193333"/>
<g clip-path="url(#clip12_3650_27764)">
<g clip-path="url(#clip13_3650_27764)">
<mask id="path-57-inside-14_3650_27764" fill="white">
<path d="M7.7334 181.884C7.7334 181.03 8.42586 180.337 9.28007 180.337H222.72C223.574 180.337 224.267 181.03 224.267 181.884V200.711H7.7334V181.884Z"/>
</mask>
<mask id="path-59-inside-15_3650_27764" fill="white">
<path d="M7.7334 180.337H25.5201V200.711H7.7334V180.337Z"/>
</mask>
<path d="M25.3267 180.337V200.711H25.7134V180.337H25.3267Z" fill="#E8E8E8" mask="url(#path-59-inside-15_3650_27764)"/>
<path d="M15.0623 189.525C15.0976 189.572 15.2031 189.711 15.266 189.792C15.3919 189.953 15.5639 190.168 15.7494 190.381C15.9359 190.596 16.1318 190.805 16.3058 190.959C16.3931 191.036 16.4697 191.095 16.533 191.133C16.5925 191.169 16.6276 191.176 16.6276 191.176C16.6276 191.176 16.6618 191.169 16.7212 191.133C16.7845 191.095 16.8612 191.036 16.9484 190.959C17.1225 190.805 17.3184 190.596 17.5048 190.381C17.6904 190.168 17.8624 189.953 17.9883 189.792C18.0511 189.711 18.1565 189.572 18.1918 189.525C18.2631 189.428 18.3994 189.407 18.4961 189.479C18.5928 189.55 18.6135 189.686 18.5423 189.783L18.5417 189.784C18.5046 189.833 18.3953 189.977 18.3312 190.06C18.2025 190.224 18.0254 190.445 17.8333 190.666C17.6421 190.887 17.4317 191.112 17.2365 191.285C17.1391 191.371 17.0404 191.448 16.9458 191.505C16.8572 191.559 16.745 191.611 16.6271 191.611C16.5092 191.611 16.397 191.559 16.3084 191.505C16.2138 191.448 16.1152 191.371 16.0178 191.285C15.8226 191.112 15.6121 190.887 15.4209 190.666C15.2288 190.445 15.0518 190.224 14.9231 190.06C14.8589 189.977 14.7496 189.833 14.7126 189.784L14.7121 189.783C14.6409 189.686 14.6614 189.55 14.7581 189.479C14.8549 189.407 14.991 189.428 15.0623 189.525Z" fill="#006289"/>
<path d="M31.3989 192.524V188.745H33.7591V189.287H32.0106V190.337H33.5642V190.878H32.0106V192.524H31.3989ZM34.7406 189.206C34.6179 189.206 34.5277 189.177 34.4699 189.119C34.4158 189.061 34.3887 188.987 34.3887 188.897V188.805C34.3887 188.715 34.4158 188.641 34.4699 188.583C34.5277 188.525 34.6179 188.496 34.7406 188.496C34.8633 188.496 34.9517 188.525 35.0059 188.583C35.06 188.641 35.0871 188.715 35.0871 188.805V188.897C35.0871 188.987 35.06 189.061 35.0059 189.119C34.9517 189.177 34.8633 189.206 34.7406 189.206ZM34.4429 189.709H35.0329V192.524H34.4429V189.709ZM35.8755 192.524V189.709H36.4656V190.175H36.4926C36.554 190.023 36.646 189.897 36.7687 189.796C36.895 189.695 37.0664 189.644 37.283 189.644C37.5717 189.644 37.7954 189.74 37.9542 189.931C38.1166 190.119 38.1978 190.387 38.1978 190.738V192.524H37.6078V190.813C37.6078 190.373 37.4309 190.153 37.0773 190.153C37.0015 190.153 36.9257 190.164 36.8499 190.185C36.7777 190.203 36.7128 190.232 36.655 190.272C36.5973 190.312 36.5504 190.362 36.5143 190.424C36.4818 190.485 36.4656 190.557 36.4656 190.64V192.524H35.8755ZM41.0781 192.524C40.923 192.524 40.8039 192.481 40.7209 192.394C40.6379 192.304 40.5873 192.19 40.5693 192.053H40.5422C40.4881 192.23 40.3888 192.363 40.2445 192.454C40.1001 192.544 39.9251 192.589 39.7194 192.589C39.4271 192.589 39.2015 192.513 39.0427 192.362C38.8876 192.21 38.81 192.006 38.81 191.75C38.81 191.468 38.911 191.257 39.1131 191.116C39.3188 190.976 39.6184 190.905 40.0117 190.905H40.5206V190.667C40.5206 190.494 40.4737 190.36 40.3798 190.267C40.286 190.173 40.1398 190.126 39.9413 190.126C39.7753 190.126 39.64 190.162 39.5353 190.234C39.4307 190.306 39.3423 190.398 39.2701 190.51L38.9182 190.191C39.0121 190.032 39.1438 189.902 39.3134 189.801C39.483 189.696 39.705 189.644 39.9792 189.644C40.3437 189.644 40.6234 189.729 40.8183 189.898C41.0132 190.068 41.1106 190.312 41.1106 190.629V192.042H41.4084V192.524H41.0781ZM39.8872 192.14C40.0713 192.14 40.2228 192.1 40.3419 192.02C40.461 191.937 40.5206 191.827 40.5206 191.69V191.284H40.0225C39.6147 191.284 39.4108 191.411 39.4108 191.663V191.761C39.4108 191.887 39.4523 191.983 39.5353 192.048C39.622 192.109 39.7392 192.14 39.8872 192.14ZM41.9867 192.524V189.709H42.5767V190.175H42.6038C42.6651 190.023 42.7572 189.897 42.8799 189.796C43.0062 189.695 43.1776 189.644 43.3941 189.644C43.6828 189.644 43.9066 189.74 44.0654 189.931C44.2278 190.119 44.309 190.387 44.309 190.738V192.524H43.7189V190.813C43.7189 190.373 43.5421 190.153 43.1884 190.153C43.1126 190.153 43.0368 190.164 42.9611 190.185C42.8889 190.203 42.8239 190.232 42.7662 190.272C42.7084 190.312 42.6615 190.362 42.6254 190.424C42.593 190.485 42.5767 190.557 42.5767 190.64V192.524H41.9867ZM46.2149 192.589C46.0128 192.589 45.8324 192.555 45.6736 192.486C45.5148 192.417 45.3812 192.32 45.273 192.194C45.1647 192.064 45.0817 191.909 45.024 191.728C44.9662 191.544 44.9373 191.34 44.9373 191.116C44.9373 190.893 44.9662 190.691 45.024 190.51C45.0817 190.326 45.1647 190.171 45.273 190.045C45.3812 189.915 45.5148 189.815 45.6736 189.747C45.8324 189.678 46.0128 189.644 46.2149 189.644C46.4964 189.644 46.7274 189.707 46.9078 189.833C47.0882 189.96 47.22 190.128 47.303 190.337L46.8158 190.564C46.7761 190.434 46.7057 190.332 46.6047 190.256C46.5072 190.176 46.3773 190.137 46.2149 190.137C45.9984 190.137 45.8342 190.205 45.7223 190.342C45.614 190.476 45.5599 190.651 45.5599 190.867V191.371C45.5599 191.587 45.614 191.764 45.7223 191.901C45.8342 192.035 45.9984 192.102 46.2149 192.102C46.3881 192.102 46.5253 192.06 46.6263 191.977C46.731 191.891 46.814 191.777 46.8753 191.636L47.3246 191.874C47.2308 192.105 47.09 192.282 46.9024 192.405C46.7147 192.528 46.4856 192.589 46.2149 192.589ZM48.9589 192.589C48.7568 192.589 48.5764 192.555 48.4176 192.486C48.2588 192.417 48.1235 192.32 48.0116 192.194C47.8997 192.064 47.8131 191.909 47.7518 191.728C47.694 191.544 47.6652 191.34 47.6652 191.116C47.6652 190.893 47.694 190.691 47.7518 190.51C47.8131 190.326 47.8997 190.171 48.0116 190.045C48.1235 189.915 48.2588 189.815 48.4176 189.747C48.5764 189.678 48.7568 189.644 48.9589 189.644C49.1647 189.644 49.3451 189.68 49.5003 189.752C49.6591 189.824 49.7908 189.926 49.8955 190.055C50.0001 190.182 50.0777 190.33 50.1282 190.499C50.1824 190.669 50.2094 190.851 50.2094 191.046V191.268H48.2769V191.36C48.2769 191.577 48.34 191.755 48.4663 191.896C48.5963 192.033 48.7803 192.102 49.0185 192.102C49.1917 192.102 49.3379 192.064 49.457 191.988C49.5761 191.912 49.6771 191.809 49.7601 191.679L50.1066 192.02C50.0019 192.194 49.8503 192.333 49.6519 192.437C49.4534 192.538 49.2224 192.589 48.9589 192.589ZM48.9589 190.104C48.8579 190.104 48.7641 190.122 48.6775 190.158C48.5944 190.194 48.5223 190.245 48.4609 190.31C48.4032 190.375 48.3581 190.452 48.3256 190.543C48.2931 190.633 48.2769 190.732 48.2769 190.84V190.878H49.5869V190.824C49.5869 190.608 49.531 190.434 49.4191 190.304C49.3072 190.171 49.1538 190.104 48.9589 190.104Z" fill="#00212E"/>
</g>
<path d="M7.7334 180.337H224.267H7.7334ZM224.267 200.904H7.7334V200.517H224.267V200.904ZM7.7334 200.711V180.337V200.711ZM224.267 180.337V200.711V180.337Z" fill="#E8E8E8" mask="url(#path-57-inside-14_3650_27764)"/>
</g>
<rect x="7.63673" y="180.241" width="216.727" height="20.5667" rx="1.64333" stroke="#E8E8E8" stroke-width="0.193333"/>
<g clip-path="url(#clip14_3650_27764)">
<g clip-path="url(#clip15_3650_27764)">
<mask id="path-65-inside-16_3650_27764" fill="white">
<path d="M7.7334 208.444C7.7334 207.59 8.42586 206.897 9.28007 206.897H222.72C223.574 206.897 224.267 207.59 224.267 208.444V227.271H7.7334V208.444Z"/>
</mask>
<mask id="path-67-inside-17_3650_27764" fill="white">
<path d="M7.7334 206.897H25.5201V227.271H7.7334V206.897Z"/>
</mask>
<path d="M25.3267 206.897V227.271H25.7134V206.897H25.3267Z" fill="#E8E8E8" mask="url(#path-67-inside-17_3650_27764)"/>
</g>
<path d="M7.7334 206.897H224.267H7.7334ZM224.267 227.464H7.7334V227.077H224.267V227.464ZM7.7334 227.271V206.897V227.271ZM224.267 206.897V227.271V206.897Z" fill="#E8E8E8" mask="url(#path-65-inside-16_3650_27764)"/>
</g>
<rect x="7.63673" y="206.801" width="216.727" height="20.5667" rx="1.64333" stroke="#E8E8E8" stroke-width="0.193333"/>
</g>
</g>
<defs>
<clipPath id="clip0_3650_27764">
<rect y="0.41748" width="232" height="364.24" rx="3.09333" fill="white"/>
</clipPath>
<clipPath id="clip1_3650_27764">
<rect width="232" height="306.027" fill="white" transform="translate(0 27.4307)"/>
</clipPath>
<clipPath id="clip2_3650_27764">
<rect x="7.73328" y="33.6172" width="216.533" height="60.8533" rx="1.54667" fill="white"/>
</clipPath>
<clipPath id="clip3_3650_27764">
<path d="M7.73328 35.1639C7.73328 34.3097 8.42574 33.6172 9.27994 33.6172H222.72C223.574 33.6172 224.267 34.3097 224.267 35.1639V53.9905H7.73328V35.1639Z" fill="white"/>
</clipPath>
<clipPath id="clip4_3650_27764">
<path d="M7.73328 53.9907H224.267V74.3641H7.73328V53.9907Z" fill="white"/>
</clipPath>
<clipPath id="clip5_3650_27764">
<path d="M7.73328 74.3643H224.267V94.4709H7.73328V74.3643Z" fill="white"/>
</clipPath>
<clipPath id="clip6_3650_27764">
<rect x="7.7334" y="100.657" width="216.533" height="20.3733" rx="1.54667" fill="white"/>
</clipPath>
<clipPath id="clip7_3650_27764">
<path d="M7.7334 102.204C7.7334 101.35 8.42586 100.657 9.28007 100.657H222.72C223.574 100.657 224.267 101.35 224.267 102.204V121.031H7.7334V102.204Z" fill="white"/>
</clipPath>
<clipPath id="clip8_3650_27764">
<rect x="7.7334" y="127.217" width="216.533" height="20.3733" rx="1.54667" fill="white"/>
</clipPath>
<clipPath id="clip9_3650_27764">
<path d="M7.7334 128.764C7.7334 127.91 8.42586 127.217 9.28007 127.217H222.72C223.574 127.217 224.267 127.91 224.267 128.764V147.591H7.7334V128.764Z" fill="white"/>
</clipPath>
<clipPath id="clip10_3650_27764">
<rect x="7.7334" y="153.777" width="216.533" height="20.3733" rx="1.54667" fill="white"/>
</clipPath>
<clipPath id="clip11_3650_27764">
<path d="M7.7334 155.324C7.7334 154.47 8.42586 153.777 9.28007 153.777H222.72C223.574 153.777 224.267 154.47 224.267 155.324V174.151H7.7334V155.324Z" fill="white"/>
</clipPath>
<clipPath id="clip12_3650_27764">
<rect x="7.7334" y="180.337" width="216.533" height="20.3733" rx="1.54667" fill="white"/>
</clipPath>
<clipPath id="clip13_3650_27764">
<path d="M7.7334 181.884C7.7334 181.03 8.42586 180.337 9.28007 180.337H222.72C223.574 180.337 224.267 181.03 224.267 181.884V200.711H7.7334V181.884Z" fill="white"/>
</clipPath>
<clipPath id="clip14_3650_27764">
<rect x="7.7334" y="206.897" width="216.533" height="20.3733" rx="1.54667" fill="white"/>
</clipPath>
<clipPath id="clip15_3650_27764">
<path d="M7.7334 208.444C7.7334 207.59 8.42586 206.897 9.28007 206.897H222.72C223.574 206.897 224.267 207.59 224.267 208.444V227.271H7.7334V208.444Z" fill="white"/>
</clipPath>
</defs>
</svg>
