<svg width="189" height="199" viewBox="0 0 189 199" fill="none" xmlns="http://www.w3.org/2000/svg">
<rect x="0.5" y="0.405273" width="189" height="201" rx="5.02857" fill="white"/>
<mask id="path-2-inside-1_3634_7895" fill="white">
<path d="M0.5 0.405273H189.5V44.0624H0.5V0.405273Z"/>
</mask>
<path d="M189.5 43.4338H0.5V44.691H189.5V43.4338Z" fill="#E8E8E8" mask="url(#path-2-inside-1_3634_7895)"/>
<path d="M16.2145 18.6974C15.9976 18.6974 15.8217 18.8733 15.8217 19.0903C15.8217 19.3072 15.9976 19.4831 16.2145 19.4831L20.405 19.4831C20.622 19.4831 20.7979 19.3072 20.7979 19.0903C20.7979 18.8733 20.622 18.6974 20.405 18.6974L16.2145 18.6974Z" fill="#00212E"/>
<path d="M20.0121 21.1855C20.0121 20.9685 19.8363 20.7926 19.6193 20.7926C19.4023 20.7926 19.2264 20.9685 19.2264 21.1855L19.2264 21.3138C18.7896 21.4563 18.4407 21.831 18.4407 22.3313C18.4407 22.9756 19.0193 23.4117 19.6193 23.4117C19.8872 23.4117 20.0121 23.5912 20.0121 23.7063C20.0121 23.8214 19.8872 24.001 19.6193 24.001C19.4169 24.001 19.2831 23.8888 19.2425 23.7884C19.1613 23.5872 18.9323 23.49 18.7311 23.5712C18.53 23.6525 18.4328 23.8815 18.514 24.0826C18.64 24.3944 18.9071 24.6218 19.2264 24.725L19.2264 24.8522C19.2264 25.0691 19.4023 25.245 19.6193 25.245C19.8363 25.245 20.0121 25.0691 20.0121 24.8522L20.0121 24.7239C20.449 24.5814 20.7979 24.2066 20.7979 23.7063C20.7979 23.062 20.2193 22.626 19.6193 22.626C19.3514 22.626 19.2264 22.4464 19.2264 22.3313C19.2264 22.2162 19.3514 22.0367 19.6193 22.0367C19.8217 22.0367 19.9555 22.1489 19.996 22.2493C20.0773 22.4505 20.3063 22.5477 20.5074 22.4664C20.7086 22.3852 20.8058 22.1562 20.7245 21.955C20.5986 21.6432 20.3314 21.4158 20.0121 21.3126L20.0121 21.1855Z" fill="#00212E"/>
<path fill-rule="evenodd" clip-rule="evenodd" d="M18.3098 27.8641C18.0458 27.8641 17.8468 27.7384 17.5458 27.5484L16.544 26.9165C16.4104 26.8322 16.259 26.7368 16.2187 26.7321L16.2182 26.7321C16.1778 26.7321 15.9945 26.8474 15.885 26.9165C15.8465 26.9407 15.7972 26.9751 15.7441 27.0122L15.7237 27.0265C15.3408 27.2947 14.7002 27.7431 14.1486 27.3879C13.7264 27.1156 13.7264 26.6179 13.7264 25.7138L13.7264 20.1656C13.7264 18.6152 13.7264 17.7614 14.3011 17.1826C14.8762 16.6017 15.7237 16.6017 17.2621 16.6017L23.5479 16.6017C23.5555 16.6017 23.563 16.6019 23.5705 16.6023C24.2496 16.6149 24.7623 17.5263 24.9428 19.0463C25.003 19.5512 25.046 19.9163 24.7699 20.2248C24.4949 20.5312 24.1215 20.5312 23.5564 20.5312L23.5562 20.5307L22.8931 20.5307L22.8931 25.7138C22.8931 26.6174 22.8931 27.1155 22.4709 27.3874C21.9193 27.7425 21.2787 27.2942 20.8958 27.026L20.8748 27.0113C20.8219 26.9743 20.7729 26.94 20.7345 26.916C20.6009 26.8316 20.4495 26.7363 20.4092 26.7316L20.4087 26.7316C20.3683 26.7316 20.185 26.8468 20.0755 26.916L19.0745 27.5472C18.7728 27.7378 18.5738 27.8641 18.3098 27.8641ZM17.2621 17.3874L22.601 17.3874C22.2659 18.0794 22.1074 19.1313 22.1074 20.1379L22.1074 25.7138C22.1074 26.1633 22.1074 26.6279 22.0409 26.7295C21.9864 26.7562 21.8209 26.7143 21.3463 26.3822C21.2777 26.334 21.2127 26.2884 21.1535 26.2513C20.8707 26.0726 20.6837 25.9548 20.4359 25.9464C20.1577 25.9355 19.9497 26.0665 19.6628 26.2473L18.6479 26.8871C18.5081 26.9751 18.3515 27.0737 18.3098 27.0773C18.2673 27.0736 18.1065 26.9725 17.964 26.8824L16.963 26.2513C16.6802 26.0726 16.4932 25.9548 16.2454 25.9464C15.9663 25.9355 15.7582 26.0669 15.4712 26.248L15.466 26.2513C15.4068 26.289 15.3418 26.334 15.2732 26.3822C14.7981 26.7143 14.6326 26.7562 14.5787 26.7295C14.5121 26.6284 14.5121 26.1638 14.5121 25.7138L14.5121 20.1656C14.5121 18.7807 14.5121 18.0851 14.8589 17.7357C15.2036 17.3874 15.8914 17.3874 17.2621 17.3874ZM23.5562 19.745L22.9015 19.745C22.965 18.2425 23.3824 17.4528 23.5562 17.3894C23.6694 17.434 24.0182 17.9264 24.1623 19.139L24.1624 19.1399C24.1927 19.3942 24.2241 19.6566 24.1848 19.7C24.1445 19.745 23.8181 19.745 23.5562 19.745Z" fill="#00212E"/>
<path d="M16.2142 21.4482C16.2142 21.3035 16.3314 21.1863 16.4761 21.1863C16.6207 21.1863 16.738 21.3035 16.738 21.4482V22.2339H17.5237C17.6684 22.2339 17.7856 22.3512 17.7856 22.4958C17.7856 22.6404 17.6684 22.7577 17.5237 22.7577H16.738V23.5434C16.738 23.6881 16.6207 23.8053 16.4761 23.8053C16.3314 23.8053 16.2142 23.6881 16.2142 23.5434V22.7577H15.4285C15.2838 22.7577 15.1666 22.6404 15.1666 22.4958C15.1666 22.3512 15.2838 22.2339 15.4285 22.2339H16.2142V21.4482Z" fill="#00212E"/>
<path d="M31.2348 25.2339V24.3086H32.1902V19.1393H31.2348V18.214H34.2921V19.1393H33.3267V24.3086H34.2921V25.2339H31.2348ZM35.64 25.2339V20.0042H36.7362V20.8691H36.7865C36.9005 20.5875 37.0714 20.3528 37.2994 20.1651C37.5341 19.9774 37.8525 19.8835 38.2548 19.8835C38.7912 19.8835 39.2069 20.0612 39.5019 20.4165C39.8036 20.7652 39.9545 21.2647 39.9545 21.915V25.2339H38.8582V22.0558C38.8582 21.2378 38.5297 20.8289 37.8726 20.8289C37.7318 20.8289 37.591 20.849 37.4502 20.8892C37.3161 20.9227 37.1955 20.9764 37.0882 21.0501C36.9809 21.1239 36.8937 21.2177 36.8267 21.3317C36.7664 21.4457 36.7362 21.5798 36.7362 21.734V25.2339H35.64ZM42.5318 25.2339L40.7517 20.0042H41.8378L42.6323 22.3877L43.1654 24.2181H43.2257L43.7587 22.3877L44.5734 20.0042H45.6193L43.8191 25.2339H42.5318ZM48.5148 25.3546C48.1528 25.3546 47.8209 25.2909 47.5192 25.1635C47.2242 25.0361 46.9727 24.8551 46.7649 24.6204C46.557 24.379 46.3961 24.0907 46.2821 23.7555C46.1682 23.4135 46.1112 23.0347 46.1112 22.619C46.1112 22.2033 46.1682 21.8279 46.2821 21.4926C46.3961 21.1507 46.557 20.8624 46.7649 20.6277C46.9727 20.3863 47.2242 20.202 47.5192 20.0746C47.8209 19.9472 48.1528 19.8835 48.5148 19.8835C48.8769 19.8835 49.2054 19.9472 49.5004 20.0746C49.8021 20.202 50.0569 20.3863 50.2648 20.6277C50.4726 20.8624 50.6335 21.1507 50.7475 21.4926C50.8615 21.8279 50.9185 22.2033 50.9185 22.619C50.9185 23.0347 50.8615 23.4135 50.7475 23.7555C50.6335 24.0907 50.4726 24.379 50.2648 24.6204C50.0569 24.8551 49.8021 25.0361 49.5004 25.1635C49.2054 25.2909 48.8769 25.3546 48.5148 25.3546ZM48.5148 24.4494C48.8903 24.4494 49.192 24.3354 49.42 24.1075C49.6479 23.8728 49.7619 23.5242 49.7619 23.0615V22.1765C49.7619 21.7139 49.6479 21.3686 49.42 21.1406C49.192 20.906 48.8903 20.7886 48.5148 20.7886C48.1394 20.7886 47.8376 20.906 47.6097 21.1406C47.3817 21.3686 47.2677 21.7139 47.2677 22.1765V23.0615C47.2677 23.5242 47.3817 23.8728 47.6097 24.1075C47.8376 24.3354 48.1394 24.4494 48.5148 24.4494ZM52.6931 19.0689C52.4651 19.0689 52.2975 19.0152 52.1902 18.9079C52.0897 18.8007 52.0394 18.6632 52.0394 18.4956V18.3246C52.0394 18.157 52.0897 18.0196 52.1902 17.9123C52.2975 17.805 52.4651 17.7514 52.6931 17.7514C52.9211 17.7514 53.0853 17.805 53.1859 17.9123C53.2865 18.0196 53.3368 18.157 53.3368 18.3246V18.4956C53.3368 18.6632 53.2865 18.8007 53.1859 18.9079C53.0853 19.0152 52.9211 19.0689 52.6931 19.0689ZM52.14 20.0042H53.2362V25.2339H52.14V20.0042ZM56.823 25.3546C56.4476 25.3546 56.1123 25.2909 55.8173 25.1635C55.5223 25.0361 55.2742 24.8551 55.0731 24.6204C54.872 24.379 54.7178 24.0907 54.6105 23.7555C54.5032 23.4135 54.4496 23.0347 54.4496 22.619C54.4496 22.2033 54.5032 21.8279 54.6105 21.4926C54.7178 21.1507 54.872 20.8624 55.0731 20.6277C55.2742 20.3863 55.5223 20.202 55.8173 20.0746C56.1123 19.9472 56.4476 19.8835 56.823 19.8835C57.346 19.8835 57.7751 20.0008 58.1104 20.2355C58.4456 20.4702 58.6903 20.7819 58.8445 21.1708L57.9394 21.5932C57.8656 21.3518 57.7349 21.1607 57.5472 21.0199C57.3661 20.8724 57.1248 20.7987 56.823 20.7987C56.4208 20.7987 56.1157 20.9261 55.9078 21.1809C55.7067 21.4289 55.6061 21.7541 55.6061 22.1564V23.0917C55.6061 23.494 55.7067 23.8225 55.9078 24.0773C56.1157 24.3254 56.4208 24.4494 56.823 24.4494C57.1449 24.4494 57.3997 24.3723 57.5874 24.2181C57.7818 24.0572 57.936 23.846 58.05 23.5845L58.8848 24.027C58.7104 24.4561 58.449 24.7847 58.1003 25.0126C57.7517 25.2406 57.3259 25.3546 56.823 25.3546ZM61.9211 25.3546C61.5456 25.3546 61.2104 25.2909 60.9154 25.1635C60.6204 25.0361 60.3689 24.8551 60.1611 24.6204C59.9532 24.379 59.7923 24.0907 59.6783 23.7555C59.5711 23.4135 59.5174 23.0347 59.5174 22.619C59.5174 22.2033 59.5711 21.8279 59.6783 21.4926C59.7923 21.1507 59.9532 20.8624 60.1611 20.6277C60.3689 20.3863 60.6204 20.202 60.9154 20.0746C61.2104 19.9472 61.5456 19.8835 61.9211 19.8835C62.3032 19.8835 62.6385 19.9505 62.9268 20.0846C63.2218 20.2187 63.4665 20.4065 63.661 20.6478C63.8554 20.8825 63.9996 21.1574 64.0934 21.4725C64.194 21.7876 64.2443 22.1262 64.2443 22.4883V22.9006H60.6539V23.0716C60.6539 23.4739 60.7712 23.8058 61.0059 24.0673C61.2472 24.322 61.5892 24.4494 62.0317 24.4494C62.3535 24.4494 62.6251 24.379 62.8463 24.2382C63.0676 24.0974 63.2553 23.9063 63.4095 23.665L64.0532 24.2986C63.8588 24.6204 63.5772 24.8785 63.2084 25.073C62.8396 25.2607 62.4105 25.3546 61.9211 25.3546ZM61.9211 20.7383C61.7333 20.7383 61.559 20.7719 61.3981 20.8389C61.2439 20.906 61.1098 20.9998 60.9958 21.1205C60.8885 21.2412 60.8047 21.3854 60.7444 21.553C60.684 21.7206 60.6539 21.905 60.6539 22.1061V22.1765H63.0877V22.0759C63.0877 21.6737 62.9838 21.3518 62.7759 21.1105C62.5681 20.8624 62.2831 20.7383 61.9211 20.7383ZM67.9151 18.214H70.3992C70.8484 18.214 71.254 18.2878 71.6161 18.4353C71.9848 18.5828 72.2966 18.804 72.5514 19.099C72.8129 19.3873 73.014 19.7527 73.1548 20.1953C73.2956 20.6311 73.366 21.1406 73.366 21.7239C73.366 22.3073 73.2956 22.8202 73.1548 23.2627C73.014 23.6985 72.8129 24.0639 72.5514 24.3589C72.2966 24.6472 71.9848 24.8651 71.6161 25.0126C71.254 25.1601 70.8484 25.2339 70.3992 25.2339H67.9151V18.214ZM70.3992 24.2282C70.9221 24.2282 71.3445 24.0639 71.6664 23.7354C71.9882 23.4068 72.1491 22.9241 72.1491 22.2871V21.1607C72.1491 20.5238 71.9882 20.041 71.6664 19.7125C71.3445 19.384 70.9221 19.2197 70.3992 19.2197H69.0515V24.2282H70.3992ZM76.7514 25.3546C76.376 25.3546 76.0407 25.2909 75.7457 25.1635C75.4507 25.0361 75.1993 24.8551 74.9914 24.6204C74.7836 24.379 74.6227 24.0907 74.5087 23.7555C74.4014 23.4135 74.3478 23.0347 74.3478 22.619C74.3478 22.2033 74.4014 21.8279 74.5087 21.4926C74.6227 21.1507 74.7836 20.8624 74.9914 20.6277C75.1993 20.3863 75.4507 20.202 75.7457 20.0746C76.0407 19.9472 76.376 19.8835 76.7514 19.8835C77.1336 19.8835 77.4688 19.9505 77.7572 20.0846C78.0522 20.2187 78.2969 20.4065 78.4913 20.6478C78.6858 20.8825 78.8299 21.1574 78.9238 21.4725C79.0244 21.7876 79.0746 22.1262 79.0746 22.4883V22.9006H75.4842V23.0716C75.4842 23.4739 75.6016 23.8058 75.8362 24.0673C76.0776 24.322 76.4196 24.4494 76.8621 24.4494C77.1839 24.4494 77.4554 24.379 77.6767 24.2382C77.898 24.0974 78.0857 23.9063 78.2399 23.665L78.8836 24.2986C78.6891 24.6204 78.4075 24.8785 78.0388 25.073C77.67 25.2607 77.2409 25.3546 76.7514 25.3546ZM76.7514 20.7383C76.5637 20.7383 76.3894 20.7719 76.2285 20.8389C76.0743 20.906 75.9402 20.9998 75.8262 21.1205C75.7189 21.2412 75.6351 21.3854 75.5748 21.553C75.5144 21.7206 75.4842 21.905 75.4842 22.1061V22.1765H77.9181V22.0759C77.9181 21.6737 77.8141 21.3518 77.6063 21.1105C77.3984 20.8624 77.1135 20.7383 76.7514 20.7383ZM81.7364 25.2339C81.3542 25.2339 81.0659 25.1367 80.8715 24.9422C80.677 24.7411 80.5798 24.4595 80.5798 24.0974V20.8993H79.7652V20.0042H80.2077C80.3887 20.0042 80.5128 19.9639 80.5798 19.8835C80.6536 19.803 80.6905 19.6723 80.6905 19.4913V18.5761H81.6761V20.0042H82.7723V20.8993H81.6761V24.3388H82.6918V25.2339H81.7364ZM87.7932 25.2339C87.5049 25.2339 87.2836 25.1534 87.1294 24.9925C86.9752 24.8249 86.8813 24.6137 86.8478 24.3589H86.7975C86.6969 24.6874 86.5125 24.9355 86.2444 25.1031C85.9762 25.2708 85.651 25.3546 85.2688 25.3546C84.7257 25.3546 84.3067 25.2138 84.0117 24.9322C83.7234 24.6506 83.5792 24.2718 83.5792 23.7957C83.5792 23.2727 83.7669 22.8805 84.1424 22.619C84.5246 22.3575 85.0811 22.2268 85.8119 22.2268H86.7573V21.7843C86.7573 21.4625 86.6701 21.2144 86.4958 21.0401C86.3215 20.8657 86.0499 20.7786 85.6812 20.7786C85.3727 20.7786 85.1213 20.8456 84.9269 20.9797C84.7324 21.1138 84.5682 21.2848 84.4341 21.4926L83.7804 20.8993C83.9547 20.6042 84.1994 20.3629 84.5145 20.1751C84.8297 19.9807 85.242 19.8835 85.7516 19.8835C86.4287 19.8835 86.9484 20.041 87.3104 20.3562C87.6725 20.6713 87.8535 21.1239 87.8535 21.7139V24.3388H88.4066V25.2339H87.7932ZM85.5806 24.5198C85.9225 24.5198 86.2041 24.4461 86.4254 24.2986C86.6466 24.1444 86.7573 23.9399 86.7573 23.6851V22.9308H85.832C85.0744 22.9308 84.6956 23.1655 84.6956 23.6348V23.8158C84.6956 24.0505 84.7727 24.2282 84.9269 24.3489C85.0878 24.4628 85.3057 24.5198 85.5806 24.5198ZM90.0342 19.0689C89.8062 19.0689 89.6386 19.0152 89.5313 18.9079C89.4307 18.8007 89.3805 18.6632 89.3805 18.4956V18.3246C89.3805 18.157 89.4307 18.0196 89.5313 17.9123C89.6386 17.805 89.8062 17.7514 90.0342 17.7514C90.2621 17.7514 90.4264 17.805 90.527 17.9123C90.6275 18.0196 90.6778 18.157 90.6778 18.3246V18.4956C90.6778 18.6632 90.6275 18.8007 90.527 18.9079C90.4264 19.0152 90.2621 19.0689 90.0342 19.0689ZM89.481 20.0042H90.5773V25.2339H89.481V20.0042ZM93.259 25.2339C92.8835 25.2339 92.6019 25.14 92.4142 24.9523C92.2331 24.7578 92.1426 24.4897 92.1426 24.1477V17.7916H93.2389V24.3388H93.963V25.2339H93.259Z" fill="#00212E"/>
<path fill-rule="evenodd" clip-rule="evenodd" d="M164.652 17.5004C164.836 17.3163 165.135 17.3163 165.319 17.5004L169.386 21.567L173.452 17.5004C173.636 17.3163 173.935 17.3163 174.119 17.5004C174.303 17.6845 174.303 17.983 174.119 18.1671L170.052 22.2337L174.119 26.3004C174.303 26.4845 174.303 26.783 174.119 26.9671C173.935 27.1512 173.636 27.1512 173.452 26.9671L169.386 22.9004L165.319 26.9671C165.135 27.1512 164.836 27.1512 164.652 26.9671C164.468 26.783 164.468 26.4845 164.652 26.3004L168.719 22.2337L164.652 18.1671C164.468 17.983 164.468 17.6845 164.652 17.5004Z" fill="#00212E"/>
<rect width="528" height="370.514" transform="translate(0.5 44.0625)" fill="white"/>
<rect x="13.0714" y="54.1199" width="502.857" height="45.3714" rx="7.54286" fill="#ECF9FF"/>
<path d="M23.6215 73.1772V72.3676H24.4575V67.8444H23.6215V67.0348H26.2967V67.8444H25.4519V72.3676H26.2967V73.1772H23.6215ZM27.4761 73.1772V68.6012H28.4353V69.358H28.4793C28.579 69.1116 28.7286 68.9063 28.9281 68.742C29.1334 68.5778 29.4121 68.4956 29.7641 68.4956C30.2334 68.4956 30.5971 68.6511 30.8553 68.962C31.1193 69.2671 31.2513 69.7042 31.2513 70.2732V73.1772H30.2921V70.3964C30.2921 69.6807 30.0046 69.3228 29.4297 69.3228C29.3065 69.3228 29.1833 69.3404 29.0601 69.3756C28.9427 69.405 28.8371 69.4519 28.7433 69.5164C28.6494 69.581 28.5731 69.6631 28.5145 69.7628C28.4617 69.8626 28.4353 69.9799 28.4353 70.1148V73.1772H27.4761ZM33.5064 73.1772L31.9488 68.6012H32.8992L33.5944 70.6868L34.0608 72.2884H34.1136L34.58 70.6868L35.2928 68.6012H36.208L34.6328 73.1772H33.5064ZM38.7416 73.2828C38.4248 73.2828 38.1344 73.2271 37.8704 73.1156C37.6122 73.0042 37.3922 72.8458 37.2104 72.6404C37.0285 72.4292 36.8877 72.177 36.788 71.8836C36.6882 71.5844 36.6384 71.253 36.6384 70.8892C36.6384 70.5255 36.6882 70.197 36.788 69.9036C36.8877 69.6044 37.0285 69.3522 37.2104 69.1468C37.3922 68.9356 37.6122 68.7743 37.8704 68.6628C38.1344 68.5514 38.4248 68.4956 38.7416 68.4956C39.0584 68.4956 39.3458 68.5514 39.604 68.6628C39.868 68.7743 40.0909 68.9356 40.2728 69.1468C40.4546 69.3522 40.5954 69.6044 40.6952 69.9036C40.7949 70.197 40.8448 70.5255 40.8448 70.8892C40.8448 71.253 40.7949 71.5844 40.6952 71.8836C40.5954 72.177 40.4546 72.4292 40.2728 72.6404C40.0909 72.8458 39.868 73.0042 39.604 73.1156C39.3458 73.2271 39.0584 73.2828 38.7416 73.2828ZM38.7416 72.4908C39.0701 72.4908 39.3341 72.3911 39.5336 72.1916C39.733 71.9863 39.8328 71.6812 39.8328 71.2764V70.502C39.8328 70.0972 39.733 69.7951 39.5336 69.5956C39.3341 69.3903 39.0701 69.2876 38.7416 69.2876C38.413 69.2876 38.149 69.3903 37.9496 69.5956C37.7501 69.7951 37.6504 70.0972 37.6504 70.502V71.2764C37.6504 71.6812 37.7501 71.9863 37.9496 72.1916C38.149 72.3911 38.413 72.4908 38.7416 72.4908ZM42.3976 67.7828C42.1981 67.7828 42.0514 67.7359 41.9576 67.642C41.8696 67.5482 41.8256 67.4279 41.8256 67.2812V67.1316C41.8256 66.985 41.8696 66.8647 41.9576 66.7708C42.0514 66.677 42.1981 66.63 42.3976 66.63C42.597 66.63 42.7408 66.677 42.8288 66.7708C42.9168 66.8647 42.9608 66.985 42.9608 67.1316V67.2812C42.9608 67.4279 42.9168 67.5482 42.8288 67.642C42.7408 67.7359 42.597 67.7828 42.3976 67.7828ZM41.9136 68.6012H42.8728V73.1772H41.9136V68.6012ZM46.0113 73.2828C45.6827 73.2828 45.3894 73.2271 45.1313 73.1156C44.8731 73.0042 44.6561 72.8458 44.4801 72.6404C44.3041 72.4292 44.1691 72.177 44.0753 71.8836C43.9814 71.5844 43.9345 71.253 43.9345 70.8892C43.9345 70.5255 43.9814 70.197 44.0753 69.9036C44.1691 69.6044 44.3041 69.3522 44.4801 69.1468C44.6561 68.9356 44.8731 68.7743 45.1313 68.6628C45.3894 68.5514 45.6827 68.4956 46.0113 68.4956C46.4689 68.4956 46.8443 68.5983 47.1377 68.8036C47.431 69.009 47.6451 69.2818 47.7801 69.622L46.9881 69.9916C46.9235 69.7804 46.8091 69.6132 46.6449 69.49C46.4865 69.361 46.2753 69.2964 46.0113 69.2964C45.6593 69.2964 45.3923 69.4079 45.2105 69.6308C45.0345 69.8479 44.9465 70.1324 44.9465 70.4844V71.3028C44.9465 71.6548 45.0345 71.9423 45.2105 72.1652C45.3923 72.3823 45.6593 72.4908 46.0113 72.4908C46.2929 72.4908 46.5158 72.4234 46.6801 72.2884C46.8502 72.1476 46.9851 71.9628 47.0849 71.734L47.8153 72.1212C47.6627 72.4967 47.4339 72.7842 47.1289 72.9836C46.8238 73.1831 46.4513 73.2828 46.0113 73.2828ZM50.472 73.2828C50.1435 73.2828 49.8502 73.2271 49.592 73.1156C49.3339 73.0042 49.1139 72.8458 48.932 72.6404C48.7502 72.4292 48.6094 72.177 48.5096 71.8836C48.4158 71.5844 48.3688 71.253 48.3688 70.8892C48.3688 70.5255 48.4158 70.197 48.5096 69.9036C48.6094 69.6044 48.7502 69.3522 48.932 69.1468C49.1139 68.9356 49.3339 68.7743 49.592 68.6628C49.8502 68.5514 50.1435 68.4956 50.472 68.4956C50.8064 68.4956 51.0998 68.5543 51.352 68.6716C51.6102 68.789 51.8243 68.9532 51.9944 69.1644C52.1646 69.3698 52.2907 69.6103 52.3728 69.886C52.4608 70.1618 52.5048 70.458 52.5048 70.7748V71.1356H49.3632V71.2852C49.3632 71.6372 49.4659 71.9276 49.6712 72.1564C49.8824 72.3794 50.1816 72.4908 50.5688 72.4908C50.8504 72.4908 51.088 72.4292 51.2816 72.306C51.4752 72.1828 51.6395 72.0156 51.7744 71.8044L52.3376 72.3588C52.1675 72.6404 51.9211 72.8663 51.5984 73.0364C51.2758 73.2007 50.9003 73.2828 50.472 73.2828ZM50.472 69.2436C50.3078 69.2436 50.1552 69.273 50.0144 69.3316C49.8795 69.3903 49.7622 69.4724 49.6624 69.578C49.5686 69.6836 49.4952 69.8098 49.4424 69.9564C49.3896 70.1031 49.3632 70.2644 49.3632 70.4404V70.502H51.4928V70.414C51.4928 70.062 51.4019 69.7804 51.22 69.5692C51.0382 69.3522 50.7888 69.2436 50.472 69.2436ZM57.3712 69.7804L56.6936 68.478H56.6672V73.1772H55.7168V67.0348H56.8256L58.832 70.4316L59.5096 71.734H59.536V67.0348H60.4864V73.1772H59.3776L57.3712 69.7804ZM64.7004 72.4204H64.6652C64.6241 72.5319 64.5684 72.6404 64.498 72.746C64.4335 72.8516 64.3484 72.9455 64.2428 73.0276C64.1431 73.1039 64.0199 73.1655 63.8732 73.2124C63.7324 73.2594 63.5681 73.2828 63.3804 73.2828C62.9052 73.2828 62.5356 73.1303 62.2716 72.8252C62.0135 72.5202 61.8844 72.0831 61.8844 71.514V68.6012H62.8436V71.3908C62.8436 72.1007 63.1369 72.4556 63.7236 72.4556C63.8468 72.4556 63.9671 72.441 64.0844 72.4116C64.2017 72.3764 64.3044 72.3266 64.3924 72.262C64.4863 72.1975 64.5596 72.1154 64.6124 72.0156C64.6711 71.9159 64.7004 71.7986 64.7004 71.6636V68.6012H65.6596V73.1772H64.7004V72.4204ZM67.0331 73.1772V68.6012H67.9923V69.358H68.0363C68.0832 69.2407 68.139 69.1292 68.2035 69.0236C68.2739 68.918 68.356 68.8271 68.4499 68.7508C68.5496 68.6687 68.664 68.6071 68.7931 68.566C68.928 68.5191 69.0835 68.4956 69.2595 68.4956C69.5704 68.4956 69.8462 68.5719 70.0867 68.7244C70.3272 68.877 70.5032 69.1116 70.6147 69.4284H70.6411C70.7232 69.1703 70.8816 68.9503 71.1163 68.7684C71.351 68.5866 71.6531 68.4956 72.0227 68.4956C72.4803 68.4956 72.8352 68.6511 73.0875 68.962C73.3398 69.2671 73.4659 69.7042 73.4659 70.2732V73.1772H72.5067V70.3876C72.5067 70.0356 72.4392 69.7716 72.3043 69.5956C72.1694 69.4138 71.9552 69.3228 71.6619 69.3228C71.5387 69.3228 71.4214 69.3404 71.3099 69.3756C71.1984 69.405 71.0987 69.4519 71.0107 69.5164C70.9286 69.581 70.8611 69.6631 70.8083 69.7628C70.7555 69.8626 70.7291 69.977 70.7291 70.106V73.1772H69.7699V70.3876C69.7699 69.6778 69.4912 69.3228 68.9339 69.3228C68.8166 69.3228 68.6992 69.3404 68.5819 69.3756C68.4704 69.405 68.3707 69.4519 68.2827 69.5164C68.1947 69.581 68.1243 69.6631 68.0715 69.7628C68.0187 69.8626 67.9923 69.977 67.9923 70.106V73.1772H67.0331ZM74.7932 66.6652H75.7524V69.358H75.7964C75.8962 69.0823 76.0575 68.8711 76.2804 68.7244C76.5092 68.5719 76.7762 68.4956 77.0812 68.4956C77.662 68.4956 78.1108 68.7068 78.4276 69.1292C78.7444 69.5458 78.9028 70.1324 78.9028 70.8892C78.9028 71.646 78.7444 72.2356 78.4276 72.658C78.1108 73.0746 77.662 73.2828 77.0812 73.2828C76.7762 73.2828 76.5092 73.2066 76.2804 73.054C76.0575 72.9015 75.8962 72.6903 75.7964 72.4204H75.7524V73.1772H74.7932V66.6652ZM76.7908 72.4556C77.1252 72.4556 77.3922 72.35 77.5916 72.1388C77.7911 71.9218 77.8908 71.6372 77.8908 71.2852V70.4932C77.8908 70.1412 77.7911 69.8596 77.5916 69.6484C77.3922 69.4314 77.1252 69.3228 76.7908 69.3228C76.4975 69.3228 76.2511 69.3962 76.0516 69.5428C75.8522 69.6836 75.7524 69.8714 75.7524 70.106V71.6724C75.7524 71.9071 75.8522 72.0978 76.0516 72.2444C76.2511 72.3852 76.4975 72.4556 76.7908 72.4556ZM81.7963 73.2828C81.4677 73.2828 81.1744 73.2271 80.9163 73.1156C80.6581 73.0042 80.4381 72.8458 80.2563 72.6404C80.0744 72.4292 79.9336 72.177 79.8339 71.8836C79.74 71.5844 79.6931 71.253 79.6931 70.8892C79.6931 70.5255 79.74 70.197 79.8339 69.9036C79.9336 69.6044 80.0744 69.3522 80.2563 69.1468C80.4381 68.9356 80.6581 68.7743 80.9163 68.6628C81.1744 68.5514 81.4677 68.4956 81.7963 68.4956C82.1307 68.4956 82.424 68.5543 82.6763 68.6716C82.9344 68.789 83.1485 68.9532 83.3187 69.1644C83.4888 69.3698 83.6149 69.6103 83.6971 69.886C83.7851 70.1618 83.8291 70.458 83.8291 70.7748V71.1356H80.6875V71.2852C80.6875 71.6372 80.7901 71.9276 80.9955 72.1564C81.2067 72.3794 81.5059 72.4908 81.8931 72.4908C82.1747 72.4908 82.4123 72.4292 82.6059 72.306C82.7995 72.1828 82.9637 72.0156 83.0987 71.8044L83.6619 72.3588C83.4917 72.6404 83.2453 72.8663 82.9227 73.0364C82.6 73.2007 82.2245 73.2828 81.7963 73.2828ZM81.7963 69.2436C81.632 69.2436 81.4795 69.273 81.3387 69.3316C81.2037 69.3903 81.0864 69.4724 80.9867 69.578C80.8928 69.6836 80.8195 69.8098 80.7667 69.9564C80.7139 70.1031 80.6875 70.2644 80.6875 70.4404V70.502H82.8171V70.414C82.8171 70.062 82.7261 69.7804 82.5443 69.5692C82.3624 69.3522 82.1131 69.2436 81.7963 69.2436ZM84.8909 73.1772V68.6012H85.8501V69.4812H85.8941C85.9586 69.2466 86.0936 69.0412 86.2989 68.8652C86.5042 68.6892 86.7888 68.6012 87.1525 68.6012H87.4077V69.5252H87.0293C86.648 69.5252 86.3546 69.5868 86.1493 69.71C85.9498 69.8332 85.8501 70.0151 85.8501 70.2556V73.1772H84.8909ZM88.9373 73.2828C88.7202 73.2828 88.5589 73.2271 88.4533 73.1156C88.3477 72.9983 88.2949 72.8546 88.2949 72.6844V72.5524C88.2949 72.3823 88.3477 72.2415 88.4533 72.13C88.5589 72.0127 88.7202 71.954 88.9373 71.954C89.1543 71.954 89.3157 72.0127 89.4213 72.13C89.5269 72.2415 89.5797 72.3823 89.5797 72.5524V72.6844C89.5797 72.8546 89.5269 72.9983 89.4213 73.1156C89.3157 73.2271 89.1543 73.2828 88.9373 73.2828ZM88.9373 69.8244C88.7202 69.8244 88.5589 69.7687 88.4533 69.6572C88.3477 69.5399 88.2949 69.3962 88.2949 69.226V69.094C88.2949 68.9239 88.3477 68.7831 88.4533 68.6716C88.5589 68.5543 88.7202 68.4956 88.9373 68.4956C89.1543 68.4956 89.3157 68.5543 89.4213 68.6716C89.5269 68.7831 89.5797 68.9239 89.5797 69.094V69.226C89.5797 69.3962 89.5269 69.5399 89.4213 69.6572C89.3157 69.7687 89.1543 69.8244 88.9373 69.8244Z" fill="#00212E"/>
<path d="M23.8302 81.1694H25.5952C25.9221 81.1694 26.2188 81.2247 26.4853 81.3354C26.7518 81.446 26.9781 81.6119 27.1642 81.8332C27.3552 82.0494 27.5011 82.3235 27.6016 82.6554C27.7022 82.9822 27.7525 83.3644 27.7525 83.8019C27.7525 84.2394 27.7022 84.624 27.6016 84.9559C27.5011 85.2828 27.3552 85.5568 27.1642 85.7781C26.9781 85.9943 26.7518 86.1578 26.4853 86.2684C26.2188 86.379 25.9221 86.4343 25.5952 86.4343H23.8302V81.1694ZM25.5952 85.8762C25.8115 85.8762 26.0101 85.841 26.1911 85.7706C26.3722 85.6951 26.528 85.587 26.6588 85.4462C26.7895 85.3054 26.8901 85.1344 26.9605 84.9333C27.0359 84.7271 27.0736 84.4933 27.0736 84.2318V83.3719C27.0736 83.1104 27.0359 82.8791 26.9605 82.678C26.8901 82.4718 26.7895 82.2983 26.6588 82.1575C26.528 82.0167 26.3722 81.9111 26.1911 81.8407C26.0101 81.7653 25.8115 81.7276 25.5952 81.7276H24.4638V85.8762H25.5952ZM32.994 81.9991H32.9563L32.5113 82.8816L31.2516 85.1747L29.992 82.8816L29.5469 81.9991H29.5092V86.4343H28.8907V81.1694H29.7355L31.2441 84.0055H31.2818L32.7979 81.1694H33.6125V86.4343H32.994V81.9991ZM36.4903 86.5248C36.0629 86.5248 35.6983 86.4444 35.3966 86.2835C35.0949 86.1175 34.8384 85.8912 34.6272 85.6046L35.0949 85.2124C35.2809 85.4588 35.4871 85.6474 35.7134 85.7781C35.9397 85.9038 36.2062 85.9667 36.5129 85.9667C36.8901 85.9667 37.1767 85.8762 37.3728 85.6951C37.574 85.5141 37.6745 85.2727 37.6745 84.971C37.6745 84.7196 37.5991 84.526 37.4482 84.3902C37.2974 84.2544 37.0485 84.1463 36.7015 84.0659L36.2716 83.9678C35.7888 83.8572 35.4192 83.6912 35.1628 83.47C34.9113 83.2437 34.7856 82.9269 34.7856 82.5196C34.7856 82.2883 34.8284 82.0821 34.9138 81.9011C34.9993 81.72 35.1175 81.5692 35.2684 81.4485C35.4242 81.3278 35.6078 81.2373 35.819 81.177C36.0352 81.1116 36.2716 81.0789 36.528 81.0789C36.9253 81.0789 37.2647 81.1518 37.5463 81.2976C37.8329 81.4435 38.0743 81.6572 38.2704 81.9388L37.7952 82.2858C37.6494 82.0846 37.4734 81.9262 37.2672 81.8106C37.061 81.6949 36.8046 81.6371 36.4978 81.6371C36.1609 81.6371 35.8944 81.71 35.6983 81.8558C35.5072 81.9966 35.4117 82.2103 35.4117 82.497C35.4117 82.7484 35.4921 82.9395 35.653 83.0702C35.819 83.1959 36.0679 83.2965 36.3998 83.3719L36.8297 83.47C37.3477 83.5856 37.7223 83.7616 37.9536 83.998C38.1849 84.2343 38.3006 84.5486 38.3006 84.9408C38.3006 85.1822 38.2578 85.401 38.1724 85.5971C38.0919 85.7932 37.9737 85.9591 37.8178 86.0949C37.662 86.2307 37.4709 86.3363 37.2446 86.4117C37.0233 86.4871 36.7719 86.5248 36.4903 86.5248ZM38.6175 87.6789V87.1509H42.4267V87.6789H38.6175ZM46.6765 86.4343H43.2219V85.7856L44.9417 84.2016C45.1881 83.9754 45.3942 83.7365 45.5602 83.4851C45.7261 83.2286 45.8091 82.9722 45.8091 82.7157V82.6252C45.8091 82.3335 45.7286 82.0972 45.5677 81.9162C45.4068 81.7351 45.1629 81.6446 44.8361 81.6446C44.6751 81.6446 44.5343 81.6672 44.4137 81.7125C44.293 81.7578 44.1874 81.8206 44.0969 81.9011C44.0114 81.9815 43.9385 82.0771 43.8781 82.1877C43.8228 82.2933 43.7775 82.409 43.7423 82.5347L43.1766 82.3159C43.2269 82.16 43.2948 82.0092 43.3803 81.8634C43.4708 81.7125 43.5814 81.5792 43.7122 81.4636C43.8479 81.3479 44.0089 81.2549 44.1949 81.1845C44.386 81.1141 44.6098 81.0789 44.8662 81.0789C45.1227 81.0789 45.3515 81.1166 45.5526 81.192C45.7538 81.2675 45.9222 81.3731 46.058 81.5088C46.1938 81.6446 46.2969 81.8055 46.3673 81.9916C46.4427 82.1776 46.4804 82.3838 46.4804 82.6101C46.4804 82.8163 46.4502 83.0074 46.3899 83.1834C46.3346 83.3594 46.2566 83.5278 46.1561 83.6887C46.0555 83.8446 45.9323 83.998 45.7865 84.1488C45.6457 84.2997 45.4923 84.4506 45.3263 84.6014L43.9083 85.8762H46.6765V86.4343ZM49.4418 86.5248C48.8132 86.5248 48.3531 86.286 48.0615 85.8083C47.7748 85.3306 47.6315 84.6618 47.6315 83.8019C47.6315 82.942 47.7748 82.2732 48.0615 81.7955C48.3531 81.3178 48.8132 81.0789 49.4418 81.0789C50.0704 81.0789 50.528 81.3178 50.8146 81.7955C51.1063 82.2732 51.2521 82.942 51.2521 83.8019C51.2521 84.6618 51.1063 85.3306 50.8146 85.8083C50.528 86.286 50.0704 86.5248 49.4418 86.5248ZM49.4418 85.9742C49.648 85.9742 49.824 85.9315 49.9698 85.846C50.1156 85.7605 50.2338 85.6398 50.3243 85.4839C50.4148 85.328 50.4802 85.1445 50.5204 84.9333C50.5657 84.7221 50.5883 84.4883 50.5883 84.2318V83.3719C50.5883 83.1155 50.5657 82.8816 50.5204 82.6704C50.4802 82.4592 50.4148 82.2757 50.3243 82.1198C50.2338 81.9639 50.1156 81.8432 49.9698 81.7578C49.824 81.6723 49.648 81.6295 49.4418 81.6295C49.2356 81.6295 49.0596 81.6723 48.9138 81.7578C48.768 81.8432 48.6498 81.9639 48.5593 82.1198C48.4688 82.2757 48.4009 82.4592 48.3556 82.6704C48.3154 82.8816 48.2953 83.1155 48.2953 83.3719V84.2318C48.2953 84.4883 48.3154 84.7221 48.3556 84.9333C48.4009 85.1445 48.4688 85.328 48.5593 85.4839C48.6498 85.6398 48.768 85.7605 48.9138 85.846C49.0596 85.9315 49.2356 85.9742 49.4418 85.9742ZM55.7221 86.4343H52.2674V85.7856L53.9872 84.2016C54.2336 83.9754 54.4398 83.7365 54.6057 83.4851C54.7717 83.2286 54.8546 82.9722 54.8546 82.7157V82.6252C54.8546 82.3335 54.7742 82.0972 54.6133 81.9162C54.4523 81.7351 54.2085 81.6446 53.8816 81.6446C53.7207 81.6446 53.5799 81.6672 53.4592 81.7125C53.3385 81.7578 53.2329 81.8206 53.1424 81.9011C53.0569 81.9815 52.984 82.0771 52.9237 82.1877C52.8683 82.2933 52.8231 82.409 52.7879 82.5347L52.2222 82.3159C52.2725 82.16 52.3403 82.0092 52.4258 81.8634C52.5163 81.7125 52.627 81.5792 52.7577 81.4636C52.8935 81.3479 53.0544 81.2549 53.2405 81.1845C53.4315 81.1141 53.6553 81.0789 53.9118 81.0789C54.1682 81.0789 54.397 81.1166 54.5982 81.192C54.7993 81.2675 54.9678 81.3731 55.1035 81.5088C55.2393 81.6446 55.3424 81.8055 55.4128 81.9916C55.4882 82.1776 55.5259 82.3838 55.5259 82.6101C55.5259 82.8163 55.4958 83.0074 55.4354 83.1834C55.3801 83.3594 55.3022 83.5278 55.2016 83.6887C55.101 83.8446 54.9778 83.998 54.832 84.1488C54.6912 84.2997 54.5378 84.4506 54.3719 84.6014L52.9538 85.8762H55.7221V86.4343ZM59.9808 81.7276H57.6727L57.5219 83.734H57.5747C57.7004 83.558 57.8412 83.4172 57.9971 83.3116C58.158 83.206 58.3767 83.1532 58.6533 83.1532C58.8796 83.1532 59.0883 83.1909 59.2793 83.2663C59.4704 83.3418 59.6364 83.4499 59.7772 83.5907C59.918 83.7264 60.0261 83.8949 60.1015 84.096C60.182 84.2972 60.2222 84.526 60.2222 84.7824C60.2222 85.0389 60.182 85.2752 60.1015 85.4915C60.0211 85.7027 59.9029 85.8862 59.747 86.0421C59.5961 86.193 59.4101 86.3111 59.1888 86.3966C58.9726 86.4821 58.7262 86.5248 58.4496 86.5248C58.2284 86.5248 58.0323 86.4997 57.8613 86.4494C57.6953 86.3991 57.547 86.3312 57.4163 86.2458C57.2855 86.1603 57.1699 86.0647 57.0693 85.9591C56.9737 85.8535 56.8857 85.7429 56.8053 85.6272L57.2805 85.2652C57.3459 85.3708 57.4137 85.4663 57.4841 85.5518C57.5596 85.6373 57.64 85.7102 57.7255 85.7706C57.816 85.8309 57.9191 85.8787 58.0348 85.9139C58.1504 85.944 58.2887 85.9591 58.4496 85.9591C58.8117 85.9591 59.0857 85.8636 59.2718 85.6725C59.4579 85.4814 59.5509 85.2124 59.5509 84.8654V84.79C59.5509 84.443 59.4579 84.174 59.2718 83.9829C59.0857 83.7918 58.8117 83.6963 58.4496 83.6963C58.2083 83.6963 58.0172 83.7415 57.8764 83.832C57.7406 83.9175 57.6174 84.0206 57.5068 84.1413L56.9712 84.0659L57.1598 81.1694H59.9808V81.7276ZM63.0101 86.5248C62.3815 86.5248 61.9214 86.286 61.6298 85.8083C61.3431 85.3306 61.1998 84.6618 61.1998 83.8019C61.1998 82.942 61.3431 82.2732 61.6298 81.7955C61.9214 81.3178 62.3815 81.0789 63.0101 81.0789C63.6387 81.0789 64.0963 81.3178 64.3829 81.7955C64.6746 82.2732 64.8204 82.942 64.8204 83.8019C64.8204 84.6618 64.6746 85.3306 64.3829 85.8083C64.0963 86.286 63.6387 86.5248 63.0101 86.5248ZM63.0101 85.9742C63.2163 85.9742 63.3923 85.9315 63.5381 85.846C63.6839 85.7605 63.8021 85.6398 63.8926 85.4839C63.9831 85.328 64.0485 85.1445 64.0887 84.9333C64.134 84.7221 64.1566 84.4883 64.1566 84.2318V83.3719C64.1566 83.1155 64.134 82.8816 64.0887 82.6704C64.0485 82.4592 63.9831 82.2757 63.8926 82.1198C63.8021 81.9639 63.6839 81.8432 63.5381 81.7578C63.3923 81.6723 63.2163 81.6295 63.0101 81.6295C62.8039 81.6295 62.6279 81.6723 62.4821 81.7578C62.3363 81.8432 62.2181 81.9639 62.1276 82.1198C62.0371 82.2757 61.9692 82.4592 61.9239 82.6704C61.8837 82.8816 61.8636 83.1155 61.8636 83.3719V84.2318C61.8636 84.4883 61.8837 84.7221 61.9239 84.9333C61.9692 85.1445 62.0371 85.328 62.1276 85.4839C62.2181 85.6398 62.3363 85.7605 62.4821 85.846C62.6279 85.9315 62.8039 85.9742 63.0101 85.9742ZM69.2904 86.4343H65.8357V85.7856L67.5555 84.2016C67.8019 83.9754 68.0081 83.7365 68.174 83.4851C68.34 83.2286 68.4229 82.9722 68.4229 82.7157V82.6252C68.4229 82.3335 68.3425 82.0972 68.1816 81.9162C68.0206 81.7351 67.7768 81.6446 67.4499 81.6446C67.289 81.6446 67.1482 81.6672 67.0275 81.7125C66.9068 81.7578 66.8012 81.8206 66.7107 81.9011C66.6252 81.9815 66.5523 82.0771 66.492 82.1877C66.4366 82.2933 66.3914 82.409 66.3562 82.5347L65.7905 82.3159C65.8408 82.16 65.9086 82.0092 65.9941 81.8634C66.0846 81.7125 66.1953 81.5792 66.326 81.4636C66.4618 81.3479 66.6227 81.2549 66.8088 81.1845C66.9998 81.1141 67.2236 81.0789 67.4801 81.0789C67.7365 81.0789 67.9653 81.1166 68.1665 81.192C68.3676 81.2675 68.5361 81.3731 68.6718 81.5088C68.8076 81.6446 68.9107 81.8055 68.9811 81.9916C69.0565 82.1776 69.0942 82.3838 69.0942 82.6101C69.0942 82.8163 69.0641 83.0074 69.0037 83.1834C68.9484 83.3594 68.8705 83.5278 68.7699 83.6887C68.6693 83.8446 68.5461 83.998 68.4003 84.1488C68.2595 84.2997 68.1061 84.4506 67.9402 84.6014L66.5221 85.8762H69.2904V86.4343ZM72.0556 86.5248C71.4271 86.5248 70.967 86.286 70.6753 85.8083C70.3887 85.3306 70.2454 84.6618 70.2454 83.8019C70.2454 82.942 70.3887 82.2732 70.6753 81.7955C70.967 81.3178 71.4271 81.0789 72.0556 81.0789C72.6842 81.0789 73.1418 81.3178 73.4284 81.7955C73.7201 82.2732 73.8659 82.942 73.8659 83.8019C73.8659 84.6618 73.7201 85.3306 73.4284 85.8083C73.1418 86.286 72.6842 86.5248 72.0556 86.5248ZM72.0556 85.9742C72.2618 85.9742 72.4378 85.9315 72.5836 85.846C72.7295 85.7605 72.8476 85.6398 72.9382 85.4839C73.0287 85.328 73.094 85.1445 73.1343 84.9333C73.1795 84.7221 73.2022 84.4883 73.2022 84.2318V83.3719C73.2022 83.1155 73.1795 82.8816 73.1343 82.6704C73.094 82.4592 73.0287 82.2757 72.9382 82.1198C72.8476 81.9639 72.7295 81.8432 72.5836 81.7578C72.4378 81.6723 72.2618 81.6295 72.0556 81.6295C71.8495 81.6295 71.6735 81.6723 71.5276 81.7578C71.3818 81.8432 71.2636 81.9639 71.1731 82.1198C71.0826 82.2757 71.0147 82.4592 70.9695 82.6704C70.9292 82.8816 70.9091 83.1155 70.9091 83.3719V84.2318C70.9091 84.4883 70.9292 84.7221 70.9695 84.9333C71.0147 85.1445 71.0826 85.328 71.1731 85.4839C71.2636 85.6398 71.3818 85.7605 71.5276 85.846C71.6735 85.9315 71.8495 85.9742 72.0556 85.9742ZM74.9793 86.4343V85.8762H76.4502V81.6371H76.3974L75.0698 82.8741L74.7002 82.4743L76.0957 81.1694H77.0838V85.8762H78.4415V86.4343H74.9793ZM79.5021 86.4343V85.8762H80.973V81.6371H80.9202L79.5926 82.8741L79.223 82.4743L80.6184 81.1694H81.6066V85.8762H82.9643V86.4343H79.5021ZM85.3298 83.4021C85.6868 83.4021 85.9533 83.3216 86.1293 83.1607C86.3103 82.9948 86.4009 82.7836 86.4009 82.5271V82.4743C86.4009 82.1978 86.3129 81.9916 86.1369 81.8558C85.9659 81.715 85.7396 81.6446 85.458 81.6446C85.1865 81.6446 84.9652 81.705 84.7942 81.8256C84.6233 81.9413 84.4825 82.0997 84.3718 82.3008L83.9042 81.9388C83.9695 81.8332 84.0475 81.7301 84.138 81.6295C84.2335 81.5239 84.3442 81.4309 84.4699 81.3504C84.5956 81.27 84.7414 81.2046 84.9074 81.1543C85.0733 81.104 85.2619 81.0789 85.4731 81.0789C85.6943 81.0789 85.903 81.1091 86.0991 81.1694C86.2953 81.2247 86.4637 81.3102 86.6045 81.4259C86.7503 81.5365 86.8635 81.6748 86.9439 81.8407C87.0294 82.0067 87.0722 82.1952 87.0722 82.4064C87.0722 82.5774 87.0445 82.7308 86.9892 82.8666C86.9389 83.0023 86.8685 83.1205 86.778 83.2211C86.6875 83.3216 86.5794 83.4071 86.4537 83.4775C86.333 83.5479 86.2022 83.6007 86.0614 83.6359V83.6661C86.2022 83.6963 86.338 83.7466 86.4687 83.817C86.6045 83.8823 86.7227 83.9703 86.8233 84.081C86.9289 84.1866 87.0118 84.3173 87.0722 84.4732C87.1375 84.624 87.1702 84.7975 87.1702 84.9936C87.1702 85.2199 87.1275 85.4286 87.042 85.6197C86.9565 85.8058 86.8358 85.9667 86.6799 86.1024C86.5241 86.2332 86.3355 86.3363 86.1142 86.4117C85.893 86.4871 85.6491 86.5248 85.3826 86.5248C85.1563 86.5248 84.9551 86.4997 84.7791 86.4494C84.6031 86.3991 84.4473 86.3312 84.3115 86.2458C84.1757 86.1603 84.055 86.0647 83.9494 85.9591C83.8489 85.8535 83.7583 85.7429 83.6779 85.6272L84.1531 85.2652C84.2185 85.3708 84.2889 85.4663 84.3643 85.5518C84.4447 85.6373 84.5327 85.7102 84.6283 85.7706C84.7238 85.8309 84.8319 85.8787 84.9526 85.9139C85.0733 85.944 85.2141 85.9591 85.375 85.9591C85.7471 85.9591 86.0287 85.8762 86.2198 85.7102C86.4109 85.5392 86.5065 85.2979 86.5065 84.9861V84.9258C86.5065 84.614 86.4109 84.3751 86.2198 84.2092C86.0287 84.0382 85.7471 83.9527 85.375 83.9527H84.7565V83.4021H85.3298ZM89.8525 83.4021C90.2096 83.4021 90.4761 83.3216 90.6521 83.1607C90.8331 82.9948 90.9236 82.7836 90.9236 82.5271V82.4743C90.9236 82.1978 90.8356 81.9916 90.6596 81.8558C90.4887 81.715 90.2624 81.6446 89.9808 81.6446C89.7092 81.6446 89.488 81.705 89.317 81.8256C89.146 81.9413 89.0052 82.0997 88.8946 82.3008L88.4269 81.9388C88.4923 81.8332 88.5703 81.7301 88.6608 81.6295C88.7563 81.5239 88.8669 81.4309 88.9927 81.3504C89.1184 81.27 89.2642 81.2046 89.4301 81.1543C89.5961 81.104 89.7847 81.0789 89.9959 81.0789C90.2171 81.0789 90.4258 81.1091 90.6219 81.1694C90.818 81.2247 90.9865 81.3102 91.1273 81.4259C91.2731 81.5365 91.3863 81.6748 91.4667 81.8407C91.5522 82.0067 91.5949 82.1952 91.5949 82.4064C91.5949 82.5774 91.5673 82.7308 91.512 82.8666C91.4617 83.0023 91.3913 83.1205 91.3008 83.2211C91.2103 83.3216 91.1021 83.4071 90.9764 83.4775C90.8557 83.5479 90.725 83.6007 90.5842 83.6359V83.6661C90.725 83.6963 90.8608 83.7466 90.9915 83.817C91.1273 83.8823 91.2455 83.9703 91.346 84.081C91.4516 84.1866 91.5346 84.3173 91.5949 84.4732C91.6603 84.624 91.693 84.7975 91.693 84.9936C91.693 85.2199 91.6503 85.4286 91.5648 85.6197C91.4793 85.8058 91.3586 85.9667 91.2027 86.1024C91.0468 86.2332 90.8583 86.3363 90.637 86.4117C90.4157 86.4871 90.1719 86.5248 89.9053 86.5248C89.6791 86.5248 89.4779 86.4997 89.3019 86.4494C89.1259 86.3991 88.97 86.3312 88.8343 86.2458C88.6985 86.1603 88.5778 86.0647 88.4722 85.9591C88.3716 85.8535 88.2811 85.7429 88.2007 85.6272L88.6759 85.2652C88.7412 85.3708 88.8116 85.4663 88.8871 85.5518C88.9675 85.6373 89.0555 85.7102 89.1511 85.7706C89.2466 85.8309 89.3547 85.8787 89.4754 85.9139C89.5961 85.944 89.7369 85.9591 89.8978 85.9591C90.2699 85.9591 90.5515 85.8762 90.7426 85.7102C90.9337 85.5392 91.0292 85.2979 91.0292 84.9861V84.9258C91.0292 84.614 90.9337 84.3751 90.7426 84.2092C90.5515 84.0382 90.2699 83.9527 89.8978 83.9527H89.2793V83.4021H89.8525ZM94.677 86.5248C94.4055 86.5248 94.1591 86.4796 93.9378 86.3891C93.7216 86.2935 93.5355 86.1603 93.3797 85.9893C93.2288 85.8133 93.1131 85.5996 93.0327 85.3482C92.9522 85.0967 92.912 84.8151 92.912 84.5034C92.912 84.1111 92.9698 83.744 93.0855 83.4021C93.2011 83.0551 93.3495 82.7408 93.5305 82.4592C93.7166 82.1726 93.9202 81.9212 94.1415 81.705C94.3627 81.4837 94.579 81.3052 94.7902 81.1694H95.6048C95.3232 81.3756 95.0718 81.5767 94.8505 81.7728C94.6293 81.969 94.4357 82.1751 94.2697 82.3914C94.1038 82.6026 93.963 82.8314 93.8473 83.0778C93.7317 83.3191 93.6386 83.5932 93.5682 83.8999L93.6059 83.915C93.7317 83.6988 93.8926 83.5203 94.0887 83.3795C94.2898 83.2336 94.5513 83.1607 94.8731 83.1607C95.0994 83.1607 95.3081 83.1984 95.4992 83.2739C95.6903 83.3493 95.8537 83.4574 95.9895 83.5982C96.1253 83.739 96.2309 83.91 96.3063 84.1111C96.3867 84.3123 96.427 84.536 96.427 84.7824C96.427 85.0389 96.3842 85.2752 96.2987 85.4915C96.2183 85.7027 96.1001 85.8862 95.9442 86.0421C95.7934 86.193 95.6098 86.3111 95.3936 86.3966C95.1774 86.4821 94.9385 86.5248 94.677 86.5248ZM94.6695 85.9742C95.0165 85.9742 95.2855 85.8787 95.4766 85.6876C95.6727 85.4965 95.7707 85.2224 95.7707 84.8654V84.8051C95.7707 84.448 95.6727 84.174 95.4766 83.9829C95.2855 83.7918 95.0165 83.6963 94.6695 83.6963C94.3225 83.6963 94.051 83.7918 93.8549 83.9829C93.6638 84.174 93.5682 84.448 93.5682 84.8051V84.8654C93.5682 85.2224 93.6638 85.4965 93.8549 85.6876C94.051 85.8787 94.3225 85.9742 94.6695 85.9742ZM100.95 86.4343H97.4951V85.7856L99.2149 84.2016C99.4613 83.9754 99.6675 83.7365 99.8334 83.4851C99.9993 83.2286 100.082 82.9722 100.082 82.7157V82.6252C100.082 82.3335 100.002 82.0972 99.8409 81.9162C99.68 81.7351 99.4361 81.6446 99.1093 81.6446C98.9484 81.6446 98.8076 81.6672 98.6869 81.7125C98.5662 81.7578 98.4606 81.8206 98.3701 81.9011C98.2846 81.9815 98.2117 82.0771 98.1513 82.1877C98.096 82.2933 98.0508 82.409 98.0156 82.5347L97.4499 82.3159C97.5001 82.16 97.568 82.0092 97.6535 81.8634C97.744 81.7125 97.8547 81.5792 97.9854 81.4636C98.1212 81.3479 98.2821 81.2549 98.4681 81.1845C98.6592 81.1141 98.883 81.0789 99.1395 81.0789C99.3959 81.0789 99.6247 81.1166 99.8259 81.192C100.027 81.2675 100.195 81.3731 100.331 81.5088C100.467 81.6446 100.57 81.8055 100.64 81.9916C100.716 82.1776 100.754 82.3838 100.754 82.6101C100.754 82.8163 100.723 83.0074 100.663 83.1834C100.608 83.3594 100.53 83.5278 100.429 83.6887C100.329 83.8446 100.206 83.998 100.06 84.1488C99.9189 84.2997 99.7655 84.4506 99.5996 84.6014L98.1815 85.8762H100.95V86.4343ZM103.715 86.5248C103.086 86.5248 102.626 86.286 102.335 85.8083C102.048 85.3306 101.905 84.6618 101.905 83.8019C101.905 82.942 102.048 82.2732 102.335 81.7955C102.626 81.3178 103.086 81.0789 103.715 81.0789C104.344 81.0789 104.801 81.3178 105.088 81.7955C105.379 82.2732 105.525 82.942 105.525 83.8019C105.525 84.6618 105.379 85.3306 105.088 85.8083C104.801 86.286 104.344 86.5248 103.715 86.5248ZM103.715 85.9742C103.921 85.9742 104.097 85.9315 104.243 85.846C104.389 85.7605 104.507 85.6398 104.598 85.4839C104.688 85.328 104.753 85.1445 104.794 84.9333C104.839 84.7221 104.862 84.4883 104.862 84.2318V83.3719C104.862 83.1155 104.839 82.8816 104.794 82.6704C104.753 82.4592 104.688 82.2757 104.598 82.1198C104.507 81.9639 104.389 81.8432 104.243 81.7578C104.097 81.6723 103.921 81.6295 103.715 81.6295C103.509 81.6295 103.333 81.6723 103.187 81.7578C103.041 81.8432 102.923 81.9639 102.833 82.1198C102.742 82.2757 102.674 82.4592 102.629 82.6704C102.589 82.8816 102.569 83.1155 102.569 83.3719V84.2318C102.569 84.4883 102.589 84.7221 102.629 84.9333C102.674 85.1445 102.742 85.328 102.833 85.4839C102.923 85.6398 103.041 85.7605 103.187 85.846C103.333 85.9315 103.509 85.9742 103.715 85.9742Z" fill="#4C4748"/>
<g clip-path="url(#clip0_3634_7895)">
<mask id="path-12-inside-2_3634_7895" fill="white">
<path d="M13.0714 119.605H515.929V152.72H13.0714V119.605Z"/>
</mask>
<path d="M13.0714 119.605H515.929V152.72H13.0714V119.605Z" fill="#F6F6F6"/>
<path d="M13.0714 119.92H515.929V119.291H13.0714V119.92ZM515.929 152.405H13.0714V153.034H515.929V152.405Z" fill="#F5F5F5" mask="url(#path-12-inside-2_3634_7895)"/>
<path d="M13.2286 124.634C13.2286 121.944 15.4096 119.763 18.1 119.763H515.771V152.563H13.2286V124.634Z" stroke="#E8E8E8" stroke-width="0.314286"/>
<path d="M27.3276 133.963H27.2836L26.7996 134.958L25.4532 137.413L24.1068 134.958L23.6228 133.963H23.5788V138.663H22.6284V132.52H23.8076L25.4532 135.644H25.506L27.1516 132.52H28.278V138.663H27.3276V133.963ZM31.5204 138.768C31.1918 138.768 30.8985 138.712 30.6404 138.601C30.3822 138.49 30.1622 138.331 29.9804 138.126C29.7985 137.915 29.6577 137.662 29.558 137.369C29.4641 137.07 29.4172 136.738 29.4172 136.375C29.4172 136.011 29.4641 135.682 29.558 135.389C29.6577 135.09 29.7985 134.838 29.9804 134.632C30.1622 134.421 30.3822 134.26 30.6404 134.148C30.8985 134.037 31.1918 133.981 31.5204 133.981C31.8548 133.981 32.1481 134.04 32.4004 134.157C32.6585 134.274 32.8726 134.439 33.0428 134.65C33.2129 134.855 33.339 135.096 33.4212 135.371C33.5092 135.647 33.5532 135.943 33.5532 136.26V136.621H30.4116V136.771C30.4116 137.123 30.5142 137.413 30.7196 137.642C30.9308 137.865 31.23 137.976 31.6172 137.976C31.8988 137.976 32.1364 137.915 32.33 137.791C32.5236 137.668 32.6878 137.501 32.8228 137.29L33.386 137.844C33.2158 138.126 32.9694 138.352 32.6468 138.522C32.3241 138.686 31.9486 138.768 31.5204 138.768ZM31.5204 134.729C31.3561 134.729 31.2036 134.758 31.0628 134.817C30.9278 134.876 30.8105 134.958 30.7108 135.063C30.6169 135.169 30.5436 135.295 30.4908 135.442C30.438 135.588 30.4116 135.75 30.4116 135.926V135.987H32.5412V135.899C32.5412 135.547 32.4502 135.266 32.2684 135.055C32.0865 134.838 31.8372 134.729 31.5204 134.729ZM35.8822 138.663C35.5478 138.663 35.2955 138.578 35.1254 138.407C34.9553 138.231 34.8702 137.985 34.8702 137.668V134.87H34.1574V134.087H34.5446C34.703 134.087 34.8115 134.051 34.8702 133.981C34.9347 133.911 34.967 133.796 34.967 133.638V132.837H35.8294V134.087H36.7886V134.87H35.8294V137.879H36.7182V138.663H35.8822ZM37.8291 132.151H38.7883V134.843H38.8323C38.932 134.597 39.0816 134.392 39.2811 134.227C39.4864 134.063 39.7651 133.981 40.1171 133.981C40.5864 133.981 40.9501 134.136 41.2083 134.447C41.4723 134.752 41.6043 135.19 41.6043 135.759V138.663H40.6451V135.873C40.6451 135.163 40.3576 134.808 39.7827 134.808C39.6595 134.808 39.5363 134.826 39.4131 134.861C39.2957 134.89 39.1901 134.937 39.0963 135.002C39.0024 135.066 38.9261 135.148 38.8675 135.248C38.8147 135.348 38.7883 135.462 38.7883 135.591V138.663H37.8291V132.151ZM44.729 138.768C44.4122 138.768 44.1218 138.712 43.8578 138.601C43.5996 138.49 43.3796 138.331 43.1978 138.126C43.0159 137.915 42.8751 137.662 42.7754 137.369C42.6756 137.07 42.6258 136.738 42.6258 136.375C42.6258 136.011 42.6756 135.682 42.7754 135.389C42.8751 135.09 43.0159 134.838 43.1978 134.632C43.3796 134.421 43.5996 134.26 43.8578 134.148C44.1218 134.037 44.4122 133.981 44.729 133.981C45.0458 133.981 45.3332 134.037 45.5914 134.148C45.8554 134.26 46.0783 134.421 46.2602 134.632C46.442 134.838 46.5828 135.09 46.6826 135.389C46.7823 135.682 46.8322 136.011 46.8322 136.375C46.8322 136.738 46.7823 137.07 46.6826 137.369C46.5828 137.662 46.442 137.915 46.2602 138.126C46.0783 138.331 45.8554 138.49 45.5914 138.601C45.3332 138.712 45.0458 138.768 44.729 138.768ZM44.729 137.976C45.0575 137.976 45.3215 137.876 45.521 137.677C45.7204 137.472 45.8202 137.167 45.8202 136.762V135.987C45.8202 135.583 45.7204 135.28 45.521 135.081C45.3215 134.876 45.0575 134.773 44.729 134.773C44.4004 134.773 44.1364 134.876 43.937 135.081C43.7375 135.28 43.6378 135.583 43.6378 135.987V136.762C43.6378 137.167 43.7375 137.472 43.937 137.677C44.1364 137.876 44.4004 137.976 44.729 137.976ZM50.7786 137.906H50.7346C50.6348 138.176 50.4706 138.387 50.2418 138.539C50.0188 138.692 49.7548 138.768 49.4498 138.768C48.869 138.768 48.4202 138.56 48.1034 138.143C47.7866 137.721 47.6282 137.131 47.6282 136.375C47.6282 135.618 47.7866 135.031 48.1034 134.615C48.4202 134.192 48.869 133.981 49.4498 133.981C49.7548 133.981 50.0188 134.057 50.2418 134.21C50.4706 134.356 50.6348 134.568 50.7346 134.843H50.7786V132.151H51.7378V138.663H50.7786V137.906ZM49.7402 137.941C50.0335 137.941 50.2799 137.871 50.4794 137.73C50.6788 137.583 50.7786 137.392 50.7786 137.158V135.591C50.7786 135.357 50.6788 135.169 50.4794 135.028C50.2799 134.882 50.0335 134.808 49.7402 134.808C49.4058 134.808 49.1388 134.917 48.9394 135.134C48.7399 135.345 48.6402 135.627 48.6402 135.979V136.771C48.6402 137.123 48.7399 137.407 48.9394 137.624C49.1388 137.835 49.4058 137.941 49.7402 137.941ZM56.9133 135.266L56.2357 133.963H56.2093V138.663H55.2589V132.52H56.3677L58.3741 135.917L59.0517 137.219H59.0781V132.52H60.0285V138.663H58.9197L56.9133 135.266ZM64.8233 138.663C64.571 138.663 64.3774 138.592 64.2425 138.451C64.1076 138.305 64.0254 138.12 63.9961 137.897H63.9521C63.8641 138.184 63.7028 138.402 63.4681 138.548C63.2334 138.695 62.9489 138.768 62.6145 138.768C62.1393 138.768 61.7726 138.645 61.5145 138.399C61.2622 138.152 61.1361 137.821 61.1361 137.404C61.1361 136.947 61.3004 136.603 61.6289 136.375C61.9633 136.146 62.4502 136.031 63.0897 136.031H63.9169V135.644C63.9169 135.363 63.8406 135.146 63.6881 134.993C63.5356 134.84 63.298 134.764 62.9753 134.764C62.7054 134.764 62.4854 134.823 62.3153 134.94C62.1452 135.058 62.0014 135.207 61.8841 135.389L61.3121 134.87C61.4646 134.612 61.6788 134.4 61.9545 134.236C62.2302 134.066 62.591 133.981 63.0369 133.981C63.6294 133.981 64.0841 134.119 64.4009 134.395C64.7177 134.67 64.8761 135.066 64.8761 135.583V137.879H65.3601V138.663H64.8233ZM62.8873 138.038C63.1865 138.038 63.4329 137.973 63.6265 137.844C63.8201 137.709 63.9169 137.53 63.9169 137.307V136.647H63.1073C62.4444 136.647 62.1129 136.853 62.1129 137.263V137.422C62.1129 137.627 62.1804 137.783 62.3153 137.888C62.4561 137.988 62.6468 138.038 62.8873 138.038ZM66.3002 138.663V134.087H67.2594V134.843H67.3034C67.3503 134.726 67.406 134.615 67.4706 134.509C67.541 134.403 67.6231 134.312 67.717 134.236C67.8167 134.154 67.9311 134.092 68.0602 134.051C68.1951 134.004 68.3506 133.981 68.5266 133.981C68.8375 133.981 69.1132 134.057 69.3538 134.21C69.5943 134.362 69.7703 134.597 69.8818 134.914H69.9082C69.9903 134.656 70.1487 134.436 70.3834 134.254C70.618 134.072 70.9202 133.981 71.2898 133.981C71.7474 133.981 72.1023 134.136 72.3546 134.447C72.6068 134.752 72.733 135.19 72.733 135.759V138.663H71.7738V135.873C71.7738 135.521 71.7063 135.257 71.5714 135.081C71.4364 134.899 71.2223 134.808 70.929 134.808C70.8058 134.808 70.6884 134.826 70.577 134.861C70.4655 134.89 70.3658 134.937 70.2778 135.002C70.1956 135.066 70.1282 135.148 70.0754 135.248C70.0226 135.348 69.9962 135.462 69.9962 135.591V138.663H69.037V135.873C69.037 135.163 68.7583 134.808 68.201 134.808C68.0836 134.808 67.9663 134.826 67.849 134.861C67.7375 134.89 67.6378 134.937 67.5498 135.002C67.4618 135.066 67.3914 135.148 67.3386 135.248C67.2858 135.348 67.2594 135.462 67.2594 135.591V138.663H66.3002ZM75.8555 138.768C75.527 138.768 75.2337 138.712 74.9755 138.601C74.7174 138.49 74.4974 138.331 74.3155 138.126C74.1337 137.915 73.9929 137.662 73.8931 137.369C73.7993 137.07 73.7523 136.738 73.7523 136.375C73.7523 136.011 73.7993 135.682 73.8931 135.389C73.9929 135.09 74.1337 134.838 74.3155 134.632C74.4974 134.421 74.7174 134.26 74.9755 134.148C75.2337 134.037 75.527 133.981 75.8555 133.981C76.1899 133.981 76.4833 134.04 76.7355 134.157C76.9937 134.274 77.2078 134.439 77.3779 134.65C77.5481 134.855 77.6742 135.096 77.7563 135.371C77.8443 135.647 77.8883 135.943 77.8883 136.26V136.621H74.7467V136.771C74.7467 137.123 74.8494 137.413 75.0547 137.642C75.2659 137.865 75.5651 137.976 75.9523 137.976C76.2339 137.976 76.4715 137.915 76.6651 137.791C76.8587 137.668 77.023 137.501 77.1579 137.29L77.7211 137.844C77.551 138.126 77.3046 138.352 76.9819 138.522C76.6593 138.686 76.2838 138.768 75.8555 138.768ZM75.8555 134.729C75.6913 134.729 75.5387 134.758 75.3979 134.817C75.263 134.876 75.1457 134.958 75.0459 135.063C74.9521 135.169 74.8787 135.295 74.8259 135.442C74.7731 135.588 74.7467 135.75 74.7467 135.926V135.987H76.8763V135.899C76.8763 135.547 76.7854 135.266 76.6035 135.055C76.4217 134.838 76.1723 134.729 75.8555 134.729Z" fill="#606060"/>
<rect x="13.2286" y="152.877" width="251.114" height="32.8" stroke="#E8E8E8" stroke-width="0.314286"/>
<path d="M26.5354 171.777L25.9194 169.964H23.4378L22.8218 171.777H22.0738L24.221 165.634H25.1626L27.3098 171.777H26.5354ZM24.6962 166.321H24.6522L23.6138 169.313H25.7346L24.6962 166.321ZM28.2569 171.777V167.236H28.9609V167.975H28.9961C29.0489 167.858 29.1076 167.749 29.1721 167.65C29.2425 167.544 29.3246 167.453 29.4185 167.377C29.5182 167.301 29.6326 167.242 29.7617 167.201C29.8908 167.154 30.0433 167.13 30.2193 167.13C30.5185 167.13 30.7942 167.204 31.0465 167.35C31.2988 167.491 31.4865 167.726 31.6097 168.054H31.6273C31.7094 167.808 31.862 167.594 32.0849 167.412C32.3137 167.224 32.6217 167.13 33.0089 167.13C33.4724 167.13 33.8332 167.283 34.0913 167.588C34.3553 167.887 34.4873 168.313 34.4873 168.864V171.777H33.7833V168.987C33.7833 168.582 33.7041 168.277 33.5457 168.072C33.3873 167.867 33.135 167.764 32.7889 167.764C32.6481 167.764 32.5132 167.782 32.3841 167.817C32.2609 167.852 32.1494 167.905 32.0497 167.975C31.95 168.046 31.8708 168.137 31.8121 168.248C31.7534 168.354 31.7241 168.48 31.7241 168.626V171.777H31.0201V168.987C31.0201 168.582 30.9409 168.277 30.7825 168.072C30.6241 167.867 30.3777 167.764 30.0433 167.764C29.9025 167.764 29.7676 167.782 29.6385 167.817C29.5094 167.852 29.395 167.905 29.2953 167.975C29.1956 168.046 29.1134 168.137 29.0489 168.248C28.9902 168.354 28.9609 168.48 28.9609 168.626V171.777H28.2569ZM37.6557 171.882C37.3506 171.882 37.072 171.827 36.8197 171.715C36.5674 171.604 36.3504 171.445 36.1685 171.24C35.9925 171.029 35.8546 170.78 35.7549 170.492C35.6552 170.199 35.6053 169.87 35.6053 169.506C35.6053 169.149 35.6552 168.823 35.7549 168.53C35.8546 168.236 35.9925 167.987 36.1685 167.782C36.3504 167.57 36.5674 167.409 36.8197 167.298C37.072 167.186 37.3506 167.13 37.6557 167.13C37.9608 167.13 38.2365 167.186 38.4829 167.298C38.7352 167.409 38.9522 167.57 39.1341 167.782C39.316 167.987 39.4568 168.236 39.5565 168.53C39.6562 168.823 39.7061 169.149 39.7061 169.506C39.7061 169.87 39.6562 170.199 39.5565 170.492C39.4568 170.78 39.316 171.029 39.1341 171.24C38.9522 171.445 38.7352 171.604 38.4829 171.715C38.2365 171.827 37.9608 171.882 37.6557 171.882ZM37.6557 171.258C38.037 171.258 38.348 171.14 38.5885 170.906C38.829 170.671 38.9493 170.313 38.9493 169.832V169.181C38.9493 168.7 38.829 168.342 38.5885 168.107C38.348 167.873 38.037 167.755 37.6557 167.755C37.2744 167.755 36.9634 167.873 36.7229 168.107C36.4824 168.342 36.3621 168.7 36.3621 169.181V169.832C36.3621 170.313 36.4824 170.671 36.7229 170.906C36.9634 171.14 37.2744 171.258 37.6557 171.258ZM43.6623 171.038H43.6271C43.5802 171.143 43.5215 171.249 43.4511 171.354C43.3866 171.454 43.3045 171.545 43.2047 171.627C43.105 171.704 42.9847 171.765 42.8439 171.812C42.7031 171.859 42.5389 171.882 42.3511 171.882C41.8818 171.882 41.5093 171.733 41.2335 171.434C40.9578 171.129 40.8199 170.7 40.8199 170.149V167.236H41.5239V170.026C41.5239 170.841 41.8701 171.249 42.5623 171.249C42.7031 171.249 42.8381 171.231 42.9671 171.196C43.1021 171.161 43.2194 171.108 43.3191 171.038C43.4247 170.967 43.5069 170.879 43.5655 170.774C43.6301 170.662 43.6623 170.53 43.6623 170.378V167.236H44.3663V171.777H43.6623V171.038ZM45.8655 171.777V167.236H46.5695V167.975H46.6047C46.7162 167.717 46.8716 167.512 47.0711 167.359C47.2764 167.207 47.5492 167.13 47.8895 167.13C48.3588 167.13 48.7284 167.283 48.9983 167.588C49.274 167.887 49.4119 168.313 49.4119 168.864V171.777H48.7079V168.987C48.7079 168.172 48.3647 167.764 47.6783 167.764C47.5375 167.764 47.3996 167.782 47.2647 167.817C47.1356 167.852 47.0183 167.905 46.9127 167.975C46.8071 168.046 46.722 168.137 46.6575 168.248C46.5988 168.354 46.5695 168.48 46.5695 168.626V171.777H45.8655ZM51.8703 171.777C51.6239 171.777 51.4361 171.709 51.3071 171.574C51.1839 171.434 51.1223 171.252 51.1223 171.029V167.852H50.3743V167.236H50.7967C50.9492 167.236 51.0519 167.207 51.1047 167.148C51.1633 167.084 51.1927 166.975 51.1927 166.822V165.978H51.8263V167.236H52.8207V167.852H51.8263V171.161H52.7503V171.777H51.8703Z" fill="#8E8E8E"/>
<mask id="path-18-inside-3_3634_7895" fill="white">
<path d="M13.0714 185.834H515.929V218.948H13.0714V185.834Z"/>
</mask>
<path d="M13.0714 185.834H515.929V218.948H13.0714V185.834Z" fill="#F6F6F6"/>
<path d="M13.0714 186.148H515.929V185.52H13.0714V186.148ZM515.929 218.634H13.0714V219.263H515.929V218.634Z" fill="#F5F5F5" mask="url(#path-18-inside-3_3634_7895)"/>
<path d="M13.2286 190.863C13.2286 188.172 15.4096 185.991 18.1 185.991H515.771V218.791H13.2286V190.863Z" stroke="#E8E8E8" stroke-width="0.314286"/>
<path d="M27.3276 200.192H27.2836L26.7996 201.186L25.4532 203.642L24.1068 201.186L23.6228 200.192H23.5788V204.891H22.6284V198.749H23.8076L25.4532 201.873H25.506L27.1516 198.749H28.278V204.891H27.3276V200.192ZM31.5204 204.997C31.1918 204.997 30.8985 204.941 30.6404 204.83C30.3822 204.718 30.1622 204.56 29.9804 204.354C29.7985 204.143 29.6577 203.891 29.558 203.598C29.4641 203.298 29.4172 202.967 29.4172 202.603C29.4172 202.239 29.4641 201.911 29.558 201.618C29.6577 201.318 29.7985 201.066 29.9804 200.861C30.1622 200.65 30.3822 200.488 30.6404 200.377C30.8985 200.265 31.1918 200.21 31.5204 200.21C31.8548 200.21 32.1481 200.268 32.4004 200.386C32.6585 200.503 32.8726 200.667 33.0428 200.878C33.2129 201.084 33.339 201.324 33.4212 201.6C33.5092 201.876 33.5532 202.172 33.5532 202.489V202.85H30.4116V202.999C30.4116 203.351 30.5142 203.642 30.7196 203.87C30.9308 204.093 31.23 204.205 31.6172 204.205C31.8988 204.205 32.1364 204.143 32.33 204.02C32.5236 203.897 32.6878 203.73 32.8228 203.518L33.386 204.073C33.2158 204.354 32.9694 204.58 32.6468 204.75C32.3241 204.915 31.9486 204.997 31.5204 204.997ZM31.5204 200.958C31.3561 200.958 31.2036 200.987 31.0628 201.046C30.9278 201.104 30.8105 201.186 30.7108 201.292C30.6169 201.398 30.5436 201.524 30.4908 201.67C30.438 201.817 30.4116 201.978 30.4116 202.154V202.216H32.5412V202.128C32.5412 201.776 32.4502 201.494 32.2684 201.283C32.0865 201.066 31.8372 200.958 31.5204 200.958ZM35.8822 204.891C35.5478 204.891 35.2955 204.806 35.1254 204.636C34.9553 204.46 34.8702 204.214 34.8702 203.897V201.098H34.1574V200.315H34.5446C34.703 200.315 34.8115 200.28 34.8702 200.21C34.9347 200.139 34.967 200.025 34.967 199.866V199.066H35.8294V200.315H36.7886V201.098H35.8294V204.108H36.7182V204.891H35.8822ZM37.8291 198.379H38.7883V201.072H38.8323C38.932 200.826 39.0816 200.62 39.2811 200.456C39.4864 200.292 39.7651 200.21 40.1171 200.21C40.5864 200.21 40.9501 200.365 41.2083 200.676C41.4723 200.981 41.6043 201.418 41.6043 201.987V204.891H40.6451V202.102C40.6451 201.392 40.3576 201.037 39.7827 201.037C39.6595 201.037 39.5363 201.054 39.4131 201.09C39.2957 201.119 39.1901 201.166 39.0963 201.23C39.0024 201.295 38.9261 201.377 38.8675 201.477C38.8147 201.576 38.7883 201.691 38.7883 201.82V204.891H37.8291V198.379ZM44.729 204.997C44.4122 204.997 44.1218 204.941 43.8578 204.83C43.5996 204.718 43.3796 204.56 43.1978 204.354C43.0159 204.143 42.8751 203.891 42.7754 203.598C42.6756 203.298 42.6258 202.967 42.6258 202.603C42.6258 202.239 42.6756 201.911 42.7754 201.618C42.8751 201.318 43.0159 201.066 43.1978 200.861C43.3796 200.65 43.5996 200.488 43.8578 200.377C44.1218 200.265 44.4122 200.21 44.729 200.21C45.0458 200.21 45.3332 200.265 45.5914 200.377C45.8554 200.488 46.0783 200.65 46.2602 200.861C46.442 201.066 46.5828 201.318 46.6826 201.618C46.7823 201.911 46.8322 202.239 46.8322 202.603C46.8322 202.967 46.7823 203.298 46.6826 203.598C46.5828 203.891 46.442 204.143 46.2602 204.354C46.0783 204.56 45.8554 204.718 45.5914 204.83C45.3332 204.941 45.0458 204.997 44.729 204.997ZM44.729 204.205C45.0575 204.205 45.3215 204.105 45.521 203.906C45.7204 203.7 45.8202 203.395 45.8202 202.99V202.216C45.8202 201.811 45.7204 201.509 45.521 201.31C45.3215 201.104 45.0575 201.002 44.729 201.002C44.4004 201.002 44.1364 201.104 43.937 201.31C43.7375 201.509 43.6378 201.811 43.6378 202.216V202.99C43.6378 203.395 43.7375 203.7 43.937 203.906C44.1364 204.105 44.4004 204.205 44.729 204.205ZM50.7786 204.134H50.7346C50.6348 204.404 50.4706 204.615 50.2418 204.768C50.0188 204.92 49.7548 204.997 49.4498 204.997C48.869 204.997 48.4202 204.788 48.1034 204.372C47.7866 203.95 47.6282 203.36 47.6282 202.603C47.6282 201.846 47.7866 201.26 48.1034 200.843C48.4202 200.421 48.869 200.21 49.4498 200.21C49.7548 200.21 50.0188 200.286 50.2418 200.438C50.4706 200.585 50.6348 200.796 50.7346 201.072H50.7786V198.379H51.7378V204.891H50.7786V204.134ZM49.7402 204.17C50.0335 204.17 50.2799 204.099 50.4794 203.958C50.6788 203.812 50.7786 203.621 50.7786 203.386V201.82C50.7786 201.585 50.6788 201.398 50.4794 201.257C50.2799 201.11 50.0335 201.037 49.7402 201.037C49.4058 201.037 49.1388 201.145 48.9394 201.362C48.7399 201.574 48.6402 201.855 48.6402 202.207V202.999C48.6402 203.351 48.7399 203.636 48.9394 203.853C49.1388 204.064 49.4058 204.17 49.7402 204.17ZM56.9133 201.494L56.2357 200.192H56.2093V204.891H55.2589V198.749H56.3677L58.3741 202.146L59.0517 203.448H59.0781V198.749H60.0285V204.891H58.9197L56.9133 201.494ZM64.8233 204.891C64.571 204.891 64.3774 204.821 64.2425 204.68C64.1076 204.533 64.0254 204.348 63.9961 204.126H63.9521C63.8641 204.413 63.7028 204.63 63.4681 204.777C63.2334 204.923 62.9489 204.997 62.6145 204.997C62.1393 204.997 61.7726 204.874 61.5145 204.627C61.2622 204.381 61.1361 204.049 61.1361 203.633C61.1361 203.175 61.3004 202.832 61.6289 202.603C61.9633 202.374 62.4502 202.26 63.0897 202.26H63.9169V201.873C63.9169 201.591 63.8406 201.374 63.6881 201.222C63.5356 201.069 63.298 200.993 62.9753 200.993C62.7054 200.993 62.4854 201.051 62.3153 201.169C62.1452 201.286 62.0014 201.436 61.8841 201.618L61.3121 201.098C61.4646 200.84 61.6788 200.629 61.9545 200.465C62.2302 200.295 62.591 200.21 63.0369 200.21C63.6294 200.21 64.0841 200.347 64.4009 200.623C64.7177 200.899 64.8761 201.295 64.8761 201.811V204.108H65.3601V204.891H64.8233ZM62.8873 204.266C63.1865 204.266 63.4329 204.202 63.6265 204.073C63.8201 203.938 63.9169 203.759 63.9169 203.536V202.876H63.1073C62.4444 202.876 62.1129 203.081 62.1129 203.492V203.65C62.1129 203.856 62.1804 204.011 62.3153 204.117C62.4561 204.216 62.6468 204.266 62.8873 204.266ZM66.3002 204.891V200.315H67.2594V201.072H67.3034C67.3503 200.955 67.406 200.843 67.4706 200.738C67.541 200.632 67.6231 200.541 67.717 200.465C67.8167 200.383 67.9311 200.321 68.0602 200.28C68.1951 200.233 68.3506 200.21 68.5266 200.21C68.8375 200.21 69.1132 200.286 69.3538 200.438C69.5943 200.591 69.7703 200.826 69.8818 201.142H69.9082C69.9903 200.884 70.1487 200.664 70.3834 200.482C70.618 200.3 70.9202 200.21 71.2898 200.21C71.7474 200.21 72.1023 200.365 72.3546 200.676C72.6068 200.981 72.733 201.418 72.733 201.987V204.891H71.7738V202.102C71.7738 201.75 71.7063 201.486 71.5714 201.31C71.4364 201.128 71.2223 201.037 70.929 201.037C70.8058 201.037 70.6884 201.054 70.577 201.09C70.4655 201.119 70.3658 201.166 70.2778 201.23C70.1956 201.295 70.1282 201.377 70.0754 201.477C70.0226 201.576 69.9962 201.691 69.9962 201.82V204.891H69.037V202.102C69.037 201.392 68.7583 201.037 68.201 201.037C68.0836 201.037 67.9663 201.054 67.849 201.09C67.7375 201.119 67.6378 201.166 67.5498 201.23C67.4618 201.295 67.3914 201.377 67.3386 201.477C67.2858 201.576 67.2594 201.691 67.2594 201.82V204.891H66.3002ZM75.8555 204.997C75.527 204.997 75.2337 204.941 74.9755 204.83C74.7174 204.718 74.4974 204.56 74.3155 204.354C74.1337 204.143 73.9929 203.891 73.8931 203.598C73.7993 203.298 73.7523 202.967 73.7523 202.603C73.7523 202.239 73.7993 201.911 73.8931 201.618C73.9929 201.318 74.1337 201.066 74.3155 200.861C74.4974 200.65 74.7174 200.488 74.9755 200.377C75.2337 200.265 75.527 200.21 75.8555 200.21C76.1899 200.21 76.4833 200.268 76.7355 200.386C76.9937 200.503 77.2078 200.667 77.3779 200.878C77.5481 201.084 77.6742 201.324 77.7563 201.6C77.8443 201.876 77.8883 202.172 77.8883 202.489V202.85H74.7467V202.999C74.7467 203.351 74.8494 203.642 75.0547 203.87C75.2659 204.093 75.5651 204.205 75.9523 204.205C76.2339 204.205 76.4715 204.143 76.6651 204.02C76.8587 203.897 77.023 203.73 77.1579 203.518L77.7211 204.073C77.551 204.354 77.3046 204.58 76.9819 204.75C76.6593 204.915 76.2838 204.997 75.8555 204.997ZM75.8555 200.958C75.6913 200.958 75.5387 200.987 75.3979 201.046C75.263 201.104 75.1457 201.186 75.0459 201.292C74.9521 201.398 74.8787 201.524 74.8259 201.67C74.7731 201.817 74.7467 201.978 74.7467 202.154V202.216H76.8763V202.128C76.8763 201.776 76.7854 201.494 76.6035 201.283C76.4217 201.066 76.1723 200.958 75.8555 200.958Z" fill="#606060"/>
</g>
<defs>
<clipPath id="clip0_3634_7895">
<rect x="13.0714" y="119.605" width="502.857" height="234.8" rx="5.02857" fill="white"/>
</clipPath>
</defs>
</svg>
