<svg width="147" height="199" viewBox="0 0 147 199" fill="none" xmlns="http://www.w3.org/2000/svg">
<rect y="0.9729" width="189" height="201" rx="5.02857" fill="white"/>
<mask id="path-2-inside-1_3650_27453" fill="white">
<path d="M0 0.9729H189V44.63H0V0.9729Z"/>
</mask>
<path d="M189 44.0015H0V45.2586H189V44.0015Z" fill="#E8E8E8" mask="url(#path-2-inside-1_3650_27453)"/>
<path d="M15.7144 19.265C15.4974 19.265 15.3215 19.4409 15.3215 19.6579C15.3215 19.8749 15.4974 20.0507 15.7144 20.0507L19.9049 20.0507C20.1218 20.0507 20.2977 19.8749 20.2977 19.6579C20.2977 19.4409 20.1218 19.265 19.9049 19.265L15.7144 19.265Z" fill="#00212E"/>
<path d="M19.512 21.7531C19.512 21.5362 19.3361 21.3603 19.1192 21.3603C18.9022 21.3603 18.7263 21.5362 18.7263 21.7531L18.7263 21.8814C18.2895 22.0239 17.9406 22.3987 17.9406 22.899C17.9406 23.5433 18.5192 23.9793 19.1192 23.9793C19.387 23.9793 19.512 24.1589 19.512 24.274C19.512 24.3891 19.387 24.5686 19.1192 24.5686C18.9168 24.5686 18.783 24.4564 18.7424 24.356C18.6612 24.1548 18.4322 24.0576 18.231 24.1389C18.0298 24.2201 17.9326 24.4491 18.0139 24.6503C18.1398 24.9621 18.407 25.1895 18.7263 25.2927L18.7263 25.4198C18.7263 25.6368 18.9022 25.8126 19.1192 25.8126C19.3361 25.8126 19.512 25.6368 19.512 25.4198L19.512 25.2915C19.9489 25.149 20.2977 24.7743 20.2977 24.274C20.2977 23.6297 19.7192 23.1936 19.1192 23.1936C18.8513 23.1936 18.7263 23.0141 18.7263 22.899C18.7263 22.7839 18.8513 22.6043 19.1192 22.6043C19.3216 22.6043 19.4553 22.7165 19.4959 22.8169C19.5772 23.0181 19.8061 23.1153 20.0073 23.0341C20.2085 22.9528 20.3057 22.7238 20.2244 22.5227C20.0985 22.2109 19.8313 21.9834 19.512 21.8803L19.512 21.7531Z" fill="#00212E"/>
<path fill-rule="evenodd" clip-rule="evenodd" d="M17.8096 28.4317C17.5457 28.4317 17.3467 28.3061 17.0457 28.116L16.0439 27.4841C15.9103 27.3998 15.7589 27.3045 15.7186 27.2998L15.7181 27.2998C15.6777 27.2998 15.4944 27.415 15.3849 27.4841C15.3464 27.5083 15.2971 27.5428 15.244 27.5798L15.2236 27.5941C14.8407 27.8623 14.2001 28.3107 13.6485 27.9556C13.2263 27.6832 13.2263 27.1856 13.2263 26.2815L13.2263 20.7333C13.2263 19.1828 13.2263 18.329 13.8009 17.7502C14.3761 17.1693 15.2236 17.1693 16.762 17.1693L23.0477 17.1693C23.0553 17.1693 23.0629 17.1695 23.0704 17.1699C23.7495 17.1825 24.2621 18.094 24.4426 19.6139C24.5029 20.1188 24.5458 20.4839 24.2698 20.7925C23.9948 21.0989 23.6214 21.0989 23.0562 21.0989L23.0561 21.0984L22.393 21.0984L22.393 26.2815C22.393 27.185 22.393 27.6832 21.9708 27.955C21.4192 28.3102 20.7786 27.8618 20.3957 27.5936L20.3746 27.5789C20.3218 27.542 20.2728 27.5077 20.2344 27.4836C20.1008 27.3993 19.9494 27.3039 19.9091 27.2992L19.9085 27.2992C19.8682 27.2992 19.6849 27.4145 19.5754 27.4836L18.5744 28.1148C18.2727 28.3055 18.0736 28.4317 17.8096 28.4317ZM16.762 17.955L22.1009 17.955C21.7657 18.647 21.6073 19.6989 21.6073 20.7055L21.6073 26.2815C21.6073 26.7309 21.6073 27.1955 21.5407 27.2971C21.4863 27.3238 21.3207 27.2819 20.8462 26.9498C20.7776 26.9016 20.7126 26.8561 20.6534 26.8189C20.3705 26.6403 20.1835 26.5224 19.9358 26.514C19.6576 26.5031 19.4496 26.6342 19.1627 26.8149L18.1478 27.4547C18.008 27.5427 17.8514 27.6413 17.8096 27.6449C17.7672 27.6413 17.6064 27.5402 17.4639 27.4501L16.4629 26.8189C16.1801 26.6403 15.9931 26.5224 15.7453 26.514C15.4662 26.5031 15.2581 26.6345 14.9711 26.8156L14.9659 26.8189C14.9067 26.8566 14.8417 26.9016 14.7731 26.9498C14.298 27.2819 14.1325 27.3238 14.0785 27.2971C14.012 27.196 14.012 26.7314 14.012 26.2815L14.012 20.7333C14.012 19.3483 14.012 18.6527 14.3588 18.3033C14.7034 17.955 15.3912 17.955 16.762 17.955ZM23.0561 20.3127L22.4014 20.3127C22.4648 18.8102 22.8822 18.0204 23.0561 17.9571C23.1693 18.0016 23.5181 18.494 23.6622 19.7066L23.6623 19.7076C23.6926 19.9618 23.7239 20.2242 23.6847 20.2676C23.6444 20.3127 23.318 20.3127 23.0561 20.3127Z" fill="#00212E"/>
<path d="M15.7142 22.0158C15.7142 21.8712 15.8315 21.7539 15.9761 21.7539C16.1208 21.7539 16.2381 21.8712 16.2381 22.0158V22.8015H17.0238C17.1684 22.8015 17.2857 22.9188 17.2857 23.0634C17.2857 23.2081 17.1684 23.3253 17.0238 23.3253H16.2381V24.111C16.2381 24.2557 16.1208 24.373 15.9761 24.373C15.8315 24.373 15.7142 24.2557 15.7142 24.111V23.3253H14.9285C14.7839 23.3253 14.6666 23.2081 14.6666 23.0634C14.6666 22.9188 14.7839 22.8015 14.9285 22.8015H15.7142V22.0158Z" fill="#00212E"/>
<path d="M30.7347 25.8015V24.8763H31.6901V19.7069H30.7347V18.7816H33.7921V19.7069H32.8266V24.8763H33.7921V25.8015H30.7347ZM35.1399 25.8015V20.5718H36.2361V21.4367H36.2864C36.4004 21.1551 36.5714 20.9204 36.7993 20.7327C37.034 20.545 37.3525 20.4511 37.7548 20.4511C38.2911 20.4511 38.7068 20.6288 39.0018 20.9841C39.3036 21.3328 39.4544 21.8323 39.4544 22.4827V25.8015H38.3582V22.6235C38.3582 21.8055 38.0296 21.3965 37.3726 21.3965C37.2318 21.3965 37.091 21.4166 36.9502 21.4568C36.8161 21.4904 36.6954 21.544 36.5881 21.6177C36.4808 21.6915 36.3937 21.7854 36.3266 21.8993C36.2663 22.0133 36.2361 22.1474 36.2361 22.3016V25.8015H35.1399ZM42.0317 25.8015L40.2516 20.5718H41.3378L42.1323 22.9553L42.6653 24.7857H42.7257L43.2587 22.9553L44.0733 20.5718H45.1193L43.319 25.8015H42.0317ZM48.0148 25.9222C47.6527 25.9222 47.3208 25.8585 47.0191 25.7311C46.7241 25.6037 46.4727 25.4227 46.2648 25.188C46.057 24.9467 45.8961 24.6584 45.7821 24.3231C45.6681 23.9812 45.6111 23.6024 45.6111 23.1867C45.6111 22.771 45.6681 22.3955 45.7821 22.0603C45.8961 21.7183 46.057 21.43 46.2648 21.1953C46.4727 20.954 46.7241 20.7696 47.0191 20.6422C47.3208 20.5148 47.6527 20.4511 48.0148 20.4511C48.3768 20.4511 48.7054 20.5148 49.0004 20.6422C49.3021 20.7696 49.5569 20.954 49.7647 21.1953C49.9726 21.43 50.1335 21.7183 50.2475 22.0603C50.3614 22.3955 50.4184 22.771 50.4184 23.1867C50.4184 23.6024 50.3614 23.9812 50.2475 24.3231C50.1335 24.6584 49.9726 24.9467 49.7647 25.188C49.5569 25.4227 49.3021 25.6037 49.0004 25.7311C48.7054 25.8585 48.3768 25.9222 48.0148 25.9222ZM48.0148 25.0171C48.3902 25.0171 48.6919 24.9031 48.9199 24.6751C49.1479 24.4404 49.2619 24.0918 49.2619 23.6292V22.7441C49.2619 22.2815 49.1479 21.9362 48.9199 21.7083C48.6919 21.4736 48.3902 21.3563 48.0148 21.3563C47.6393 21.3563 47.3376 21.4736 47.1096 21.7083C46.8817 21.9362 46.7677 22.2815 46.7677 22.7441V23.6292C46.7677 24.0918 46.8817 24.4404 47.1096 24.6751C47.3376 24.9031 47.6393 25.0171 48.0148 25.0171ZM52.193 19.6365C51.9651 19.6365 51.7975 19.5828 51.6902 19.4756C51.5896 19.3683 51.5393 19.2308 51.5393 19.0632V18.8923C51.5393 18.7246 51.5896 18.5872 51.6902 18.4799C51.7975 18.3726 51.9651 18.319 52.193 18.319C52.421 18.319 52.5853 18.3726 52.6858 18.4799C52.7864 18.5872 52.8367 18.7246 52.8367 18.8923V19.0632C52.8367 19.2308 52.7864 19.3683 52.6858 19.4756C52.5853 19.5828 52.421 19.6365 52.193 19.6365ZM51.6399 20.5718H52.7361V25.8015H51.6399V20.5718ZM56.323 25.9222C55.9475 25.9222 55.6123 25.8585 55.3173 25.7311C55.0223 25.6037 54.7742 25.4227 54.573 25.188C54.3719 24.9467 54.2177 24.6584 54.1104 24.3231C54.0031 23.9812 53.9495 23.6024 53.9495 23.1867C53.9495 22.771 54.0031 22.3955 54.1104 22.0603C54.2177 21.7183 54.3719 21.43 54.573 21.1953C54.7742 20.954 55.0223 20.7696 55.3173 20.6422C55.6123 20.5148 55.9475 20.4511 56.323 20.4511C56.846 20.4511 57.2751 20.5684 57.6103 20.8031C57.9455 21.0378 58.1903 21.3496 58.3445 21.7384L57.4393 22.1608C57.3656 21.9195 57.2348 21.7284 57.0471 21.5876C56.8661 21.4401 56.6247 21.3663 56.323 21.3663C55.9207 21.3663 55.6156 21.4937 55.4078 21.7485C55.2066 21.9966 55.1061 22.3217 55.1061 22.724V23.6593C55.1061 24.0616 55.2066 24.3902 55.4078 24.6449C55.6156 24.893 55.9207 25.0171 56.323 25.0171C56.6448 25.0171 56.8996 24.94 57.0873 24.7857C57.2818 24.6248 57.436 24.4136 57.55 24.1521L58.3847 24.5947C58.2104 25.0238 57.9489 25.3523 57.6002 25.5803C57.2516 25.8082 56.8258 25.9222 56.323 25.9222ZM61.421 25.9222C61.0455 25.9222 60.7103 25.8585 60.4153 25.7311C60.1203 25.6037 59.8689 25.4227 59.661 25.188C59.4532 24.9467 59.2923 24.6584 59.1783 24.3231C59.071 23.9812 59.0174 23.6024 59.0174 23.1867C59.0174 22.771 59.071 22.3955 59.1783 22.0603C59.2923 21.7183 59.4532 21.43 59.661 21.1953C59.8689 20.954 60.1203 20.7696 60.4153 20.6422C60.7103 20.5148 61.0455 20.4511 61.421 20.4511C61.8032 20.4511 62.1384 20.5182 62.4267 20.6523C62.7217 20.7864 62.9665 20.9741 63.1609 21.2155C63.3553 21.4501 63.4995 21.725 63.5934 22.0401C63.6939 22.3553 63.7442 22.6939 63.7442 23.0559V23.4683H60.1538V23.6392C60.1538 24.0415 60.2711 24.3734 60.5058 24.6349C60.7472 24.8897 61.0891 25.0171 61.5316 25.0171C61.8535 25.0171 62.125 24.9467 62.3463 24.8059C62.5675 24.6651 62.7553 24.474 62.9095 24.2326L63.5531 24.8662C63.3587 25.188 63.0771 25.4462 62.7083 25.6406C62.3396 25.8283 61.9105 25.9222 61.421 25.9222ZM61.421 21.306C61.2333 21.306 61.059 21.3395 60.898 21.4065C60.7438 21.4736 60.6097 21.5675 60.4958 21.6881C60.3885 21.8088 60.3047 21.953 60.2443 22.1206C60.184 22.2882 60.1538 22.4726 60.1538 22.6737V22.7441H62.5876V22.6436C62.5876 22.2413 62.4837 21.9195 62.2759 21.6781C62.068 21.43 61.7831 21.306 61.421 21.306ZM67.415 18.7816H69.8991C70.3483 18.7816 70.754 18.8554 71.116 19.0029C71.4848 19.1504 71.7966 19.3716 72.0513 19.6667C72.3128 19.955 72.514 20.3204 72.6548 20.7629C72.7956 21.1987 72.866 21.7083 72.866 22.2916C72.866 22.8749 72.7956 23.3878 72.6548 23.8303C72.514 24.2661 72.3128 24.6315 72.0513 24.9265C71.7966 25.2148 71.4848 25.4328 71.116 25.5803C70.754 25.7278 70.3483 25.8015 69.8991 25.8015H67.415V18.7816ZM69.8991 24.7958C70.4221 24.7958 70.8445 24.6315 71.1663 24.303C71.4881 23.9745 71.6491 23.4917 71.6491 22.8548V21.7284C71.6491 21.0914 71.4881 20.6087 71.1663 20.2801C70.8445 19.9516 70.4221 19.7873 69.8991 19.7873H68.5515V24.7958H69.8991ZM76.2514 25.9222C75.8759 25.9222 75.5407 25.8585 75.2457 25.7311C74.9507 25.6037 74.6992 25.4227 74.4914 25.188C74.2835 24.9467 74.1226 24.6584 74.0086 24.3231C73.9014 23.9812 73.8477 23.6024 73.8477 23.1867C73.8477 22.771 73.9014 22.3955 74.0086 22.0603C74.1226 21.7183 74.2835 21.43 74.4914 21.1953C74.6992 20.954 74.9507 20.7696 75.2457 20.6422C75.5407 20.5148 75.8759 20.4511 76.2514 20.4511C76.6335 20.4511 76.9688 20.5182 77.2571 20.6523C77.5521 20.7864 77.7968 20.9741 77.9913 21.2155C78.1857 21.4501 78.3299 21.725 78.4237 22.0401C78.5243 22.3553 78.5746 22.6939 78.5746 23.0559V23.4683H74.9842V23.6392C74.9842 24.0415 75.1015 24.3734 75.3362 24.6349C75.5775 24.8897 75.9195 25.0171 76.362 25.0171C76.6838 25.0171 76.9554 24.9467 77.1766 24.8059C77.3979 24.6651 77.5856 24.474 77.7398 24.2326L78.3835 24.8662C78.1891 25.188 77.9075 25.4462 77.5387 25.6406C77.1699 25.8283 76.7408 25.9222 76.2514 25.9222ZM76.2514 21.306C76.0636 21.306 75.8893 21.3395 75.7284 21.4065C75.5742 21.4736 75.4401 21.5675 75.3261 21.6881C75.2188 21.8088 75.135 21.953 75.0747 22.1206C75.0143 22.2882 74.9842 22.4726 74.9842 22.6737V22.7441H77.418V22.6436C77.418 22.2413 77.3141 21.9195 77.1062 21.6781C76.8984 21.43 76.6134 21.306 76.2514 21.306ZM81.2363 25.8015C80.8542 25.8015 80.5659 25.7043 80.3714 25.5099C80.177 25.3087 80.0798 25.0271 80.0798 24.6651V21.4669H79.2651V20.5718H79.7077C79.8887 20.5718 80.0127 20.5316 80.0798 20.4511C80.1535 20.3707 80.1904 20.2399 80.1904 20.0589V19.1437H81.176V20.5718H82.2722V21.4669H81.176V24.9064H82.1918V25.8015H81.2363ZM87.2931 25.8015C87.0048 25.8015 86.7835 25.7211 86.6293 25.5601C86.4751 25.3925 86.3812 25.1813 86.3477 24.9265H86.2974C86.1969 25.2551 86.0125 25.5032 85.7443 25.6708C85.4761 25.8384 85.1509 25.9222 84.7688 25.9222C84.2257 25.9222 83.8066 25.7814 83.5116 25.4998C83.2233 25.2182 83.0792 24.8394 83.0792 24.3633C83.0792 23.8404 83.2669 23.4481 83.6424 23.1867C84.0245 22.9252 84.581 22.7944 85.3118 22.7944H86.2572V22.3519C86.2572 22.0301 86.17 21.782 85.9957 21.6077C85.8214 21.4334 85.5499 21.3462 85.1811 21.3462C84.8727 21.3462 84.6212 21.4132 84.4268 21.5473C84.2324 21.6814 84.0681 21.8524 83.934 22.0603L83.2803 21.4669C83.4546 21.1719 83.6993 20.9305 84.0145 20.7428C84.3296 20.5483 84.7419 20.4511 85.2515 20.4511C85.9287 20.4511 86.4483 20.6087 86.8104 20.9238C87.1724 21.2389 87.3534 21.6915 87.3534 22.2815V24.9064H87.9066V25.8015H87.2931ZM85.0805 25.0875C85.4225 25.0875 85.7041 25.0137 85.9253 24.8662C86.1466 24.712 86.2572 24.5075 86.2572 24.2527V23.4984H85.332C84.5743 23.4984 84.1955 23.7331 84.1955 24.2024V24.3835C84.1955 24.6181 84.2726 24.7958 84.4268 24.9165C84.5877 25.0305 84.8056 25.0875 85.0805 25.0875ZM89.5341 19.6365C89.3061 19.6365 89.1385 19.5828 89.0313 19.4756C88.9307 19.3683 88.8804 19.2308 88.8804 19.0632V18.8923C88.8804 18.7246 88.9307 18.5872 89.0313 18.4799C89.1385 18.3726 89.3061 18.319 89.5341 18.319C89.7621 18.319 89.9263 18.3726 90.0269 18.4799C90.1275 18.5872 90.1778 18.7246 90.1778 18.8923V19.0632C90.1778 19.2308 90.1275 19.3683 90.0269 19.4756C89.9263 19.5828 89.7621 19.6365 89.5341 19.6365ZM88.981 20.5718H90.0772V25.8015H88.981V20.5718ZM92.7589 25.8015C92.3834 25.8015 92.1018 25.7076 91.9141 25.5199C91.7331 25.3255 91.6426 25.0573 91.6426 24.7153V18.3592H92.7388V24.9064H93.4629V25.8015H92.7589Z" fill="#00212E"/>
<rect width="528" height="370.514" transform="translate(0 44.6301)" fill="white"/>
<rect x="12.5714" y="54.6875" width="502.857" height="45.3714" rx="7.54286" fill="#ECF9FF"/>
<path d="M23.1215 73.7449V72.9353H23.9575V68.4121H23.1215V67.6025H25.7967V68.4121H24.9519V72.9353H25.7967V73.7449H23.1215ZM26.976 73.7449V69.1689H27.9352V69.9257H27.9792C28.0789 69.6793 28.2285 69.4739 28.428 69.3097C28.6333 69.1454 28.912 69.0633 29.264 69.0633C29.7333 69.0633 30.0971 69.2187 30.3552 69.5297C30.6192 69.8347 30.7512 70.2718 30.7512 70.8409V73.7449H29.792V70.9641C29.792 70.2483 29.5045 69.8905 28.9296 69.8905C28.8064 69.8905 28.6832 69.9081 28.56 69.9433C28.4427 69.9726 28.3371 70.0195 28.2432 70.0841C28.1493 70.1486 28.0731 70.2307 28.0144 70.3305C27.9616 70.4302 27.9352 70.5475 27.9352 70.6825V73.7449H26.976ZM33.0063 73.7449L31.4487 69.1689H32.3991L33.0943 71.2545L33.5607 72.8561H33.6135L34.0799 71.2545L34.7927 69.1689H35.7079L34.1327 73.7449H33.0063ZM38.2415 73.8505C37.9247 73.8505 37.6343 73.7947 37.3703 73.6833C37.1122 73.5718 36.8922 73.4134 36.7103 73.2081C36.5284 72.9969 36.3876 72.7446 36.2879 72.4513C36.1882 72.1521 36.1383 71.8206 36.1383 71.4569C36.1383 71.0931 36.1882 70.7646 36.2879 70.4713C36.3876 70.1721 36.5284 69.9198 36.7103 69.7145C36.8922 69.5033 37.1122 69.3419 37.3703 69.2305C37.6343 69.119 37.9247 69.0633 38.2415 69.0633C38.5583 69.0633 38.8458 69.119 39.1039 69.2305C39.3679 69.3419 39.5908 69.5033 39.7727 69.7145C39.9546 69.9198 40.0954 70.1721 40.1951 70.4713C40.2948 70.7646 40.3447 71.0931 40.3447 71.4569C40.3447 71.8206 40.2948 72.1521 40.1951 72.4513C40.0954 72.7446 39.9546 72.9969 39.7727 73.2081C39.5908 73.4134 39.3679 73.5718 39.1039 73.6833C38.8458 73.7947 38.5583 73.8505 38.2415 73.8505ZM38.2415 73.0585C38.57 73.0585 38.834 72.9587 39.0335 72.7593C39.233 72.5539 39.3327 72.2489 39.3327 71.8441V71.0697C39.3327 70.6649 39.233 70.3627 39.0335 70.1633C38.834 69.9579 38.57 69.8553 38.2415 69.8553C37.913 69.8553 37.649 69.9579 37.4495 70.1633C37.25 70.3627 37.1503 70.6649 37.1503 71.0697V71.8441C37.1503 72.2489 37.25 72.5539 37.4495 72.7593C37.649 72.9587 37.913 73.0585 38.2415 73.0585ZM41.8975 68.3505C41.698 68.3505 41.5514 68.3035 41.4575 68.2097C41.3695 68.1158 41.3255 67.9955 41.3255 67.8489V67.6993C41.3255 67.5526 41.3695 67.4323 41.4575 67.3385C41.5514 67.2446 41.698 67.1977 41.8975 67.1977C42.097 67.1977 42.2407 67.2446 42.3287 67.3385C42.4167 67.4323 42.4607 67.5526 42.4607 67.6993V67.8489C42.4607 67.9955 42.4167 68.1158 42.3287 68.2097C42.2407 68.3035 42.097 68.3505 41.8975 68.3505ZM41.4135 69.1689H42.3727V73.7449H41.4135V69.1689ZM45.5112 73.8505C45.1827 73.8505 44.8893 73.7947 44.6312 73.6833C44.3731 73.5718 44.156 73.4134 43.98 73.2081C43.804 72.9969 43.6691 72.7446 43.5752 72.4513C43.4813 72.1521 43.4344 71.8206 43.4344 71.4569C43.4344 71.0931 43.4813 70.7646 43.5752 70.4713C43.6691 70.1721 43.804 69.9198 43.98 69.7145C44.156 69.5033 44.3731 69.3419 44.6312 69.2305C44.8893 69.119 45.1827 69.0633 45.5112 69.0633C45.9688 69.0633 46.3443 69.1659 46.6376 69.3713C46.9309 69.5766 47.1451 69.8494 47.28 70.1897L46.488 70.5593C46.4235 70.3481 46.3091 70.1809 46.1448 70.0577C45.9864 69.9286 45.7752 69.8641 45.5112 69.8641C45.1592 69.8641 44.8923 69.9755 44.7104 70.1985C44.5344 70.4155 44.4464 70.7001 44.4464 71.0521V71.8705C44.4464 72.2225 44.5344 72.5099 44.7104 72.7329C44.8923 72.9499 45.1592 73.0585 45.5112 73.0585C45.7928 73.0585 46.0157 72.991 46.18 72.8561C46.3501 72.7153 46.4851 72.5305 46.5848 72.3017L47.3152 72.6889C47.1627 73.0643 46.9339 73.3518 46.6288 73.5513C46.3237 73.7507 45.9512 73.8505 45.5112 73.8505ZM49.972 73.8505C49.6434 73.8505 49.3501 73.7947 49.092 73.6833C48.8338 73.5718 48.6138 73.4134 48.432 73.2081C48.2501 72.9969 48.1093 72.7446 48.0096 72.4513C47.9157 72.1521 47.8688 71.8206 47.8688 71.4569C47.8688 71.0931 47.9157 70.7646 48.0096 70.4713C48.1093 70.1721 48.2501 69.9198 48.432 69.7145C48.6138 69.5033 48.8338 69.3419 49.092 69.2305C49.3501 69.119 49.6434 69.0633 49.972 69.0633C50.3064 69.0633 50.5997 69.1219 50.852 69.2393C51.1101 69.3566 51.3242 69.5209 51.4944 69.7321C51.6645 69.9374 51.7906 70.1779 51.8728 70.4537C51.9608 70.7294 52.0048 71.0257 52.0048 71.3425V71.7033H48.8632V71.8529C48.8632 72.2049 48.9658 72.4953 49.1712 72.7241C49.3824 72.947 49.6816 73.0585 50.0688 73.0585C50.3504 73.0585 50.588 72.9969 50.7816 72.8737C50.9752 72.7505 51.1394 72.5833 51.2744 72.3721L51.8376 72.9265C51.6674 73.2081 51.421 73.4339 51.0984 73.6041C50.7757 73.7683 50.4002 73.8505 49.972 73.8505ZM49.972 69.8113C49.8077 69.8113 49.6552 69.8406 49.5144 69.8993C49.3794 69.9579 49.2621 70.0401 49.1624 70.1457C49.0685 70.2513 48.9952 70.3774 48.9424 70.5241C48.8896 70.6707 48.8632 70.8321 48.8632 71.0081V71.0697H50.9928V70.9817C50.9928 70.6297 50.9018 70.3481 50.72 70.1369C50.5381 69.9198 50.2888 69.8113 49.972 69.8113ZM56.8711 70.3481L56.1935 69.0457H56.1671V73.7449H55.2167V67.6025H56.3255L58.3319 70.9993L59.0095 72.3017H59.0359V67.6025H59.9863V73.7449H58.8775L56.8711 70.3481ZM64.2003 72.9881H64.1651C64.1241 73.0995 64.0683 73.2081 63.9979 73.3137C63.9334 73.4193 63.8483 73.5131 63.7427 73.5953C63.643 73.6715 63.5198 73.7331 63.3731 73.7801C63.2323 73.827 63.0681 73.8505 62.8803 73.8505C62.4051 73.8505 62.0355 73.6979 61.7715 73.3929C61.5134 73.0878 61.3843 72.6507 61.3843 72.0817V69.1689H62.3435V71.9585C62.3435 72.6683 62.6369 73.0233 63.2235 73.0233C63.3467 73.0233 63.467 73.0086 63.5843 72.9793C63.7017 72.9441 63.8043 72.8942 63.8923 72.8297C63.9862 72.7651 64.0595 72.683 64.1123 72.5833C64.171 72.4835 64.2003 72.3662 64.2003 72.2313V69.1689H65.1595V73.7449H64.2003V72.9881ZM66.533 73.7449V69.1689H67.4922V69.9257H67.5362C67.5832 69.8083 67.6389 69.6969 67.7034 69.5913C67.7738 69.4857 67.856 69.3947 67.9498 69.3185C68.0496 69.2363 68.164 69.1747 68.293 69.1337C68.428 69.0867 68.5834 69.0633 68.7594 69.0633C69.0704 69.0633 69.3461 69.1395 69.5866 69.2921C69.8272 69.4446 70.0032 69.6793 70.1146 69.9961H70.141C70.2232 69.7379 70.3816 69.5179 70.6162 69.3361C70.8509 69.1542 71.153 69.0633 71.5226 69.0633C71.9802 69.0633 72.3352 69.2187 72.5874 69.5297C72.8397 69.8347 72.9658 70.2718 72.9658 70.8409V73.7449H72.0066V70.9553C72.0066 70.6033 71.9392 70.3393 71.8042 70.1633C71.6693 69.9814 71.4552 69.8905 71.1618 69.8905C71.0386 69.8905 70.9213 69.9081 70.8098 69.9433C70.6984 69.9726 70.5986 70.0195 70.5106 70.0841C70.4285 70.1486 70.361 70.2307 70.3082 70.3305C70.2554 70.4302 70.229 70.5446 70.229 70.6737V73.7449H69.2698V70.9553C69.2698 70.2454 68.9912 69.8905 68.4338 69.8905C68.3165 69.8905 68.1992 69.9081 68.0818 69.9433C67.9704 69.9726 67.8706 70.0195 67.7826 70.0841C67.6946 70.1486 67.6242 70.2307 67.5714 70.3305C67.5186 70.4302 67.4922 70.5446 67.4922 70.6737V73.7449H66.533ZM74.2932 67.2329H75.2524V69.9257H75.2964C75.3961 69.6499 75.5575 69.4387 75.7804 69.2921C76.0092 69.1395 76.2761 69.0633 76.5812 69.0633C77.162 69.0633 77.6108 69.2745 77.9276 69.6969C78.2444 70.1134 78.4028 70.7001 78.4028 71.4569C78.4028 72.2137 78.2444 72.8033 77.9276 73.2257C77.6108 73.6422 77.162 73.8505 76.5812 73.8505C76.2761 73.8505 76.0092 73.7742 75.7804 73.6217C75.5575 73.4691 75.3961 73.2579 75.2964 72.9881H75.2524V73.7449H74.2932V67.2329ZM76.2908 73.0233C76.6252 73.0233 76.8921 72.9177 77.0916 72.7065C77.2911 72.4894 77.3908 72.2049 77.3908 71.8529V71.0609C77.3908 70.7089 77.2911 70.4273 77.0916 70.2161C76.8921 69.999 76.6252 69.8905 76.2908 69.8905C75.9975 69.8905 75.7511 69.9638 75.5516 70.1105C75.3521 70.2513 75.2524 70.439 75.2524 70.6737V72.2401C75.2524 72.4747 75.3521 72.6654 75.5516 72.8121C75.7511 72.9529 75.9975 73.0233 76.2908 73.0233ZM81.2962 73.8505C80.9677 73.8505 80.6743 73.7947 80.4162 73.6833C80.1581 73.5718 79.9381 73.4134 79.7562 73.2081C79.5743 72.9969 79.4335 72.7446 79.3338 72.4513C79.2399 72.1521 79.193 71.8206 79.193 71.4569C79.193 71.0931 79.2399 70.7646 79.3338 70.4713C79.4335 70.1721 79.5743 69.9198 79.7562 69.7145C79.9381 69.5033 80.1581 69.3419 80.4162 69.2305C80.6743 69.119 80.9677 69.0633 81.2962 69.0633C81.6306 69.0633 81.9239 69.1219 82.1762 69.2393C82.4343 69.3566 82.6485 69.5209 82.8186 69.7321C82.9887 69.9374 83.1149 70.1779 83.197 70.4537C83.285 70.7294 83.329 71.0257 83.329 71.3425V71.7033H80.1874V71.8529C80.1874 72.2049 80.2901 72.4953 80.4954 72.7241C80.7066 72.947 81.0058 73.0585 81.393 73.0585C81.6746 73.0585 81.9122 72.9969 82.1058 72.8737C82.2994 72.7505 82.4637 72.5833 82.5986 72.3721L83.1618 72.9265C82.9917 73.2081 82.7453 73.4339 82.4226 73.6041C82.0999 73.7683 81.7245 73.8505 81.2962 73.8505ZM81.2962 69.8113C81.1319 69.8113 80.9794 69.8406 80.8386 69.8993C80.7037 69.9579 80.5863 70.0401 80.4866 70.1457C80.3927 70.2513 80.3194 70.3774 80.2666 70.5241C80.2138 70.6707 80.1874 70.8321 80.1874 71.0081V71.0697H82.317V70.9817C82.317 70.6297 82.2261 70.3481 82.0442 70.1369C81.8623 69.9198 81.613 69.8113 81.2962 69.8113ZM84.3908 73.7449V69.1689H85.35V70.0489H85.394C85.4586 69.8142 85.5935 69.6089 85.7988 69.4329C86.0042 69.2569 86.2887 69.1689 86.6524 69.1689H86.9076V70.0929H86.5292C86.1479 70.0929 85.8546 70.1545 85.6492 70.2777C85.4498 70.4009 85.35 70.5827 85.35 70.8233V73.7449H84.3908ZM88.4372 73.8505C88.2201 73.8505 88.0588 73.7947 87.9532 73.6833C87.8476 73.5659 87.7948 73.4222 87.7948 73.2521V73.1201C87.7948 72.9499 87.8476 72.8091 87.9532 72.6977C88.0588 72.5803 88.2201 72.5217 88.4372 72.5217C88.6543 72.5217 88.8156 72.5803 88.9212 72.6977C89.0268 72.8091 89.0796 72.9499 89.0796 73.1201V73.2521C89.0796 73.4222 89.0268 73.5659 88.9212 73.6833C88.8156 73.7947 88.6543 73.8505 88.4372 73.8505ZM88.4372 70.3921C88.2201 70.3921 88.0588 70.3363 87.9532 70.2249C87.8476 70.1075 87.7948 69.9638 87.7948 69.7937V69.6617C87.7948 69.4915 87.8476 69.3507 87.9532 69.2393C88.0588 69.1219 88.2201 69.0633 88.4372 69.0633C88.6543 69.0633 88.8156 69.1219 88.9212 69.2393C89.0268 69.3507 89.0796 69.4915 89.0796 69.6617V69.7937C89.0796 69.9638 89.0268 70.1075 88.9212 70.2249C88.8156 70.3363 88.6543 70.3921 88.4372 70.3921Z" fill="#00212E"/>
<path d="M23.3301 81.737H25.0952C25.422 81.737 25.7187 81.7924 25.9852 81.903C26.2517 82.0136 26.478 82.1796 26.6641 82.4008C26.8552 82.617 27.001 82.8911 27.1016 83.223C27.2021 83.5498 27.2524 83.932 27.2524 84.3695C27.2524 84.807 27.2021 85.1917 27.1016 85.5236C27.001 85.8504 26.8552 86.1245 26.6641 86.3457C26.478 86.562 26.2517 86.7254 25.9852 86.836C25.7187 86.9466 25.422 87.002 25.0952 87.002H23.3301V81.737ZM25.0952 86.4438C25.3114 86.4438 25.51 86.4086 25.6911 86.3382C25.8721 86.2628 26.028 86.1546 26.1587 86.0138C26.2895 85.873 26.39 85.7021 26.4604 85.5009C26.5359 85.2948 26.5736 85.0609 26.5736 84.7994V83.9396C26.5736 83.6781 26.5359 83.4468 26.4604 83.2456C26.39 83.0394 26.2895 82.866 26.1587 82.7252C26.028 82.5844 25.8721 82.4788 25.6911 82.4084C25.51 82.3329 25.3114 82.2952 25.0952 82.2952H23.9637V86.4438H25.0952ZM32.494 82.5668H32.4562L32.0112 83.4493L30.7516 85.7423L29.4919 83.4493L29.0469 82.5668H29.0092V87.002H28.3906V81.737H29.2354L30.744 84.5732H30.7817L32.2978 81.737H33.1125V87.002H32.494V82.5668ZM35.9902 87.0925C35.5628 87.0925 35.1982 87.012 34.8965 86.8511C34.5948 86.6852 34.3384 86.4589 34.1272 86.1722L34.5948 85.78C34.7809 86.0264 34.987 86.215 35.2133 86.3457C35.4396 86.4714 35.7061 86.5343 36.0129 86.5343C36.39 86.5343 36.6766 86.4438 36.8728 86.2628C37.0739 86.0817 37.1745 85.8404 37.1745 85.5386C37.1745 85.2872 37.099 85.0936 36.9482 84.9578C36.7973 84.8221 36.5484 84.714 36.2014 84.6335L35.7715 84.5354C35.2888 84.4248 34.9192 84.2589 34.6627 84.0376C34.4113 83.8113 34.2856 83.4945 34.2856 83.0872C34.2856 82.8559 34.3283 82.6497 34.4138 82.4687C34.4993 82.2877 34.6174 82.1368 34.7683 82.0161C34.9242 81.8954 35.1077 81.8049 35.3189 81.7446C35.5352 81.6792 35.7715 81.6465 36.028 81.6465C36.4252 81.6465 36.7646 81.7194 37.0462 81.8653C37.3329 82.0111 37.5742 82.2248 37.7704 82.5064L37.2952 82.8534C37.1493 82.6522 36.9733 82.4938 36.7672 82.3782C36.561 82.2625 36.3045 82.2047 35.9978 82.2047C35.6609 82.2047 35.3944 82.2776 35.1982 82.4234C35.0072 82.5642 34.9116 82.778 34.9116 83.0646C34.9116 83.316 34.9921 83.5071 35.153 83.6378C35.3189 83.7636 35.5678 83.8641 35.8997 83.9396L36.3297 84.0376C36.8476 84.1533 37.2222 84.3293 37.4536 84.5656C37.6849 84.802 37.8005 85.1162 37.8005 85.5085C37.8005 85.7498 37.7578 85.9686 37.6723 86.1647C37.5918 86.3608 37.4737 86.5268 37.3178 86.6625C37.1619 86.7983 36.9708 86.9039 36.7445 86.9793C36.5233 87.0548 36.2718 87.0925 35.9902 87.0925ZM38.1174 88.2465V87.7185H41.9266V88.2465H38.1174ZM46.1765 87.002H42.7218V86.3533L44.4416 84.7693C44.688 84.543 44.8942 84.3041 45.0601 84.0527C45.2261 83.7962 45.309 83.5398 45.309 83.2833V83.1928C45.309 82.9012 45.2286 82.6648 45.0677 82.4838C44.9067 82.3028 44.6629 82.2122 44.336 82.2122C44.1751 82.2122 44.0343 82.2349 43.9136 82.2801C43.7929 82.3254 43.6873 82.3882 43.5968 82.4687C43.5113 82.5492 43.4384 82.6447 43.3781 82.7553C43.3227 82.8609 43.2775 82.9766 43.2423 83.1023L42.6766 82.8836C42.7269 82.7277 42.7947 82.5768 42.8802 82.431C42.9707 82.2801 43.0814 82.1469 43.2121 82.0312C43.3479 81.9156 43.5088 81.8225 43.6949 81.7521C43.8859 81.6817 44.1097 81.6465 44.3662 81.6465C44.6226 81.6465 44.8514 81.6842 45.0526 81.7597C45.2537 81.8351 45.4222 81.9407 45.5579 82.0765C45.6937 82.2122 45.7968 82.3732 45.8672 82.5592C45.9426 82.7453 45.9803 82.9514 45.9803 83.1777C45.9803 83.3839 45.9502 83.575 45.8898 83.751C45.8345 83.927 45.7566 84.0954 45.656 84.2564C45.5554 84.4122 45.4322 84.5656 45.2864 84.7165C45.1456 84.8673 44.9922 85.0182 44.8263 85.169L43.4082 86.4438H46.1765V87.002ZM48.9417 87.0925C48.3132 87.0925 47.8531 86.8536 47.5614 86.3759C47.2748 85.8982 47.1315 85.2294 47.1315 84.3695C47.1315 83.5096 47.2748 82.8408 47.5614 82.3631C47.8531 81.8854 48.3132 81.6465 48.9417 81.6465C49.5703 81.6465 50.0279 81.8854 50.3145 82.3631C50.6062 82.8408 50.752 83.5096 50.752 84.3695C50.752 85.2294 50.6062 85.8982 50.3145 86.3759C50.0279 86.8536 49.5703 87.0925 48.9417 87.0925ZM48.9417 86.5418C49.1479 86.5418 49.3239 86.4991 49.4697 86.4136C49.6156 86.3281 49.7337 86.2074 49.8243 86.0516C49.9148 85.8957 49.9801 85.7121 50.0204 85.5009C50.0656 85.2897 50.0883 85.0559 50.0883 84.7994V83.9396C50.0883 83.6831 50.0656 83.4493 50.0204 83.2381C49.9801 83.0269 49.9148 82.8433 49.8243 82.6874C49.7337 82.5316 49.6156 82.4109 49.4697 82.3254C49.3239 82.2399 49.1479 82.1972 48.9417 82.1972C48.7356 82.1972 48.5596 82.2399 48.4137 82.3254C48.2679 82.4109 48.1497 82.5316 48.0592 82.6874C47.9687 82.8433 47.9008 83.0269 47.8556 83.2381C47.8153 83.4493 47.7952 83.6831 47.7952 83.9396V84.7994C47.7952 85.0559 47.8153 85.2897 47.8556 85.5009C47.9008 85.7121 47.9687 85.8957 48.0592 86.0516C48.1497 86.2074 48.2679 86.3281 48.4137 86.4136C48.5596 86.4991 48.7356 86.5418 48.9417 86.5418ZM55.222 87.002H51.7674V86.3533L53.4871 84.7693C53.7335 84.543 53.9397 84.3041 54.1057 84.0527C54.2716 83.7962 54.3546 83.5398 54.3546 83.2833V83.1928C54.3546 82.9012 54.2741 82.6648 54.1132 82.4838C53.9523 82.3028 53.7084 82.2122 53.3815 82.2122C53.2206 82.2122 53.0798 82.2349 52.9591 82.2801C52.8385 82.3254 52.7329 82.3882 52.6423 82.4687C52.5569 82.5492 52.4839 82.6447 52.4236 82.7553C52.3683 82.8609 52.323 82.9766 52.2878 83.1023L51.7221 82.8836C51.7724 82.7277 51.8403 82.5768 51.9258 82.431C52.0163 82.2801 52.1269 82.1469 52.2577 82.0312C52.3934 81.9156 52.5543 81.8225 52.7404 81.7521C52.9315 81.6817 53.1553 81.6465 53.4117 81.6465C53.6682 81.6465 53.897 81.6842 54.0981 81.7597C54.2993 81.8351 54.4677 81.9407 54.6035 82.0765C54.7393 82.2122 54.8423 82.3732 54.9127 82.5592C54.9882 82.7453 55.0259 82.9514 55.0259 83.1777C55.0259 83.3839 54.9957 83.575 54.9354 83.751C54.8801 83.927 54.8021 84.0954 54.7015 84.2564C54.601 84.4122 54.4778 84.5656 54.3319 84.7165C54.1911 84.8673 54.0378 85.0182 53.8718 85.169L52.4538 86.4438H55.222V87.002ZM59.4808 82.2952H57.1727L57.0218 84.3016H57.0746C57.2003 84.1256 57.3411 83.9848 57.497 83.8792C57.6579 83.7736 57.8767 83.7208 58.1532 83.7208C58.3795 83.7208 58.5882 83.7585 58.7793 83.834C58.9704 83.9094 59.1363 84.0175 59.2771 84.1583C59.4179 84.2941 59.526 84.4625 59.6015 84.6637C59.6819 84.8648 59.7221 85.0936 59.7221 85.3501C59.7221 85.6065 59.6819 85.8429 59.6015 86.0591C59.521 86.2703 59.4028 86.4538 59.2469 86.6097C59.0961 86.7606 58.91 86.8788 58.6888 86.9642C58.4725 87.0497 58.2261 87.0925 57.9496 87.0925C57.7283 87.0925 57.5322 87.0673 57.3612 87.017C57.1953 86.9668 57.0469 86.8989 56.9162 86.8134C56.7855 86.7279 56.6698 86.6324 56.5692 86.5268C56.4737 86.4212 56.3857 86.3105 56.3052 86.1949L56.7804 85.8328C56.8458 85.9384 56.9137 86.034 56.9841 86.1194C57.0595 86.2049 57.14 86.2778 57.2255 86.3382C57.316 86.3985 57.4191 86.4463 57.5347 86.4815C57.6504 86.5117 57.7887 86.5268 57.9496 86.5268C58.3116 86.5268 58.5857 86.4312 58.7717 86.2401C58.9578 86.049 59.0508 85.78 59.0508 85.433V85.3576C59.0508 85.0106 58.9578 84.7416 58.7717 84.5505C58.5857 84.3594 58.3116 84.2639 57.9496 84.2639C57.7082 84.2639 57.5171 84.3092 57.3763 84.3997C57.2405 84.4852 57.1173 84.5882 57.0067 84.7089L56.4712 84.6335L56.6597 81.737H59.4808V82.2952ZM62.51 87.0925C61.8815 87.0925 61.4214 86.8536 61.1297 86.3759C60.8431 85.8982 60.6998 85.2294 60.6998 84.3695C60.6998 83.5096 60.8431 82.8408 61.1297 82.3631C61.4214 81.8854 61.8815 81.6465 62.51 81.6465C63.1386 81.6465 63.5962 81.8854 63.8828 82.3631C64.1745 82.8408 64.3203 83.5096 64.3203 84.3695C64.3203 85.2294 64.1745 85.8982 63.8828 86.3759C63.5962 86.8536 63.1386 87.0925 62.51 87.0925ZM62.51 86.5418C62.7162 86.5418 62.8922 86.4991 63.038 86.4136C63.1839 86.3281 63.302 86.2074 63.3926 86.0516C63.4831 85.8957 63.5484 85.7121 63.5887 85.5009C63.6339 85.2897 63.6566 85.0559 63.6566 84.7994V83.9396C63.6566 83.6831 63.6339 83.4493 63.5887 83.2381C63.5484 83.0269 63.4831 82.8433 63.3926 82.6874C63.302 82.5316 63.1839 82.4109 63.038 82.3254C62.8922 82.2399 62.7162 82.1972 62.51 82.1972C62.3039 82.1972 62.1279 82.2399 61.982 82.3254C61.8362 82.4109 61.718 82.5316 61.6275 82.6874C61.537 82.8433 61.4691 83.0269 61.4239 83.2381C61.3836 83.4493 61.3635 83.6831 61.3635 83.9396V84.7994C61.3635 85.0559 61.3836 85.2897 61.4239 85.5009C61.4691 85.7121 61.537 85.8957 61.6275 86.0516C61.718 86.2074 61.8362 86.3281 61.982 86.4136C62.1279 86.4991 62.3039 86.5418 62.51 86.5418ZM68.7903 87.002H65.3357V86.3533L67.0554 84.7693C67.3018 84.543 67.508 84.3041 67.674 84.0527C67.8399 83.7962 67.9229 83.5398 67.9229 83.2833V83.1928C67.9229 82.9012 67.8424 82.6648 67.6815 82.4838C67.5206 82.3028 67.2767 82.2122 66.9498 82.2122C66.7889 82.2122 66.6481 82.2349 66.5274 82.2801C66.4068 82.3254 66.3012 82.3882 66.2106 82.4687C66.1252 82.5492 66.0522 82.6447 65.9919 82.7553C65.9366 82.8609 65.8913 82.9766 65.8561 83.1023L65.2904 82.8836C65.3407 82.7277 65.4086 82.5768 65.4941 82.431C65.5846 82.2801 65.6952 82.1469 65.826 82.0312C65.9617 81.9156 66.1226 81.8225 66.3087 81.7521C66.4998 81.6817 66.7236 81.6465 66.98 81.6465C67.2365 81.6465 67.4653 81.6842 67.6664 81.7597C67.8676 81.8351 68.036 81.9407 68.1718 82.0765C68.3076 82.2122 68.4106 82.3732 68.481 82.5592C68.5565 82.7453 68.5942 82.9514 68.5942 83.1777C68.5942 83.3839 68.564 83.575 68.5037 83.751C68.4484 83.927 68.3704 84.0954 68.2698 84.2564C68.1693 84.4122 68.0461 84.5656 67.9002 84.7165C67.7594 84.8673 67.6061 85.0182 67.4401 85.169L66.0221 86.4438H68.7903V87.002ZM71.5556 87.0925C70.927 87.0925 70.4669 86.8536 70.1752 86.3759C69.8886 85.8982 69.7453 85.2294 69.7453 84.3695C69.7453 83.5096 69.8886 82.8408 70.1752 82.3631C70.4669 81.8854 70.927 81.6465 71.5556 81.6465C72.1842 81.6465 72.6418 81.8854 72.9284 82.3631C73.22 82.8408 73.3659 83.5096 73.3659 84.3695C73.3659 85.2294 73.22 85.8982 72.9284 86.3759C72.6418 86.8536 72.1842 87.0925 71.5556 87.0925ZM71.5556 86.5418C71.7618 86.5418 71.9378 86.4991 72.0836 86.4136C72.2294 86.3281 72.3476 86.2074 72.4381 86.0516C72.5286 85.8957 72.594 85.7121 72.6342 85.5009C72.6795 85.2897 72.7021 85.0559 72.7021 84.7994V83.9396C72.7021 83.6831 72.6795 83.4493 72.6342 83.2381C72.594 83.0269 72.5286 82.8433 72.4381 82.6874C72.3476 82.5316 72.2294 82.4109 72.0836 82.3254C71.9378 82.2399 71.7618 82.1972 71.5556 82.1972C71.3494 82.1972 71.1734 82.2399 71.0276 82.3254C70.8818 82.4109 70.7636 82.5316 70.6731 82.6874C70.5826 82.8433 70.5147 83.0269 70.4694 83.2381C70.4292 83.4493 70.4091 83.6831 70.4091 83.9396V84.7994C70.4091 85.0559 70.4292 85.2897 70.4694 85.5009C70.5147 85.7121 70.5826 85.8957 70.6731 86.0516C70.7636 86.2074 70.8818 86.3281 71.0276 86.4136C71.1734 86.4991 71.3494 86.5418 71.5556 86.5418ZM74.4793 87.002V86.4438H75.9501V82.2047H75.8973L74.5698 83.4417L74.2002 83.042L75.5956 81.737H76.5837V86.4438H77.9414V87.002H74.4793ZM79.002 87.002V86.4438H80.4729V82.2047H80.4201L79.0925 83.4417L78.7229 83.042L80.1184 81.737H81.1065V86.4438H82.4642V87.002H79.002ZM84.8297 83.9697C85.1867 83.9697 85.4533 83.8893 85.6293 83.7284C85.8103 83.5624 85.9008 83.3512 85.9008 83.0948V83.042C85.9008 82.7654 85.8128 82.5592 85.6368 82.4234C85.4658 82.2826 85.2395 82.2122 84.9579 82.2122C84.6864 82.2122 84.4651 82.2726 84.2942 82.3933C84.1232 82.5089 83.9824 82.6673 83.8718 82.8685L83.4041 82.5064C83.4695 82.4008 83.5474 82.2977 83.6379 82.1972C83.7335 82.0916 83.8441 81.9985 83.9698 81.9181C84.0955 81.8376 84.2414 81.7722 84.4073 81.722C84.5733 81.6717 84.7618 81.6465 84.973 81.6465C85.1943 81.6465 85.403 81.6767 85.5991 81.737C85.7952 81.7924 85.9637 81.8778 86.1045 81.9935C86.2503 82.1041 86.3634 82.2424 86.4439 82.4084C86.5294 82.5743 86.5721 82.7629 86.5721 82.9741C86.5721 83.145 86.5445 83.2984 86.4891 83.4342C86.4389 83.57 86.3685 83.6881 86.2779 83.7887C86.1874 83.8893 86.0793 83.9748 85.9536 84.0452C85.8329 84.1156 85.7022 84.1684 85.5614 84.2036V84.2337C85.7022 84.2639 85.8379 84.3142 85.9687 84.3846C86.1045 84.45 86.2226 84.538 86.3232 84.6486C86.4288 84.7542 86.5118 84.8849 86.5721 85.0408C86.6375 85.1917 86.6702 85.3652 86.6702 85.5613C86.6702 85.7876 86.6274 85.9962 86.5419 86.1873C86.4565 86.3734 86.3358 86.5343 86.1799 86.6701C86.024 86.8008 85.8354 86.9039 85.6142 86.9793C85.3929 87.0548 85.149 87.0925 84.8825 87.0925C84.6562 87.0925 84.4551 87.0673 84.2791 87.017C84.1031 86.9668 83.9472 86.8989 83.8114 86.8134C83.6757 86.7279 83.555 86.6324 83.4494 86.5268C83.3488 86.4212 83.2583 86.3105 83.1778 86.1949L83.653 85.8328C83.7184 85.9384 83.7888 86.034 83.8642 86.1194C83.9447 86.2049 84.0327 86.2778 84.1282 86.3382C84.2238 86.3985 84.3319 86.4463 84.4526 86.4815C84.5733 86.5117 84.7141 86.5268 84.875 86.5268C85.2471 86.5268 85.5287 86.4438 85.7198 86.2778C85.9109 86.1069 86.0064 85.8655 86.0064 85.5537V85.4934C86.0064 85.1816 85.9109 84.9428 85.7198 84.7768C85.5287 84.6058 85.2471 84.5204 84.875 84.5204H84.2565V83.9697H84.8297ZM89.3525 83.9697C89.7095 83.9697 89.976 83.8893 90.152 83.7284C90.3331 83.5624 90.4236 83.3512 90.4236 83.0948V83.042C90.4236 82.7654 90.3356 82.5592 90.1596 82.4234C89.9886 82.2826 89.7623 82.2122 89.4807 82.2122C89.2092 82.2122 88.9879 82.2726 88.8169 82.3933C88.646 82.5089 88.5052 82.6673 88.3945 82.8685L87.9269 82.5064C87.9923 82.4008 88.0702 82.2977 88.1607 82.1972C88.2563 82.0916 88.3669 81.9985 88.4926 81.9181C88.6183 81.8376 88.7641 81.7722 88.9301 81.722C89.096 81.6717 89.2846 81.6465 89.4958 81.6465C89.7171 81.6465 89.9257 81.6767 90.1219 81.737C90.318 81.7924 90.4864 81.8778 90.6272 81.9935C90.7731 82.1041 90.8862 82.2424 90.9667 82.4084C91.0521 82.5743 91.0949 82.7629 91.0949 82.9741C91.0949 83.145 91.0672 83.2984 91.0119 83.4342C90.9616 83.57 90.8912 83.6881 90.8007 83.7887C90.7102 83.8893 90.6021 83.9748 90.4764 84.0452C90.3557 84.1156 90.2249 84.1684 90.0841 84.2036V84.2337C90.2249 84.2639 90.3607 84.3142 90.4915 84.3846C90.6272 84.45 90.7454 84.538 90.846 84.6486C90.9516 84.7542 91.0345 84.8849 91.0949 85.0408C91.1603 85.1917 91.1929 85.3652 91.1929 85.5613C91.1929 85.7876 91.1502 85.9962 91.0647 86.1873C90.9792 86.3734 90.8585 86.5343 90.7027 86.6701C90.5468 86.8008 90.3582 86.9039 90.1369 86.9793C89.9157 87.0548 89.6718 87.0925 89.4053 87.0925C89.179 87.0925 88.9779 87.0673 88.8019 87.017C88.6259 86.9668 88.47 86.8989 88.3342 86.8134C88.1984 86.7279 88.0777 86.6324 87.9721 86.5268C87.8716 86.4212 87.7811 86.3105 87.7006 86.1949L88.1758 85.8328C88.2412 85.9384 88.3116 86.034 88.387 86.1194C88.4675 86.2049 88.5555 86.2778 88.651 86.3382C88.7465 86.3985 88.8547 86.4463 88.9753 86.4815C89.096 86.5117 89.2368 86.5268 89.3977 86.5268C89.7699 86.5268 90.0515 86.4438 90.2425 86.2778C90.4336 86.1069 90.5292 85.8655 90.5292 85.5537V85.4934C90.5292 85.1816 90.4336 84.9428 90.2425 84.7768C90.0515 84.6058 89.7699 84.5204 89.3977 84.5204H88.7792V83.9697H89.3525ZM94.177 87.0925C93.9054 87.0925 93.659 87.0472 93.4378 86.9567C93.2215 86.8612 93.0355 86.7279 92.8796 86.5569C92.7287 86.3809 92.6131 86.1672 92.5326 85.9158C92.4522 85.6644 92.4119 85.3828 92.4119 85.071C92.4119 84.6788 92.4698 84.3117 92.5854 83.9697C92.7011 83.6228 92.8494 83.3085 93.0304 83.0269C93.2165 82.7402 93.4202 82.4888 93.6414 82.2726C93.8627 82.0513 94.0789 81.8728 94.2901 81.737H95.1047C94.8231 81.9432 94.5717 82.1444 94.3504 82.3405C94.1292 82.5366 93.9356 82.7428 93.7696 82.959C93.6037 83.1702 93.4629 83.399 93.3472 83.6454C93.2316 83.8868 93.1386 84.1608 93.0682 84.4676L93.1059 84.4826C93.2316 84.2664 93.3925 84.0879 93.5886 83.9471C93.7898 83.8013 94.0512 83.7284 94.3731 83.7284C94.5994 83.7284 94.808 83.7661 94.9991 83.8415C95.1902 83.9169 95.3536 84.025 95.4894 84.1658C95.6252 84.3066 95.7308 84.4776 95.8062 84.6788C95.8867 84.8799 95.9269 85.1037 95.9269 85.3501C95.9269 85.6065 95.8842 85.8429 95.7987 86.0591C95.7182 86.2703 95.6 86.4538 95.4442 86.6097C95.2933 86.7606 95.1098 86.8788 94.8935 86.9642C94.6773 87.0497 94.4384 87.0925 94.177 87.0925ZM94.1694 86.5418C94.5164 86.5418 94.7854 86.4463 94.9765 86.2552C95.1726 86.0641 95.2707 85.7901 95.2707 85.433V85.3727C95.2707 85.0157 95.1726 84.7416 94.9765 84.5505C94.7854 84.3594 94.5164 84.2639 94.1694 84.2639C93.8224 84.2639 93.5509 84.3594 93.3548 84.5505C93.1637 84.7416 93.0682 85.0157 93.0682 85.3727V85.433C93.0682 85.7901 93.1637 86.0641 93.3548 86.2552C93.5509 86.4463 93.8224 86.5418 94.1694 86.5418ZM100.45 87.002H96.9951V86.3533L98.7148 84.7693C98.9612 84.543 99.1674 84.3041 99.3333 84.0527C99.4993 83.7962 99.5823 83.5398 99.5823 83.2833V83.1928C99.5823 82.9012 99.5018 82.6648 99.3409 82.4838C99.18 82.3028 98.9361 82.2122 98.6092 82.2122C98.4483 82.2122 98.3075 82.2349 98.1868 82.2801C98.0661 82.3254 97.9605 82.3882 97.87 82.4687C97.7845 82.5492 97.7116 82.6447 97.6513 82.7553C97.596 82.8609 97.5507 82.9766 97.5155 83.1023L96.9498 82.8836C97.0001 82.7277 97.068 82.5768 97.1535 82.431C97.244 82.2801 97.3546 82.1469 97.4853 82.0312C97.6211 81.9156 97.782 81.8225 97.9681 81.7521C98.1592 81.6817 98.3829 81.6465 98.6394 81.6465C98.8959 81.6465 99.1247 81.6842 99.3258 81.7597C99.5269 81.8351 99.6954 81.9407 99.8312 82.0765C99.9669 82.2122 100.07 82.3732 100.14 82.5592C100.216 82.7453 100.254 82.9514 100.254 83.1777C100.254 83.3839 100.223 83.575 100.163 83.751C100.108 83.927 100.03 84.0954 99.9292 84.2564C99.8287 84.4122 99.7055 84.5656 99.5596 84.7165C99.4188 84.8673 99.2655 85.0182 99.0995 85.169L97.6815 86.4438H100.45V87.002ZM103.215 87.0925C102.586 87.0925 102.126 86.8536 101.835 86.3759C101.548 85.8982 101.405 85.2294 101.405 84.3695C101.405 83.5096 101.548 82.8408 101.835 82.3631C102.126 81.8854 102.586 81.6465 103.215 81.6465C103.844 81.6465 104.301 81.8854 104.588 82.3631C104.879 82.8408 105.025 83.5096 105.025 84.3695C105.025 85.2294 104.879 85.8982 104.588 86.3759C104.301 86.8536 103.844 87.0925 103.215 87.0925ZM103.215 86.5418C103.421 86.5418 103.597 86.4991 103.743 86.4136C103.889 86.3281 104.007 86.2074 104.097 86.0516C104.188 85.8957 104.253 85.7121 104.294 85.5009C104.339 85.2897 104.361 85.0559 104.361 84.7994V83.9396C104.361 83.6831 104.339 83.4493 104.294 83.2381C104.253 83.0269 104.188 82.8433 104.097 82.6874C104.007 82.5316 103.889 82.4109 103.743 82.3254C103.597 82.2399 103.421 82.1972 103.215 82.1972C103.009 82.1972 102.833 82.2399 102.687 82.3254C102.541 82.4109 102.423 82.5316 102.332 82.6874C102.242 82.8433 102.174 83.0269 102.129 83.2381C102.089 83.4493 102.068 83.6831 102.068 83.9396V84.7994C102.068 85.0559 102.089 85.2897 102.129 85.5009C102.174 85.7121 102.242 85.8957 102.332 86.0516C102.423 86.2074 102.541 86.3281 102.687 86.4136C102.833 86.4991 103.009 86.5418 103.215 86.5418Z" fill="#4C4748"/>
<g clip-path="url(#clip0_3650_27453)">
<mask id="path-11-inside-2_3650_27453" fill="white">
<path d="M12.5714 120.173H515.429V153.287H12.5714V120.173Z"/>
</mask>
<path d="M12.5714 120.173H515.429V153.287H12.5714V120.173Z" fill="#F6F6F6"/>
<path d="M12.5714 120.487H515.429V119.859H12.5714V120.487ZM515.429 152.973H12.5714V153.602H515.429V152.973Z" fill="#F5F5F5" mask="url(#path-11-inside-2_3650_27453)"/>
<path d="M12.7286 125.202C12.7286 122.511 14.9096 120.33 17.6 120.33H515.271V153.13H12.7286V125.202Z" stroke="#E8E8E8" stroke-width="0.314286"/>
<path d="M26.8276 134.531H26.7836L26.2996 135.525L24.9532 137.981L23.6068 135.525L23.1228 134.531H23.0788V139.23H22.1284V133.088H23.3076L24.9532 136.212H25.006L26.6516 133.088H27.778V139.23H26.8276V134.531ZM31.0204 139.336C30.6918 139.336 30.3985 139.28 30.1404 139.169C29.8822 139.057 29.6622 138.899 29.4804 138.693C29.2985 138.482 29.1577 138.23 29.058 137.937C28.9641 137.637 28.9172 137.306 28.9172 136.942C28.9172 136.578 28.9641 136.25 29.058 135.957C29.1577 135.657 29.2985 135.405 29.4804 135.2C29.6622 134.989 29.8822 134.827 30.1404 134.716C30.3985 134.604 30.6918 134.549 31.0204 134.549C31.3548 134.549 31.6481 134.607 31.9004 134.725C32.1585 134.842 32.3726 135.006 32.5428 135.217C32.7129 135.423 32.839 135.663 32.9212 135.939C33.0092 136.215 33.0532 136.511 33.0532 136.828V137.189H29.9116V137.338C29.9116 137.69 30.0142 137.981 30.2196 138.209C30.4308 138.432 30.73 138.544 31.1172 138.544C31.3988 138.544 31.6364 138.482 31.83 138.359C32.0236 138.236 32.1878 138.069 32.3228 137.857L32.886 138.412C32.7158 138.693 32.4694 138.919 32.1468 139.089C31.8241 139.254 31.4486 139.336 31.0204 139.336ZM31.0204 135.297C30.8561 135.297 30.7036 135.326 30.5628 135.385C30.4278 135.443 30.3105 135.525 30.2108 135.631C30.1169 135.737 30.0436 135.863 29.9908 136.009C29.938 136.156 29.9116 136.317 29.9116 136.493V136.555H32.0412V136.467C32.0412 136.115 31.9502 135.833 31.7684 135.622C31.5865 135.405 31.3372 135.297 31.0204 135.297ZM35.3822 139.23C35.0478 139.23 34.7955 139.145 34.6254 138.975C34.4553 138.799 34.3702 138.553 34.3702 138.236V135.437H33.6574V134.654H34.0446C34.203 134.654 34.3115 134.619 34.3702 134.549C34.4347 134.478 34.467 134.364 34.467 134.205V133.405H35.3294V134.654H36.2886V135.437H35.3294V138.447H36.2182V139.23H35.3822ZM37.3291 132.718H38.2883V135.411H38.3323C38.432 135.165 38.5816 134.959 38.7811 134.795C38.9864 134.631 39.2651 134.549 39.6171 134.549C40.0864 134.549 40.4501 134.704 40.7083 135.015C40.9723 135.32 41.1043 135.757 41.1043 136.326V139.23H40.1451V136.441C40.1451 135.731 39.8576 135.376 39.2827 135.376C39.1595 135.376 39.0363 135.393 38.9131 135.429C38.7957 135.458 38.6901 135.505 38.5963 135.569C38.5024 135.634 38.4261 135.716 38.3675 135.816C38.3147 135.916 38.2883 136.03 38.2883 136.159V139.23H37.3291V132.718ZM44.229 139.336C43.9122 139.336 43.6218 139.28 43.3578 139.169C43.0996 139.057 42.8796 138.899 42.6978 138.693C42.5159 138.482 42.3751 138.23 42.2754 137.937C42.1756 137.637 42.1258 137.306 42.1258 136.942C42.1258 136.578 42.1756 136.25 42.2754 135.957C42.3751 135.657 42.5159 135.405 42.6978 135.2C42.8796 134.989 43.0996 134.827 43.3578 134.716C43.6218 134.604 43.9122 134.549 44.229 134.549C44.5458 134.549 44.8332 134.604 45.0914 134.716C45.3554 134.827 45.5783 134.989 45.7602 135.2C45.942 135.405 46.0828 135.657 46.1826 135.957C46.2823 136.25 46.3322 136.578 46.3322 136.942C46.3322 137.306 46.2823 137.637 46.1826 137.937C46.0828 138.23 45.942 138.482 45.7602 138.693C45.5783 138.899 45.3554 139.057 45.0914 139.169C44.8332 139.28 44.5458 139.336 44.229 139.336ZM44.229 138.544C44.5575 138.544 44.8215 138.444 45.021 138.245C45.2204 138.039 45.3202 137.734 45.3202 137.329V136.555C45.3202 136.15 45.2204 135.848 45.021 135.649C44.8215 135.443 44.5575 135.341 44.229 135.341C43.9004 135.341 43.6364 135.443 43.437 135.649C43.2375 135.848 43.1378 136.15 43.1378 136.555V137.329C43.1378 137.734 43.2375 138.039 43.437 138.245C43.6364 138.444 43.9004 138.544 44.229 138.544ZM50.2786 138.473H50.2346C50.1348 138.743 49.9706 138.954 49.7418 139.107C49.5188 139.26 49.2548 139.336 48.9498 139.336C48.369 139.336 47.9202 139.128 47.6034 138.711C47.2866 138.289 47.1282 137.699 47.1282 136.942C47.1282 136.185 47.2866 135.599 47.6034 135.182C47.9202 134.76 48.369 134.549 48.9498 134.549C49.2548 134.549 49.5188 134.625 49.7418 134.777C49.9706 134.924 50.1348 135.135 50.2346 135.411H50.2786V132.718H51.2378V139.23H50.2786V138.473ZM49.2402 138.509C49.5335 138.509 49.7799 138.438 49.9794 138.297C50.1788 138.151 50.2786 137.96 50.2786 137.725V136.159C50.2786 135.924 50.1788 135.737 49.9794 135.596C49.7799 135.449 49.5335 135.376 49.2402 135.376C48.9058 135.376 48.6388 135.484 48.4394 135.701C48.2399 135.913 48.1402 136.194 48.1402 136.546V137.338C48.1402 137.69 48.2399 137.975 48.4394 138.192C48.6388 138.403 48.9058 138.509 49.2402 138.509ZM56.4133 135.833L55.7357 134.531H55.7093V139.23H54.7589V133.088H55.8677L57.8741 136.485L58.5517 137.787H58.5781V133.088H59.5285V139.23H58.4197L56.4133 135.833ZM64.3233 139.23C64.071 139.23 63.8774 139.16 63.7425 139.019C63.6076 138.872 63.5254 138.688 63.4961 138.465H63.4521C63.3641 138.752 63.2028 138.969 62.9681 139.116C62.7334 139.262 62.4489 139.336 62.1145 139.336C61.6393 139.336 61.2726 139.213 61.0145 138.966C60.7622 138.72 60.6361 138.388 60.6361 137.972C60.6361 137.514 60.8004 137.171 61.1289 136.942C61.4633 136.713 61.9502 136.599 62.5897 136.599H63.4169V136.212C63.4169 135.93 63.3406 135.713 63.1881 135.561C63.0356 135.408 62.798 135.332 62.4753 135.332C62.2054 135.332 61.9854 135.39 61.8153 135.508C61.6452 135.625 61.5014 135.775 61.3841 135.957L60.8121 135.437C60.9646 135.179 61.1788 134.968 61.4545 134.804C61.7302 134.634 62.091 134.549 62.5369 134.549C63.1294 134.549 63.5841 134.686 63.9009 134.962C64.2177 135.238 64.3761 135.634 64.3761 136.15V138.447H64.8601V139.23H64.3233ZM62.3873 138.605C62.6865 138.605 62.9329 138.541 63.1265 138.412C63.3201 138.277 63.4169 138.098 63.4169 137.875V137.215H62.6073C61.9444 137.215 61.6129 137.42 61.6129 137.831V137.989C61.6129 138.195 61.6804 138.35 61.8153 138.456C61.9561 138.556 62.1468 138.605 62.3873 138.605ZM65.8002 139.23V134.654H66.7594V135.411H66.8034C66.8503 135.294 66.906 135.182 66.9706 135.077C67.041 134.971 67.1231 134.88 67.217 134.804C67.3167 134.722 67.4311 134.66 67.5602 134.619C67.6951 134.572 67.8506 134.549 68.0266 134.549C68.3375 134.549 68.6132 134.625 68.8538 134.777C69.0943 134.93 69.2703 135.165 69.3818 135.481H69.4082C69.4903 135.223 69.6487 135.003 69.8834 134.821C70.118 134.64 70.4202 134.549 70.7898 134.549C71.2474 134.549 71.6023 134.704 71.8546 135.015C72.1068 135.32 72.233 135.757 72.233 136.326V139.23H71.2738V136.441C71.2738 136.089 71.2063 135.825 71.0714 135.649C70.9364 135.467 70.7223 135.376 70.429 135.376C70.3058 135.376 70.1884 135.393 70.077 135.429C69.9655 135.458 69.8658 135.505 69.7778 135.569C69.6956 135.634 69.6282 135.716 69.5754 135.816C69.5226 135.916 69.4962 136.03 69.4962 136.159V139.23H68.537V136.441C68.537 135.731 68.2583 135.376 67.701 135.376C67.5836 135.376 67.4663 135.393 67.349 135.429C67.2375 135.458 67.1378 135.505 67.0498 135.569C66.9618 135.634 66.8914 135.716 66.8386 135.816C66.7858 135.916 66.7594 136.03 66.7594 136.159V139.23H65.8002ZM75.3555 139.336C75.027 139.336 74.7337 139.28 74.4755 139.169C74.2174 139.057 73.9974 138.899 73.8155 138.693C73.6337 138.482 73.4929 138.23 73.3931 137.937C73.2993 137.637 73.2523 137.306 73.2523 136.942C73.2523 136.578 73.2993 136.25 73.3931 135.957C73.4929 135.657 73.6337 135.405 73.8155 135.2C73.9974 134.989 74.2174 134.827 74.4755 134.716C74.7337 134.604 75.027 134.549 75.3555 134.549C75.6899 134.549 75.9833 134.607 76.2355 134.725C76.4937 134.842 76.7078 135.006 76.8779 135.217C77.0481 135.423 77.1742 135.663 77.2563 135.939C77.3443 136.215 77.3883 136.511 77.3883 136.828V137.189H74.2467V137.338C74.2467 137.69 74.3494 137.981 74.5547 138.209C74.7659 138.432 75.0651 138.544 75.4523 138.544C75.7339 138.544 75.9715 138.482 76.1651 138.359C76.3587 138.236 76.523 138.069 76.6579 137.857L77.2211 138.412C77.051 138.693 76.8046 138.919 76.4819 139.089C76.1593 139.254 75.7838 139.336 75.3555 139.336ZM75.3555 135.297C75.1913 135.297 75.0387 135.326 74.8979 135.385C74.763 135.443 74.6457 135.525 74.5459 135.631C74.4521 135.737 74.3787 135.863 74.3259 136.009C74.2731 136.156 74.2467 136.317 74.2467 136.493V136.555H76.3763V136.467C76.3763 136.115 76.2854 135.833 76.1035 135.622C75.9217 135.405 75.6723 135.297 75.3555 135.297Z" fill="#606060"/>
<rect x="12.7286" y="153.444" width="251.114" height="32.8" stroke="#E8E8E8" stroke-width="0.314286"/>
<path d="M26.0355 172.344L25.4195 170.532H22.9379L22.3219 172.344H21.5739L23.7211 166.202H24.6627L26.8099 172.344H26.0355ZM24.1963 166.888H24.1523L23.1139 169.88H25.2347L24.1963 166.888ZM27.757 172.344V167.804H28.461V168.543H28.4962C28.549 168.426 28.6076 168.317 28.6722 168.217C28.7426 168.112 28.8247 168.021 28.9186 167.944C29.0183 167.868 29.1327 167.81 29.2618 167.768C29.3908 167.722 29.5434 167.698 29.7194 167.698C30.0186 167.698 30.2943 167.771 30.5466 167.918C30.7988 168.059 30.9866 168.294 31.1098 168.622H31.1274C31.2095 168.376 31.362 168.162 31.585 167.98C31.8138 167.792 32.1218 167.698 32.509 167.698C32.9724 167.698 33.3332 167.851 33.5914 168.156C33.8554 168.455 33.9874 168.88 33.9874 169.432V172.344H33.2834V169.555C33.2834 169.15 33.2042 168.845 33.0458 168.64C32.8874 168.434 32.6351 168.332 32.289 168.332C32.1482 168.332 32.0132 168.349 31.8842 168.384C31.761 168.42 31.6495 168.472 31.5498 168.543C31.45 168.613 31.3708 168.704 31.3122 168.816C31.2535 168.921 31.2242 169.047 31.2242 169.194V172.344H30.5202V169.555C30.5202 169.15 30.441 168.845 30.2826 168.64C30.1242 168.434 29.8778 168.332 29.5434 168.332C29.4026 168.332 29.2676 168.349 29.1386 168.384C29.0095 168.42 28.8951 168.472 28.7954 168.543C28.6956 168.613 28.6135 168.704 28.549 168.816C28.4903 168.921 28.461 169.047 28.461 169.194V172.344H27.757ZM37.1558 172.45C36.8507 172.45 36.572 172.394 36.3198 172.283C36.0675 172.171 35.8504 172.013 35.6686 171.808C35.4926 171.596 35.3547 171.347 35.255 171.06C35.1552 170.766 35.1054 170.438 35.1054 170.074C35.1054 169.716 35.1552 169.391 35.255 169.097C35.3547 168.804 35.4926 168.555 35.6686 168.349C35.8504 168.138 36.0675 167.977 36.3198 167.865C36.572 167.754 36.8507 167.698 37.1558 167.698C37.4608 167.698 37.7366 167.754 37.983 167.865C38.2352 167.977 38.4523 168.138 38.6342 168.349C38.816 168.555 38.9568 168.804 39.0566 169.097C39.1563 169.391 39.2062 169.716 39.2062 170.074C39.2062 170.438 39.1563 170.766 39.0566 171.06C38.9568 171.347 38.816 171.596 38.6342 171.808C38.4523 172.013 38.2352 172.171 37.983 172.283C37.7366 172.394 37.4608 172.45 37.1558 172.45ZM37.1558 171.825C37.5371 171.825 37.848 171.708 38.0886 171.473C38.3291 171.239 38.4494 170.881 38.4494 170.4V169.748C38.4494 169.267 38.3291 168.91 38.0886 168.675C37.848 168.44 37.5371 168.323 37.1558 168.323C36.7744 168.323 36.4635 168.44 36.223 168.675C35.9824 168.91 35.8622 169.267 35.8622 169.748V170.4C35.8622 170.881 35.9824 171.239 36.223 171.473C36.4635 171.708 36.7744 171.825 37.1558 171.825ZM43.1624 171.605H43.1272C43.0803 171.711 43.0216 171.816 42.9512 171.922C42.8867 172.022 42.8045 172.113 42.7048 172.195C42.6051 172.271 42.4848 172.333 42.344 172.38C42.2032 172.427 42.0389 172.45 41.8512 172.45C41.3819 172.45 41.0093 172.3 40.7336 172.001C40.4579 171.696 40.32 171.268 40.32 170.716V167.804H41.024V170.593C41.024 171.409 41.3701 171.816 42.0624 171.816C42.2032 171.816 42.3381 171.799 42.4672 171.764C42.6021 171.728 42.7195 171.676 42.8192 171.605C42.9248 171.535 43.0069 171.447 43.0656 171.341C43.1301 171.23 43.1624 171.098 43.1624 170.945V167.804H43.8664V172.344H43.1624V171.605ZM45.3656 172.344V167.804H46.0696V168.543H46.1048C46.2162 168.285 46.3717 168.079 46.5712 167.927C46.7765 167.774 47.0493 167.698 47.3896 167.698C47.8589 167.698 48.2285 167.851 48.4984 168.156C48.7741 168.455 48.912 168.88 48.912 169.432V172.344H48.208V169.555C48.208 168.739 47.8648 168.332 47.1784 168.332C47.0376 168.332 46.8997 168.349 46.7648 168.384C46.6357 168.42 46.5184 168.472 46.4128 168.543C46.3072 168.613 46.2221 168.704 46.1576 168.816C46.0989 168.921 46.0696 169.047 46.0696 169.194V172.344H45.3656ZM51.3703 172.344C51.1239 172.344 50.9362 172.277 50.8071 172.142C50.6839 172.001 50.6223 171.819 50.6223 171.596V168.42H49.8743V167.804H50.2967C50.4493 167.804 50.5519 167.774 50.6047 167.716C50.6634 167.651 50.6927 167.543 50.6927 167.39V166.545H51.3263V167.804H52.3207V168.42H51.3263V171.728H52.2503V172.344H51.3703Z" fill="#8E8E8E"/>
<mask id="path-17-inside-3_3650_27453" fill="white">
<path d="M12.5714 186.402H515.429V219.516H12.5714V186.402Z"/>
</mask>
<path d="M12.5714 186.402H515.429V219.516H12.5714V186.402Z" fill="#F6F6F6"/>
<path d="M12.5714 186.716H515.429V186.087H12.5714V186.716ZM515.429 219.202H12.5714V219.83H515.429V219.202Z" fill="#F5F5F5" mask="url(#path-17-inside-3_3650_27453)"/>
<path d="M12.7286 191.43C12.7286 188.74 14.9096 186.559 17.6 186.559H515.271V219.359H12.7286V191.43Z" stroke="#E8E8E8" stroke-width="0.314286"/>
<path d="M26.8276 200.76H26.7836L26.2996 201.754L24.9532 204.209L23.6068 201.754L23.1228 200.76H23.0788V205.459H22.1284V199.316H23.3076L24.9532 202.44H25.006L26.6516 199.316H27.778V205.459H26.8276V200.76ZM31.0204 205.564C30.6918 205.564 30.3985 205.509 30.1404 205.397C29.8822 205.286 29.6622 205.127 29.4804 204.922C29.2985 204.711 29.1577 204.458 29.058 204.165C28.9641 203.866 28.9172 203.534 28.9172 203.171C28.9172 202.807 28.9641 202.478 29.058 202.185C29.1577 201.886 29.2985 201.634 29.4804 201.428C29.6622 201.217 29.8822 201.056 30.1404 200.944C30.3985 200.833 30.6918 200.777 31.0204 200.777C31.3548 200.777 31.6481 200.836 31.9004 200.953C32.1585 201.07 32.3726 201.235 32.5428 201.446C32.7129 201.651 32.839 201.892 32.9212 202.168C33.0092 202.443 33.0532 202.74 33.0532 203.056V203.417H29.9116V203.567C29.9116 203.919 30.0142 204.209 30.2196 204.438C30.4308 204.661 30.73 204.772 31.1172 204.772C31.3988 204.772 31.6364 204.711 31.83 204.588C32.0236 204.464 32.1878 204.297 32.3228 204.086L32.886 204.64C32.7158 204.922 32.4694 205.148 32.1468 205.318C31.8241 205.482 31.4486 205.564 31.0204 205.564ZM31.0204 201.525C30.8561 201.525 30.7036 201.554 30.5628 201.613C30.4278 201.672 30.3105 201.754 30.2108 201.86C30.1169 201.965 30.0436 202.091 29.9908 202.238C29.938 202.385 29.9116 202.546 29.9116 202.722V202.784H32.0412V202.696C32.0412 202.344 31.9502 202.062 31.7684 201.851C31.5865 201.634 31.3372 201.525 31.0204 201.525ZM35.3822 205.459C35.0478 205.459 34.7955 205.374 34.6254 205.204C34.4553 205.028 34.3702 204.781 34.3702 204.464V201.666H33.6574V200.883H34.0446C34.203 200.883 34.3115 200.848 34.3702 200.777C34.4347 200.707 34.467 200.592 34.467 200.434V199.633H35.3294V200.883H36.2886V201.666H35.3294V204.676H36.2182V205.459H35.3822ZM37.3291 198.947H38.2883V201.64H38.3323C38.432 201.393 38.5816 201.188 38.7811 201.024C38.9864 200.859 39.2651 200.777 39.6171 200.777C40.0864 200.777 40.4501 200.933 40.7083 201.244C40.9723 201.549 41.1043 201.986 41.1043 202.555V205.459H40.1451V202.669C40.1451 201.959 39.8576 201.604 39.2827 201.604C39.1595 201.604 39.0363 201.622 38.9131 201.657C38.7957 201.686 38.6901 201.733 38.5963 201.798C38.5024 201.862 38.4261 201.945 38.3675 202.044C38.3147 202.144 38.2883 202.258 38.2883 202.388V205.459H37.3291V198.947ZM44.229 205.564C43.9122 205.564 43.6218 205.509 43.3578 205.397C43.0996 205.286 42.8796 205.127 42.6978 204.922C42.5159 204.711 42.3751 204.458 42.2754 204.165C42.1756 203.866 42.1258 203.534 42.1258 203.171C42.1258 202.807 42.1756 202.478 42.2754 202.185C42.3751 201.886 42.5159 201.634 42.6978 201.428C42.8796 201.217 43.0996 201.056 43.3578 200.944C43.6218 200.833 43.9122 200.777 44.229 200.777C44.5458 200.777 44.8332 200.833 45.0914 200.944C45.3554 201.056 45.5783 201.217 45.7602 201.428C45.942 201.634 46.0828 201.886 46.1826 202.185C46.2823 202.478 46.3322 202.807 46.3322 203.171C46.3322 203.534 46.2823 203.866 46.1826 204.165C46.0828 204.458 45.942 204.711 45.7602 204.922C45.5783 205.127 45.3554 205.286 45.0914 205.397C44.8332 205.509 44.5458 205.564 44.229 205.564ZM44.229 204.772C44.5575 204.772 44.8215 204.673 45.021 204.473C45.2204 204.268 45.3202 203.963 45.3202 203.558V202.784C45.3202 202.379 45.2204 202.077 45.021 201.877C44.8215 201.672 44.5575 201.569 44.229 201.569C43.9004 201.569 43.6364 201.672 43.437 201.877C43.2375 202.077 43.1378 202.379 43.1378 202.784V203.558C43.1378 203.963 43.2375 204.268 43.437 204.473C43.6364 204.673 43.9004 204.772 44.229 204.772ZM50.2786 204.702H50.2346C50.1348 204.972 49.9706 205.183 49.7418 205.336C49.5188 205.488 49.2548 205.564 48.9498 205.564C48.369 205.564 47.9202 205.356 47.6034 204.94C47.2866 204.517 47.1282 203.928 47.1282 203.171C47.1282 202.414 47.2866 201.827 47.6034 201.411C47.9202 200.988 48.369 200.777 48.9498 200.777C49.2548 200.777 49.5188 200.853 49.7418 201.006C49.9706 201.153 50.1348 201.364 50.2346 201.64H50.2786V198.947H51.2378V205.459H50.2786V204.702ZM49.2402 204.737C49.5335 204.737 49.7799 204.667 49.9794 204.526C50.1788 204.379 50.2786 204.189 50.2786 203.954V202.388C50.2786 202.153 50.1788 201.965 49.9794 201.824C49.7799 201.678 49.5335 201.604 49.2402 201.604C48.9058 201.604 48.6388 201.713 48.4394 201.93C48.2399 202.141 48.1402 202.423 48.1402 202.775V203.567C48.1402 203.919 48.2399 204.203 48.4394 204.42C48.6388 204.632 48.9058 204.737 49.2402 204.737ZM56.4133 202.062L55.7357 200.76H55.7093V205.459H54.7589V199.316H55.8677L57.8741 202.713L58.5517 204.016H58.5781V199.316H59.5285V205.459H58.4197L56.4133 202.062ZM64.3233 205.459C64.071 205.459 63.8774 205.388 63.7425 205.248C63.6076 205.101 63.5254 204.916 63.4961 204.693H63.4521C63.3641 204.981 63.2028 205.198 62.9681 205.344C62.7334 205.491 62.4489 205.564 62.1145 205.564C61.6393 205.564 61.2726 205.441 61.0145 205.195C60.7622 204.948 60.6361 204.617 60.6361 204.2C60.6361 203.743 60.8004 203.4 61.1289 203.171C61.4633 202.942 61.9502 202.828 62.5897 202.828H63.4169V202.44C63.4169 202.159 63.3406 201.942 63.1881 201.789C63.0356 201.637 62.798 201.56 62.4753 201.56C62.2054 201.56 61.9854 201.619 61.8153 201.736C61.6452 201.854 61.5014 202.003 61.3841 202.185L60.8121 201.666C60.9646 201.408 61.1788 201.197 61.4545 201.032C61.7302 200.862 62.091 200.777 62.5369 200.777C63.1294 200.777 63.5841 200.915 63.9009 201.191C64.2177 201.466 64.3761 201.862 64.3761 202.379V204.676H64.8601V205.459H64.3233ZM62.3873 204.834C62.6865 204.834 62.9329 204.769 63.1265 204.64C63.3201 204.505 63.4169 204.326 63.4169 204.104V203.444H62.6073C61.9444 203.444 61.6129 203.649 61.6129 204.06V204.218C61.6129 204.423 61.6804 204.579 61.8153 204.684C61.9561 204.784 62.1468 204.834 62.3873 204.834ZM65.8002 205.459V200.883H66.7594V201.64H66.8034C66.8503 201.522 66.906 201.411 66.9706 201.305C67.041 201.2 67.1231 201.109 67.217 201.032C67.3167 200.95 67.4311 200.889 67.5602 200.848C67.6951 200.801 67.8506 200.777 68.0266 200.777C68.3375 200.777 68.6132 200.853 68.8538 201.006C69.0943 201.158 69.2703 201.393 69.3818 201.71H69.4082C69.4903 201.452 69.6487 201.232 69.8834 201.05C70.118 200.868 70.4202 200.777 70.7898 200.777C71.2474 200.777 71.6023 200.933 71.8546 201.244C72.1068 201.549 72.233 201.986 72.233 202.555V205.459H71.2738V202.669C71.2738 202.317 71.2063 202.053 71.0714 201.877C70.9364 201.695 70.7223 201.604 70.429 201.604C70.3058 201.604 70.1884 201.622 70.077 201.657C69.9655 201.686 69.8658 201.733 69.7778 201.798C69.6956 201.862 69.6282 201.945 69.5754 202.044C69.5226 202.144 69.4962 202.258 69.4962 202.388V205.459H68.537V202.669C68.537 201.959 68.2583 201.604 67.701 201.604C67.5836 201.604 67.4663 201.622 67.349 201.657C67.2375 201.686 67.1378 201.733 67.0498 201.798C66.9618 201.862 66.8914 201.945 66.8386 202.044C66.7858 202.144 66.7594 202.258 66.7594 202.388V205.459H65.8002ZM75.3555 205.564C75.027 205.564 74.7337 205.509 74.4755 205.397C74.2174 205.286 73.9974 205.127 73.8155 204.922C73.6337 204.711 73.4929 204.458 73.3931 204.165C73.2993 203.866 73.2523 203.534 73.2523 203.171C73.2523 202.807 73.2993 202.478 73.3931 202.185C73.4929 201.886 73.6337 201.634 73.8155 201.428C73.9974 201.217 74.2174 201.056 74.4755 200.944C74.7337 200.833 75.027 200.777 75.3555 200.777C75.6899 200.777 75.9833 200.836 76.2355 200.953C76.4937 201.07 76.7078 201.235 76.8779 201.446C77.0481 201.651 77.1742 201.892 77.2563 202.168C77.3443 202.443 77.3883 202.74 77.3883 203.056V203.417H74.2467V203.567C74.2467 203.919 74.3494 204.209 74.5547 204.438C74.7659 204.661 75.0651 204.772 75.4523 204.772C75.7339 204.772 75.9715 204.711 76.1651 204.588C76.3587 204.464 76.523 204.297 76.6579 204.086L77.2211 204.64C77.051 204.922 76.8046 205.148 76.4819 205.318C76.1593 205.482 75.7838 205.564 75.3555 205.564ZM75.3555 201.525C75.1913 201.525 75.0387 201.554 74.8979 201.613C74.763 201.672 74.6457 201.754 74.5459 201.86C74.4521 201.965 74.3787 202.091 74.3259 202.238C74.2731 202.385 74.2467 202.546 74.2467 202.722V202.784H76.3763V202.696C76.3763 202.344 76.2854 202.062 76.1035 201.851C75.9217 201.634 75.6723 201.525 75.3555 201.525Z" fill="#606060"/>
</g>
<defs>
<clipPath id="clip0_3650_27453">
<rect x="12.5714" y="120.173" width="502.857" height="234.8" rx="5.02857" fill="white"/>
</clipPath>
</defs>
</svg>
