<svg width="95" height="36" viewBox="0 0 95 36" fill="none" xmlns="http://www.w3.org/2000/svg">
<path d="M53.683 4.95471C52.4765 4.95471 51.3491 5.1703 50.3012 5.6023C49.2527 6.03401 48.3516 6.62849 47.5976 7.3857C46.8286 6.62849 45.9269 6.03401 44.894 5.6023C43.8608 5.1703 42.7408 4.95471 41.5348 4.95471H40.0188C38.8725 4.95471 37.798 5.14786 36.7951 5.53413C35.7919 5.92041 34.9171 6.44638 34.1707 7.1127C33.4243 7.77987 32.836 8.56351 32.4061 9.46414C31.9765 10.3659 31.7612 11.331 31.7612 12.3609V32.3985H36.1276V12.3609C36.1276 11.5128 36.5123 10.786 37.2816 10.1796C38.0506 9.57436 38.963 9.27103 40.0188 9.27103H41.5348C42.6206 9.27103 43.5404 9.57436 44.2947 10.1796C45.0487 10.786 45.4257 11.5128 45.4257 12.3609H49.7924C49.7924 11.5128 50.1688 10.786 50.9232 10.1796C51.6772 9.57436 52.5975 9.27103 53.683 9.27103H55.199C56.2548 9.27103 57.1672 9.57436 57.9363 10.1796C58.7056 10.786 59.0902 11.5128 59.0902 12.3609V32.3985H63.4113V12.3609C63.4113 11.331 63.1924 10.3659 62.7552 9.46414C62.3176 8.56351 61.7293 7.77987 60.9906 7.1127C60.2513 6.44638 59.3878 5.92041 58.4001 5.53413C57.4122 5.14786 56.3453 4.95471 55.199 4.95471H53.683Z" fill="url(#paint0_linear_1328_66081)"/>
<path d="M72.5653 4.49996C71.5395 4.49996 70.5784 4.69339 69.681 5.07966C68.7835 5.46593 68.0032 5.99226 67.3394 6.65829C66.6759 7.3249 66.1518 8.10909 65.7671 9.01002C65.3825 9.91122 65.1904 10.8695 65.1904 11.8837V13.2016C65.1904 14.2164 65.3825 15.1668 65.7671 16.0526C66.1518 16.9385 66.6759 17.7224 67.3394 18.4038C68.0032 19.0858 68.7835 19.6194 69.681 20.0057C70.5784 20.3919 71.5395 20.5851 72.5653 20.5851H85.5289C86.4029 20.5851 87.1309 20.8805 87.7118 21.471C88.2922 22.0618 88.5827 22.774 88.5827 23.6065V24.9244C88.5827 25.7575 88.2922 26.4769 87.7118 27.0824C87.1309 27.6885 86.4029 27.9913 85.5289 27.9913H67.3623V32.3076H85.5289C86.5542 32.3076 87.5156 32.1148 88.4133 31.7288C89.3101 31.3425 90.0987 30.8159 90.7772 30.1493C91.456 29.4833 91.9874 28.6996 92.3721 27.7982C92.7567 26.8972 92.9491 25.9392 92.9491 24.9244V23.6065C92.9491 22.592 92.7567 21.634 92.3721 20.7328C91.9874 19.8319 91.456 19.0479 90.7772 18.3813C90.0987 17.715 89.3101 17.1885 88.4133 16.8028C87.5156 16.4165 86.5542 16.2231 85.5289 16.2231H72.5653C71.7205 16.2231 71.0007 15.9277 70.405 15.3369C69.8088 14.7464 69.5113 14.0343 69.5113 13.2016V11.8837C69.5113 11.0206 69.8088 10.2935 70.405 9.70274C71.0007 9.11197 71.7205 8.81718 72.5653 8.81718H90.7772V4.49996H72.5653Z" fill="url(#paint1_linear_1328_66081)"/>
<path d="M9.229 4.58646V8.84932H18.6615C19.8604 8.84932 20.8741 9.22966 21.7025 9.98971C22.5306 10.7503 22.945 11.6489 22.945 12.6862V24.4948C22.945 25.575 22.5306 26.4847 21.7025 27.2234C20.8741 27.9624 19.8604 28.3316 18.6615 28.3316H9.229V32.2325H18.6615C19.8604 32.2325 21.0002 32.0192 22.0809 31.5931C23.1616 31.1668 24.1004 30.5984 24.8971 29.8878C25.6938 29.1775 26.3245 28.3422 26.7904 27.3833C27.2551 26.4242 27.4884 25.3901 27.4884 24.2818V12.4729C27.4884 11.4072 27.2551 10.395 26.7904 9.43588C26.3245 8.47645 25.6938 7.63116 24.8971 6.89894C24.1004 6.1673 23.1616 5.59871 22.0809 5.19369C21.0002 4.78896 19.8604 4.58646 18.6615 4.58646H9.229Z" fill="url(#paint2_linear_1328_66081)"/>
<path d="M5.46631 21.2495H7.87435V18.8313H5.46631V21.2495Z" fill="url(#paint3_linear_1328_66081)"/>
<path d="M2.68848 16.0969H4.49465V14.2834H2.68848V16.0969Z" fill="url(#paint4_linear_1328_66081)"/>
<path d="M4.24951 8.9256V12.3873H7.33946L10.6099 15.3321V21.0313H16.523V15.0932H11.3461L7.69667 11.8059V8.9256H4.24951Z" fill="url(#paint5_linear_1328_66081)"/>
<defs>
<linearGradient id="paint0_linear_1328_66081" x1="-10.4929" y1="18.7756" x2="92.5146" y2="18.6133" gradientUnits="userSpaceOnUse">
<stop stop-color="#00A4E5"/>
<stop offset="1" stop-color="#0870B9"/>
</linearGradient>
<linearGradient id="paint1_linear_1328_66081" x1="-10.4932" y1="18.5462" x2="92.5143" y2="18.3839" gradientUnits="userSpaceOnUse">
<stop stop-color="#00A4E5"/>
<stop offset="1" stop-color="#0870B9"/>
</linearGradient>
<linearGradient id="paint2_linear_1328_66081" x1="0.376181" y1="18.3344" x2="79.4799" y2="18.7673" gradientUnits="userSpaceOnUse">
<stop stop-color="#00A4E5"/>
<stop offset="1" stop-color="#0870B9"/>
</linearGradient>
<linearGradient id="paint3_linear_1328_66081" x1="4.3026" y1="20.0274" x2="14.7309" y2="20.0844" gradientUnits="userSpaceOnUse">
<stop stop-color="#00A4E5"/>
<stop offset="1" stop-color="#0870B9"/>
</linearGradient>
<linearGradient id="paint4_linear_1328_66081" x1="1.81581" y1="15.1802" x2="9.63707" y2="15.223" gradientUnits="userSpaceOnUse">
<stop stop-color="#00A4E5"/>
<stop offset="1" stop-color="#0870B9"/>
</linearGradient>
<linearGradient id="paint5_linear_1328_66081" x1="4.21664" y1="14.9513" x2="16.5558" y2="15.0188" gradientUnits="userSpaceOnUse">
<stop stop-color="#00A4E5"/>
<stop offset="1" stop-color="#0870B9"/>
</linearGradient>
</defs>
</svg>
