<svg width="712" height="376" viewBox="0 0 712 376" fill="none" xmlns="http://www.w3.org/2000/svg">
<path d="M366.296 344.371C447.271 344.371 512.915 336.945 512.915 327.785C512.915 318.625 447.271 311.199 366.296 311.199C285.32 311.199 219.676 318.625 219.676 327.785C219.676 336.945 285.32 344.371 366.296 344.371Z" fill="#DCECF3"/>
<path d="M154.678 340.414V286.279H27.9624V241.367L139.44 60.5161H204.803V245.377H241.294V286.279H204.803V340.414H154.678ZM71.2704 245.377H154.678V111.844H151.47L71.2704 245.377ZM363.844 345.226C345.932 345.226 330.427 342.018 317.328 335.602C304.228 328.919 293.401 319.428 284.847 307.131C276.292 294.834 269.876 279.729 265.599 261.818C261.589 243.907 259.584 223.456 259.584 200.465C259.584 177.742 261.589 157.424 265.599 139.513C269.876 121.334 276.292 106.096 284.847 93.7991C293.401 81.5017 304.228 72.1451 317.328 65.729C330.427 59.0457 345.932 55.704 363.844 55.704C399.399 55.704 425.598 68.4024 442.44 93.7991C459.549 119.196 468.104 154.751 468.104 200.465C468.104 246.179 459.549 281.734 442.44 307.131C425.598 332.528 399.399 345.226 363.844 345.226ZM363.844 300.715C381.755 300.715 394.186 294.032 401.137 280.665C408.355 267.031 411.964 248.719 411.964 225.728V175.202C411.964 152.211 408.355 134.033 401.137 120.666C394.186 107.032 381.755 100.215 363.844 100.215C345.932 100.215 333.368 107.032 326.15 120.666C319.199 134.033 315.724 152.211 315.724 175.202V225.728C315.724 248.719 319.199 267.031 326.15 280.665C333.368 294.032 345.932 300.715 363.844 300.715ZM611.505 340.414V286.279H484.789V241.367L596.267 60.5161H661.63V245.377H698.121V286.279H661.63V340.414H611.505ZM528.097 245.377H611.505V111.844H608.297L528.097 245.377Z" fill="#0083B7"/>
<path d="M322.451 203.68C310.229 199.78 298.466 198.32 286.99 201.56C281.918 202.987 277.266 206.893 274.081 211.093C272.201 208.633 271.435 206.146 269.555 203.687C275.193 197.874 280.492 190.581 288.422 188.961C292.041 188.221 295.787 188.488 299.472 188.761C303.351 189.041 307.236 189.327 311.115 189.607C314.794 194.214 318.766 199.08 322.445 203.687L322.451 203.68Z" fill="#FAEEDC"/>
<path d="M311.122 189.603C307.243 189.323 303.357 189.036 299.479 188.756C299.232 188.736 298.986 188.723 298.739 188.703C300.465 190.576 302.185 192.45 303.911 194.323C305.71 196.283 307.523 198.276 309.009 200.462C313.434 201.122 317.913 202.229 322.458 203.682C318.779 199.076 314.807 194.209 311.128 189.603H311.122Z" fill="#F4DBAB"/>
<path d="M269.555 203.681L273.641 204.161L274.081 211.087C274.067 212.2 273.901 213.567 273.881 214.673C273.874 215.153 273.861 215.653 273.667 216.093C273.274 216.96 272.288 217.346 271.388 217.66C270.935 217.813 270.475 217.973 269.995 217.966C269.515 217.966 269.016 217.753 268.782 217.34C268.469 216.787 268.749 216.047 269.235 215.64C269.729 215.233 270.375 215.073 270.995 214.933C270.768 214.053 270.542 213.173 270.308 212.3C269.115 211.727 267.509 211.42 266.19 211.42C264.87 211.42 263.437 212.187 263.137 213.48C263.044 213.873 263.064 214.287 262.984 214.687C262.904 215.087 262.704 215.493 262.324 215.653C261.945 215.807 261.491 215.653 261.211 215.353C260.931 215.06 260.792 214.653 260.712 214.253C260.278 212.047 261.658 209.627 263.771 208.867C261.985 208.507 259.965 209.627 259.105 211.24C258.852 211.72 258.686 212.247 258.372 212.687C258.059 213.127 257.533 213.48 257.006 213.38C256.56 213.293 256.226 212.9 256.093 212.467C255.96 212.033 256.013 211.567 256.113 211.127C256.666 208.727 258.839 206.787 261.285 206.514C259.705 206.267 257.986 206.447 256.473 206.954C255.986 207.114 255.507 207.314 254.993 207.307C254.487 207.3 253.934 207.014 253.814 206.52C253.661 205.901 254.214 205.347 254.754 205.014C256.653 203.834 259.099 203.587 261.198 204.367C260.832 203.387 259.992 202.534 258.959 202.347C258.532 202.267 258.086 202.281 257.666 202.161C257.246 202.041 256.84 201.734 256.773 201.307C256.706 200.854 257.066 200.421 257.493 200.268C257.919 200.114 258.399 200.161 258.846 200.254C260.972 200.681 262.924 201.921 264.224 203.661C265.857 203.701 268.276 204.074 269.535 203.701L269.555 203.681Z" fill="#FAEEDC"/>
<path d="M410.469 206.241C421.105 199.075 431.995 194.382 443.918 194.268C449.189 194.222 454.747 196.662 458.979 199.801C460.092 196.915 460.132 194.308 461.245 191.422C454.208 187.422 447.077 181.902 439.013 182.576C435.327 182.882 431.815 184.182 428.349 185.476C424.704 186.835 421.052 188.195 417.406 189.555C415.167 195.002 412.708 200.795 410.469 206.241Z" fill="#FAEEDC"/>
<path d="M417.406 189.547C421.052 188.187 424.704 186.827 428.349 185.467C428.583 185.38 428.816 185.294 429.049 185.207C427.923 187.487 426.79 189.767 425.664 192.053C424.484 194.433 423.304 196.86 422.485 199.379C418.419 201.253 414.434 203.573 410.475 206.239C412.715 200.793 415.174 195 417.413 189.553L417.406 189.547Z" fill="#F4DBAB"/>
<path d="M461.245 191.424L457.46 193.031L458.979 199.804C459.306 200.863 459.846 202.13 460.172 203.19C460.312 203.65 460.465 204.123 460.779 204.49C461.399 205.21 462.458 205.31 463.405 205.357C463.878 205.383 464.371 205.403 464.824 205.263C465.277 205.123 465.704 204.783 465.817 204.323C465.964 203.703 465.491 203.07 464.904 202.817C464.318 202.563 463.658 202.597 463.018 202.63C462.991 201.723 462.965 200.817 462.938 199.91C463.924 199.024 465.377 198.284 466.65 197.91C467.923 197.537 469.509 197.877 470.156 199.037C470.356 199.39 470.449 199.79 470.635 200.15C470.822 200.51 471.135 200.85 471.535 200.89C471.942 200.937 472.335 200.657 472.522 200.29C472.708 199.93 472.728 199.504 472.695 199.09C472.488 196.85 470.496 194.91 468.25 194.777C469.869 193.931 472.115 194.437 473.388 195.75C473.768 196.137 474.068 196.597 474.494 196.93C474.921 197.264 475.521 197.457 476 197.21C476.4 197.004 476.62 196.53 476.62 196.084C476.62 195.63 476.447 195.197 476.227 194.804C475.027 192.651 472.395 191.404 469.969 191.831C471.415 191.151 473.115 190.844 474.714 190.904C475.221 190.924 475.747 190.984 476.234 190.831C476.72 190.684 477.167 190.251 477.147 189.744C477.12 189.111 476.434 188.731 475.82 188.558C473.668 187.958 471.249 188.404 469.449 189.737C469.529 188.691 470.096 187.638 471.029 187.171C471.415 186.978 471.849 186.864 472.215 186.631C472.582 186.398 472.895 185.991 472.828 185.558C472.761 185.104 472.302 184.791 471.842 184.758C471.389 184.724 470.942 184.911 470.536 185.118C468.616 186.124 467.083 187.858 466.33 189.891C464.777 190.391 462.558 191.417 461.245 191.417V191.424Z" fill="#FAEEDC"/>
<path d="M364.573 143.081C360.041 145.507 354.463 144.867 349.564 143.294C344.666 141.721 340.041 139.281 335.016 138.195C323.773 135.761 311.637 140.728 304.126 149.441C296.615 158.153 293.456 170.086 294.076 181.579C294.696 193.071 298.834 204.137 304.486 214.157C307.491 219.483 310.924 224.556 314.536 229.489C317.715 233.822 322.88 238.448 325.012 243.355C327.125 248.221 327.418 254.501 328.998 259.647C330.737 265.3 332.856 270.84 335.342 276.213C337.395 280.659 339.821 285.146 343.753 288.079C347.678 291.005 353.483 291.945 357.442 289.052C360.987 286.465 362.12 281.606 361.827 277.226C361.534 272.846 360.087 268.62 359.568 264.26C358.615 256.221 365.119 243.388 375.129 247.368C379.708 249.188 381.914 254.514 382.233 259.427C382.553 264.34 381.5 269.273 381.847 274.193C382.2 279.106 384.473 284.419 389.078 286.159C393.69 287.905 398.908 285.419 402.407 281.946C408.578 275.806 411.177 266.92 412.323 258.287C413.47 249.654 413.41 240.842 415.369 232.355C419.188 215.836 427.925 200.771 429.225 183.532C430.298 169.346 426.439 154.227 416.269 144.281C401.607 129.942 380.834 134.381 364.553 143.088L364.573 143.081Z" fill="#FAEEDC"/>
<path d="M354.409 155.746C356.955 154.546 359.368 153.066 362.007 152.093C364.646 151.12 367.618 150.693 370.257 151.673C375.029 153.44 377.142 159.186 376.982 164.272C376.662 174.298 369.138 183.664 359.414 186.138C354.163 187.477 348.611 186.951 343.273 187.891C334.369 189.457 326.019 195.07 317.048 193.937C307.665 192.757 300.414 183.798 299.501 174.378C298.834 167.565 301.88 151.353 311.077 151.34C315.329 151.34 319.241 154.433 322.993 156.033C327.665 158.026 332.736 159.099 337.815 159.193C343.513 159.299 349.244 158.173 354.409 155.739V155.746Z" fill="white"/>
<path d="M329.278 172.698C328.078 172.858 326.652 173.425 326.525 174.632C326.418 175.612 327.258 176.412 328.058 176.985C330.091 178.438 332.403 179.498 334.829 180.098C337.415 180.731 342.966 179.205 340.221 175.732C338.015 172.932 332.503 172.278 329.278 172.705V172.698Z" fill="#686796"/>
<path d="M361.22 145.453C349.698 150.08 336.289 149.787 324.972 144.66C329.404 149.82 335.616 153.433 342.407 153.693C349.198 153.953 356.409 150.26 361.214 145.453H361.22Z" fill="#F4DBAB"/>
<path d="M404.373 234.087C405.726 233.187 407.565 232.294 408.851 233.287C409.691 233.934 409.864 235.114 409.951 236.174C411.104 250.166 408.538 264.452 402.58 277.165C401.874 278.671 401.094 280.198 399.848 281.298C398.601 282.404 396.782 283.011 395.236 282.404C393.77 281.831 392.857 280.305 392.59 278.751C392.33 277.198 392.61 275.618 392.917 274.072C394.27 267.319 396.109 260.672 398.428 254.186C398.941 252.746 399.488 251.273 399.468 249.746C399.448 248.22 398.728 246.593 397.335 245.967C395.842 245.293 393.603 245.947 392.57 244.36C391.53 242.76 392.83 241.8 394.07 240.894C397.382 238.474 400.954 236.341 404.379 234.074L404.373 234.087Z" fill="#F4DBAB"/>
<path d="M347.951 245.412C353.763 247.465 360.154 247.872 366.165 246.512C362.4 249.618 358.261 253.011 357.022 257.731C354.882 265.864 361.694 274.517 358.621 282.543C358.381 283.176 357.868 283.696 357.222 283.883C355.989 284.243 355.169 283.223 354.589 282.29C349.804 274.61 348.338 264.937 350.63 256.178C351.17 254.105 351.857 251.691 350.551 249.998C349.684 248.872 348.211 248.458 346.925 247.852C346.912 247.852 346.898 247.838 346.885 247.832C345.406 247.105 346.392 244.858 347.945 245.405L347.951 245.412Z" fill="#F4DBAB"/>
<path d="M325.452 204.197C324.712 204.317 323.953 204.491 323.36 204.944C322.766 205.397 322.373 206.204 322.606 206.911C322.766 207.404 323.193 207.777 323.673 207.977C324.153 208.184 324.672 208.237 325.192 208.264C326.658 208.344 332.45 208.364 332.163 205.797C331.897 203.377 326.898 203.964 325.452 204.191V204.197Z" fill="#E7A0E1"/>
<path d="M390.297 198.477C389.551 198.477 388.771 198.53 388.111 198.89C387.452 199.25 386.945 199.976 387.058 200.716C387.138 201.23 387.505 201.663 387.945 201.936C388.385 202.21 388.898 202.35 389.404 202.456C390.837 202.763 396.555 203.683 396.675 201.11C396.789 198.677 391.763 198.477 390.297 198.477Z" fill="#E7A0E1"/>
<path d="M337.255 246.043C338.801 248.73 339.108 251.93 339.374 255.016C339.634 257.976 339.894 260.942 340.154 263.902C340.234 264.796 340.261 265.829 339.594 266.435C338.994 266.982 338.028 266.929 337.328 266.522C336.629 266.116 336.135 265.436 335.689 264.762C332.33 259.709 330.191 253.856 329.458 247.83C329.224 245.923 328.438 242.444 331.057 241.97C333.47 241.53 336.189 244.184 337.255 246.037V246.043Z" fill="white"/>
<path d="M392.796 147.539C397.655 145.359 403.78 146.945 407.378 150.872C410.977 154.798 412.077 160.691 410.664 165.824C409.957 168.391 408.651 170.824 406.679 172.61C404.713 174.397 402.053 175.484 399.401 175.304C396.102 175.077 393.17 172.924 391.237 170.237C386.405 163.524 383.146 151.858 392.796 147.539Z" fill="white"/>
<path d="M389.598 162.526C390.784 162.266 392.31 162.313 392.843 163.399C393.276 164.286 392.763 165.326 392.21 166.133C390.797 168.192 388.985 169.979 386.912 171.372C384.699 172.852 378.961 173.312 380.354 169.106C381.474 165.719 386.425 163.226 389.604 162.519L389.598 162.526Z" fill="#686796"/>
<path d="M335.995 198.736C333.143 199.456 330.424 201.082 328.498 203.309C333.463 201.842 338.901 200.795 344.066 200.449C339.481 195.829 333.23 192.836 325.299 192.836C329.151 193.909 335.995 198.736 335.995 198.736Z" fill="#333333"/>
<path d="M381.647 195.023C384.586 195.09 387.598 196.083 389.971 197.829C384.799 197.496 379.274 197.669 374.156 198.476C377.608 192.956 383.04 188.663 390.777 186.91C387.259 188.81 381.647 195.023 381.647 195.023Z" fill="#333333"/>
<path d="M364.439 213.143C368.791 212.636 373.33 212.663 377.408 214.263C381.487 215.863 385.053 219.276 385.906 223.576C386.759 227.875 384.239 232.848 379.994 233.935C373.969 235.468 367.892 229.282 361.907 230.975C358.881 231.829 356.655 234.555 353.616 235.362C348.178 236.808 343.899 231.489 344.073 226.389C344.233 221.689 349.977 217.789 353.723 215.989C357.075 214.376 360.767 213.576 364.439 213.15V213.143Z" fill="#333333"/>
<path d="M350.724 220.717C358.515 216.91 367.858 216.29 376.322 218.357C377.468 218.637 378.668 218.23 379.408 217.31C379.781 216.844 380.154 216.384 380.527 215.917C379.554 215.25 378.501 214.691 377.408 214.264C373.33 212.664 368.791 212.644 364.439 213.144C360.761 213.571 357.075 214.371 353.723 215.984C351.79 216.917 349.324 218.404 347.372 220.277C348.291 221.09 349.604 221.263 350.717 220.723L350.724 220.717Z" fill="white"/>
<path d="M377.122 229.011C369.338 226.878 360.834 227.725 353.476 231.085C352.323 231.611 351.877 233.018 352.483 234.131L353.196 235.458C353.336 235.431 353.476 235.398 353.616 235.364C356.655 234.558 358.881 231.831 361.907 230.978C367.398 229.425 372.97 234.504 378.508 234.164C378.588 233.225 378.655 232.271 378.735 231.331C378.821 230.278 378.148 229.305 377.128 229.025L377.122 229.011Z" fill="white"/>
<path d="M447.96 88.6851C448.244 90.185 447.266 91.6218 445.766 91.9139L380.206 104.497C375.463 105.405 371.754 109.052 370.775 113.789L366.466 134.543C366.158 136.035 364.69 136.998 363.199 136.682C361.707 136.374 360.744 134.906 361.06 133.414L365.369 112.66C366.805 105.737 372.227 100.4 379.172 99.0661L444.732 86.4827C446.232 86.1985 447.676 87.1774 447.968 88.6773L447.96 88.6851Z" fill="#00212E"/>
<path d="M442.476 94.4613L440.75 85.3477C440.183 82.3538 442.156 79.4569 445.149 78.8895L456.587 76.7216L460.37 96.6939L448.933 98.8618C445.94 99.4291 443.044 97.4552 442.476 94.4613Z" fill="#00212E"/>
<path d="M447.81 93.1388C444.811 93.7072 441.923 91.7336 441.354 88.7417L442.436 94.465C443.004 97.4648 445.892 99.4305 448.891 98.8621L460.327 96.6912L456.547 76.7188L453.248 77.3424L455.434 88.8838C455.718 90.3837 454.731 91.8283 453.232 92.1125L447.802 93.1388H447.81Z" fill="#00212E"/>
<path d="M586.467 45L592.844 78.6532L467.832 102.352C464.407 102.999 461.1 100.749 460.453 97.323L456.428 76.0796C455.781 72.6535 458.03 69.3458 461.456 68.6985L586.467 45Z" fill="#00212E"/>
<path d="M458.559 87.3457L460.453 97.3319C461.1 100.758 464.407 103.008 467.832 102.361L592.844 78.662L590.949 68.6758L465.938 92.3743C462.513 93.0216 459.206 90.7718 458.559 87.3457Z" fill="#00212E"/>
<path d="M448.213 82.1658C448.134 81.3054 447.376 80.658 446.516 80.737C446.255 80.7607 446.003 80.7922 445.75 80.8475C445.001 81.0054 444.267 81.3291 443.746 81.8896C443.099 82.5842 442.854 83.5789 442.877 84.5262C442.885 84.9288 442.941 85.3235 443.02 85.7261C443.193 86.6024 444.085 87.1392 444.953 86.9261C445.719 86.7287 446.516 86.5314 447.273 86.3419C448.023 86.1524 448.528 85.442 448.449 84.6683C448.37 83.8394 448.315 83.0105 448.236 82.1816L448.213 82.1658Z" fill="#00212E"/>
<path d="M481.73 73.3083C482.101 75.2661 480.815 77.1607 478.858 77.5318L467.288 79.7264C465.331 80.0974 463.436 78.8106 463.065 76.8529C462.695 74.8951 463.981 73.0005 465.938 72.6294L477.508 70.4348C479.465 70.0638 481.359 71.3506 481.73 73.3083Z" fill="#00212E"/>
<path d="M560.786 58.324C561.157 60.2817 559.87 62.1764 557.913 62.5474L495.194 74.4361C493.237 74.8071 491.343 73.5204 490.972 71.5626C490.601 69.6048 491.888 67.7102 493.845 67.3392L556.563 55.4505C558.521 55.0794 560.415 56.3662 560.786 58.324Z" fill="#00212E"/>
<path d="M268.507 110.466L276.75 119.688L280.397 116.426L272.155 107.204L268.507 110.466Z" fill="#00212E"/>
<path d="M174.914 202.466C177.681 205.568 182.439 205.832 185.54 203.064L277.672 120.669L267.643 109.449L175.511 191.843C172.41 194.612 172.147 199.371 174.914 202.473V202.466Z" fill="#00212E"/>
<path d="M186.426 196.71L274.911 117.578L277.672 120.667L185.54 203.062C182.439 205.83 177.688 205.566 174.914 202.464C172.596 199.87 172.41 196.112 174.233 193.332C174.542 194.333 175.062 195.284 175.806 196.119C178.574 199.221 183.332 199.484 186.433 196.716L186.426 196.71Z" fill="#00212E"/>
<path d="M277.788 113.455L274.776 110.09L278.423 106.827C287.168 99.0112 297.743 93.1604 309.005 89.9106L321.77 86.2305L323.022 90.5721L310.258 94.2522C299.638 97.3157 289.672 102.833 281.428 110.199L277.781 113.462L277.788 113.455Z" fill="#00212E"/>
<path d="M329.167 100.092C339.78 97.0473 347.736 90.5734 349.822 84.0545L351.556 83.56L350.015 78.1844C347.684 70.0599 334.573 66.6945 320.723 70.67C306.88 74.6456 297.544 84.4527 299.875 92.5772L301.416 97.9528L303.15 97.4583C308.376 101.871 318.553 103.142 329.167 100.098V100.092Z" fill="#00212E"/>
<path d="M330.714 105.459C316.871 109.434 303.753 106.069 301.423 97.9444C299.092 89.8199 308.428 80.0128 322.271 76.0372C336.114 72.0617 349.232 75.4271 351.562 83.5516C353.893 91.676 344.557 101.483 330.714 105.459Z" fill="white"/>
<path d="M303.31 97.4086C301.313 90.4594 310.245 81.5385 322.81 77.9291C335.375 74.3197 347.678 77.1456 349.668 84.0947C351.665 91.0438 342.734 99.9647 330.168 103.574C317.603 107.184 305.301 104.358 303.31 97.4086Z" fill="#C4E5F2"/>
<path d="M349.604 88.4722L328.428 76.7383C326.585 76.9952 324.704 77.3934 322.816 77.9329C321.166 78.4081 319.574 78.9733 318.065 79.6156L345.597 94.8754C347.607 92.8138 349 90.6237 349.61 88.4786L349.604 88.4722Z" fill="#93D5EF"/>
<path d="M330.168 103.575C330.733 103.414 331.279 103.241 331.831 103.054L305.705 88.5781C304.633 89.9911 303.856 91.4425 303.426 92.8748L324.826 104.731C326.585 104.474 328.377 104.088 330.175 103.575H330.168Z" fill="#93D5EF"/>
<path d="M343.344 96.9182L314.88 81.1445C313.994 81.6198 313.147 82.1207 312.338 82.641L341.096 98.5752C341.893 98.0421 342.644 97.4898 343.35 96.9182H343.344Z" fill="#93D5EF"/>
</svg>
