<svg width="96" height="97" viewBox="0 0 96 97" fill="none" xmlns="http://www.w3.org/2000/svg">
<path opacity="0.4" d="M48 5.40527C24.2518 5.40527 5 24.657 5 48.4053C5 72.1535 24.2518 91.4053 48 91.4053C71.7482 91.4053 91 72.1535 91 48.4053C91 24.657 71.7482 5.40527 48 5.40527Z" fill="#006289"/>
<path d="M54.3544 36.5532L54.0279 36.3512C51.4012 34.7261 49.1972 33.3626 47.3688 32.5158C45.5145 31.657 43.4002 31.0089 41.1952 31.6893C39.7379 32.139 38.4432 32.9829 37.4207 34.1062C35.9332 35.7405 35.4428 37.8764 35.221 40.0111C34.9999 42.1386 34.9999 44.887 35 48.2339V48.5777C34.9999 51.9246 34.9999 54.6731 35.221 56.8005C35.4428 58.9353 35.9332 61.0712 37.4207 62.7054C38.4432 63.8287 39.7379 64.6727 41.1952 65.1223C43.4002 65.8027 45.5145 65.1546 47.3688 64.2958C49.1972 63.449 51.4012 62.0855 54.0279 60.4605L54.3544 60.2585C57.0812 58.5717 59.3547 57.1654 61.002 55.8551C62.6979 54.5062 64.1914 52.9119 64.7285 50.6897C65.0905 49.1918 65.0905 47.6199 64.7285 46.1219C64.1914 43.8998 62.6979 42.3055 61.002 40.9566C59.3547 39.6462 57.0813 38.24 54.3544 36.5532Z" fill="#006289"/>
</svg>
