<svg width="201" height="49" viewBox="0 0 201 49" fill="none" xmlns="http://www.w3.org/2000/svg">
<path d="M160.612 6.78589V42.3794H165.821V6.78589H160.612Z" fill="#93D5EF"/>
<path fill-rule="evenodd" clip-rule="evenodd" d="M113.507 42.954C111.452 42.954 109.734 42.4752 108.355 41.5176C108.204 41.4128 108.058 41.3039 107.915 41.1909V42.3794H103.318V7.36044H108.566V22.3625C109.853 21.5348 111.411 21.1209 113.239 21.1209C115.218 21.1209 116.942 21.5933 118.41 22.5382C119.878 23.483 121.015 24.7789 121.819 26.426C122.636 28.0603 123.045 29.9308 123.045 32.0375C123.045 34.1059 122.643 35.9636 121.838 37.6106C121.047 39.2577 119.936 40.56 118.506 41.5176C117.076 42.4752 115.41 42.954 113.507 42.954ZM108.374 28.7434C108.068 29.6882 107.915 30.7862 107.915 32.0375C107.915 33.2887 108.068 34.3867 108.374 35.3316C108.681 36.2764 109.179 37.0105 109.868 37.534C110.571 38.0575 111.503 38.3192 112.664 38.3192C113.788 38.3192 114.707 38.0383 115.422 37.4766C116.137 36.9148 116.667 36.1615 117.012 35.2166C117.357 34.2591 117.529 33.1994 117.529 32.0375C117.529 30.8884 117.35 29.8414 116.993 28.8966C116.635 27.939 116.08 27.1793 115.327 26.6175C114.586 26.043 113.635 25.7557 112.473 25.7557C111.388 25.7557 110.507 26.0174 109.83 26.5409C109.166 27.0644 108.681 27.7985 108.374 28.7434Z" fill="#93D5EF"/>
<path d="M95.0825 30.1606V42.3794H100.292V28.7817C100.292 26.5218 99.6853 24.6959 98.4724 23.3042C97.2722 21.8998 95.4911 21.1975 93.129 21.1975C91.7501 21.1975 90.4925 21.504 89.3561 22.1168C88.3158 22.6725 87.467 23.4361 86.8097 24.4078C86.3196 23.526 85.6427 22.8006 84.7788 22.2317C83.7446 21.5423 82.4168 21.1975 80.7952 21.1975C79.378 21.1975 78.0948 21.5104 76.9457 22.136C76.0774 22.6141 75.3432 23.2226 74.7433 23.9617V21.6955H70.1468V42.3794H75.3944V29.8542C75.3944 28.6668 75.72 27.7028 76.3712 26.9622C77.0351 26.2089 77.9097 25.8323 78.995 25.8323C80.1313 25.8323 81.0187 26.2153 81.6571 26.9814C82.3082 27.7347 82.6338 28.7944 82.6338 30.1606V42.3794H87.8431V29.8542C87.8431 29.0626 87.99 28.3667 88.2836 27.7666C88.59 27.1538 89.0114 26.6814 89.5476 26.3494C90.0839 26.0047 90.7159 25.8323 91.4437 25.8323C92.58 25.8323 93.4674 26.2153 94.1058 26.9814C94.7569 27.7347 95.0825 28.7944 95.0825 30.1606Z" fill="#93D5EF"/>
<path d="M51.4837 42.1688C52.5051 42.7178 53.8266 42.9923 55.4481 42.9923C57.4782 42.9923 59.1572 42.5518 60.485 41.6708C61.1152 41.2567 61.6706 40.7819 62.1512 40.2465V42.3794H66.7477V21.6955H61.5001V32.1907C61.5001 33.4675 61.3532 34.5016 61.0596 35.2933C60.7787 36.0721 60.4148 36.6658 59.9679 37.0744C59.521 37.4702 59.0422 37.7383 58.5315 37.8787C58.0208 38.0192 57.542 38.0894 57.0951 38.0894C55.9843 38.0894 55.1225 37.8404 54.5096 37.3425C53.9096 36.8445 53.4754 36.2253 53.2073 35.4848C52.9392 34.7442 52.7796 34.0101 52.7285 33.2823C52.6775 32.5418 52.6519 31.9353 52.6519 31.4629V21.6955H47.366V33.3015C47.366 33.6462 47.3915 34.1952 47.4426 34.9485C47.4937 35.7018 47.6405 36.5381 47.8831 37.4574C48.1257 38.3639 48.5279 39.2385 49.0897 40.0812C49.6642 40.9239 50.4622 41.6197 51.4837 42.1688Z" fill="#93D5EF"/>
<path d="M125.344 21.6955V42.3794H130.592V31.8077C130.592 31.016 130.7 30.3074 130.917 29.6818C131.134 29.0434 131.453 28.4944 131.875 28.0347C132.296 27.5623 132.813 27.1857 133.426 26.9048C134.039 26.6111 134.722 26.4388 135.475 26.3877C136.241 26.3239 136.912 26.3813 137.486 26.5601V21.6955C136.861 21.6189 136.235 21.6061 135.609 21.6572C134.984 21.6955 134.377 21.804 133.79 21.9828C133.203 22.1488 132.66 22.385 132.162 22.6914C131.511 23.0744 130.962 23.5596 130.515 24.1469C130.303 24.425 130.112 24.7173 129.94 25.024V21.6955H125.344Z" fill="#93D5EF"/>
<path fill-rule="evenodd" clip-rule="evenodd" d="M148.454 42.954C146.335 42.954 144.464 42.5007 142.843 41.5942C141.234 40.6749 139.97 39.4173 139.051 37.8213C138.144 36.2125 137.691 34.374 137.691 32.3056C137.691 30.0457 138.138 28.0794 139.031 26.4068C139.925 24.7342 141.157 23.4383 142.728 22.519C144.298 21.587 146.105 21.1209 148.148 21.1209C150.318 21.1209 152.163 21.6317 153.683 22.6531C155.202 23.6745 156.326 25.1109 157.053 26.9622C157.781 28.8136 158.036 30.9905 157.819 33.493H143.296C143.459 34.7344 143.844 35.743 144.451 36.519C145.294 37.5659 146.526 38.0894 148.148 38.0894C149.169 38.0894 150.044 37.866 150.772 37.4191C151.499 36.9722 152.055 36.3275 152.438 35.4848L157.647 36.9786C156.868 38.8683 155.636 40.3366 153.951 41.3835C152.278 42.4305 150.446 42.954 148.454 42.954ZM151.653 27.0389C152.098 27.6437 152.397 28.5055 152.549 29.6244H143.433C143.636 28.669 143.975 27.8838 144.451 27.2687C145.294 26.1834 146.603 25.6408 148.378 25.6408C149.897 25.6408 150.989 26.1068 151.653 27.0389Z" fill="#93D5EF"/>
<path d="M170.031 42.3794V6.78589H175.24V42.3794H170.031Z" fill="#93D5EF"/>
<path fill-rule="evenodd" clip-rule="evenodd" d="M181.039 42.1113C182.073 42.6731 183.331 42.954 184.812 42.954C186.599 42.954 188.074 42.6475 189.236 42.0347C190.162 41.5414 191.037 40.8099 191.86 39.8404V42.3794H196.418V29.7393C196.418 28.7944 196.38 27.939 196.303 27.1729C196.226 26.4068 195.984 25.6408 195.575 24.8747C194.847 23.4958 193.775 22.5254 192.358 21.9636C190.94 21.4018 189.319 21.1209 187.493 21.1209C185.003 21.1209 183.037 21.6572 181.594 22.7297C180.152 23.8022 179.168 25.1939 178.645 26.9048L183.356 28.3986C183.688 27.4538 184.269 26.7963 185.099 26.426C185.929 26.0557 186.727 25.8706 187.493 25.8706C188.872 25.8706 189.855 26.1579 190.442 26.7324C190.904 27.1836 191.184 27.8356 191.283 28.6883C190.401 28.8218 189.565 28.9487 188.776 29.0689C187.436 29.2605 186.235 29.4648 185.176 29.6818C184.116 29.8989 183.203 30.1478 182.437 30.4287C181.326 30.8373 180.439 31.348 179.775 31.9609C179.124 32.561 178.651 33.2568 178.358 34.0484C178.064 34.84 177.917 35.7146 177.917 36.6722C177.917 37.8213 178.179 38.8746 178.702 39.8322C179.239 40.7771 180.018 41.5367 181.039 42.1113ZM188.336 38.3575C187.685 38.6895 186.88 38.8555 185.923 38.8555C185.323 38.8555 184.805 38.7661 184.371 38.5874C183.937 38.4086 183.599 38.1533 183.356 37.8213C183.126 37.4766 183.012 37.068 183.012 36.5956C183.012 36.2508 183.082 35.938 183.222 35.6571C183.375 35.3762 183.605 35.1209 183.912 34.8911C184.231 34.6485 184.646 34.425 185.157 34.2208C185.603 34.0548 186.121 33.9016 186.708 33.7611C187.295 33.6207 188.068 33.4675 189.025 33.3015C189.641 33.1866 190.377 33.0559 191.235 32.9094C191.223 33.2736 191.201 33.6852 191.17 34.1441C191.132 34.8847 190.979 35.5358 190.711 36.0976C190.57 36.3913 190.302 36.7552 189.906 37.1893C189.523 37.6234 189 38.0128 188.336 38.3575Z" fill="#93D5EF"/>
<path fill-rule="evenodd" clip-rule="evenodd" d="M18.6173 21.8447H4.47113V28.0051C4.47113 37.204 11.9283 44.6611 21.1271 44.6611C30.3259 44.6611 37.7831 37.204 37.7831 28.0051V21.8447H23.1806L23.1806 12.0337C23.1806 8.1273 20.0139 4.96057 16.1075 4.96057C12.2011 4.96057 9.03441 8.1273 9.03441 12.0337L13.5977 12.0337C13.5977 10.6475 14.7214 9.52385 16.1075 9.52385C17.4936 9.52385 18.6173 10.6475 18.6173 12.0337L18.6173 21.8447ZM18.6173 26.408L18.6173 35.0782L23.1806 35.0782L23.1806 26.408H33.2198V28.0051C33.2198 34.6837 27.8057 40.0978 21.1271 40.0978C14.4485 40.0978 9.03441 34.6837 9.03441 28.0051V26.408H18.6173Z" fill="#93D5EF"/>
</svg>
