<svg width="68" height="64" viewBox="0 0 68 64" fill="none" xmlns="http://www.w3.org/2000/svg">
<g clip-path="url(#clip0_2413_167892)">
<path d="M33.5863 45.3432L43.0804 44.2481C43.0804 44.2481 42.9239 12.8722 41.2068 9.59396C39.4898 6.3157 38.2416 9.51535 37.6169 12.1695C36.9921 14.8237 36.0363 19.7791 35.686 20.8914C35.3357 22.0036 32.8753 27.3307 32.4678 22.3546C32.0602 17.3786 32.936 7.77899 32.936 6.95977C32.936 6.14055 31.9995 3.62289 30.6528 6.95977C29.306 10.2966 23.2053 27.9182 22.9185 43.1855C25.9892 46.9782 29.3453 48.2284 29.3453 48.2284L33.5863 45.3432Z" fill="#FFE0AB" stroke="#00212E" stroke-width="0.068958" stroke-miterlimit="10"/>
<path d="M43.0028 43.3106C43.0028 43.3106 37.8509 42.7224 36.5635 42.3776C35.276 42.0328 23.2166 39.5642 22.4002 44.3643C21.5837 49.1645 22.0492 57.1257 24.8585 58.6476C27.6679 60.1695 30.5951 59.8199 30.5951 59.8199C30.5951 59.8199 37.3854 59.8888 38.2054 59.855C39.0253 59.8213 44.5633 60.9501 45.1101 55.4107C45.188 53.6916 45.266 44.9498 43.0028 43.3106Z" fill="#FFE0AB" stroke="#00212E" stroke-width="0.068958" stroke-miterlimit="10"/>
<path d="M33.9389 60.8075C35.4989 60.4275 36.6064 59.4742 36.4125 58.6783C36.2186 57.8824 34.7968 57.5452 33.2368 57.9252C31.6768 58.3052 30.5693 59.2585 30.7632 60.0544C30.957 60.8504 32.3789 61.1875 33.9389 60.8075Z" fill="#FFE0AB" stroke="#00212E" stroke-width="0.068958" stroke-miterlimit="10"/>
<path d="M38.9907 8.6742C38.9907 8.6742 39.0996 4.71808 38.2804 4.17124C37.4612 3.62441 34.054 4.63326 32.8127 8.89004C32.681 10.8457 32.4431 15.2928 32.4431 15.2928L32.3645 18.1421L32.4514 22.1603C32.4514 22.1603 32.7776 24.8676 33.3975 24.4359C34.0174 24.0043 35.3345 22.7161 35.9758 19.7558C36.6171 16.7954 37.3922 13.0454 37.6177 12.1738C37.8432 11.3022 38.9907 8.6742 38.9907 8.6742Z" fill="#FFE0AB" stroke="#00212E" stroke-width="0.068958" stroke-miterlimit="10"/>
</g>
<defs>
<clipPath id="clip0_2413_167892">
<rect width="23.1726" height="57" fill="white" transform="translate(22 4)"/>
</clipPath>
</defs>
</svg>
