<svg width="68" height="64" viewBox="0 0 68 64" fill="none" xmlns="http://www.w3.org/2000/svg">
<g clip-path="url(#clip0_2413_167271)">
<path d="M28.5049 44.7418C28.5049 44.7418 28.8178 10.4077 29.0681 8.78058C29.3184 7.15348 31.1312 1.51915 33.074 5.33726C35.0167 9.15537 35.7656 10.7832 36.705 18.4826C37.6444 26.1821 38.9586 40.956 39.8973 43.9592C38.1444 41.8961 34.7643 41.4553 34.7643 41.4553L33.0114 43.2082L28.5049 44.7418Z" fill="#FFE0AB" stroke="#00212E" stroke-width="0.06877" stroke-miterlimit="10"/>
<path d="M27.0497 50.2345C27.0497 50.2345 27.0538 50.1692 27.0648 50.0482C27.1618 48.9671 27.7449 43.4827 29.7723 41.4519C32.0259 39.1983 33.0588 38.4474 34.5607 38.6324C36.0627 38.8174 41.556 40.5579 41.3215 47.8345C41.087 55.111 40.2899 58.5853 38.5982 59.806C36.9065 61.0266 35.6411 61.1669 34.6095 60.7447C33.578 60.3224 26.6735 56.5256 27.0497 50.2345Z" fill="#FFE0AB" stroke="#00212E" stroke-width="0.06877" stroke-miterlimit="10"/>
</g>
<defs>
<clipPath id="clip0_2413_167271">
<rect width="14.3626" height="57" fill="white" transform="translate(27 4)"/>
</clipPath>
</defs>
</svg>
