<svg width="68" height="64" viewBox="0 0 68 64" fill="none" xmlns="http://www.w3.org/2000/svg">
<g clip-path="url(#clip0_2682_227083)">
<path d="M37.1064 23.068C37.1064 23.068 35.7058 38.0746 35.239 45.916C34.7722 53.7574 34.5858 56.4628 34.0255 58.2388C33.4651 60.0147 31.8783 62.9065 30.5713 59.0762C29.2643 55.2458 28.5176 45.5385 28.4241 37.4179C28.3306 29.2974 28.2378 22.9486 28.4241 19.1211C30.6648 22.6681 32.7115 24.5355 32.7115 24.5355L35.0527 25.1886L37.1064 23.068Z" fill="#FFE0AB" stroke="#00212E" stroke-width="0.069782" stroke-miterlimit="10"/>
<path d="M30.0118 4.05758C30.0118 4.05758 40.1881 3.44141 40.1881 8.66877C40.1881 13.8961 37.2935 26.5623 35.6132 28.0682C33.9328 29.5741 31.4123 30.0437 29.3586 25.0961C27.3049 20.1486 27.3049 19.0747 27.1179 14.8501C26.9707 11.5131 27.0565 7.0289 27.0991 5.28993C27.1044 5.03132 27.1976 4.78221 27.3632 4.58351C27.5288 4.38481 27.757 4.24832 28.0104 4.19645C28.4445 4.1148 29.0816 4.04851 30.0118 4.05758Z" fill="#FFE0AB" stroke="#00212E" stroke-width="0.069782" stroke-miterlimit="10"/>
</g>
<defs>
<clipPath id="clip0_2682_227083">
<rect width="13.2223" height="57" fill="white" transform="translate(27 4)"/>
</clipPath>
</defs>
</svg>
