<svg width="68" height="64" viewBox="0 0 68 64" fill="none" xmlns="http://www.w3.org/2000/svg">
<g clip-path="url(#clip0_2413_167950)">
<path d="M45.2914 18.5032C45.2914 18.5032 45.704 40.1365 44.9609 46.908C44.2177 53.6794 42.8141 57.8896 41.3246 57.477C39.835 57.0645 38.5173 55.9081 38.5173 52.2752C38.5173 48.6422 37.361 36.6721 37.0304 35.4305C36.6999 34.1889 35.9574 32.8705 34.801 32.8705C33.6447 32.8705 32.737 35.6778 33.0675 38.4856C33.3981 41.2935 35.7921 54.0087 35.7121 56.6513C35.6321 59.2939 35.9052 62.8442 33.0014 59.7891C30.0977 56.7339 24.5242 48.1053 23.1636 35.5951C21.8029 23.0849 23.1636 18.5032 23.1636 18.5032L38.6456 14.9297L45.2914 18.5032Z" fill="#FFE0AB" stroke="#00212E" stroke-width="0.0661146" stroke-miterlimit="10"/>
<path d="M45.2088 20.7325C45.2088 20.7325 24.5242 23.3334 23.1635 21.5992C21.8029 19.865 20.8085 6.62692 25.5152 4.51588C27.4987 4.13705 28.983 3.6564 30.0983 4.51588C31.2137 5.37537 32.8229 7.1241 38.0248 4.51588C39.8826 3.8878 49.1723 6.98394 45.2088 20.7325Z" fill="#FFE0AB" stroke="#00212E" stroke-width="0.0661146" stroke-miterlimit="10"/>
</g>
<defs>
<clipPath id="clip0_2413_167950">
<rect width="24.2158" height="57" fill="white" transform="translate(22 4)"/>
</clipPath>
</defs>
</svg>
