<svg width="69" height="64" viewBox="0 0 69 64" fill="none" xmlns="http://www.w3.org/2000/svg">
<g clip-path="url(#clip0_2682_227064)">
<path d="M28.5468 21.3892C28.5468 21.3892 31.4057 40.5975 31.8178 50.6949C32.23 60.7923 35.0122 64.9166 37.5879 56.2586C40.1637 47.6006 42.328 33.3845 41.2973 17.7227C36.7636 20.6077 32.23 20.0009 32.23 20.0009L28.5468 21.3892Z" fill="#FFE0AB" stroke="#00212E" stroke-width="0.0690374" stroke-miterlimit="10"/>
<path d="M43.049 13.3013C43.049 8.18361 39.7172 4.03516 34.6512 4.03516C29.9367 4.03516 26.0278 8.43767 25.5673 13.5347C25.084 18.8506 30.0133 24.4564 34.6512 24.4564C39.2892 24.4564 43.049 18.4198 43.049 13.3013Z" fill="#FFE0AB" stroke="#00212E" stroke-width="0.0690374" stroke-miterlimit="10"/>
</g>
<defs>
<clipPath id="clip0_2682_227064">
<rect width="17.5838" height="57" fill="white" transform="translate(25.4998 4)"/>
</clipPath>
</defs>
</svg>
