<svg width="68" height="64" viewBox="0 0 68 64" fill="none" xmlns="http://www.w3.org/2000/svg">
<g clip-path="url(#clip0_2682_227070)">
<path d="M29.7342 23.3779C29.7342 23.3779 34.172 41.9299 33.6603 55.3317C33.701 57.864 34.2288 61.3346 35.3672 60.936C36.5056 60.5373 37.3015 59.2859 37.6995 54.8481C38.0974 50.4103 39.2078 28.6179 39.1221 21.4492C37.689 22.1751 36.2933 22.9727 34.9405 23.839L29.7342 23.3779Z" fill="#FFE0AB" stroke="#00212E" stroke-width="0.0701849" stroke-miterlimit="10"/>
<path d="M28.0839 14.7033C28.0839 14.7033 29.1079 23.4939 30.5874 25.2008C32.0669 26.9077 37.9842 30.8626 40.0322 19.9524C40.6035 15.3005 39.6911 4.48995 34.058 4.03516C32.0669 4.26256 27.5147 7.2784 28.0839 14.7033Z" fill="#FFE0AB" stroke="#00212E" stroke-width="0.0701849" stroke-miterlimit="10"/>
</g>
<defs>
<clipPath id="clip0_2682_227070">
<rect width="12.2136" height="57" fill="white" transform="translate(28 4)"/>
</clipPath>
</defs>
</svg>
