<svg width="68" height="64" viewBox="0 0 68 64" fill="none" xmlns="http://www.w3.org/2000/svg">
<g clip-path="url(#clip0_2413_167928)">
<path d="M29.3984 22.0737C29.3984 22.0737 32.2876 36.8423 32.7855 43.9145C33.2834 50.9867 33.3863 55.7669 33.9803 58.0582C34.5744 60.3496 36.0696 62.7393 37.0685 59.0541C38.0673 55.3689 38.6621 44.2134 38.8611 39.7306C39.0602 35.2479 38.3632 20.9329 38.3632 20.0234C36.1718 23.9933 33.4817 25.3879 33.4817 25.3879L29.3984 22.0737Z" fill="#FFE0AB" stroke="#00212E" stroke-width="0.0751008" stroke-miterlimit="10"/>
<path d="M34.4782 4.06354L30.2951 4.21374C30.2951 4.21374 28.0376 4.54193 28.0376 8.05815C28.0376 11.5744 28.5025 18.2854 29.1003 21.007C29.6981 23.7287 32.2876 28.5742 33.7483 28.1784C35.209 27.7826 37.0685 26.385 38.1304 23.5973C39.1923 20.8095 40.8528 15.2971 40.7206 11.645C40.5884 7.99282 40.1198 4.45181 38.9272 4.06429C37.8653 4.00797 34.4782 4.06354 34.4782 4.06354Z" fill="#FFE0AB" stroke="#00212E" stroke-width="0.0751008" stroke-miterlimit="10"/>
</g>
<defs>
<clipPath id="clip0_2413_167928">
<rect width="12.7656" height="57" fill="white" transform="translate(28 4)"/>
</clipPath>
</defs>
</svg>
