<svg width="69" height="64" viewBox="0 0 69 64" fill="none" xmlns="http://www.w3.org/2000/svg">
<g clip-path="url(#clip0_2682_227012)">
<path d="M29.0049 44.7418C29.0049 44.7418 29.3178 10.4077 29.5681 8.78058C29.8184 7.15348 31.6312 1.51915 33.5739 5.33726C35.5167 9.15537 36.2656 10.7832 37.205 18.4826C38.1444 26.1821 39.4586 40.956 40.3973 43.9592C38.6443 41.8961 35.2643 41.4553 35.2643 41.4553L33.5113 43.2082L29.0049 44.7418Z" fill="#FFE0AB" stroke="#00212E" stroke-width="0.06877" stroke-miterlimit="10"/>
<path d="M27.5497 50.2345C27.5497 50.2345 27.5538 50.1692 27.5648 50.0482C27.6618 48.9671 28.245 43.4827 30.2723 41.4519C32.5259 39.1983 33.5588 38.4474 35.0608 38.6324C36.5627 38.8174 42.056 40.5579 41.8215 47.8345C41.587 55.111 40.79 58.5853 39.0982 59.806C37.4065 61.0266 36.1411 61.1669 35.1096 60.7447C34.078 60.3224 27.1735 56.5256 27.5497 50.2345Z" fill="#FFE0AB" stroke="#00212E" stroke-width="0.06877" stroke-miterlimit="10"/>
</g>
<defs>
<clipPath id="clip0_2682_227012">
<rect width="14.3626" height="57" fill="white" transform="translate(27.5 4)"/>
</clipPath>
</defs>
</svg>
