<svg width="69" height="64" viewBox="0 0 69 64" fill="none" xmlns="http://www.w3.org/2000/svg">
<g clip-path="url(#clip0_2682_227058)">
<path d="M23.4255 18.5036C23.4255 18.5036 23.013 40.137 23.7559 46.9081C24.4988 53.6791 25.9032 57.8896 27.3897 57.4771C28.8762 57.0646 30.1959 55.9079 30.1959 52.2747C30.1959 48.6415 31.3519 36.6687 31.6824 35.4305C32.0128 34.1924 32.7557 32.8734 33.9118 32.8734C35.0679 32.8734 35.9763 35.6789 35.6466 38.4857C35.3169 41.2925 32.9212 54.0088 33.004 56.6514C33.0868 59.294 32.8109 62.8424 35.7146 59.7887C38.6183 56.7349 44.1928 48.1052 45.5548 35.5954C46.9169 23.0856 45.5548 18.503 45.5548 18.503L30.0727 14.9297L23.4255 18.5036Z" fill="#FFE0AB" stroke="#00212E" stroke-width="0.0672932" stroke-miterlimit="10"/>
<path d="M23.5081 20.7342C23.5081 20.7342 44.1926 23.335 45.5547 21.6009C46.9167 19.8667 47.9099 6.62883 43.1994 4.51583C41.2176 4.13696 39.7311 3.65649 38.6167 4.51583C37.5024 5.37516 35.892 7.12411 30.6896 4.51583C28.8343 3.88933 19.5445 6.98616 23.5081 20.7342Z" fill="#FFE0AB" stroke="#00212E" stroke-width="0.0672932" stroke-miterlimit="10"/>
</g>
<defs>
<clipPath id="clip0_2682_227058">
<rect width="24.2168" height="57" fill="white" transform="translate(22.5 4)"/>
</clipPath>
</defs>
</svg>
