<svg width="68" height="64" viewBox="0 0 68 64" fill="none" xmlns="http://www.w3.org/2000/svg">
<g clip-path="url(#clip0_2413_167874)">
<path d="M26.7463 41.0154C26.7463 41.0154 29.5893 29.5742 30.6296 22.0154C31.6698 14.4567 32.9178 5.40136 35.4838 4.34726C38.0498 3.29317 38.3961 4.95742 38.7431 9.11768C39.0901 13.2779 39.0893 15.6362 39.7133 22.1547C40.3373 28.6732 41.8631 41.4317 42.0708 43.4407C42.2786 45.4498 37.4943 40.0539 37.4943 40.0539L33.7481 37.6855L32.3631 38.0325L31.1843 40.0539L26.7463 41.0154Z" fill="#FFE0AB" stroke="#00212E" stroke-width="0.0728975" stroke-miterlimit="10"/>
<path d="M24.1461 50.4503C24.1461 58.9793 22.2106 60.8746 34.5996 60.9606C44.8446 61.0335 43.3888 58.9822 43.3888 50.4503C43.3888 41.9184 40.8578 34.875 34.5996 34.875C28.3413 34.875 24.1461 41.9191 24.1461 50.4503Z" fill="#FFE0AB" stroke="#00212E" stroke-width="0.0728975" stroke-miterlimit="10"/>
</g>
<defs>
<clipPath id="clip0_2413_167874">
<rect width="19.4964" height="57" fill="white" transform="translate(24 4)"/>
</clipPath>
</defs>
</svg>
