<svg width="68" height="64" viewBox="0 0 68 64" fill="none" xmlns="http://www.w3.org/2000/svg">
<g clip-path="url(#clip0_2413_167925)">
<path d="M30.1165 23.0664C30.1165 23.0664 31.5166 38.078 31.9833 45.9161C32.45 53.7541 32.6371 56.4648 33.197 58.2384C33.7569 60.0121 35.3442 62.9077 36.6511 59.0786C37.9581 55.2496 38.7044 45.5433 38.7983 37.4214C38.8922 29.2995 38.9847 22.9519 38.7983 19.125C36.5572 22.6723 34.5111 24.5391 34.5111 24.5391L32.1704 25.1923L30.1165 23.0664Z" fill="#FFE0AB" stroke="#00212E" stroke-width="0.0711451" stroke-miterlimit="10"/>
<path d="M37.2111 4.05764C37.2111 4.05764 27.0374 3.44081 27.0374 8.66855C27.0374 13.8963 29.9308 26.5615 31.6113 28.0698C33.2917 29.5781 35.8124 30.0455 37.8656 25.0981C39.9189 20.1507 39.9196 19.0771 40.1067 14.8532C40.254 11.5158 40.1686 7.03222 40.1259 5.29557C40.1207 5.03688 40.0275 4.78767 39.8617 4.58903C39.6959 4.39038 39.4674 4.25415 39.2138 4.20278C38.7784 4.11456 38.141 4.04768 37.2111 4.05764Z" fill="#FFE0AB" stroke="#00212E" stroke-width="0.0711451" stroke-miterlimit="10"/>
</g>
<defs>
<clipPath id="clip0_2413_167925">
<rect width="13.223" height="57" fill="white" transform="translate(27 4)"/>
</clipPath>
</defs>
</svg>
