<svg width="68" height="64" viewBox="0 0 68 64" fill="none" xmlns="http://www.w3.org/2000/svg">
<g clip-path="url(#clip0_2682_227025)">
<path d="M39.7971 39.75C39.7971 39.75 38.0108 18.3544 38.0108 13.5332C38.0108 8.71206 38.0108 -3.94509 33.5224 11.3926C29.0341 26.7304 28.8345 32.5542 28.9685 43.9387L34.1784 39.5194L37.0047 39.3855L39.7971 39.75Z" fill="#FFE0AB" stroke="#00212E" stroke-width="0.0690516" stroke-miterlimit="10"/>
<path d="M32.2346 60.9072C32.2346 60.9072 39.9683 61.008 41.0732 58.6471C42.178 56.2862 42.7304 52.3689 41.9771 47.9994C41.2237 43.6298 39.6666 35.2939 34.8447 35.7441C30.0228 36.1943 27.0612 41.9725 26.3604 48.9032C25.6595 55.834 26.0089 60.0537 28.3193 60.6061C30.6298 61.1585 32.2346 60.9072 32.2346 60.9072Z" fill="#FFE0AB" stroke="#00212E" stroke-width="0.0690516" stroke-miterlimit="10"/>
</g>
<defs>
<clipPath id="clip0_2682_227025">
<rect width="16.3597" height="57" fill="white" transform="translate(26 4)"/>
</clipPath>
</defs>
</svg>
