<svg width="68" height="64" viewBox="0 0 68 64" fill="none" xmlns="http://www.w3.org/2000/svg">
<g clip-path="url(#clip0_2413_167283)">
<path d="M40.7491 41.0172C40.7491 41.0172 37.906 29.5751 36.8659 22.0163C35.8258 14.4574 34.5773 5.40115 32.0115 4.34723C29.4457 3.29331 29.0987 4.95696 28.7518 9.11815C28.4049 13.2793 28.4069 15.6369 27.7813 22.1542C27.1557 28.6716 25.6314 41.4331 25.4238 43.4437C25.2162 45.4543 30.0002 40.0571 30.0002 40.0571L33.7469 37.6892L35.1319 38.0341L36.3106 40.0564L40.7491 41.0172Z" fill="#FFE0AB" stroke="#00212E" stroke-width="0.0689739" stroke-miterlimit="10"/>
<path d="M43.3494 50.4514C43.3494 58.9841 45.2855 60.8781 32.8958 60.9623C22.6497 61.0313 24.1057 58.9841 24.1057 50.4514C24.1057 41.9186 26.6364 34.875 32.8958 34.875C39.1551 34.875 43.3494 41.9193 43.3494 50.4514Z" fill="#FFE0AB" stroke="#00212E" stroke-width="0.0689739" stroke-miterlimit="10"/>
</g>
<defs>
<clipPath id="clip0_2413_167283">
<rect width="19.4934" height="57" fill="white" transform="translate(24 4)"/>
</clipPath>
</defs>
</svg>
