<svg width="68" height="64" viewBox="0 0 68 64" fill="none" xmlns="http://www.w3.org/2000/svg">
<g clip-path="url(#clip0_2682_227067)">
<path d="M28.2456 20.0784C28.2456 20.0784 29.8515 40.5425 30.4934 45.4661C31.1354 50.3897 33.053 57.2425 33.5397 59.4876C34.0265 61.7327 36.3803 61.9487 37.2369 56.2745C38.0935 50.6003 38.3074 39.1479 38.7354 33.6897C39.1634 28.2315 39.4874 18.1711 39.9126 15.9219C37.2369 20.3122 35.3104 22.2401 35.3104 22.2401L28.2456 20.0784Z" fill="#FFE0AB" stroke="#00212E" stroke-width="0.0683642" stroke-miterlimit="10"/>
<path d="M34.4539 25.3478C34.4539 25.3478 25.2487 22.9174 25.0347 13.8031C25.1421 10.8963 26.9612 5.22203 34.4539 4.04685C36.4878 3.83287 42.9099 6.54761 41.9467 12.7899C41.3047 15.6072 40.2376 17.5337 39.8062 19.5676C39.3748 21.6014 37.9863 25.1338 34.4539 25.3478Z" fill="#FFE0AB" stroke="#00212E" stroke-width="0.0683642" stroke-miterlimit="10"/>
</g>
<defs>
<clipPath id="clip0_2682_227067">
<rect width="17.0781" height="57" fill="white" transform="translate(25.0002 4)"/>
</clipPath>
</defs>
</svg>
