<svg width="68" height="64" viewBox="0 0 68 64" fill="none" xmlns="http://www.w3.org/2000/svg">
<g clip-path="url(#clip0_2413_167883)">
<path d="M26.9714 44.3556C26.9714 44.3556 29.3158 31.9655 29.5907 20.654C29.8656 9.34248 31.937 3.34564 34.2092 5.10122C34.7258 4.27458 36.2084 2.30994 37.5177 7.41045C38.827 12.511 39.7924 26.7103 40.206 32.1925C40.6197 37.6747 41.757 46.8489 41.757 47.3252C38.7586 44.8063 35.1394 42.5303 35.1394 42.5303L26.9714 44.3556Z" fill="#FFE0AB" stroke="#00212E" stroke-width="0.0639322" stroke-miterlimit="10"/>
<path d="M26.0755 50.0096C26.0755 50.0096 24.9413 39.9723 34.3227 39.6028C34.3481 39.6012 34.3735 39.6012 34.3988 39.6028C36.6793 39.8214 42.4658 41.2957 42.6844 49.704C42.6844 49.7232 42.6844 49.7443 42.6844 49.7641C42.4773 52.7101 42.125 54.4951 39.3088 57.0403C36.5297 59.5483 35.017 60.9235 34.1149 60.9682C34.0856 60.969 34.0563 60.9669 34.0274 60.9619C33.778 60.9229 33.3663 60.9414 33.1361 60.9561C33.0238 60.964 32.9122 60.9316 32.8216 60.8647C31.8581 60.1569 26.4386 55.9266 26.0755 50.0096Z" fill="#FFE0AB" stroke="#00212E" stroke-width="0.0639322" stroke-miterlimit="10"/>
</g>
<defs>
<clipPath id="clip0_2413_167883">
<rect width="16.7183" height="57" fill="white" transform="translate(26 4)"/>
</clipPath>
</defs>
</svg>
