<svg width="68" height="64" viewBox="0 0 68 64" fill="none" xmlns="http://www.w3.org/2000/svg">
<g clip-path="url(#clip0_2413_167938)">
<path d="M38.4829 23.3757C38.4829 23.3757 34.0445 41.9289 34.5571 55.329C34.5159 57.861 33.9876 61.3318 32.8501 60.9337C31.7126 60.5355 30.9156 59.2836 30.5168 54.8452C30.118 50.4068 29.0093 28.6144 29.0942 21.4453C30.5268 22.1711 31.9219 22.9686 33.2743 23.8348L38.4829 23.3757Z" fill="#FFE0AB" stroke="#00212E" stroke-width="0.0685253" stroke-miterlimit="10"/>
<path d="M40.1273 14.7039C40.1273 14.7039 39.1036 23.495 37.6241 25.2019C36.1446 26.9089 30.2268 30.8635 28.1786 19.9529C27.6098 15.3014 28.5212 4.49085 34.1533 4.03516C36.1467 4.26266 40.6981 7.27846 40.1273 14.7039Z" fill="#FFE0AB" stroke="#00212E" stroke-width="0.0685253" stroke-miterlimit="10"/>
</g>
<defs>
<clipPath id="clip0_2413_167938">
<rect width="12.2126" height="57" fill="white" transform="translate(28 4)"/>
</clipPath>
</defs>
</svg>
