<svg width="68" height="64" viewBox="0 0 68 64" fill="none" xmlns="http://www.w3.org/2000/svg">
<g clip-path="url(#clip0_2413_167941)">
<path d="M38.8352 20.079C38.8352 20.079 37.227 40.5437 36.5836 45.4673C35.9402 50.3909 34.0249 57.2414 33.5384 59.4896C33.0519 61.7378 30.6972 61.9514 29.8409 56.278C28.9846 50.6045 28.7711 39.1518 28.3398 33.6933C27.9086 28.2348 27.5893 18.1733 27.1628 15.9258C29.8382 20.3144 31.7651 22.2406 31.7651 22.2406L38.8352 20.079Z" fill="#FFE0AB" stroke="#00212E" stroke-width="0.0682316" stroke-miterlimit="10"/>
<path d="M32.6261 25.3486C32.6261 25.3486 41.8312 22.9182 42.042 13.8039C41.9349 10.8986 40.1152 5.2251 32.6261 4.04674C30.5907 3.83386 24.1653 6.54811 25.1315 12.7906C25.7736 15.6079 26.8441 17.5348 27.2719 19.5681C27.6997 21.6014 29.0917 25.1344 32.6261 25.3486Z" fill="#FFE0AB" stroke="#00212E" stroke-width="0.0682316" stroke-miterlimit="10"/>
</g>
<defs>
<clipPath id="clip0_2413_167941">
<rect width="17.0784" height="57" fill="white" transform="translate(25 4)"/>
</clipPath>
</defs>
</svg>
