<svg width="68" height="64" viewBox="0 0 68 64" fill="none" xmlns="http://www.w3.org/2000/svg">
<g clip-path="url(#clip0_2413_167953)">
<path d="M45.1303 19.7862V21.5845C45.1303 21.5845 42.0753 31.7072 41.8522 38.3386C41.6291 44.9701 41.8522 50.3342 41.4046 54.283C40.9571 58.2318 37.7542 65.4593 32.911 57.1142C28.0677 48.7691 22.7037 37.8944 22.2561 19.7862C24.3427 19.5624 33.6932 18.668 33.6932 18.668L45.1303 19.7862Z" fill="#FFE0AB" stroke="#00212E" stroke-width="0.0672019" stroke-miterlimit="10"/>
<path d="M22.0293 20.6814C22.8942 21.8669 25.1582 23.5873 27.1703 22.4697C29.1823 21.3521 31.566 21.51 33.0565 21.7661C34.547 22.0221 39.315 20.9886 40.2088 21.7661C41.1026 22.5436 44.2322 24.0341 45.4243 20.9798C46.6165 17.9255 46.468 14.05 45.8719 11.3699C45.2758 8.68993 43.6368 4.58793 41.2524 4.66252C38.8681 4.73711 36.8561 6.30023 35.1424 5.85468C33.4288 5.40913 32.0874 5.25659 30.2992 4.66118C28.511 4.06577 24.0407 3.61686 22.7726 4.66118C21.5045 5.70549 21.2081 7.79144 21.0589 12.1132C20.9097 16.435 21.4003 19.8192 22.0293 20.6814Z" fill="#FFE0AB" stroke="#00212E" stroke-width="0.0672019" stroke-miterlimit="10"/>
</g>
<defs>
<clipPath id="clip0_2413_167953">
<rect width="25.3573" height="57" fill="white" transform="translate(21 4)"/>
</clipPath>
</defs>
</svg>
