<svg width="68" height="64" viewBox="0 0 68 64" fill="none" xmlns="http://www.w3.org/2000/svg">
<g clip-path="url(#clip0_2682_227006)">
<path d="M26.7462 41.0154C26.7462 41.0154 29.5892 29.5742 30.6295 22.0154C31.6697 14.4567 32.9177 5.40136 35.4837 4.34726C38.0497 3.29317 38.396 4.95742 38.743 9.11768C39.0899 13.2779 39.0892 15.6362 39.7132 22.1547C40.3372 28.6732 41.863 41.4317 42.0707 43.4407C42.2785 45.4498 37.4942 40.0539 37.4942 40.0539L33.748 37.6855L32.363 38.0325L31.1842 40.0539L26.7462 41.0154Z" fill="#FFE0AB" stroke="#00212E" stroke-width="0.0728975" stroke-miterlimit="10"/>
<path d="M24.146 50.4503C24.146 58.9793 22.2106 60.8746 34.5995 60.9606C44.8445 61.0335 43.3888 58.9822 43.3888 50.4503C43.3888 41.9184 40.8578 34.875 34.5995 34.875C28.3413 34.875 24.146 41.9191 24.146 50.4503Z" fill="#FFE0AB" stroke="#00212E" stroke-width="0.0728975" stroke-miterlimit="10"/>
</g>
<defs>
<clipPath id="clip0_2682_227006">
<rect width="19.4964" height="57" fill="white" transform="translate(24 4)"/>
</clipPath>
</defs>
</svg>
