<svg width="69" height="64" viewBox="0 0 69 64" fill="none" xmlns="http://www.w3.org/2000/svg">
<g clip-path="url(#clip0_2682_227028)">
<path d="M29.4574 42.7043C29.4574 42.7043 32.1019 20.0327 33.0468 14.5537C33.9916 9.07471 35.6604 4.63515 36.9831 4.1312C38.3057 3.62725 39.8932 5.21831 40.0061 8.22451C40.3138 16.4357 40.6039 41.0319 40.6039 45.4105C39.376 44.3101 34.2747 42.6069 34.2747 42.6069L31.441 41.8513L29.4574 42.7043Z" fill="#FFE0AB" stroke="#00212E" stroke-width="0.0700909" stroke-miterlimit="10"/>
<path d="M42.1473 50.4168C42.1473 50.4168 42.2097 39.2724 34.8418 38.7656C33.2675 38.8287 28.1032 38.7719 27.5362 48.9709C27.4731 52.3689 29.3628 60.2688 32.6374 60.9164C35.9121 61.5641 42.462 55.8328 42.1473 50.4168Z" fill="#FFE0AB" stroke="#00212E" stroke-width="0.0700909" stroke-miterlimit="10"/>
</g>
<defs>
<clipPath id="clip0_2682_227028">
<rect width="14.6931" height="57" fill="white" transform="translate(27.5 4)"/>
</clipPath>
</defs>
</svg>
