<svg width="68" height="64" viewBox="0 0 68 64" fill="none" xmlns="http://www.w3.org/2000/svg">
<g clip-path="url(#clip0_2682_227037)">
<path d="M30.5436 19.3063C28.6199 28.2494 32.4647 27.8323 34.9031 28.3569C37.3416 28.8814 37.4477 30.1488 39.3734 21.2057C41.2991 12.2625 40.8806 4.58808 38.4421 4.06348C36.0037 3.53889 32.4673 10.3632 30.5436 19.3063Z" fill="#FFE0AB" stroke="#00212E" stroke-width="0.0659036" stroke-miterlimit="10"/>
<path d="M34.3937 43.6387L44.9277 46.4989C44.9277 46.4989 46.5094 28.5837 45.9822 21.6585C45.4549 14.7334 42.3687 4.57171 40.7877 11.798C39.2066 19.0244 37.2684 23.3714 36.6476 24.5003C36.0268 25.6292 34.7278 27.3229 33.7122 24.4436C32.6967 21.5643 32.696 12.0234 32.3006 9.76558C31.9052 7.50772 31.0023 4.45902 28.2357 8.35392C25.469 12.2488 25.1309 12.7036 24.1496 24.2934C23.1683 35.8832 24.1496 45.2197 24.1496 45.2197L31.6771 45.7469L34.3937 43.6387Z" fill="#FFE0AB" stroke="#00212E" stroke-width="0.0659036" stroke-miterlimit="10"/>
<path d="M37.4378 58.8781C37.4378 58.8781 31.0023 59.1365 29.4213 59.3461C27.8403 59.5556 25.6951 59.5556 24.4535 57.9753C23.2119 56.3949 21.8945 52.7438 22.0447 49.9568C22.195 47.1697 22.7222 43.0316 25.3564 42.8062C26.4108 42.7311 27.3888 43.5589 27.9161 43.634C28.4433 43.7091 29.7976 43.0975 31.4913 42.801C33.1851 42.5044 41.0513 41.9027 43.5728 43.2952C44.6272 43.9352 46.9998 47.925 46.7361 51.7639C46.4725 55.6027 45.9835 58.0491 44.1771 58.8393C42.9704 59.3678 38.9061 58.9915 37.4378 58.8781Z" fill="#FFE0AB" stroke="#00212E" stroke-width="0.0659036" stroke-miterlimit="10"/>
<path d="M33.1771 60.9663C35.0957 60.9663 36.6509 60.1702 36.6509 59.1882C36.6509 58.2062 35.0957 57.4102 33.1771 57.4102C31.2586 57.4102 29.7034 58.2062 29.7034 59.1882C29.7034 60.1702 31.2586 60.9663 33.1771 60.9663Z" fill="#FFE0AB" stroke="#00212E" stroke-width="0.0659036" stroke-miterlimit="10"/>
</g>
<defs>
<clipPath id="clip0_2682_227037">
<rect width="24.7877" height="57" fill="white" transform="translate(22 4)"/>
</clipPath>
</defs>
</svg>
