<svg width="69" height="64" viewBox="0 0 69 64" fill="none" xmlns="http://www.w3.org/2000/svg">
<g clip-path="url(#clip0_2682_227073)">
<path d="M30.6165 23.0664C30.6165 23.0664 32.0166 38.078 32.4833 45.9161C32.95 53.7541 33.1371 56.4648 33.697 58.2384C34.2569 60.0121 35.8442 62.9077 37.1511 59.0786C38.4581 55.2496 39.2044 45.5433 39.2983 37.4214C39.3922 29.2995 39.4847 22.9519 39.2983 19.125C37.0572 22.6723 35.0111 24.5391 35.0111 24.5391L32.6704 25.1923L30.6165 23.0664Z" fill="#FFE0AB" stroke="#00212E" stroke-width="0.0711451" stroke-miterlimit="10"/>
<path d="M37.711 4.05764C37.711 4.05764 27.5372 3.44081 27.5372 8.66855C27.5372 13.8963 30.4307 26.5615 32.1111 28.0698C33.7916 29.5781 36.3123 30.0455 38.3655 25.0981C40.4188 20.1507 40.4195 19.0771 40.6066 14.8532C40.7538 11.5158 40.6685 7.03222 40.6258 5.29557C40.6206 5.03688 40.5274 4.78767 40.3616 4.58903C40.1958 4.39038 39.9673 4.25415 39.7137 4.20278C39.2783 4.11456 38.6408 4.04768 37.711 4.05764Z" fill="#FFE0AB" stroke="#00212E" stroke-width="0.0711451" stroke-miterlimit="10"/>
</g>
<defs>
<clipPath id="clip0_2682_227073">
<rect width="13.223" height="57" fill="white" transform="translate(27.5 4)"/>
</clipPath>
</defs>
</svg>
