<svg width="68" height="64" viewBox="0 0 68 64" fill="none" xmlns="http://www.w3.org/2000/svg">
<g clip-path="url(#clip0_2413_167947)">
<path d="M45.6992 17.4258C45.6992 17.6688 46.4282 37.519 45.6992 44.5674C44.9703 51.6159 44.4027 56.2359 43.5927 57.4502C42.7828 58.6644 40.6756 58.9087 40.4354 56.5579C40.1951 54.207 39.2205 44.4858 38.5718 40.9214C37.9232 37.357 36.6273 32.6573 35.4145 32.822C34.2016 32.9868 32.9833 33.794 32.6593 39.1416C32.3354 44.4892 32.6593 56.4213 32.2544 58.3548C31.8494 60.2883 31.034 63.5267 28.6035 57.4488C26.173 51.3709 21.0691 32.982 22.8509 20.1782C23.6615 18.2337 25.6061 19.5302 25.6061 19.5302L40.0276 19.0443L45.6992 17.4258Z" fill="#FFE0AB" stroke="#00212E" stroke-width="0.0686383" stroke-miterlimit="10"/>
<path d="M45.5373 20.5911C46.1914 19.4572 47.6438 13.0559 47.4008 11.1114C47.1578 9.1669 45.9422 3.99569 42.3772 4.2723C38.8121 4.54892 38.0831 6.00679 36.3816 5.68282C34.6801 5.35885 32.3319 5.3513 29.7381 4.26132C27.1443 3.17134 22.1192 6.33077 21.555 8.5169C20.9908 10.703 20.7444 17.0239 21.555 19.3734C22.3657 21.7229 21.636 23.1815 25.7681 22.4518C29.9001 21.7222 31.115 20.95 35.735 21.6248C40.3551 22.2995 44.3217 22.6976 45.5373 20.5911Z" fill="#FFE0AB" stroke="#00212E" stroke-width="0.0686383" stroke-miterlimit="10"/>
</g>
<defs>
<clipPath id="clip0_2413_167947">
<rect width="26.4621" height="57" fill="white" transform="translate(21 4)"/>
</clipPath>
</defs>
</svg>
