<svg width="68" height="64" viewBox="0 0 68 64" fill="none" xmlns="http://www.w3.org/2000/svg">
<g clip-path="url(#clip0_2682_227055)">
<path d="M22.2318 19.7854V21.5832C22.2318 21.5832 25.2865 31.7056 25.51 38.3368C25.7334 44.9681 25.51 50.3319 25.9569 54.2805C26.4039 58.2291 29.6106 65.4559 34.4504 57.1117C39.2902 48.7675 44.6575 37.8898 45.1045 19.7854C43.0188 19.5619 33.6685 18.668 33.6685 18.668L22.2318 19.7854Z" fill="#FFE0AB" stroke="#00212E" stroke-width="0.0700607" stroke-miterlimit="10"/>
<path d="M45.3279 20.6827C44.4634 21.8682 42.199 23.5881 40.1897 22.4707C38.1803 21.3532 35.7934 21.5108 34.3046 21.7701C32.8158 22.0293 28.0461 20.9924 27.1521 21.7701C26.2581 22.5477 23.1257 24.0323 21.934 20.9805C20.7422 17.9286 20.8908 14.0515 21.487 11.3696C22.0832 8.68763 23.7254 4.58978 26.1075 4.66405C28.4895 4.73831 30.5031 6.30347 32.2168 5.85508C33.9305 5.40669 35.2714 5.25676 37.0594 4.66405C38.8473 4.07133 43.3179 3.62014 44.5846 4.66405C45.8513 5.70795 46.1448 7.79366 46.2969 12.1143C46.4489 16.4349 45.9571 19.8203 45.3279 20.6827Z" fill="#FFE0AB" stroke="#00212E" stroke-width="0.0700607" stroke-miterlimit="10"/>
</g>
<defs>
<clipPath id="clip0_2682_227055">
<rect width="25.3585" height="57" fill="white" transform="translate(21 4)"/>
</clipPath>
</defs>
</svg>
