<svg width="68" height="64" viewBox="0 0 68 64" fill="none" xmlns="http://www.w3.org/2000/svg">
<g clip-path="url(#clip0_2413_167229)">
<path d="M33.5859 45.3421L24.0912 44.2493C24.0912 44.2493 24.2475 12.8698 25.9645 9.59394C27.6816 6.3181 28.9306 9.51583 29.5548 12.1702C30.179 14.8245 31.1353 19.7773 31.4872 20.8919C31.839 22.0065 34.2971 27.3315 34.7066 22.3556C35.1162 17.3797 34.238 7.77976 34.238 6.95996C34.238 6.14015 35.1746 3.623 36.5215 6.95996C37.8683 10.2969 43.9704 27.9204 44.2556 43.187C41.1822 46.9811 37.8283 48.2288 37.8283 48.2288L33.5859 45.3421Z" fill="#FFE0AB" stroke="#00212E" stroke-width="0.067921" stroke-miterlimit="10"/>
<path d="M28.1817 8.67348C28.1817 8.67348 28.0737 4.71708 28.8921 4.171C29.7106 3.62491 33.1168 4.63286 34.3605 8.89015C34.4922 10.8456 34.7299 15.2924 34.7299 15.2924L34.8087 18.141L34.7218 22.1592C34.7218 22.1592 34.3958 24.8672 33.775 24.4332C33.1542 23.9992 31.8385 22.7128 31.194 19.7528C30.5494 16.7928 29.7771 13.0422 29.5516 12.1707C29.3261 11.2993 28.1817 8.67348 28.1817 8.67348Z" fill="#FFE0AB" stroke="#00212E" stroke-width="0.067921" stroke-miterlimit="10"/>
<path d="M24.1693 43.3147C24.1693 43.3147 29.3211 42.7292 30.6089 42.378C31.8967 42.0269 43.9554 39.5681 44.7752 44.3681C45.595 49.1681 45.1264 57.1298 42.3165 58.6519C39.5066 60.174 36.5799 59.8229 36.5799 59.8229C36.5799 59.8229 29.7878 59.8908 28.9727 59.8575C28.1577 59.8242 22.6112 60.9544 22.0651 55.4127C21.9843 53.6957 21.9062 44.9536 24.1693 43.3147Z" fill="#FFE0AB" stroke="#00212E" stroke-width="0.067921" stroke-miterlimit="10"/>
<path d="M36.4121 60.0607C36.6059 59.2651 35.4982 58.312 33.9379 57.932C32.3776 57.5519 30.9557 57.8888 30.7619 58.6844C30.5681 59.48 31.6758 60.4331 33.2361 60.8132C34.7963 61.1932 36.2183 60.8563 36.4121 60.0607Z" fill="#FFE0AB" stroke="#00212E" stroke-width="0.067921" stroke-miterlimit="10"/>
</g>
<defs>
<clipPath id="clip0_2413_167229">
<rect width="23.1719" height="57" fill="white" transform="translate(22 4)"/>
</clipPath>
</defs>
</svg>
