<svg width="68" height="64" viewBox="0 0 68 64" fill="none" xmlns="http://www.w3.org/2000/svg">
<g clip-path="url(#clip0_2413_167913)">
<path d="M22.7603 17.4258C22.7603 17.6692 22.0315 37.5197 22.7603 44.5684C23.4892 51.6171 24.0567 56.2358 24.867 57.4508C25.6772 58.6658 27.7825 58.9092 28.0272 56.5599C28.272 54.2105 29.2422 44.4911 29.8904 40.9227C30.5386 37.3542 31.835 32.6582 33.05 32.8203C34.265 32.9823 35.4807 33.7926 35.8048 39.1401C36.1289 44.4877 35.8048 56.4202 36.2116 58.3533C36.6184 60.2863 37.4266 63.5279 39.8574 57.4508C42.2881 51.3737 47.3936 32.9823 45.6097 20.1806C44.7995 18.236 42.8549 19.5324 42.8549 19.5324L28.4327 19.0463L22.7603 17.4258Z" fill="#FFE0AB" stroke="#00212E" stroke-width="0.0678023" stroke-miterlimit="10"/>
<path d="M22.9242 20.5864C22.2699 19.4521 20.8176 13.0509 21.061 11.1063C21.3044 9.16172 22.5194 3.99045 26.0825 4.26708C29.6455 4.54371 30.3764 6.00214 32.0775 5.67804C33.7787 5.35395 36.1287 5.34649 38.7222 4.2542C41.3156 3.1619 46.3384 6.3242 46.9059 8.5115C47.4734 10.6988 47.7195 17.0193 46.9059 19.3687C46.0923 21.718 46.8245 23.1771 42.6927 22.4476C38.5608 21.718 37.3451 20.9437 32.7257 21.615C28.1064 22.2862 24.1399 22.693 22.9242 20.5864Z" fill="#FFE0AB" stroke="#00212E" stroke-width="0.0678023" stroke-miterlimit="10"/>
</g>
<defs>
<clipPath id="clip0_2413_167913">
<rect width="26.4619" height="57" fill="white" transform="translate(21 4)"/>
</clipPath>
</defs>
</svg>
