<svg width="68" height="64" viewBox="0 0 68 64" fill="none" xmlns="http://www.w3.org/2000/svg">
<g clip-path="url(#clip0_2413_167886)">
<path d="M40.5406 42.9942C40.5406 42.9942 39.7394 25.6025 39.419 19.1908C39.0987 12.779 39.098 7.00796 38.9382 6.12615C38.7783 5.24434 38.3869 3.9223 36.9145 4.04286C35.4421 4.16341 34.7201 5.84576 34.4194 7.28835C34.1187 8.73094 32.8867 14.4417 31.2037 20.4525C29.5207 26.4633 27.9575 35.1195 28.3788 43.8956L30.5427 39.0267H34.1499L40.5406 42.9942Z" fill="#FFE0AB" stroke="#00212E" stroke-width="0.0677273" stroke-miterlimit="10"/>
<path d="M34.149 60.9642C38.6309 60.9642 42.2641 55.2184 42.2641 48.1305C42.2641 41.0427 38.6309 35.2969 34.149 35.2969C29.6672 35.2969 26.0339 41.0427 26.0339 48.1305C26.0339 55.2184 29.6672 60.9642 34.149 60.9642Z" fill="#FFE0AB" stroke="#00212E" stroke-width="0.0677273" stroke-miterlimit="10"/>
</g>
<defs>
<clipPath id="clip0_2413_167886">
<rect width="16.2979" height="57" fill="white" transform="translate(26 4)"/>
</clipPath>
</defs>
</svg>
