<svg width="69" height="64" viewBox="0 0 69 64" fill="none" xmlns="http://www.w3.org/2000/svg">
<g clip-path="url(#clip0_2682_227080)">
<path d="M39.8632 22.0703C39.8632 22.0703 36.9747 36.8415 36.4766 43.915C35.9784 50.9885 35.8788 55.77 35.281 58.0614C34.6833 60.3528 33.1889 62.7438 32.1926 59.0576C31.1963 55.3715 30.5986 44.2139 30.3993 39.7314C30.2001 35.2488 30.8975 20.9298 30.8975 20.0195C33.0892 23.991 35.7792 25.3858 35.7792 25.3858L39.8632 22.0703Z" fill="#FFE0AB" stroke="#00212E" stroke-width="0.0646926" stroke-miterlimit="10"/>
<path d="M34.783 4.05598L38.9666 4.20283C38.9666 4.20283 41.227 4.53147 41.227 8.05139C41.227 11.5713 40.7619 18.2793 40.1641 21.0022C39.5663 23.7251 36.9767 28.5712 35.5153 28.1747C34.0539 27.7781 32.1927 26.384 31.1298 23.5925C30.0669 20.801 28.4069 15.2905 28.5421 11.6379C28.6773 7.98541 29.1392 4.44349 30.3347 4.05598C31.3937 4.00034 34.783 4.05598 34.783 4.05598Z" fill="#FFE0AB" stroke="#00212E" stroke-width="0.0646926" stroke-miterlimit="10"/>
</g>
<defs>
<clipPath id="clip0_2682_227080">
<rect width="12.7574" height="57" fill="white" transform="translate(28.5 4)"/>
</clipPath>
</defs>
</svg>
