<svg width="68" height="64" viewBox="0 0 68 64" fill="none" xmlns="http://www.w3.org/2000/svg">
<g clip-path="url(#clip0_2413_167935)">
<path d="M37.1064 23.068C37.1064 23.068 35.7058 38.0746 35.239 45.916C34.7722 53.7574 34.5858 56.4628 34.0255 58.2388C33.4651 60.0147 31.8783 62.9065 30.5713 59.0762C29.2643 55.2458 28.5176 45.5385 28.4241 37.4179C28.3306 29.2974 28.2378 22.9486 28.4241 19.1211C30.6648 22.6681 32.7115 24.5355 32.7115 24.5355L35.0527 25.1886L37.1064 23.068Z" fill="#FFE0AB" stroke="#00212E" stroke-width="0.069782" stroke-miterlimit="10"/>
<path d="M30.0117 4.05758C30.0117 4.05758 40.188 3.44141 40.188 8.66877C40.188 13.8961 37.2934 26.5623 35.6131 28.0682C33.9327 29.5741 31.4122 30.0437 29.3585 25.0961C27.3048 20.1486 27.3048 19.0747 27.1178 14.8501C26.9706 11.5131 27.0564 7.0289 27.099 5.28993C27.1043 5.03132 27.1974 4.78221 27.3631 4.58351C27.5287 4.38481 27.7569 4.24832 28.0103 4.19645C28.4444 4.1148 29.0815 4.04851 30.0117 4.05758Z" fill="#FFE0AB" stroke="#00212E" stroke-width="0.069782" stroke-miterlimit="10"/>
</g>
<defs>
<clipPath id="clip0_2413_167935">
<rect width="13.2223" height="57" fill="white" transform="translate(27 4)"/>
</clipPath>
</defs>
</svg>
