<svg width="69" height="64" viewBox="0 0 69 64" fill="none" xmlns="http://www.w3.org/2000/svg">
<g clip-path="url(#clip0_2682_227018)">
<path d="M41.2491 41.0172C41.2491 41.0172 38.406 29.5751 37.3659 22.0163C36.3258 14.4574 35.0773 5.40115 32.5115 4.34723C29.9457 3.29331 29.5987 4.95696 29.2518 9.11815C28.9049 13.2793 28.9069 15.6369 28.2813 22.1542C27.6557 28.6716 26.1314 41.4331 25.9238 43.4437C25.7162 45.4543 30.5002 40.0571 30.5002 40.0571L34.2469 37.6892L35.6319 38.0341L36.8106 40.0564L41.2491 41.0172Z" fill="#FFE0AB" stroke="#00212E" stroke-width="0.0689739" stroke-miterlimit="10"/>
<path d="M43.8494 50.4514C43.8494 58.9841 45.7855 60.8781 33.3958 60.9623C23.1497 61.0313 24.6057 58.9841 24.6057 50.4514C24.6057 41.9186 27.1364 34.875 33.3958 34.875C39.6551 34.875 43.8494 41.9193 43.8494 50.4514Z" fill="#FFE0AB" stroke="#00212E" stroke-width="0.0689739" stroke-miterlimit="10"/>
</g>
<defs>
<clipPath id="clip0_2682_227018">
<rect width="19.4934" height="57" fill="white" transform="translate(24.5 4)"/>
</clipPath>
</defs>
</svg>
