<svg width="68" height="64" viewBox="0 0 68 64" fill="none" xmlns="http://www.w3.org/2000/svg">
<g clip-path="url(#clip0_2413_167254)">
<path d="M27.7566 42.99C27.7566 42.99 28.5581 25.5975 28.8791 19.1859C29.2002 12.7743 29.1995 7.00273 29.3597 6.12144C29.5198 5.24015 29.9106 3.92021 31.3834 4.04317C32.8562 4.16612 33.5767 5.84695 33.8784 7.28918C34.1802 8.73141 35.411 14.4425 37.0939 20.454C38.7767 26.4655 40.3399 35.1216 39.9192 43.8979L37.7552 39.0289H34.1489L27.7566 42.99Z" fill="#FFE0AB" stroke="#00212E" stroke-width="0.0664622" stroke-miterlimit="10"/>
<path d="M34.1481 60.9646C38.6299 60.9646 42.2632 55.2187 42.2632 48.1307C42.2632 41.0428 38.6299 35.2969 34.1481 35.2969C29.6663 35.2969 26.0331 41.0428 26.0331 48.1307C26.0331 55.2187 29.6663 60.9646 34.1481 60.9646Z" fill="#FFE0AB" stroke="#00212E" stroke-width="0.0664622" stroke-miterlimit="10"/>
</g>
<defs>
<clipPath id="clip0_2413_167254">
<rect width="16.2965" height="57" fill="white" transform="translate(26 4)"/>
</clipPath>
</defs>
</svg>
