<svg width="68" height="64" viewBox="0 0 68 64" fill="none" xmlns="http://www.w3.org/2000/svg">
<g clip-path="url(#clip0_2682_227009)">
<path d="M26.2144 45.0801C26.2144 45.0801 28.0856 35.2825 28.2937 31.5394C28.5018 27.7962 28.3974 18.7526 29.1253 15.1138C29.8531 11.4751 30.3208 1.33888 33.9588 4.71882C33.9588 4.92616 35.9344 3.36742 37.2858 7.3172C38.6372 11.267 38.7409 14.7499 38.7931 17.9747C38.8453 21.1994 39.2433 38.7335 40.9761 45.0823C38.7583 46.0248 33.5956 45.5405 33.5956 45.5405L30.0953 46.0951L26.2144 45.0801Z" fill="#FFE0AB" stroke="#00212E" stroke-width="0.0724997" stroke-miterlimit="10"/>
<path d="M25.0363 49.8342C25.0363 49.8342 25.3828 45.1558 27.4621 43.2846C29.5414 41.4134 32.556 39.4907 34.7911 39.7502C37.0263 40.0098 41.1319 41.3902 41.9635 44.7802C42.7951 48.1703 42.1716 49.6783 41.9635 51.601C41.7554 53.5237 37.8057 60.5968 34.5308 60.9593C33.4912 61.1151 27.3925 59.1403 25.0334 50.122L25.0363 49.8342Z" fill="#FFE0AB" stroke="#00212E" stroke-width="0.0724997" stroke-miterlimit="10"/>
</g>
<defs>
<clipPath id="clip0_2682_227009">
<rect width="17.4202" height="57" fill="white" transform="translate(25 4)"/>
</clipPath>
</defs>
</svg>
