<svg width="68" height="64" viewBox="0 0 68 64" fill="none" xmlns="http://www.w3.org/2000/svg">
<g clip-path="url(#clip0_2682_227031)">
<path d="M26.9714 44.3556C26.9714 44.3556 29.3158 31.9655 29.5907 20.654C29.8656 9.34248 31.937 3.34564 34.2092 5.10122C34.7258 4.27458 36.2084 2.30994 37.5177 7.41045C38.827 12.511 39.7924 26.7103 40.206 32.1925C40.6197 37.6747 41.757 46.8489 41.757 47.3252C38.7586 44.8063 35.1394 42.5303 35.1394 42.5303L26.9714 44.3556Z" fill="#FFE0AB" stroke="#00212E" stroke-width="0.0639322" stroke-miterlimit="10"/>
<path d="M26.0756 50.0096C26.0756 50.0096 24.9414 39.9723 34.3228 39.6028C34.3482 39.6012 34.3736 39.6012 34.3989 39.6028C36.6794 39.8214 42.4659 41.2957 42.6845 49.704C42.6845 49.7232 42.6845 49.7443 42.6845 49.7641C42.4774 52.7101 42.1251 54.4951 39.3089 57.0403C36.5298 59.5483 35.0171 60.9235 34.1151 60.9682C34.0857 60.969 34.0564 60.9669 34.0275 60.9619C33.7781 60.9229 33.3664 60.9414 33.1363 60.9561C33.0239 60.964 32.9124 60.9316 32.8217 60.8647C31.8583 60.1569 26.4387 55.9266 26.0756 50.0096Z" fill="#FFE0AB" stroke="#00212E" stroke-width="0.0639322" stroke-miterlimit="10"/>
</g>
<defs>
<clipPath id="clip0_2682_227031">
<rect width="16.7183" height="57" fill="white" transform="translate(26 4)"/>
</clipPath>
</defs>
</svg>
