<svg width="68" height="64" viewBox="0 0 68 64" fill="none" xmlns="http://www.w3.org/2000/svg">
<g clip-path="url(#clip0_2413_167880)">
<path d="M28.9575 42.7043C28.9575 42.7043 31.602 20.0327 32.5469 14.5537C33.4917 9.07471 35.1606 4.63515 36.4832 4.1312C37.8058 3.62725 39.3934 5.21831 39.5062 8.22451C39.8139 16.4357 40.1041 41.0319 40.1041 45.4105C38.8761 44.3101 33.7749 42.6069 33.7749 42.6069L30.9411 41.8513L28.9575 42.7043Z" fill="#FFE0AB" stroke="#00212E" stroke-width="0.0700909" stroke-miterlimit="10"/>
<path d="M41.6473 50.4168C41.6473 50.4168 41.7097 39.2724 34.3418 38.7656C32.7675 38.8287 27.6032 38.7719 27.0362 48.9709C26.9731 52.3689 28.8628 60.2688 32.1374 60.9164C35.4121 61.5641 41.962 55.8328 41.6473 50.4168Z" fill="#FFE0AB" stroke="#00212E" stroke-width="0.0700909" stroke-miterlimit="10"/>
</g>
<defs>
<clipPath id="clip0_2413_167880">
<rect width="14.6931" height="57" fill="white" transform="translate(27 4)"/>
</clipPath>
</defs>
</svg>
