<svg width="68" height="64" viewBox="0 0 68 64" fill="none" xmlns="http://www.w3.org/2000/svg">
<g clip-path="url(#clip0_2413_167895)">
<path d="M43.9906 45.9047C43.9906 45.9047 43.5914 9.34921 44.0868 5.22966C44.5821 1.11011 39.2566 8.85247 38.8846 13.4722C39.5039 10.7245 41.114 4.76357 39.7519 4.0613C38.3899 3.35904 24.3961 19.3384 24.146 44.8144" fill="#FFE0AB"/>
<path d="M43.9906 45.9047C43.9906 45.9047 43.5914 9.34921 44.0868 5.22966C44.5821 1.11011 39.2566 8.85247 38.8846 13.4722C39.5039 10.7245 41.114 4.76357 39.7519 4.0613C38.3899 3.35904 24.3961 19.3384 24.146 44.8144" stroke="#00212E" stroke-width="0.0696694" stroke-miterlimit="10"/>
<path d="M38.1419 58.7225C38.1419 58.7225 40.1233 59.5892 41.362 59.3419C42.6008 59.0945 44.9542 58.1031 45.0775 56.121C45.2008 54.1389 45.5756 44.6026 42.3527 44.1107C39.1298 43.6189 36.0365 45.2254 34.6738 45.2254C33.311 45.2254 29.9697 44.9092 27.6142 44.0125C25.2587 43.1159 22.412 44.2313 23.1553 49.1855C23.8987 54.1396 23.9781 60.993 30.9994 60.6628C32.8986 60.6628 33.5591 60.3326 33.5591 60.3326" fill="#FFE0AB"/>
<path d="M38.1419 58.7225C38.1419 58.7225 40.1233 59.5892 41.362 59.3419C42.6008 59.0945 44.9542 58.1031 45.0775 56.121C45.2008 54.1389 45.5756 44.6026 42.3527 44.1107C39.1298 43.6189 36.0365 45.2254 34.6738 45.2254C33.311 45.2254 29.9697 44.9092 27.6142 44.0125C25.2587 43.1159 22.412 44.2313 23.1553 49.1855C23.8987 54.1396 23.9781 60.993 30.9994 60.6628C32.8986 60.6628 33.5591 60.3326 33.5591 60.3326" stroke="#00212E" stroke-width="0.0696694" stroke-miterlimit="10"/>
<path d="M35.5431 58.6034C35.5431 58.6034 40.1253 57.984 37.4005 59.9654C34.6757 61.9468 32.075 60.6175 33.6439 59.2388C33.6418 59.2353 34.8018 58.673 35.5431 58.6034Z" fill="#FFE0AB" stroke="#00212E" stroke-width="0.0696694" stroke-miterlimit="10"/>
</g>
<defs>
<clipPath id="clip0_2413_167895">
<rect width="22.1918" height="57" fill="white" transform="translate(23 4)"/>
</clipPath>
</defs>
</svg>
