<svg width="68" height="64" viewBox="0 0 68 64" fill="none" xmlns="http://www.w3.org/2000/svg">
<g clip-path="url(#clip0_2413_167241)">
<path d="M38.2435 19.3051C40.1702 28.2485 36.3228 27.8313 33.8844 28.3555C31.4461 28.8797 31.3378 30.1493 29.4138 21.2046C27.4897 12.26 27.9069 4.58692 30.3439 4.06338C32.7809 3.53984 36.3201 10.3625 38.2435 19.3051Z" fill="#FFE0AB" stroke="#00212E" stroke-width="0.066439" stroke-miterlimit="10"/>
<path d="M34.3938 43.6372L23.8592 46.498C23.8592 46.498 22.2787 28.5827 22.8055 21.6578C23.3324 14.7329 26.4185 4.57037 27.9997 11.7969C29.581 19.0235 31.521 23.3699 32.1395 24.4994C32.7581 25.6289 34.059 27.3217 35.0755 24.4429C36.092 21.5641 36.0913 12.0228 36.4866 9.76457C36.882 7.50631 38.1197 4.24017 40.5514 8.3534C42.9233 12.365 43.3372 12.757 44.6347 24.2921C45.9356 35.8525 44.6347 45.2204 44.6347 45.2204L37.1078 45.7473L34.3938 43.6372Z" fill="#FFE0AB" stroke="#00212E" stroke-width="0.066439" stroke-miterlimit="10"/>
<path d="M31.3524 58.8752C31.3524 58.8752 37.7884 59.133 39.3696 59.3403C40.9509 59.5476 43.0955 59.5502 44.3373 57.9696C45.579 56.3891 46.8965 52.7376 46.7464 49.9524C46.5962 47.1673 46.0687 43.0275 43.4344 42.8016C42.38 42.7265 41.402 43.5544 40.8745 43.6294C40.347 43.7045 38.9929 43.0933 37.2994 42.797C35.6059 42.5006 27.7395 41.8987 25.2181 43.2913C24.1644 43.9311 21.7932 47.9201 22.0563 51.7596C22.3194 55.5991 22.8091 58.0447 24.6155 58.8347C25.8167 59.3649 29.8815 58.9881 31.3524 58.8752Z" fill="#FFE0AB" stroke="#00212E" stroke-width="0.066439" stroke-miterlimit="10"/>
<path d="M35.6107 60.9673C37.529 60.9673 39.0841 60.171 39.0841 59.1887C39.0841 58.2064 37.529 57.4102 35.6107 57.4102C33.6923 57.4102 32.1372 58.2064 32.1372 59.1887C32.1372 60.171 33.6923 60.9673 35.6107 60.9673Z" fill="#FFE0AB" stroke="#00212E" stroke-width="0.066439" stroke-miterlimit="10"/>
</g>
<defs>
<clipPath id="clip0_2413_167241">
<rect width="24.7884" height="57" fill="white" transform="translate(22 4)"/>
</clipPath>
</defs>
</svg>
