<svg width="68" height="64" viewBox="0 0 68 64" fill="none" xmlns="http://www.w3.org/2000/svg">
<g clip-path="url(#clip0_2413_167932)">
<path d="M39.3632 22.0703C39.3632 22.0703 36.4747 36.8415 35.9766 43.915C35.4784 50.9885 35.3788 55.77 34.781 58.0614C34.1833 60.3528 32.6889 62.7438 31.6926 59.0576C30.6963 55.3715 30.0986 44.2139 29.8993 39.7314C29.7001 35.2488 30.3975 20.9298 30.3975 20.0195C32.5892 23.991 35.2792 25.3858 35.2792 25.3858L39.3632 22.0703Z" fill="#FFE0AB" stroke="#00212E" stroke-width="0.0646926" stroke-miterlimit="10"/>
<path d="M34.2828 4.05598L38.4665 4.20283C38.4665 4.20283 40.7269 4.53147 40.7269 8.05139C40.7269 11.5713 40.2617 18.2793 39.664 21.0022C39.0662 23.7251 36.4766 28.5712 35.0152 28.1747C33.5538 27.7781 31.6926 26.384 30.6297 23.5925C29.5668 20.801 27.9067 15.2905 28.0419 11.6379C28.1772 7.98541 28.6391 4.44349 29.8346 4.05598C30.8936 4.00034 34.2828 4.05598 34.2828 4.05598Z" fill="#FFE0AB" stroke="#00212E" stroke-width="0.0646926" stroke-miterlimit="10"/>
</g>
<defs>
<clipPath id="clip0_2413_167932">
<rect width="12.7574" height="57" fill="white" transform="translate(28 4)"/>
</clipPath>
</defs>
</svg>
