<svg width="68" height="64" viewBox="0 0 68 64" fill="none" xmlns="http://www.w3.org/2000/svg">
<g clip-path="url(#clip0_2682_227015)">
<path d="M28.5616 39.7468C28.5616 39.7468 30.3483 18.351 30.3483 13.5292C30.3483 8.70738 30.3483 -3.94699 34.8355 11.3862C39.3226 26.7193 39.523 32.5485 39.3894 43.933L34.1789 39.5134L31.353 39.3784L28.5616 39.7468Z" fill="#FFE0AB" stroke="#00212E" stroke-width="0.0674756" stroke-miterlimit="10"/>
<path d="M36.1242 60.9079C36.1242 60.9079 28.3895 61.0084 27.2849 58.6475C26.1804 56.2865 25.6271 52.3722 26.3808 47.9998C27.1345 43.6274 28.6884 35.2921 33.5129 35.7442C38.3374 36.1963 41.2976 41.9722 42.0007 48.902C42.7038 55.8317 42.3522 60.0523 40.0439 60.6049C37.7356 61.1576 36.1242 60.9079 36.1242 60.9079Z" fill="#FFE0AB" stroke="#00212E" stroke-width="0.0674756" stroke-miterlimit="10"/>
</g>
<defs>
<clipPath id="clip0_2682_227015">
<rect width="16.3581" height="57" fill="white" transform="translate(26 4)"/>
</clipPath>
</defs>
</svg>
