<svg width="68" height="64" viewBox="0 0 68 64" fill="none" xmlns="http://www.w3.org/2000/svg">
<g clip-path="url(#clip0_2682_227061)">
<path d="M22.7603 17.4258C22.7603 17.6692 22.0314 37.5197 22.7603 44.5684C23.4892 51.6171 24.0567 56.2358 24.8669 57.4508C25.6771 58.6658 27.7824 58.9092 28.0272 56.5599C28.2719 54.2105 29.2422 44.4911 29.8904 40.9227C30.5386 37.3542 31.8349 32.6582 33.05 32.8203C34.265 32.9823 35.4807 33.7926 35.8048 39.1401C36.1289 44.4877 35.8048 56.4202 36.2116 58.3533C36.6184 60.2863 37.4266 63.5279 39.8573 57.4508C42.288 51.3737 47.3935 32.9823 45.6096 20.1806C44.7994 18.236 42.8548 19.5324 42.8548 19.5324L28.4326 19.0463L22.7603 17.4258Z" fill="#FFE0AB" stroke="#00212E" stroke-width="0.0678023" stroke-miterlimit="10"/>
<path d="M22.9243 20.5864C22.27 19.4521 20.8177 13.0509 21.0611 11.1063C21.3045 9.16172 22.5195 3.99045 26.0825 4.26708C29.6455 4.54371 30.3764 6.00214 32.0776 5.67804C33.7788 5.35395 36.1288 5.34649 38.7222 4.2542C41.3157 3.1619 46.3384 6.3242 46.9059 8.5115C47.4735 10.6988 47.7196 17.0193 46.9059 19.3687C46.0923 21.718 46.8246 23.1771 42.6927 22.4476C38.5608 21.718 37.3452 20.9437 32.7258 21.615C28.1064 22.2862 24.14 22.693 22.9243 20.5864Z" fill="#FFE0AB" stroke="#00212E" stroke-width="0.0678023" stroke-miterlimit="10"/>
</g>
<defs>
<clipPath id="clip0_2682_227061">
<rect width="26.4619" height="57" fill="white" transform="translate(21 4)"/>
</clipPath>
</defs>
</svg>
