<svg width="68" height="64" viewBox="0 0 68 64" fill="none" xmlns="http://www.w3.org/2000/svg">
<g clip-path="url(#clip0_2413_167916)">
<path d="M28.0466 21.3892C28.0466 21.3892 30.9055 40.5975 31.3176 50.6949C31.7298 60.7923 34.512 64.9166 37.0878 56.2586C39.6635 47.6006 41.8279 33.3845 40.7971 17.7227C36.2635 20.6077 31.7298 20.0009 31.7298 20.0009L28.0466 21.3892Z" fill="#FFE0AB" stroke="#00212E" stroke-width="0.0690374" stroke-miterlimit="10"/>
<path d="M42.549 13.3013C42.549 8.18361 39.2172 4.03516 34.1512 4.03516C29.4367 4.03516 25.5278 8.43767 25.0673 13.5347C24.584 18.8506 29.5133 24.4564 34.1512 24.4564C38.7892 24.4564 42.549 18.4198 42.549 13.3013Z" fill="#FFE0AB" stroke="#00212E" stroke-width="0.0690374" stroke-miterlimit="10"/>
</g>
<defs>
<clipPath id="clip0_2413_167916">
<rect width="17.5838" height="57" fill="white" transform="translate(24.9998 4)"/>
</clipPath>
</defs>
</svg>
