<svg width="68" height="64" viewBox="0 0 68 64" fill="none" xmlns="http://www.w3.org/2000/svg">
<g clip-path="url(#clip0_2413_167877)">
<path d="M39.7971 39.75C39.7971 39.75 38.0107 18.3544 38.0107 13.5332C38.0107 8.71206 38.0107 -3.94509 33.5223 11.3926C29.034 26.7304 28.8344 32.5542 28.9684 43.9387L34.1783 39.5194L37.0046 39.3855L39.7971 39.75Z" fill="#FFE0AB" stroke="#00212E" stroke-width="0.0690516" stroke-miterlimit="10"/>
<path d="M32.2345 60.9072C32.2345 60.9072 39.9683 61.008 41.0731 58.6471C42.1779 56.2862 42.7303 52.3689 41.977 47.9994C41.2236 43.6298 39.6665 35.2939 34.8447 35.7441C30.0228 36.1943 27.0612 41.9725 26.3603 48.9032C25.6594 55.834 26.0088 60.0537 28.3193 60.6061C30.6297 61.1585 32.2345 60.9072 32.2345 60.9072Z" fill="#FFE0AB" stroke="#00212E" stroke-width="0.0690516" stroke-miterlimit="10"/>
</g>
<defs>
<clipPath id="clip0_2413_167877">
<rect width="16.3597" height="57" fill="white" transform="translate(26 4)"/>
</clipPath>
</defs>
</svg>
