<svg width="68" height="64" viewBox="0 0 68 64" fill="none" xmlns="http://www.w3.org/2000/svg">
<g clip-path="url(#clip0_2413_167910)">
<path d="M22.9255 18.5036C22.9255 18.5036 22.513 40.137 23.2559 46.9081C23.9988 53.6791 25.4032 57.8896 26.8897 57.4771C28.3762 57.0646 29.6959 55.9079 29.6959 52.2747C29.6959 48.6415 30.8519 36.6687 31.1824 35.4305C31.5128 34.1924 32.2557 32.8734 33.4118 32.8734C34.5679 32.8734 35.4763 35.6789 35.1466 38.4857C34.8169 41.2925 32.4212 54.0088 32.504 56.6514C32.5868 59.294 32.3109 62.8424 35.2146 59.7887C38.1183 56.7349 43.6928 48.1052 45.0548 35.5954C46.4169 23.0856 45.0548 18.503 45.0548 18.503L29.5727 14.9297L22.9255 18.5036Z" fill="#FFE0AB" stroke="#00212E" stroke-width="0.0672932" stroke-miterlimit="10"/>
<path d="M23.008 20.7342C23.008 20.7342 43.6926 23.335 45.0546 21.6009C46.4166 19.8667 47.4099 6.62883 42.6994 4.51583C40.7176 4.13696 39.2311 3.65649 38.1167 4.51583C37.0023 5.37516 35.392 7.12411 30.1896 4.51583C28.3343 3.88933 19.0445 6.98616 23.008 20.7342Z" fill="#FFE0AB" stroke="#00212E" stroke-width="0.0672932" stroke-miterlimit="10"/>
</g>
<defs>
<clipPath id="clip0_2413_167910">
<rect width="24.2168" height="57" fill="white" transform="translate(22 4)"/>
</clipPath>
</defs>
</svg>
