<svg width="68" height="64" viewBox="0 0 68 64" fill="none" xmlns="http://www.w3.org/2000/svg">
<g clip-path="url(#clip0_2413_167944)">
<path d="M39.536 21.3892C39.536 21.3892 36.6737 40.5975 36.2648 50.694C35.8559 60.7906 33.0705 64.913 30.4944 56.2579C27.9183 47.6027 25.7566 33.3844 26.7857 17.7227C31.3191 20.6075 35.8497 20.0037 35.8497 20.0037L39.536 21.3892Z" fill="#FFE0AB" stroke="#00212E" stroke-width="0.0681508" stroke-miterlimit="10"/>
<path d="M25.0342 13.2998C25.0342 8.18232 28.3654 4.03125 33.4317 4.03125C38.1464 4.03125 42.0555 8.43379 42.5162 13.5301C42.9974 18.8459 38.0694 24.4526 33.4317 24.4526C28.7941 24.4526 25.0342 18.4186 25.0342 13.2998Z" fill="#FFE0AB" stroke="#00212E" stroke-width="0.0681508" stroke-miterlimit="10"/>
</g>
<defs>
<clipPath id="clip0_2413_167944">
<rect width="17.5829" height="57" fill="white" transform="translate(25 4)"/>
</clipPath>
</defs>
</svg>
