<svg width="69" height="64" viewBox="0 0 69 64" fill="none" xmlns="http://www.w3.org/2000/svg">
<g clip-path="url(#clip0_2682_227034)">
<path d="M41.0406 42.9942C41.0406 42.9942 40.2394 25.6025 39.919 19.1908C39.5987 12.779 39.598 7.00796 39.4382 6.12615C39.2783 5.24434 38.8869 3.9223 37.4145 4.04286C35.9421 4.16341 35.2201 5.84576 34.9194 7.28835C34.6187 8.73094 33.3867 14.4417 31.7037 20.4525C30.0207 26.4633 28.4575 35.1195 28.8788 43.8956L31.0427 39.0267H34.6499L41.0406 42.9942Z" fill="#FFE0AB" stroke="#00212E" stroke-width="0.0677273" stroke-miterlimit="10"/>
<path d="M34.6491 60.9642C39.131 60.9642 42.7642 55.2184 42.7642 48.1305C42.7642 41.0427 39.131 35.2969 34.6491 35.2969C30.1673 35.2969 26.5341 41.0427 26.5341 48.1305C26.5341 55.2184 30.1673 60.9642 34.6491 60.9642Z" fill="#FFE0AB" stroke="#00212E" stroke-width="0.0677273" stroke-miterlimit="10"/>
</g>
<defs>
<clipPath id="clip0_2682_227034">
<rect width="16.2979" height="57" fill="white" transform="translate(26.5 4)"/>
</clipPath>
</defs>
</svg>
