<svg width="28" height="28" viewBox="0 0 28 28" fill="none" xmlns="http://www.w3.org/2000/svg">
<path fill-rule="evenodd" clip-rule="evenodd" d="M9.625 11.2803C9.625 8.86403 11.5838 6.90527 14 6.90527C16.4162 6.90527 18.375 8.86403 18.375 11.2803C18.375 13.6965 16.4162 15.6553 14 15.6553C11.5838 15.6553 9.625 13.6965 9.625 11.2803ZM14 8.78027C12.6193 8.78027 11.5 9.89956 11.5 11.2803C11.5 12.661 12.6193 13.7803 14 13.7803C15.3807 13.7803 16.5 12.661 16.5 11.2803C16.5 9.89956 15.3807 8.78027 14 8.78027Z" fill="#00212E"/>
<path fill-rule="evenodd" clip-rule="evenodd" d="M0.5625 14.4053C0.5625 6.98395 6.57867 0.967773 14 0.967773C21.4213 0.967773 27.4375 6.98395 27.4375 14.4053C27.4375 21.8266 21.4213 27.8428 14 27.8428C6.57867 27.8428 0.5625 21.8266 0.5625 14.4053ZM14 2.84277C7.61421 2.84277 2.4375 8.01948 2.4375 14.4053C2.4375 17.3696 3.55301 20.0734 5.38714 22.1197L5.76168 21.4643C7.04136 19.2248 9.42289 17.8428 12.0022 17.8428H15.9981C18.5774 17.8428 20.959 19.2248 22.2386 21.4643L22.6131 22.1195C24.4471 20.0732 25.5625 17.3695 25.5625 14.4053C25.5625 8.01948 20.3858 2.84277 14 2.84277ZM21.2107 23.4445L20.6107 22.3945C19.6648 20.7393 17.9046 19.7178 15.9981 19.7178H12.0022C10.0957 19.7178 8.33549 20.7393 7.38963 22.3945L6.78955 23.4447C8.76656 25.0238 11.273 25.9678 14 25.9678C16.7271 25.9678 19.2336 25.0237 21.2107 23.4445Z" fill="#00212E"/>
</svg>
